<?xml version="1.0" encoding="UTF-8"?><svg id="Layer_2" xmlns="http://www.w3.org/2000/svg" viewBox="0 0 2002 1080.67"><defs><style>.cls-1{fill:#b7681a;}.cls-2{fill:#d08d32;}.cls-3{fill:#d68a2d;}.cls-4{opacity:.26;}.cls-5{fill:#c17017;fill-rule:evenodd;}</style></defs><g id="bridge"><g><path class="cls-5" d="M1997.76,1.86c-17.47,11.61-36.75,19.73-55.65,28.55-11.69,5.45-24.39,7.26-36.99,7.65-12.55,.39-21.59,5.58-28.67,15.27-3.65,4.99-8.63,8.24-14.01,11-2.57,1.32-5.12,2.68-7.7,3.96-3.99,1.98-6.13,5.18-5.89,9.59,.43,8.05-3.58,13.94-8.88,19.3-3.75,3.78-7.7,7.38-10.94,11.64-2.42,3.19-5.78,4.77-9.62,5.45-7.42,1.33-13.22,4.57-16.38,11.97-1.66,3.9-5.24,6.52-8.64,9.08-15.78,11.88-31.54,23.78-47.27,35.72-3.24,2.46-6.89,4.05-10.68,5.34-4.44,1.51-8.66,3.46-12.76,5.7-5.56,3.05-8.52,7.7-8.22,14.11,.25,5.31,.8,10.61,1.05,15.92,.38,8.21,.66,16.42-2.52,24.28-1.24,3.08-.63,5.56,2.64,7.17,6.63,3.27,8.49,9.96,10.98,16.05,1.2,2.93-.16,4.93-3.51,4.77-11.45-.54-20.46,5.1-29.4,10.96-3.58,2.35-7.38,3.42-11.39,2.29-10.43-2.95-19.85-1.39-29.19,4.23-7.39,4.45-15.39,7.8-22.41,13.02-8.26,6.14-17.71,10.35-27.47,13.34-12.46,3.83-20.09,12.59-26.29,23.12-3.72,6.32-7.41,12.62-11.88,18.45-3.49,4.56-7.88,7.75-13.5,9.17-9.67,2.44-19.21,5.62-29.48,3.23-4.31-1-7.62,1.54-10.57,4.46-3.82,3.78-6.48,8.45-9.72,12.66-3.26,4.23-7.28,6.43-12.52,6.32-4.77-.1-9.26,.96-13.61,2.77-9.94,4.15-20.74,4.77-31.03,7.53-12.02,3.22-24.11,6.05-35.39,11.55-3.36,1.64-7.12,2.45-10.69,3.67-3.45,1.17-5.9,.36-7.68-3.06-7.06-13.6-17.15-24.86-28.71-34.66-11.86-10.05-24.65-18.94-38.27-26.54-9.3-5.19-18.58-10.45-28.44-14.58-1.88-.79-3.79-1.5-5.7-2.15-10.56-8.02-21.25-8.48-25.41-9.65-6.39-1.8-17.95-1-17.95-1l-15,1.06c-1.76-1.04-2.01-2.96-1.92-7.18,.06-2.57-.78-4.8-1.57-7.08-1.76-5.12-2.37-5.57-7.74-4.69-6.41,1.05-11.96,.14-15.82-5.71-1.37-2.07-2.88-2.08-5.05-.77-6.07,3.64-11.19,2.35-15.26-3.49-3.18-4.57-3.27-4.72-8.13-1.89-3.95,2.3-7.28,.49-10.71-1.01-1.87-.82-3.19-2.39-4.45-3.94-2.21-2.72-4.58-4.15-7.94-1.68-1.48,1.09-3.35,1.38-5.12,.98-7.73-1.74-15.96-2.36-21.47-9.24-1.15-1.43-2.53-1.75-4.11-.84-7.65,4.42-14.58,4.54-20.61-2.94-1.81-2.25-4.06-1.01-4.62,1.11-1.4,5.36-5.29,5.89-9.75,5.96-1.99,.03-3.99,.31-5.96,.66-5.01,.88-8.99,.14-11.82-4.91-2.2-3.92-4.68-3.77-6.64,.48-1.96,4.26-5.22,4.73-9.07,5.35-3.68,.58-6.71,1-9.57-2.4-2.31-2.74-5.03-2.18-7.23,.76-1.3,1.74-1.85,4.54-4.44,4.48-3.71-.09-7.58-.03-10.93-2.15-.93-.59-1.69-1.45-2.63-2.04-2.96-1.86-5.71-1.4-6.14,1.91-.93,7.1-6.07,7.9-11.35,9.04-4.11,.89-8.12,2.18-12.47,1.19-2.88-.66-5.58-1.34-7.64-3.65-1.53-1.71-3.3-3.16-5.8-2.15-2.23,.9-2.53,2.96-2.44,5.02,.21,4.57-2.26,6.9-6.37,8.06-1.7,.48-3.33,1.25-5,1.85-3.62,1.31-6.94,1.53-9.36-2.29-.99-1.56-2.45-2.78-4.47-1.94-1.93,.81-2.47,2.71-2.04,4.48,1.49,6.13-1.62,9.05-6.92,10.88-3.56,1.23-7.08,2.66-10.45,4.33-4.65,2.31-8.09,.44-11.34-2.69-1.59-1.53-2.35-3.31-1.25-5.37,1.38-2.61,1.64-5.05-.58-7.32-2.93-3-5.67-6.54-10.4-6.38-2.39,.08-4.97,.59-7.08,1.65-3.14,1.58-5.95,3.51-9.7,3.87-2.66,.25-3.39,2.59-2.33,5.07,.6,1.4,2.49,1.98,2.44,4.2-4.4,2.13-8.94,4.28-13.95,5.26-1.28,.25-2.94,.42-3.41-1.17-.54-1.84,.88-3.02,2.42-3.37,2.37-.54,4.82-.72,7.25-.9,2-.15,2.39-1.3,2.71-3.05,.64-3.48-2.06-5.74-2.81-8.69-1.01-4.02-4.26-3.89-7.48-3.72-1.88,.1-3.59-.47-4.73-1.99-2.66-3.58-5.95-2.52-9.61-2-7.52,1.09-14.94,3.17-22.72,2.31-2.29-.25-2.55-1.22-2.58-2.89-.17-8.15,8.55-16.27,16.66-15.56,1.31,.12,2.74,.56,3.93,.21,3.75-1.1,6.95-.44,9.96,2,1.61,1.3,3.32,2.23,5.07-.16,1.06-1.45,2.35-.51,3.42,.37,1.3,1.06,1.69,3.25,4.4,3.22,2.07-7.67,2.32-14.7-5.97-18.86,.65-2.47,2.19-2.04,3.44-2.02,7.01,.13,14.2-3.07,21.03,1.66,1.38,.95,4.32-.14,6.49-.58,3.51-.71,6.89-1.02,10.53-.41,4.73,.78,6.11-1.02,5.06-5.5-1.86-7.99-1.87-7.9-10.09-8.68-4.41-.42-8.82-.73-13.22-1.53-8-1.46-12.36,1.16-14.36,8.84-.71,2.72-1.91,3.15-4.09,2.98-2.48-.19-4.37-1.16-4.26-4.02,.07-1.76,.5-3.51,.62-5.28,.43-6.26,.34-5.6,6.41-4.97,4.29,.45,8.93-.77,13.17-2.04,2.24-.67,4.32-1.83,6.14-.14,3.23,3.01,6.14,1.16,9.22,.04,1.61-.59,2.78-1.48,2.65-3.34-.14-2.06-1.46-3.13-3.38-3.55-3.03-.66-6.07-1.3-9.09-1.97-1.29-.29-2.6-.56-3.85-.99-6.81-2.37-7.59-2.22-13.07,3.02-2.07-1.33-3.47-4-6.53-3.87-1.11,.04-2.05-.9-2.08-2.18-.03-1.32,.99-1.94,2.07-2.29,5.88-1.96,11.86-1.73,17.71-.11,4.02,1.11,7.97,1.87,12.24,1.52-9.09-8.46-18.69-15.78-30.87-19.93-.09-1.69,3.64-2.73,1.69-5.19-1.5-1.89-3.5-1.61-5.5-1.33-3.43,.49-5.68-.71-7.78-3.69-3.73-5.31-9.02-4.94-12.01,.66-1.04,1.94-2.4,2.91-4.13,3.98-3.9,2.38-4.33,3.9-1.54,7.29,2.51,3.04,1.83,4.64-1.44,5.93-2.33,.92-3.82,2.67-3.44,5.1,.52,3.29-1.22,5.17-4.61,6.98,8.64,1.91,16.01,2.35,23.95-1.69-2.87,4.94-9.68,8.91-13.5,8.62-4.03-.31-10.83,4.79-11.73,8.84-.25,1.14-.05,2.31,1.02,2.93,1.37,.81,2.59,.32,3.38-.99,.57-.94,.81-2.1,1.46-2.97,1.38-1.86,2.92-1.83,4.3,.06,.52,.71,.96,1.49,1.4,2.26,1.83,3.12,4.7,3.78,7.35,1.84,4.39-3.21,9.49-.06,13.94-2.13,.89-.42,2.01,.86,2.05,2.11,.05,1.42-1.02,1.84-2.21,1.9-.88,.05-1.84,.18-2.65-.08-4.78-1.57-8.43,.54-12.36,2.99-4.25,2.65-8.95,4.81-14.31,3.17-2.21-.68-4.33-.79-6.42,.46-1.59,.95-3.38,.97-5.18,.73-.44-.06-.92-.2-1.32-.09-11.28,3.16-23.16,1.62-34.51,4.49-3.93,.99-7.82,1.24-10.1,5.28-.77,1.36-2.54,1.64-4.12,1.88-1.52,.23-3.14,.4-4.48,1.08-1.88,.95-5.17,1.8-4.53,4.07,.82,2.92,3.8,1.05,5.73,.54,3.03-.79,5.66,.07,8.41,1.07,5.37,1.95,10.63,4.51,16.67,3.43,1.78-.32,3.47,.6,5.11,1.29,1.24,.52,2.8,1.33,3.83,.58,5.7-4.16,13.19,.09,18.89-4.22,1.15-.87,3.19-.14,4.14,1.25,.99,1.45-.45,2.37-1.26,3.35-1,1.19-2,2.38-3.04,3.53-3.26,3.62-4.71,7.46-1.65,11.98,.48,.71,.74,1.63,.91,2.49,.33,1.74,.86,3.88-1.25,4.65-2.59,.94-2.45-1.63-3.25-3.08-4.17-7.63-9.9-12.85-19.29-12.99-5.57-.08-11.06-.43-16.4,1.73-2.96,1.19-6.13,.83-9.22,.28-11.32-2.02-21.97,1.28-32.65,4.16-2.2,.59-3.67,2.41-5.07,4.17-1.39,1.73-2.89,3.37-4.26,5.11-2.9,3.71-6.41,4.46-10.58,2.32-4.43-2.28-8.45-1.19-11.47,2.27-11.95,13.71-27.51,23.04-41.47,34.3-5.1,4.12-7.91,8.8-7.09,15.46,.21,1.73-.02,3.55-.23,5.3-.33,2.83-1.96,4.67-4.88,4.28-6.68-.89-11.45,2.47-16.06,6.52-2.66,2.34-5.34,4.82-8.73,6.02-10.52,3.74-19.89,9.72-29.71,14.84-4.36,2.27-6.72,5.27-7.96,9.88-2.3,8.54-1.84,17.15-1.28,25.78,.15,2.23,.1,4.01-2.51,4.57-3.75,.8-7.25,2.03-10.6,3.54l-1.33-.69-.6,.44-23.03,5.93v-14.21c.76-.11,1.25-.44,1.36-1.09l-5.28-.22v16.55l-14.64,3.65,.92,3.65,13.72-3.54v7.67c-8.78,6.26-13.62,14.63-15.98,24.95-1.14,4.97-2.19,9.96-3.1,14.98-.76,4.21-2.78,7.21-6.61,9.38-8.33,4.73-16.99,8.71-25.97,11.98-11.2,4.08-15.53,9.8-16.05,21.73-.09,1.99,.01,4.01-.23,5.98-.51,4.18-1.74,5.62-5.96,5.54-5.73-.11-11.03,.88-15.92,3.89-3.01,1.85-5.86,1-8.87-.27-8.42-3.57-10.69-2.69-14.78,5.29-.81,1.58-1.54,3.2-2.38,4.76-5.92,10.94-15.23,17.61-27,20.98-4.26,1.22-8.66,1.95-13.02,2.82-2.41,.48-4.89,.85-6.92,2.26-4.06,2.81-8.56,3.34-13.33,3.25-6.89-.12-13.76-.16-20.62-1.07-6.24-.83-12.44-.11-18.5,1.48-5.04,1.32-10.01,1.46-15.15,.59-12.49-2.12-25.24-1.66-37.78-3.57-9.01-1.38-18.03-2.83-26.82-5.13-8.91-2.34-17.89-3.4-27.02-3.22-4.35,.08-7.66-1.12-10.24-4.83-4.27-6.14-10.32-9.73-17.76-10.61-4.23-.5-6.11-2.77-7.04-6.71-1.19-5.03-2.13-10.09-1.09-15.14,1.31-6.36,1.03-12.81,1.75-19.19,.53-4.75-1.16-6.07-5.8-4.85-3.47,.92-6.53,2.77-9.59,4.59-2.19,1.3-4.22,1.35-5.9-.81-4.18-5.39-10.18-5.89-16.25-5.85-4.21,.03-8.41,.53-12.62,.89-7.2,.62-10.72,3.81-12.19,10.95-.27,1.3-.57,2.61-.69,3.93-.49,5.28-3.38,8.78-8.39,9.97-7.75,1.84-11.16,6.59-11.02,14.33,.05,2.76-1.08,5.18-2.8,7.32-1.56,1.95-2.77,4.11-2.75,6.64,.02,3.15-1.22,5-4.45,5.52-4.06,.66-8.49,3.07-11.77-1.14-3.81-4.9-8.66-8.98-11.61-14.53-1.86-3.5-4.92-4.93-8.68-5.29-10.09-.95-19.03,1.96-26.27,8.9-4.27,4.09-8.46,6.3-14.28,4.01-1.69-.66-3.49-.57-5.24-.01-3.53,1.12-4.54,2.84-3.77,6.47,1.03,4.86,1.06,4.95-3.75,6.09-5.4,1.27-10.85,2.36-16.28,3.53v75.86c7.82-1.36,15.71-1.24,24.45-1.56-2.94,6.08-5.42,11.41-8.07,16.65-3.79,7.5-7.36,15.09-10.39,22.94-1.28,3.3-2.85,6.5-5.99,8.55,0,125.55,0,251.09,0,376.64H2002V0c-1.42,.61-2.97,1.02-4.24,1.86ZM555.08,448.19v-6.04l14.63-3.82c-4.95,3.13-9.73,6.6-14.63,9.86Zm305.48-107.96c-4.92,1.51-10,1.98-15.13,1.83-3.77-.11-7.54-.24-11.31-.4-6.23-.26-11.82,1.45-16.76,5.3-1.57,1.22-3.21,2.42-5,3.26-3.64,1.71-6.63,1.07-8.92-1.82-9.29-11.78-16.53-24.61-19.81-39.41-.14-.65-.36-1.28-.45-1.94-.22-1.49,.16-2.95,1.87-2.81,2.95,.23,4.99-1.44,7.29-2.73,3.1-1.74,6.32-1.9,9.51-.08,1.54,.88,3.27,1.51,4.62,2.61,4.95,4.05,10.68,5.12,16.85,4.93,1.99-.06,4,.05,5.98,.25,3.04,.31,5.5,1.64,6.94,4.49,.9,1.79,1.75,3.74,3.47,4.8,3.72,2.29,6.22,4.91,4.44,9.69-.3,.8,.17,1.99,1,2.29,5.39,1.95,9.11,8.2,16.04,6.24,.8-.23,1.73-.03,2.6,.02,.17,0,.32,.26,.54,.46-.2,2.32-2.18,2.56-3.76,3.04Zm213.31,292c-4.25,.49-7-.15-9.4-4.04-2.86-4.63-6.59-8.36-10.8-11.52,1.25-2.9,2.52-5.46,3.76-6.92l16.98-14.44,9.86-6.81c-1.17,5.24-4.02,8.39-6.86,10.32-3.46,2.64-2.85,3.76-1.17,6.76,1.58,2.9,2.59,3.92,3.76,8.14,1.75,4.83,5.19,6.71,6.1,14.44l.86-.05c0,.62,.02,1.38,.35,2.07-4.47,.76-8.95,1.54-13.45,2.06Zm41.51-5.39c-1.43,.55-3.03,1-4.53,.95-5.59-.16-11.1,.42-16.57,1.25-.86-.71-1.24-.85-1.69-1.89-3.58-5.25-4.66-9.91-6.17-13.13-2.39-5.34-2.19-8.49,2.03-12.41,6.15-4.42,8.7-10.12,15.15-14.03,3.41,.66,7.78,5.54,19.83,3.76l3.97,10.98c1.47,4.02,1.88,9.81,1.78,14.29,.04,1.73,.09,3.55,.1,5.29-4.55,1.83-9.32,3.16-13.89,4.93Zm20.35-17.4l-.63,9.68c-.76,.44-1.54,.84-2.32,1.22,0-2.9,.05-6.18,.41-7.24,1.37-3.71,1.07-7.27,.41-9.36-1.68-5.24-.56-8.9-1.12-13.93,1.92,.07,3.51-.56,4.47-.2-1.98,7.07-2.08,12.46-1.22,19.83Zm43.59-126.23c-2.23,3.5-2.21,7.67-2.36,11.61-.55,13.56-3.19,26.83-4.93,40.23-1.75,13.47-2.06,26.86,2.26,40.12,3.09,9.48-.9,17.8-6.11,25.54-.69,1.03-2.02,1.73-3.18,2.33-6.68,3.49-13.39,6.91-20.09,10.35-1.83,.94-3.82,1.67-5.47,2.83,1.3-8,1.93-17.81,4.01-21.94,5.85-14.7,7.68-11.95,9.71-15.2,5.9-9.56,1.32-16.37,1.68-17.14,2.39-5.54,1.37-10.93,.2-14.85-.66-8.7-2.02-10.96-4.98-16.17-1.07-2.19-3.2-2.08,1.83-5.19,4.93-2.19,5.54-11.14,4.27-12.81-1.17-.15-7.11,3-9,6.36-.92,.81,.2,3.66-4.93,2.59,5.44-6.76,10.73-7.47,12.51-10.68,10.73-9.92,7.98-29.75,5.19-29.29,.97,4.12,1.37,7.68,.71,11.29-.76,.15-1.98-8.08-9.36-10.27-.86,1.07,14.19,8.39,3.86,24.41-2.59,3.71-4.32,2.49-5.7-.1-2.49-8.39-4.22-13.27-8.75-18.61-.97,.46,9.2,17.95,4.27,18.47-3.6-2.05-9.61-1.03-11.44-3.57-.2,.61,.31,2.75,1.98,3.1,2.8,.05,13.98,3.92,14.14,5.19-1.78,.76-4.63,3.92-5.9,4.17-1.27,.56-1.98-2.39-2.34-2.34-.56,.25,1.07,5.24-2.64,6.92-.56,.25-3.2,.56-3.36-.1-.46-3.31-2.39-1.78-2.54-7.22-.66-.15-.76,4.02-1.32,3.05-.15-2.19,1.27-8.19,1.32-12.81,4.42-3,8.19-13.61,6-14.64-.76,3.41-3.98,12.73-7.22,12.41-2.59-1.47-5.54-8.19-7.22-12.92-1.98,1.07,2.19,12.15,5.39,14.34,1.07,.97-.05,12.56-1.42,12.81-9.58,2.15-15.31-13.98-14.03-21.76-1.88,.46-4.83,10.02,4.27,20.24-.86,2.29-8.51-.19-10.88-6.92-1.47,2.8,2.08,10.12,12.92,10.78,.64,3.31-.25,5.75,6.92,10.17-2.49,1.37-2.95,3.31-4.78,5.08-2.95,.62-5.54,3.71-2.59,6.46-.2,.81,1.29,1.82,3.81,1.98,2.19,.36,3.61-1.17,6.31-.41,1.17-.05,3,6.25,2.03,6.92-3.12,1.25-4.73,3-9.15,3.66-11.85,.76-13.98-.97-26.54-.51-3.72-1-6.97-.97-10.27,.61-6.36,.05-11.14,3-15.66,6.31-4.83,3.92-1.88,15.2-2.49,22.73-.81,7.32-3.46,11.08-12.56,16.93-1.47,.86-2.03,7.42-4.93,12.66-.67,1.16-1.21,2.19-1.68,3.14-1.85-1.15-3.76-2.23-5.7-3.25-7.29-3.84-14.04-8.52-21.06-12.76-6.33-3.83-10.7-9.24-10.71-17.25,0-2.85-.13-6.06-3.97-6.7-3.28-.55-5.53,1.05-7,3.9-.3,.59-.61,1.19-.97,1.74-.99,1.52-2.07,3.02-4.18,2.71-2.06-.3-3-1.97-3.39-3.7-.82-3.67-1.27-7.43-2.04-11.11-1.5-7.25-3.13-8.62-10.67-8.68-3.33-.02-5.28-1.6-5.22-4.68,.26-12.65-2.59-24.56-7.47-36.16-1.05-2.5-.59-5.69-.62-8.56-.02-1.79-.02-3.59-.06-5.38,1.65,.55,3.17,1.1,4.48,1.64l1.63-3.81c-1.86-.73-3.98-1.45-6.28-2.15-.13-2.08-.35-4.15-.75-6.21-1.37-7.17-7.42-10.27-13.84-6.78-3.57,1.94-6.42,4.51-7.91,8.06-1.94-.29-3.87-.55-5.74-.76l-1.31,3.59c1.97,.23,4.01,.52,6.07,.86-.03,.21-.06,.42-.08,.64-.23,2.65-.41,5.31-.75,7.94-.36,2.81-2.01,3.77-4.72,2.95-2.8-.84-5.32-2.23-7.6-4.03-3.96-3.11-8.23-4.1-13.09-2.26-4.25,1.61-8.19,.88-12.01-1.65-6.01-3.99-12.51-6.7-19.91-6.68-2.35,0-4.47-.89-5.7-2.9-3.25-5.31-6.65-10.62-3.75-17.32,1.14-2.63,1.72-5.55,3.11-8.03,5.65-10.11,9.25-21.07,13.45-31.77,10.43-26.53,28.72-46.43,51.78-62.58,13.48-9.44,28.38-15.3,44.06-19.89,25.95-7.58,52.21-12.36,79.36-11.63,7.14,.19,14.21,.61,21.01,2.9,12.62,4.25,25.5,7.92,37.72,13.12,18.6,7.91,34.43,20,47.68,35.34,3.87,4.48,5.08,9.74,4.83,15.49-.6,7.28-1.42,14.55-3.33,21.63-1.75,6.51-1,12.41,2.01,18.61,3.37,6.95,5.11,14.61,5.56,22.44,.26,4.49-.16,8.79-2.7,12.77Zm-47.81,37.2c-.61-.92-1.93-.51-1.88-1.27,1.47-.36,4.12,.97,2.24,3.46,.15-.66,.15-1.58-.36-2.19Z"/><path class="cls-5" d="M535.97,399.37c.92,.76,2.23,2.12,2.83,2.94,7.89-4.52,16.17-12.47,20.96-18.29,5.55,4.46,14.32,12.74,19.11,18.29l3.32-2.89c-5.06-5.61-13.99-13.72-19.92-18.45,4.46-5.82,7.95-11.81,10.89-18.72,.33-.11,.6-.33,.71-.6l-3.16-1.8-.71,.27h-28.85v3.7h26.73c-4.9,11.81-16.82,27.27-31.9,35.55Z"/></g><g id="_4KmG6.tif"><g><path class="cls-1" d="M0,593.38c2.33-1.86,4.66-3.74,7-5.59,.97-.77,2.03-1.6,2.27-2.8,.78-4,3.58-4.28,6.94-4.47,8.75-.49,17.57,.57,26.26-1.03,4.8-.88,9.6-1.82,14.3-3.1,6.4-1.73,13.44,3.46,13.07,10.24-.2,3.64,.01,7.31,.07,10.97,.05,3.48,1.72,5.06,4.76,3.7,6.8-3.05,13.36-6.7,17.54-13.2,1.99-3.09,3.95-6.1,7.79-6.63,6.22-.86,7.82-5.29,8.74-10.4,.28-1.52,.63-3.09,.52-4.61-.29-4.21,2.18-7.04,4.62-9.95,1.46-1.74,2.56-.54,3.63,.37,4.66,3.94,9.34,7.86,13.9,11.9,4.93,4.37,10.49,7.79,16.15,11.1,4.62,2.71,9.9,2.98,15.66,4.23-7.56,2.11-11.58,6.11-12.38,13.74-.58,5.51-.78,11.28-3.38,16.5-.94,1.9-2.04,3.06-4.21,3.12-1.44,.04-2.88,.34-4.31,.3-10.17-.24-19.7,2.47-29.09,6.01-2.37,.89-4.93,1.3-7.37,2.01-5.53,1.62-7.02,3.53-7.23,9.22-.07,1.99,.18,4.03-.12,5.98-.76,4.85,1.67,7.8,5.28,10.57,7.29,5.6,15.19,8.8,24.56,8.7,6.91-.07,13.84,.74,20.78,1.43-1.5,1.1-3.24,1.2-4.93,1.33-4.02,.3-6.42,2.48-7.93,6.1-3.11,7.46-3.13,15.36-3.39,23.21-.2,6.09-.09,12.19-.08,18.29,0,1.61-.21,3.03-1.47,4.23-4.1,3.9-8.14,7.86-12.21,11.79-1.66,1.6-3.61,2.41-5.96,2.58-10.21,.74-20.43,.52-30.63,.28-5.66-.13-10.7-2.65-15.36-5.84-5.98-4.1-8.33-3.02-12.17,.83-6.65,6.67-14.5,11.21-24.21,11.99-3.34,.27-5.86-1.84-8.9-2.41-5.14-.97-10.15-2.45-14.39-5.74-3.36-2.61-3.33-3.13,.14-5.31,8.9-5.58,9.35-9.31,2.02-16.81-2.09-2.14-4.2-4.25-6.31-6.38,0-35.48,0-70.97,0-106.45Z"/><path class="cls-1" d="M1727.84,584.63c.04-2.57-1.2-2.33-2.83-1.9-8.19,2.2-16.01,5.33-23.44,9.39-16.17,8.83-32.2,17.88-48.03,27.32-12.19,7.27-24.79,13.86-37.19,20.78-4.06,2.27-7.59,2.15-11.11-1.33-4.29-4.23-9.39-7.22-15.1-9.47-6.2-2.45-10.84-7.3-15.06-12.33-2.99-3.56-5.59-7.45-8.35-11.2-1.25-1.7-1.29-3.67-1.44-5.69-1.68-22.82,3.51-44.66,8.99-66.54,3.76-15.03,6.69-30.27,7.4-45.84,.32-7.12,2.94-10.14,10.85-10.7,8.06-.56,14.54-4.38,21.26-8.01,2.6-1.4,3.21-3.81,3.56-6.39,.69-5.16,1.41-10.32,1.96-15.49,.21-2.03,1.08-2.81,3.09-3.09,6.86-.94,7.54-1.79,7.7-8.61,.02-1,.12-1.99,.16-2.99,.09-2.84,1.22-4.54,4.4-4.49,5.11,.08,7.25-3.56,9.09-7.53,1.82-3.93,2.45-4.03,4.92-.56,5.53,7.78,8.54,16.46,9.27,25.97,.3,3.83,.5,7.68,1.75,11.54,.48-.21,.84-.25,1-.45,8.25-10.3,16.35-20.73,24.78-30.89,4.62-5.57,5.51-12.18,6.54-18.86,.25-1.62-.1-3.94,1.52-4.44,1.87-.59,2.9,1.67,3.94,2.97,6.21,7.77,12.56,15.46,16.56,25.1,3.43-4.13,5.2-8.68,5.23-13.73,.06-12.19,.51-24.39-.46-36.57-.14-1.8-.5-3.56-1.5-5.05-2.63-3.91-3.96-8.41-5.91-12.62-2.51-5.43-3.7-11.1-3.33-17.11,.23-3.67-.32-7.32-.96-10.91-.38-2.15,.18-3.68,1.61-5.07,3.96-3.88,6.44-8.71,8.85-13.59,1.82-3.7,2.28-7.61,1.79-11.66-.29-2.39-1.33-4.14-3.75-4.99-1.58-.56-2.73-.46-3.71,1.04-4.93,7.5-9.91,14.98-14.88,22.46-.54,.81-.45,1.67-.45,2.56,.04,7.43-.11,14.86,.13,22.28,.12,3.6-1.4,5.85-4.3,7.58-3.56,2.12-7.49,3.35-11.31,4.85-2.29,.9-4.5,1.95-6.41,3.48-11.22,8.99-23.6,16.16-36.07,23.21-8.28,4.68-17.47,5.48-26.62,6.49-2,.22-3.91-.69-5.72-1.56-2.2-1.06-4.36-2.21-6.58-3.21-6.3-2.82-12.26-3.08-18.11,1.49-8.04,6.28-16.43,12.12-24.53,18.33-3.73,2.85-6.63,6.54-8.9,10.67-7.54,13.73-15.73,27-26,38.91-3.56,4.12-7.18,8.16-11.2,11.84-1.99,1.82-4.32,2.71-6.95,2.78-6.77,.18-13.55,.35-20.29-.67-4.34-.65-5.05-1.96-2.7-5.64,3.23-5.07,7.39-9.42,11.44-13.83,7.05-7.69,12.9-16.37,20.16-23.9,4.35-4.51,8.94-8.65,14.24-11.95,10.19-6.34,18.82-14.3,26.47-23.56,6.02-7.28,13.74-12.93,21.29-18.56,11.22-8.37,22.2-16.94,31.1-27.88,1.21-1.48,2.82-3.7,3.71,.39,.33,1.52,1.82,1.77,3.13,2.09,5.52,1.33,10.75,.34,15.94-1.7,7.67-3.01,14.72-7.27,22.17-10.7,8.57-3.95,17.23-7.64,26.17-10.72,7.05-2.44,13.51-6.16,19.89-9.99,1.65-.99,2.5-2.41,2.75-4.31,.16-1.2,.46-2.4,.85-3.55,1.47-4.3,1.16-4.79-3.53-4.38-4.36,.38-8.34,2.24-12.48,3.46-2.75,.81-5.49,1.61-8.5,1.74,3.56-8.91,40.1-27.11,50.68-25.3-.68,2.33-2.89,3.56-4.04,5.47,8.08,0,16.02-.05,23.95,.03,2.44,.02,4.57-.86,6.69-1.8,1.73-.77,2.71-.33,3.88,1.16,3.78,4.79,5.46,10.31,6.37,16.2,1.75,11.37,6.6,21.19,14.21,29.89,3.62,4.14,7.52,4.89,12.58,4.31,10.61-1.23,19.68-6.57,29.43-10.16,12.11-4.46,20.74-13.37,30.44-21.05,6.48-5.14,11.34-11.85,17.6-17.18,1.94-1.65,1.86-4.25,1.68-6.54-.25-3.3-.44-6.74-1.92-9.74-3.88-7.88-3.96-16.3-3.64-24.72,.1-2.7-.83-3.26-3.14-3.8-12.04-2.81-24.18-4.16-36.55-3.27-2.15,.15-4.17,.5-6.1,1.45-6.18,3.05-12.57,5.59-19.18,7.57-4.5,1.35-8.6,3.54-12.42,6.27-.7-.61-.16-1.09,.06-1.43,9.7-15,19.54-29.9,31.04-43.61,7.89-9.41,9.95-20.55,10.08-32.27,.04-3.8-1.04-4.5-4.99-4.41-2.36,.05-4.7,.28-6.67,1.72-11.32,8.25-22.3,16.87-31.05,27.97-2.24,2.83-3.59,6.1-5.01,9.35-2.18,4.98-5.71,8.94-9.5,12.71-1.82,1.81-2.91,1.61-4.05-.89-2.17-4.73-1.56-9.51-.88-14.34,.16-1.16,.89-2.02,1.72-2.77,8.73-7.88,15.39-17.41,21.87-27.1,5.92-8.84,11.51-17.91,18.13-26.27,3.43-4.34,7.92-7.42,12.07-10.91,1.11-.93,2.51-.89,3.8-1.03,8.06-.83,16.13-1.53,24.2-2.36,2.03-.21,3.53,.4,5.14,1.67,3.64,2.87,6.5,6.28,8.88,10.23,5.29,8.8,13.17,15.2,20.76,21.85,.31,.27,.76,.36,1.52,.71-.59-6.53-3.25-12.4-3.34-19.41,7.11,12.12,15.02,22.93,19.46,35.74,5.95,17.17,12.97,33.94,20.18,50.62,1.75,4.04,4.37,7.56,7.5,10.5,10.81,10.14,18.14,22.53,24.45,35.72,3.61,7.54,8.87,14.04,14.37,20.31,1.95,2.22,4.52,3.18,7.25,3.77,3.57,.77,5.26,2.83,5.3,6.5,.04,4-.06,7.93-.89,11.89-3.05,14.63-6.41,29.23-7.31,44.21-.29,4.86-.37,9.75-.35,14.62,.02,5.22,3.21,8.81,6.72,12.15,4.85,4.61,10.26,8.47,16.04,11.82,.77,.45,1.5,.96,2.28,1.38,3.52,1.91,4.99,4.56,4.95,8.84-.23,23.39,.04,46.79-.16,70.19-.16,19.06-1.22,38.09-2.86,57.1-.74,8.59-.42,17.28-.35,25.93,.02,2.85-1.04,3.79-3.76,4.2-13.15,1.98-25.2-.76-36.16-8.12-7.18-4.83-14.2-9.9-21.21-14.98-5.27-3.82-11.1-6.58-17.17-8.69-6.53-2.26-11-6.45-13.89-12.55-.85-1.8-1.92-3.54-2.51-5.42-3.03-9.63-10.42-12.9-19.61-13.57-7.38-.54-14.7-.66-21.15,3.91-.52,.37-1.23,.5-1.86,.7-4.13,1.35-4.68,.89-5.33-3.43-.73-4.87,.03-9.52,1.73-14.02,2.24-5.91,4.36-11.88,7.08-17.57,6.56-13.71,10.66-28.4,17.3-42.1,8.21-16.94,17.78-32.96,29.47-47.71,2.7-3.4,5.26-6.91,7.05-10.86,3.43-7.59,7.28-14.95,11.44-22.15,1.31-2.26,1.21-3.95-.47-5.96-3.5-4.19-5.84-9.13-8.57-13.83-3.65-6.29-4.2-12.91-2.15-19.57,2.13-6.93,2.52-13.93,2.39-21.03-.11-5.64,.62-11.31-.5-16.91-.28-1.38-.38-3.16-1.92-3.64-1.68-.53-2.52,1.18-3.38,2.22-5.65,6.75-12.98,11.45-20.21,16.17-10.71,6.97-21.17,14.28-31.2,22.16-9.11,7.14-19.51,12.4-28.38,19.81-6.68,5.58-13.6,10.67-21.42,14.53-6.88,3.39-13.76,6.69-21.43,7.98-6.73,1.14-10.98,6.41-16.18,10.04-8.74,6.1-16.24,13.79-25.1,19.76-2.57,1.74-5.11,3.54-7.61,5.37-2.59,1.9-3.64,4.58-3.98,7.72-1.41,12.99-.78,25.84,1.62,38.7,1.43,7.67,3.48,15.09,6.41,22.3,1.76,4.34,2.74,8.9,3.28,13.53,.54,4.73,.79,9.49,1.31,14.23,.37,3.34-.26,6.24-2.32,9.03-2.9,3.91-5.4,8.12-8.16,12.14-1.35,1.96-1.64,3.94-1.24,6.28,1.13,6.64,3.01,13.22,1.82,20.08-.24,1.42-.28,2.9-.74,4.24-3.78,10.96-8.74,21.48-12.06,33.05Z"/><path class="cls-1" d="M581.49,622.05c.76,6.79-.24,14.05,4.62,19.67,8.31,9.6,9.51,21.15,9.65,33.04,.11,9.87,.09,19.74,.07,29.6,0,1.7,.19,2.87,2.24,3.36,16.11,3.79,15.7,4.33,28.2,17.52,1.1-1.11,1.09-2.5,1.23-3.88,.48-4.76,1.5-9.39,3.43-13.79,.91-2.08,1.69-2.32,3.49-.46,7.55,7.83,10.77,17.11,10.15,27.85-.08,1.44-.04,2.88,0,4.32,.11,3.98-1.47,8.58,4.29,10.93-4.36-2.76-6.48-.22-9.19,2.3-5.91,5.51-11.96,10.96-19.69,13.98-1.45,.57-1.61,1.71-1.4,2.99,.4,2.44,1.2,4.82,2.82,6.66,2.22,2.52,2.05,5.13,1.23,8.06-2.76,9.81-6.26,19.38-9.66,28.97-1.53,4.33-2.51,8.69-2.44,13.3,.15,9.55-.45,19.04-2.44,28.4-.41,1.93-.04,3.07,2.24,2.76,2.58-.36,2.09,1.14,1.52,2.59-1.42,3.62-3.36,6.98-5.4,10.29-2.04,3.31-3.86,6.73-5.3,10.34-1.39,3.49-1.14,3.86,2.36,4.83,2.18,.61,4.4,.52,6.6,.74,3.32,.33,4.15,1.3,3.4,4.53-.97,4.2-2.14,8.35-3.24,12.52-1.15,4.36,0,7.65,3.92,10.25,3.51,2.33,6.92,4.86,10.69,6.73,5.32,2.64,10.23,5.76,14.38,10.04,2.43,2.5,5.7,2.85,8.94,2.94,4.77,.14,9.57-.18,14.33,.18,8.53,.65,15.24-2.8,21.33-8.32,5.92-5.37,12.02-10.55,19.65-13.47,3.13-1.2,6.23-1.37,9.42-.26,3.85,1.34,4.23,1.1,4.49-3.01,.49-7.74,.88-15.48,1.37-23.22,.1-1.65,.37-3.3,.74-4.91,.68-2.95,2.27-4.84,5.6-5.21,3.96-.44,7.91-1.11,11.8-1.98,2.44-.55,2.88,.36,2.87,2.48-.06,9.76,.1,19.52-.09,29.27-.06,3.29,.91,5.33,3.91,6.88,8.44,4.37,14.3,10.98,17.16,20.22,1.37,4.43,3.16,8.76,6.12,12.47,1.44,1.8,.66,2.36-1.28,2.71-4.77,.85-9.22-1.03-13.82-1.55-2.77-.31-5.53-.68-8.29-.51-6.71,.4-12.04-2.4-16.79-6.76-2.45-2.25-4.83-4.6-7.47-6.62-4.73-3.62-7.81-3.29-11.88,.98-7.96,8.35-16.98,15.22-27.47,20.14-4.85,2.27-10.08,2.44-15.22,3.26-8.87,1.41-17.35,4.54-26.24,5.94-3.02,.48-5.53-.09-7.58-2.3-5.48-5.93-12.25-7.74-20.26-8.23-14.46-.9-28.19,2.45-42.1,5.12-10.01,1.92-20.03,3.82-30.04,5.75-4.61,.89-8.84,2.87-13.16,4.59-4.53,1.81-9.06,3.69-13.98,4.11-6.88,.59-9.61-2.37-8.71-9.31,1.02-7.83,4.82-14.69,7.86-21.78,5.41-12.62,11.17-25.09,16.84-37.6,5.29-11.67,8.09-24.14,11.34-36.4,6.88-25.88,14.4-51.54,23.3-76.8,1.04-2.96,.53-5.68-.52-8.39-1.16-2.99-1.84-6.61-3.99-8.64-1.97-1.87-5.76-.91-8.71-1.4-6.09-1.01-12.19-.37-18.29-.49-5.48-.1-8.92,2.52-10.94,7.5-1.88,4.63-3.63,9.28-4.99,14.08-1.22,4.31-1.6,4.4-5.05,1.5-4.25-3.57-8.59-7.03-12.62-10.83-3-2.83-4.65-5.85-2.29-10.5,1.94-3.84,1.3-8.51-1.01-12.46-4.77-8.17-11.45-14.74-18.81-20.47-4.38-3.41-6.41-7.41-6.53-12.69-.08-3.54-1.3-6.71-3.06-9.72-3.48-5.97-6.19-12.25-8.12-18.89-.49-1.67-.22-2.24,1.53-2.13,1.66,.11,3.33,.15,5,.12,2.76-.04,4.62,1.21,5.78,3.68,1.41,3.01,2.9,5.98,4.96,8.63,2.19,2.83,4.93,4.27,8.58,4.24,6.44-.06,12.89,.08,19.33,.1,2.26,0,4.39,.59,6.49,1.34,.74,.27,1.63,.61,1.49,1.5-.08,.51-.8,1-1.33,1.34-1.46,.93-3.14,1.03-4.81,1.15-1.77,.13-3.54,.29-5.32,.37-7.31,.33-9.23,2.43-8.78,9.66,.31,4.97,3.45,7.59,9.69,7.83,6.55,.25,12.79-.88,18.58-4.2,5.08-2.91,7.25-2.67,10.96,1.84,4.17,5.09,9.65,7.61,16.11,9.42-.13-2.46-.28-4.72-.37-6.98-.45-12.6,1.44-24.95,4.18-37.18,.55-2.45,0-3.76-2.18-4.73-2.94-1.31-5.81-2.78-8.75-4.07-2.38-1.04-3.79-2.84-3.91-5.33-.15-3.24-2.05-4.5-4.86-4.85-8.45-1.05-16.83-1.02-24.97,2-4.12,1.53-4.49,1.21-5.72-3.07-1.21-4.2-1.06-8.56-1.77-12.82-.75-4.48-2.93-8.01-6.38-10.94-8.45-7.17-18.27-11.16-29.11-13.02-4.6-.79-9.03-2.28-13.42-3.86-5.37-1.93-9.62-5.06-11.43-10.74-.55-1.72-1.42-2.22-3.22-1.45-8.26,3.52-16.55,7-25.16,9.62-1.1,.34-2.37,.69-3.09,2.16,1.62,1.28,3.67,1.37,5.51,1.68,12.26,2.02,23.82,6.02,34.91,11.58,3.24,1.62,5.01,3.86,5.03,7.48,.02,3.22,.05,6.43,.15,9.64,.25,8.26-.86,16.61,1.86,24.6-1.45,.7-2.01-.23-2.65-.69-3.79-2.72-7.65-5.34-11.8-7.48-4.13-2.14-6.47-5.47-7.59-9.95-1.08-4.31-1.86-8.65-2.45-13.05-.64-4.75-2.32-6.35-7.08-6.8-6.95-.67-13.81-2.07-20.84-2.26-3.23-.09-4.91,.89-6.42,3.81-2.07,4.01-2.04,7.81-1.58,12.16,1.56,14.64,11.16,22.21,23.32,27.79,3.53,1.62,7.13,3.09,10.62,4.79,15.16,7.38,27.21,18.17,35.86,32.68,2.96,4.97,6.5,9.52,10.38,13.81,1.02,1.13,2.29,2.1,2.84,3.95-2.05,.4-3.71-.42-5.25-1.31-15.06-8.73-30.5-16.93-42.61-29.85-8-8.55-18.1-13.31-29.22-16.39-7.35-2.04-14.96-3.33-21.71-7.25-4.48-2.6-8.09-6.21-11.84-9.64-1.79-1.64-2.37-3.95-2.5-6.35-1.04-19.06-.31-38.13-.48-57.2,0-.97,.22-2,.57-2.91,.56-1.48,1.43-3.09,3.03-3.28,1.92-.23,1.89,1.87,2.4,3.08,2.52,6.01,7.31,10.25,11.5,14.95,1.18,1.32,2.6,.92,3.96,.19,2.07-1.12,3.8-2.7,5.45-4.34,6.48-6.43,14.48-10.58,22.3-15,1.67-.94,3.54-1.22,5.46-1.23,6.11,0,12.22-.13,18.33-.07,2.35,.02,3.93-.79,5.25-2.78,1.46-2.21,3.28-4.18,4.98-6.23,1.85-2.22,3.66-4.45,4.64-7.44,1.06,4.34,3.9,8,4.4,12.45,.26,2.31,1.14,1.94,2.49,1.05,.98-.66,1.36-1.75,1.77-2.76,2.34-5.65,5.47-10.89,8.55-16.14,.85-1.45,1.45-2.98,1.7-4.65,1.9-12.59,7.12-24.21,11.07-36.16,3-9.06,9.66-16.37,15.72-23.74,4.63-5.63,9.17-11.38,14.66-16.23,.29,.27,.58,.46,.55,.51-3.76,8.67-2.21,17.88-2.96,26.87-.49,5.86,1.18,10.44,5.36,14.21,2.42,2.19,5.06,4.18,7.78,5.99,3.44,2.29,6.76,4.65,9.17,8.09,2.26,3.23,5.22,5.68,8.53,7.81,7.84,5.04,15.65,10.13,23.38,15.33,1.91,1.29,2.95,1.42,3.91-.95,.94-2.33,2.22-4.51,3.69-7.45,.38,5.44,1.59,9.84,3.29,14.22,1.54,3.98,4.07,6.7,7.59,8.79,2.29,1.36,4.48,2.91,6.85,4.11,9.02,4.55,11.81,12.68,12.81,21.87,.1,.88,.16,1.78,.06,2.66-.13,1.11,.93,2.73-.55,3.23-1.18,.41-2.16-.95-2.98-1.81-4.59-4.79-9.13-9.61-14.82-13.46Zm-34.83,34.68c0-3.59,.11-6.9-.03-10.2-.18-4.26,.25-8.44,1.62-12.44,3.62-10.54,6.44-21.36,10.87-31.63,.56-1.3,.63-1.86-.79-3.05-9.03-7.55-19.82-12.15-29.75-18.18-6.65-4.04-14.17-5.58-21.66-7.2-2.9-.63-3.58,.53-2.89,3.09,1.52,5.66,2.72,11.43,4.65,16.95,2.59,7.41,6.49,14.06,13.26,18.63,2.63,1.77,4.31,4.35,5.7,7.21,5.62,11.54,11.34,23.04,17.04,34.54,.38,.76,.65,1.65,1.98,2.29Zm.94,109.18c2.01,0,3.68,.02,5.34,0,.92-.02,1.96-.1,1.52-1.45-1.7-5.2-5.32-9.38-7.76-14.19-.16-.31-.76-.41-1.17-.57-3.88-1.55-7.15-3.98-10.05-6.93-1.38-1.4-2.87-2.42-4.94-2.31-5.56,.28-11.03,1.19-16.31,2.9-3.79,1.23-4.71,3.75-2.84,7.27,1.3,2.44,2.97,4.65,4.84,6.72,1.98,2.19,4.25,3.42,7.3,3.17,3.06-.26,5.9,.67,8.66,1.95,4.99,2.31,10.22,3.62,15.42,3.45Z"/><path class="cls-1" d="M986.21,658.79c-1.76-.19-2.72-1.01-3.62-1.77-6.03-5.07-13.52-7.56-20.26-11.36-3.03-1.71-6.26-1.66-9.33,.77-4.23,3.35-9.22,5.21-14.91,6.08,4.12,4.91,8.8,8.72,13.59,12.33,7.44,5.61,14.7,11.45,22.79,16.18,4.99,2.92,8.98,7.23,13.58,10.71,2.86,2.16,5.25,4.55,7.04,7.71,1.72,3.01,4.93,4.39,8,5.71,3.57,1.53,7.14,3.05,10.48,5.06,1.97,1.18,3.08,2.73,3.03,5.12-.07,3.66,.1,7.32-.02,10.97-.12,3.75-1.15,4.75-4.94,4.59-3.99-.18-7.94-.86-11.78-2.03-10.17-3.08-20.33-6.17-31.04-10.46,2.09,2.89,4.32,4.24,6.52,5.51,7.78,4.48,15.47,9.1,24.21,11.71,5.83,1.74,6.81,4.44,4.44,10.06-.56,1.32-1.26,2.59-1.92,3.87-2.12,4.1-5.28,6.28-10.11,6.21-4.56-.07-5.19,.68-5.28,5.22-.11,5.37,.77,10.61,2.96,15.55,1.06,2.4,1.2,4.81,1.16,7.42-.06,3.44-1.9,4-4.52,3.46-3.69-.77-7.33-1.75-10.96-2.77-2.68-.75-4.02,.07-4.21,2.89-.25,3.63-1.85,6.81-3.56,9.94-3.12,5.73-6.45,11.34-8.21,17.74-1.04,3.82-1.37,3.64-4.74,1.74-4.09-2.3-8.36-2.09-12.44,.04-3.14,1.64-6.15,3.56-9.17,5.42-9.19,5.66-18.8,10.43-28.8,14.52-4.19,1.71-8.09,4.14-12.15,6.19-3.08,1.55-3.72,1.35-4.08-2.01-.8-7.48-.8-15.05-3.13-22.32-3.54-11.04-3.01-22.55-3.87-33.9-.42-5.52-.57-11.06-.92-16.59-.23-3.68,.41-7.4,2.65-10.1,7.41-8.95,8.97-19.66,10.63-30.57,1.63-10.75,4.93-21.15,9.13-31.18,1.68-4,2.95-8.07,3.76-12.69,1.47,1.42,1.06,2.97,1.26,4.25,1.5,9.55,5.51,18.59,6.55,28.11,1.15,10.47,6.17,17.37,14.99,22.36,2.96,1.68,5.48,4.13,8.19,6.25,.77,.6,1.45,1.68,2.53,1.21,1.01-.44,.92-1.65,1.07-2.64,.53-3.56,.39-7.07-.75-10.51-2.08-6.28-2.69-12.75-2.75-19.33-.04-4.09-.27-8.2-.64-12.28-.54-6.1-3.02-9.43-8.76-10.65-5.34-1.14-9.43-3.67-12.41-8.14-.06-.09-.13-.19-.22-.25-6.39-4.41-7.15-10.84-6.83-17.89,.34-7.52-.7-15.07,.29-22.59,.27-2.02,.29-4.28,3.2-4.71,1.42-.21,.83-1.64,.77-2.52-.52-7.68-1.52-15.02-7.09-21.26-3.2-3.59-5.74-7.84-9.27-11.25-1.21-1.17-2.12-2.65-2.45-4.29-1.59-7.98-7.01-12.89-13.53-16.85-6.6-4.01-5.84-5.13-8.39,3.39-3.89,12.98-5.55,26.22-4.86,39.73,.76,14.72-.92,29.1-4.55,43.4-1.34,5.27-1.09,11-1.16,16.53-.23,18.09-6.21,34.51-14.32,50.35-.15,.29-.35,.56-.56,.91-.94-1.34-.53-2.87-1.84-4.17-2.98,10.82-8.31,20.66-7.72,32.24,.48,9.27,.38,18.61-.31,27.91-.54,7.37,1.62,14.27,4.9,20.79,2.14,4.27,2.85,8.79,3.14,13.48,1.01,16.28,.65,32.58,.74,48.88,.03,5.91-3.42,8.27-9.12,5.98-5.99-2.41-10.41-6.55-13.02-12.61-4.56-10.56-6.39-21.66-6.47-33.03-.06-8.52-1.36-17.2,.67-25.53,2.9-11.94,2.91-24.17,4.7-36.18,1.77-11.9,4.56-23.71,8.81-35.06,2.29-6.13,6.33-10.91,12.28-13.85,1.29-.64,1.44-1.5,1.44-2.65,0-14.08,.43-28.18-.22-42.24-.27-5.95-.81-12.1-2.99-17.94-1.69-4.54-1.32-9.54-.47-14.17,3.86-21.03,8.02-42.07,15.97-61.98,4.48-11.21,7.93-22.52,9.74-34.38,.45-2.95,.81-5.92,1.13-8.89,.24-2.25,1.32-2.92,3.37-2.01,3.95,1.76,8.15,3.1,11.9,5.11,3.26,1.74,5.37,5.32,5.52,9.3,.28,7.2,.27,14.41,.36,21.61,.05,4.19,.46,8.3,2.8,12.76,0-6.57,0-12.39,0-18.2,0-5.96,0-6,5.84-6.06,6.11-.07,12.22-.15,18.33-.05,3.77,.06,7.07-.86,9.59-3.72,2.15-2.44,4.37-2.31,7.14-1.05,6.16,2.79,12.49,5.13,18.05,9.18,2.47,1.8,5.51,2.8,8.47,3.82,6.18,2.14,10.82,5.9,12.92,12.39,1.15,3.58,2.42,7.15,4.34,10.42,.79,1.34,.58,2.17-.92,2.82-2.43,1.06-4.6,2.75-7.26,3.26-1.94,.37-2.3,1.64-2.54,3.34-.73,5.2,.34,10.07,1.98,14.99,3.29,9.89,7.89,18.96,14.93,26.79,3.01,3.36,3.11,7.89,3.51,12.45Zm-30.08-72.09c.24-3.48-.44-7.16-3.42-9.66-4.09-3.43-8.69-6.2-14.06-7.23-4.39-.84-8.63-2.02-12.62-4.03-1.71-.86-3.15-.51-4.6,.64-2.81,2.24-2.56,5.16-1.34,7.85,2.07,4.6,4.89,8.75,9.74,10.91,5.76,2.56,11.08,5.99,17.17,7.94,6.65,2.13,9.25,.66,9.12-6.44Z"/><path class="cls-1" d="M674.11,342.19c7.83-1.51,12.51-6.22,16.13-12.37,1.53-2.6,3.81-2.24,5.47,.99,2.84,5.51,5.88,10.93,8.21,16.69,1.46,3.62,3.11,7.12,6.56,9.38,1.41,.92,2.84,1.88,4.48,2.14,5.37,.83,7.51,.04,6.14-5.62-.39-1.6-.76-3.21-1.28-5.45,6.02,2.77,11.87,4.55,17.92,5.64,.65,.12,1.29,.34,1.95,.4,3.82,.36,6.76,1.72,8.79,5.39,2.27,4.1,6.34,6.77,9.53,10.17,2.5,2.67,4.9,5.4,6.19,8.81-.43,.65-.89,.48-1.25,.25-7.93-4.93-16.77-8.74-21.56-17.53-.93-1.7-8.44-2.88-9.96-1.66-.57,.46-.73,1.12-.61,1.8,.55,3.14,.36,6.39,1.95,9.36,1.58,2.95,2.46,6.27,2.68,9.54,.4,5.82,3.54,10.68,8.12,12.48,4.82,1.89,5.48,6.85,9.5,8.89,2.43,1.23,4.43,3.28,6.76,4.8,5.05,3.31,7.8,8.66,11.22,13.38,1.29,1.79,2.34,3.8,3.91,5.35,3.74,3.71,4.61,8.41,4.97,13.36,.18,2.53-.99,3.71-3.42,3.85-.44,.03-.9,.03-1.32,.14-1.45,.38-3.68-.22-4.18,1.3-.6,1.81,1.35,3.09,2.58,4.29,3.98,3.87,9,6.13,13.99,8.23,9.42,3.96,13.87,12.01,17.72,20.58,1.35,3.01,.55,6.34,.31,9.53-.09,1.21-.41,2.42-.38,3.63,.14,5.15-1.36,9.45-5.49,12.9-2.66,2.22-3.14,5.69-3.88,8.97-2.81,12.38-6.01,24.71-16.26,33.37-8.84,7.47-12.84,16.6-11.75,28.12,.38,3.96,.09,7.98,.02,11.97-.03,1.71,.57,4.19-1.12,4.79-1.43,.51-2.56-1.74-3.52-3.05-1.63-2.2-3.76-3.7-6.13-5-2.27-1.25-3.17-.66-4.01,1.8-6.61,19.21-2.53,36.91,6.77,54.22,6.39,11.88,13.14,23.63,17.7,36.42,.8,2.24,.93,4.52,1.18,6.83,.54,5.14,.68,10.36,3.28,15.83-3.63-1.81-6.49-1.68-9.15,.53-1.56,1.29-2.15-.34-2.78-1.22-3.45-4.81-5.95-10.1-7.96-15.65-2.82-7.81-10.32-11.08-18.11-7.96-3.01,1.2-4.46,3.56-4.82,6.63-.93,7.86-.27,15.71,.29,23.55,.12,1.65,.42,3.31,.39,4.95-.22,9.66,.74,19.24,1.75,28.83,.48,4.6,.71,9.39-.01,13.93-1.05,6.57-4.48,11.97-10.91,14.84-2.73,1.22-5.56,2.21-8.34,3.32-6.29,2.51-10.04,7.05-11.12,13.78-1.43,8.85-2.89,17.7-2.72,26.72,.1,5.32,.02,10.64-.06,15.97-2.72-19.24-8.79-37.52-15.84-55.52-2.53-6.45-1.36-12.99-.15-19.34,2.54-13.34,4.2-26.77,3.51-40.28-.55-10.83,2.29-20.28,8.03-29.2,5.11-7.94,9.18-16.39,12.86-25.1,2.04-4.84,6.42-8.1,11.08-10.63,3.21-1.75,6.48-3.41,9.78-4.98,2.76-1.3,4.39-3.28,4.59-6.36,.6-9.09,.55-18.19-.5-27.22-.79-6.81-4.35-12.5-9.18-17.31-4.09-4.07-8.09-8.28-12.55-11.91-3.9-3.17-6.17-6.88-6.5-11.78-.37-5.44-2.92-9.53-7.1-12.97-5.4-4.44-10.12-9.64-15.67-13.92-3.7-2.86-2.86-7.28-3.24-11.08-.69-6.94,0-13.96-.96-20.91-1-7.28-1.14-14.55,.81-21.75,.73-2.71,1.8-5.22,3.33-7.56,7.2-11.05,14.01-22.38,21.68-33.09,7.55-10.54,8.19-21.88,6.09-33.92-.34-1.96-.63-3.94-1.06-5.88-.49-2.22-.78-4.23,1.16-6.08,1.1-1.05,.78-2.64,.34-4.1-2.91-9.66-7.54-18.43-13.87-26.28-1.49-1.85-3.47-3.15-5.6-4.1-6.24-2.77-11.07-7.24-15.59-12.21-2.96-3.25-6.25-6.21-9.76-9.66Z"/><path class="cls-1" d="M1471.47,507.32c1.51,.85,1.95,1.99,2.12,2.98,.9,5.01,4.25,7.69,8.55,9.74,3.49,1.67,6.86,3.6,10.24,5.5,1.92,1.08,3.72,1.04,5.64,.05,7.18-3.7,14.25-7.66,21.62-10.93,5.02-2.23,10.55-3.31,15.37-6.13,1.29-.75,1.9-.29,2.21,1.23,2.81,13.78,2.72,27.15-3.69,40.2-3.85,7.84-6.57,16.21-9.93,24.29-3.47,8.35-3.11,16.47,.35,24.79,6.13,14.74,12.23,29.48,20.58,43.16,.44,.72,.8,1.48,.78,2.58-1.78-1.58-3.48-3.26-5.34-4.74-10.61-8.46-19.5-18.75-29.78-27.55-3.44-2.95-7.32-4.94-11.7-6.08-10.08-2.64-19.79-6.63-30.19-8.04-6.08-.82-12.2-.72-18.3-.71-13.76,.02-27.56-1.06-41.26,.98-6.36,.95-12.66,2.32-18.98,3.56-4.22,.83-4.68,.49-5.06-3.96-.94-10.74-.5-21.5-.62-32.25-.06-5.38-.24-5.53-5.5-6.93-14.93-3.98-30.1-6.6-45.44-8.38-3.95-.46-7.88-1.27-11.65-2.69-2.15-.81-3.55-2.16-3.97-4.48-.44-2.42-1.3-4.73-2.68-6.74-1.59-2.31-2.86-2.18-4.37,.17-.48,.75-.97,1.49-1.44,2.24-3.55,5.71-3.56,5.74,2.63,8.01,1.42,.52,2.16,1.33,2.23,2.9,.1,2.21-.95,3.69-2.84,4.43-2.68,1.05-5.43,1.95-8.2,2.71-4.8,1.31-7.8,3.83-8.58,9.19-.72,4.99-2.5,9.84-3.89,15.02-1.46-.97-1.72-2.43-2.21-3.64-4.48-10.87-11.08-20.4-18.54-29.39-1.33-1.61-2.42-1.74-4.08-.21-7.93,7.32-15.1,15.31-21.57,23.95-2.39,3.19-4.98,6.27-7.8,9.07-3.28,3.26-5.69,6.99-7.88,11.02-1.36,2.49-1.4,4.5,.21,6.7,4.96,6.75,9.28,13.76,12.45,21.65,2.57,6.41,8.53,7.49,14.66,3.95,3.12-1.8,6.03-4.08,10.16-4.11-.45,2.2-1.9,3.48-3.14,4.79-11.3,11.92-22.92,23.52-34.93,34.73-3.98,3.72-7.93,7.42-11.11,11.89-2.08,2.91-4.52,5.44-8.18,6.48-1.97,.56-3.45,1.93-4.75,3.51-1.92,2.34-4.35,4.04-6.93,5.63-2.33,1.44-3.93,.94-5.39-1.06-1.51-2.06-3.06-4.09-4.45-6.22-2.89-4.42-6.55-8.09-10.71-11.3-2.15-1.66-4-2.05-5.87,.58-2.97,4.16-7.54,5.22-12.3,5.59-2.66,.21-5.32,.36-7.89,1.14-1.63,.49-2.41,.06-2.75-1.72-.93-4.81-.33-9.03,2.85-13.11,3.57-4.58,7.31-8.58,13.15-10.11,1.06-.28,2.19-.66,3.04-1.32,9.07-6.96,20.15-6.67,30.63-8.53,2.07-.37,4.22-.75,6.28-.56,3.26,.3,5.27-1.04,6.66-3.8,1.1-2.18,2.15-4.39,3.45-6.45,2.71-4.29,3.79-8.63,1.45-13.48-.76-1.58-.78-3.45-.64-5.24,.18-2.19-.83-2.24-2.37-1.3-1.14,.69-2.36,1.29-3.37,2.13-7.91,6.62-17.5,8.75-27.31,10.34-2.12,.34-2.64-.31-1.85-2.32,2.51-6.37,6.19-11.84,12.32-15.18,6.76-3.69,11.06-9.38,14.26-16.16,.59-1.25,.17-1.8-.69-2.47-2.6-2.02-5.47-3.38-8.81-3.52-1.4-.06-2.75-.15-3.03-1.9-1.47-9.22-.5-18.14,3.13-27.46,1.43,1.83,1.19,3.28,1.31,4.62,.42,4.83,2.26,6.52,6.99,6.2,1.49-.1,2.09,.31,2.51,1.83,1.37,4.99,6.01,7.82,8.38,12.19,.42,.77,1.1,.47,1.7,.04,1.05-.75,.93-1.62,.4-2.61-1.52-2.83-3.02-5.67-4.54-8.51-.73-1.37-1.49-2.72-2.22-4.09-3.17-5.94-3.11-7.8,1.39-12.97,5.82-6.69,11.86-13,19.86-17.46,6.58-3.67,10.14-10.67,14.47-16.69,4.69-6.52,7.98-13.79,11.79-20.78,1.43-2.62,2.03-5.32,2.13-8.26,.2-6.22-.26-12.4-.93-18.57-.1-.93-.59-2.2,.57-2.69,.83-.35,1.53,.67,2.31,1.05,9.74,4.68,8.2,13.37,7.58,21.61-.28,3.75-1.45,7.42-2.89,10.88-2.91,7-4.78,14.26-6,21.7-.65,3.99-2.15,7.34-5.59,9.77-12.76,9.01-21.07,22.01-30.45,34.05-.41,.52-.72,1.12-1.02,1.71-.86,1.68-2.14,3.64-.32,5.14,1.66,1.37,2.68-.92,3.76-1.7,9.94-7.08,20.44-13.37,29.89-21.12,1.22-1,3.73-1.44,2.58-4.2-.38-.91,.94-1.28,1.74-1.65,3.32-1.53,6.65-3.04,9.95-4.62,1.68-.8,3.34-.9,5.17-.58,2.07,.36,4.18,.44,6.28,.6,2.58,.19,4.63-1.35,6.92-2.12,3.08-1.04,2.07-3.72,2.68-5.81,1.49-5.12,2.88-10.22,2.69-15.63-.08-2.54,1.73-3.53,3.88-3.68,9.65-.68,18.87-3.72,28.41-5.13,14.5-2.14,28.96-3.96,43.64-3.62,1.22,.03,2.44,.16,3.64,.37,4.58,.81,5.29,2.64,2.66,6.65-2.95,4.5-7.49,7.14-11.84,9.95-3.85,2.48-8.29,3.7-12.59,5.15-6.46,2.18-10.31,7.02-13.3,12.77-.41,.79-.88,1.69-.24,2.49,.85,1.07,1.87,.28,2.73-.07,6.73-2.81,13.36-5.88,20.17-8.45,6.97-2.63,13.61-5.81,20.08-9.46,2.79-1.57,6.07-1.96,9.34-2,11.32-.14,22.66,.44,33.97-.33,1.38-.09,1.82,.39,1.76,1.64-.09,1.77,.11,3.6-.3,5.29-3.39,13.88-.06,26.4,7.04,38.44,3.61,6.13,7.83,11.48,13.67,15.53,2.42,1.68,3.69,4.4,5.79,6.38,3.2,3.02,5.66,2.3,7.08-1.8,4.98-14.41,7.32-29.41,9.3-44.39,1.4-10.59,1.8-21.4,.88-32.15-.04-.41,.05-.84,.1-1.62Z"/><path class="cls-1" d="M1120.63,329.61c19.93,1.37,37.27,8.12,54.12,16.66,19.9,10.09,38.39,22.16,54.85,37.26,2.52,2.31,5.24,4.45,8.41,5.93,2.47,1.15,4.3,3.05,6.01,5.14,3.85,4.72,8.4,8.02,14.6,9.74,7.03,1.95,14.05,4.01,21.1,5.9,2.5,.67,4.1,2.03,4.74,4.55,1.65,6.48,4.48,12.45,7.74,18.26,1.25,2.22,1.16,3.3-2.07,4.06-7.21,1.7-13.34,5.78-17.41,11.98-2.92,4.44-7.1,5.22-11.59,5.84-1.75,.24-3.55,.05-5.32,.13-2.36,.1-4.08,1.11-4.49,3.6-.22,1.33-.96,2.21-2.04,2.87-6.43,3.94-11.82,9.4-18.71,12.68-1.22,.58-1.74,1.7-1.91,2.95-.16,1.2-.26,2.43-.23,3.64,.1,3.77-.42,6.46-5.08,7.78-4.87,1.38-8.82,5.08-12.31,8.84-4.37,4.71-8.68,9.5-11.79,15.21-.46,.85-.94,1.77-1.92,2.22-.16-.15-.45-.29-.44-.42,.49-10.33-1.12-20.51-2.09-30.74-.13-1.4-.13-3.02,.43-4.26,2.22-4.94,1.09-9.8-.14-14.61-.82-3.2-.88-6.62-2.55-9.59-.11-.19-.29-.54-.22-.6,3.41-3.24,.65-7.12,.93-10.64,.43-5.4,.06-10.82,2.68-15.87,.97-1.88,1.17-4.11,.64-6.19-1.4-5.48-1.58-11.2-3.42-16.58-.56-1.63-.43-3.29-.39-4.94,.09-3.04-.14-5.92-2.02-8.55-1.26-1.76-.9-3.91-.2-5.77,1.47-3.9,.13-6.63-2.73-9.37-8.04-7.72-17.29-13.87-26.02-20.68-4.78-3.73-10.39-5.93-15.38-9.23-8.4-5.54-16.74-11.16-25.78-17.19Z"/><path class="cls-1" d="M1276.56,698.43c-4.53,11.06-12.5,19.01-18.3,28.4-2.22,3.59-6.17,4.59-9.35,6.69-5.43,3.59-11.3,6.1-18.1,5.55-2.32-.19-4.67,.14-6.99,0-7.32-.43-14.1,1.17-20.34,5.02-.85,.52-1.75,.95-2.65,1.39-3.74,1.82-3.72,1.72-4.2-2.45-1.42-12.43-1.9-24.92-2.54-37.4-.14-2.77,.48-5.22,1.99-7.55,3.57-5.48,7.11-10.98,10.55-16.54,1.08-1.75,2.19-2.09,4.06-1.23,2.62,1.2,5.29,2.39,8.06,3.11,3.52,.91,4.23,3.01,4.12,6.33-.22,6.71-1.91,13.12-3.24,19.62-.69,3.38-.9,6.8,.18,10.17,.75,2.34,2.24,3.65,4.84,3.81,5.09,.32,10.17,.81,15.25,1.21,1.59,.13,3.13-.09,4.41-1.13,4.56-3.73,9.1-7.49,10.75-13.53,1.27-4.64,3.32-8.93,6.16-12.81,2.08-2.85,2.8-6.25,3.96-9.46,1.14-3.14,2.85-5.55,5.63-7.52,6.69-4.74,13.03-9.96,20.96-12.71,2.57-.89,3.91-.72,4.58,2.1,2.02,8.5,5.68,16.56,7.07,25.21,1.08,6.71,1.14,13.48-2.28,19.76-2.41,4.42-2.55,9.34-3.15,14.15-.44,3.53-2.15,6.14-4.85,8.38-2.92,2.42-6.01,4.63-9.28,6.44-5.53,3.06-9.8,7.27-12.81,12.71-7.86,14.2-20.85,21.64-35.42,27-4.54,1.67-9.28,2.04-14.09,1.19-6.54-1.16-13.24-1.49-19.61-3.53-2.25-.72-5.04-.95-5.67-3.92-.63-2.98,1.45-4.8,3.41-6.39,6.08-4.92,13.13-8.27,20.1-11.65,5.99-2.91,11.7-6.38,17.71-9.17,9.43-4.38,19.11-8.25,29.5-9.82,5.72-.86,9.93-5.26,9.73-11.03-.29-8.54,1.17-17.02,.73-25.55-.07-1.39,.01-2.8-.89-4.84Z"/><path class="cls-1" d="M847.36,308.83c7.41,5.87,16.2,7.41,25.24,7.99,6.25,.4,11.91-2.23,17.74-3.9,1.38-.4,2.68-1.01,4.18-.94,4.04,.19,4.98,1.2,5.25,5.23,.29,4.39-.71,8.82,.74,13.19,.83,2.49,1.76,3.3,3.86,1.2,.36-.37,.93-.53,1.85-1.02-.69,2.45-1.71,4.11-3.05,5.77-6.43,7.96-14.14,14.67-21.32,21.89-5.05,5.08-11.01,9.23-15.05,15.37-1.93,2.93-2.87,5.64-1.57,8.96,.28,.72,.34,1.54,.71,2.2,6.14,10.75,5.13,23.13,7.89,34.65,.2,.85-.07,1.69-.42,2.56-3.33,8.31-2.56,16.61,.38,24.8,.64,1.78,.99,3.23,.06,5.01-1.76,3.36-3.24,6.86-4.52,11.16-2.02-9.35-8.75-13.92-14.91-19.08-6.49-5.43-13.38-10.09-21.05-13.7-3.21-1.51-5.5-3.71-5.42-7.93,.06-3.35-2.72-6.18-2.57-9.83,.18-4.19,1.58-8.02,3.03-11.79,1.83-4.76,2.6-9.56,2.37-14.59-.12-2.58-1.69-4.58-2.8-6.66-3.14-5.87-4.81-12.73-10.74-16.83-1.27-.88-.88-1.6,.13-2.25,2.41-1.57,4.77-3.23,7.91-2.99,4.78,.37,9.02-2,13.59-2.77,14.21-2.4,27.8-7.09,41.46-11.51,1.35-.44,2.61-1.17,3.92-1.77-2.66-4.13-5.36-8.08-7.79-12.19-1.72-2.9-4.21-4.35-7.35-5.21-4.26-1.17-8.55-2.16-12.56-4.24-4.59-2.37-6.64-6.67-9.19-10.78Z"/><path class="cls-1" d="M1156.6,719.4c.51,4.52-.35,8.92-1.84,13.28-3.05,8.89-5.9,17.86-8.94,26.75-1.66,4.85-4.3,9.01-9.24,11.21-5.91,2.63-11.55,5.77-16.34,10.11-6.41,5.8-14.06,5.88-21.91,5.3-2.98-.22-5.93-.85-8.9-1.18-2.38-.27-3.91-1.36-4.41-3.77-.96-4.65-2.11-9.28-2.85-13.97-.5-3.16-.41-6.37,.48-9.55,.83-2.98,1.28-6.05,1.51-9.16,.35-4.66,2.18-8.77,4.92-12.51,.82-1.11,1.84-1.83,3.21-2.2,5.13-1.39,10.04-3.71,15.39-4.11,7.57-.56,12.94-5.47,18.99-9.05,9.56-5.67,17.75-12.84,24.01-22.12,.89-1.31,1.98-3.56,3.5-3.09,1.52,.47,1.11,2.92,.98,4.48-.53,6.59,2.09,12.91,1.46,19.57Z"/><path class="cls-1" d="M272.31,680.34c-.5,.15-1,.41-1.51,.44-6.3,.36-9.03,4.34-10.92,9.84-2.97,8.64-4.9,17.45-6.07,26.47-.67,5.17-1.84,10.23-3.51,15.65-6.85-6.38-14.92-10.57-22.15-15.96-5.66-4.22-7.04-4.34-12.66-.19-3.21,2.36-6.93,2.07-10.4,3.05-15.46,4.37-30.94,8.7-45.77,14.97-1.03,.44-2.03,1.16-2.9-.16-.84-1.28-.34-2.34,.71-3.19,1.99-1.6,3.98-3.2,6.03-4.71,9.68-7.15,17.41-16.38,26.31-24.36,1.23-1.1,1.75-2.51,1.58-4.18-.72-6.96-.34-13.94-.37-20.92-.02-4.35,2.67-7.86,6.97-8.47,12.29-1.73,24.01-1.17,32.85,9.42,2.73,3.28,6.56,4.32,10.7,4.57,9.17,.56,18.12-1.28,27.14-2.33,1.29-.15,2.59-.27,3.89-.4l.08,.47Z"/><path class="cls-1" d="M261.4,635.74c-.72,1.2-1.75,1.33-2.71,1.4-10.96,.73-21.93,1.25-32.89,.02-2.7-.3-5.15-1.4-7.25-3.1-9.31-7.55-17.23-16.31-22.65-27.08-3.09-6.15-2.16-12.79-1.35-19.24,.57-4.59,2-9.07,3-13.6,.38-1.73,.93-2.52,3.11-2.21,3.27,.46,5.25,2.04,6.44,4.97,2.13,5.26,3.48,10.77,4.62,16.27,1.62,7.81,5.83,13.74,11.84,18.66,7.62,6.26,15.2,12.58,22.86,18.79,3.17,2.57,6.8,4.12,10.98,4.18,1.3,.02,2.68-.06,4.02,.94Z"/><path class="cls-1" d="M788.51,639.69c-.05-3.82,.78-7.43,2.33-10.86,2.46-5.46,4.79-11.03,8.18-15.97,8.11-11.82,14.13-24.53,17.77-38.41,1.26-4.81,3.96-9.29,5.04-14.03,1.76-7.78,5.34-14.57,8.54-21.7,2.36-5.25,2.08-11.69,3.7-17.45,1.08-3.83,2.22-7.63,4.55-11.01,1.36,.65,.83,1.78,.83,2.63,.05,6.65,.01,13.3,.04,19.95,0,2.02-.24,3.99-1.03,5.85-3.68,8.79-1.37,16.94,2.87,24.74,2.21,4.06,2.46,4-2.11,4.5-2.62,.29-4.59,1.57-6.24,3.46-8.27,9.48-15.51,19.68-20.93,31.07-6.07,12.75-13.08,24.92-21.96,35.95-.39,.49-.63,1.19-1.6,1.26Z"/><path class="cls-1" d="M784.97,755.87c.23-6.55-1.21-12.71-3.4-18.74-.65-1.78,.1-3.01,1.76-4.12,8.06-5.4,14.44-12.37,18.97-20.99,1.74-3.31,1.59-3.64-1.97-4.16-3.02-.44-5.42-2.17-7.88-3.95,2.39,.26,4.86,.24,7.15,.86,4.03,1.08,8.08,1.32,12.19,1.12,.11,0,.22-.01,.33,0,5.99,1.11,7.1,6.79,9.86,10.8,1.76,2.56-.24,4.77-1.79,7.11-3.51,5.29-8.92,7.31-14.48,8.63-6.65,1.57-10.63,6.06-14.32,11.1-2.74,3.74-4.48,8.05-6.42,12.34Z"/><path class="cls-1" d="M834.27,301.29c-.69-4.59-4.26-7.07-7-10.2-5.61-6.42-4.75-14.09,1.48-19.86,4.06-3.76,8.27-6.63,13.72-8.26,3.9-1.16,7.28-4.12,11.04-6.05,4.01-2.05,8.3-3.01,13.45-4.59-3.14,2.74-5.39,5-8.82,5.61-2.59,.45-4.01,2.69-5.82,4.26-2.19,1.91-4.45,3.64-7.08,4.91-5.51,2.66-9.7,7-13.88,11.26-2.53,2.58-2.18,5.02-.44,8.22,2.44,4.49,5.04,9.08,3.35,14.7Z"/><path class="cls-1" d="M1270.67,500.78c3.76,5.62,9.35,4.59,14.58,4.93,3.01,.2,5.95,.84,8.38,2.8,1.06,.85,1.95,1.95,1.63,3.42-.3,1.38-1.63,1.69-2.77,2.07-3.89,1.32-7.91,.69-11.88,.8-2.44,.07-4.9-.16-7.32,.06-2.76,.25-3.43-.95-3.31-3.44,.16-3.26,.04-6.54,.04-9.81l.65-.82Z"/><path class="cls-1" d="M846.13,213.33c5.09,.17,4.8-3.53,5.47-6.52,.39-1.73,.83-3.43,2.25-4.69,.78-.7,1.48-1.19,2.64-.75,1.14,.43,1.63,1.15,1.43,2.26-.78,4.25,1.29,5.58,5.17,5.23,.51-.05,1.24,.07,1.55,.4,3.1,3.37,7.27,3.33,11.58,3.62-2.4,2.58-4.92,2.83-8.09,2.1-4.61-1.07-9.36-1.55-14.06-2.24-1.46-.21-2.84,.14-4.18,.78-1.06,.51-2.19,.76-3.77-.19Z"/></g></g><g id="pvt4U5.tif" class="cls-4"><g><path class="cls-2" d="M684.76,810.33c-11.76-1.69-22.23-7.49-33.61-10.43-6.61-1.7-11.92-5.31-15.58-11.13-4.1-6.51-8.96-12.33-14.81-17.37-1.98-1.7-4.59-3.92-3.55-6.63,1.07-2.81,4.54-2.27,7.11-2.29,8.24-.06,16.35-.95,24.4-2.81,4.02-.93,8.31-.18,11.49,2.08,8.34,5.93,16.81,11.46,26.31,15.42,7.43,3.09,9.06,9.82,9.51,16.92,.27,4.29-.24,8.64,1.55,12.76,.75,1.73-.44,2.4-1.93,2.7-1.62,.32-3.36-.11-4.89,.77h-6Z"/><path class="cls-2" d="M1450.72,510.91c-23.83,.33-46.35,5.92-68.88,11.7,2.3-1.86,4.93-2.98,7.67-3.61,7.22-1.66,12.76-5.56,17.64-11.12,5.08-5.79,10.14-11.84,17.5-15.13,3.56-1.6,7.28-2.73,11.02-3.77,11.75-3.26,22.91-7.83,32.91-14.9,9.79-6.92,21.41-8.98,32.57-12.21,8.34-2.41,16.72-4.71,23.78-10.04,3.27-2.46,6.36-5.19,9.34-8,13.81-13.03,26.58-27.06,39.61-40.84,2.56-2.71,5.35-4.05,9.11-3.76,5.51,.42,10.8-.47,15.9-2.78,3.99-1.81,8.33-1.94,12.37-.42,5.64,2.12,10.52,.98,15.54-1.89,15.32-8.77,30.44-17.81,44.61-28.59-1.01,.96-1.94,2.03-3.05,2.85-4.29,3.2-8.07,6.94-11.83,10.71-3.5,3.5-5.1,7.68-5.07,12.58,.04,4.99-.07,9.98-.02,14.97,.04,3.65-1.46,6.07-4.98,7.37-6.25,2.31-12.43,4.81-18.66,7.16-6.78,2.57-8.3,4.66-8.32,11.84,0,1.33-.09,2.67,.01,3.99,.2,2.62-.9,4.4-3.12,5.75-3.7,2.25-7.29,4.67-10.94,7-2.83,1.81-4.25,4.15-4.13,7.72,.14,4.37,.63,8.57,2.1,12.71,1.59,4.46,.48,6.45-4.05,7.54-6.36,1.54-12.75,2.99-19.13,4.45-2.96,.67-5.26,2.29-7.01,4.72-4.59,6.36-10.12,12.11-12.59,19.84-.86,2.68-2.93,2.97-5.39,2.21-8.52-2.62-17.41-3.44-26.11-5.22-7.17-1.47-14.36-.08-21.3,2.15-3.5,1.12-6.99,2.22-10.62,2.78-4.22,.66-8.44,.87-12.27-1.56-4.23-2.69-8.78-1.88-13.24-1.12-5.03,.86-10,2.08-15.02,3.05-2.4,.46-3.83,2.09-5.29,3.78-4.25,4.94-7.77,10.53-13.24,14.4-2.15,1.52-2.72,3.82-2.26,6.52,1.36,7.91,5.38,14.48,10.17,20.68,6.82,8.83,5.16,18.29,2.19,27.86-.26,.83-.71,1.77-1.73,1.84-1.24,.09-1.63-1.02-2.05-1.9-3.01-6.38-4.68-13.19-5.58-20.11-1.21-9.34-4.03-18.16-7.68-26.75-3.58-8.41-3.68-8.35,3.81-13.53,5.17-3.57,10.31-7.18,15.69-10.93Z"/><path class="cls-2" d="M256.61,681.97c-3.29,.2-5.83-1.31-7.85-3.68-5.07-5.94-11.35-10.22-18.39-13.44-6.37-2.92-12.95-3.77-19.73-1.37-10.68,3.77-21.43,7.35-32.01,11.38-7.85,2.99-14.27,1.84-19.57-4.85-1.99-2.51-4.55-4.61-6.36-7.23-3.66-5.28-9.04-6.23-14.83-6.76-8.73-.8-17.49-1-26.22-1.91-9.44-.98-14.76-6.45-17.66-14.86-1.78-5.15-.49-7.7,4.58-9.62,5.93-2.25,12.14-3.54,18.25-5.18,6.7-1.79,13.11-2.16,20.16-1.43,12.29,1.27,24.96,1.67,36.61-4.04,10.05-4.93,19.35-2.31,28.8,1.82,6.95,3.04,12.51,7.34,16.3,14.03,3.61,6.39,9.71,8.99,16.75,9.14,7.31,.16,14.63,.33,21.96-.43,5.38-.56,10.84-.27,16.28,.42,12.27,1.56,24.63,.59,36.95,.65,4.09,.02,7.21,1.06,9.97,4.13,3.56,3.95,7.46,7.6,11.28,11.31,3.68,3.57,5.19,8.49,7.99,12.59,.79,1.16,.3,1.9-.98,2.11-1.42,.23-2.85,.42-4.29,.51-13.95,.87-27.9,1.71-41.85,2.58-6.87,.43-13.76-.32-20.63,.7-3.1,.46-6.12,1-9.02,2.18-2.07,.84-4.23,1.34-6.49,1.26Z"/><path class="cls-2" d="M1632.65,321.25c-4.2-.85-7.49-.4-10.75-.54-2.03-.09-4.23,0-4.85-2.51-.6-2.43,1.32-3.57,2.98-4.67,1.01-.67,2.12-1.26,3.27-1.64,6.2-2.04,11.9-5.13,16.84-9.26,8.54-7.14,18.91-10.59,28.79-15.06,5.85-2.65,11.43-6.29,17.96-6.88,13.03-1.17,25.8-4.6,38.97-4.55,.88,0,1.83,.02,2.64-.27,4.46-1.63,7.21,1.03,10.51,4.02-3.81,.31-7.06,.59-10.33,.83-5.26,.39-10.23,1.97-15.2,3.57-3.98,1.28-7.51,3.27-10.29,6.48-3.91,4.5-9.12,6.92-14.53,9.09-9.15,3.67-18.68,6.62-26.28,13.35-.4,.35-.97,.56-1,1.65,3.86-.43,7.4-2.09,11.2-2.4,8.52-.69,17.04-1.35,25.59-1.05,2.71,.1,3.47,1.42,2.41,4.04-1.35,3.31-3.92,5.76-6.77,7.61-17.08,11.08-35.81,18.01-55.86,21.48-2.03,.35-3.58-.99-5.44-1.27-14.61-2.2-27.51,2.11-39.12,10.57-6.35,4.63-12.24,9.91-18.29,14.95-3.17,2.64-5.78,5.82-8.26,9.1-2.37,3.12-5.31,5.63-8.36,8.06-1.7,1.36-2.48,.86-2.98-1.06-1.53-5.8-2.44-6.67-8.18-5.17-17.58,4.59-34.51,10.69-49.6,21.24-13.07,9.15-27.61,15.59-42.39,21.45-9.84,3.9-20.21,6.01-30.52,8.22-9.46,2.02-18.82,4.35-27.84,7.9-1.65,.65-3.36,1.15-5.05,1.71-8.34,2.75-12.08-.14-11.91-8.98,.06-2.91,1.79-4.46,3.93-5.7,6.74-3.93,14.13-6.38,21.4-9.13,9.2-3.47,19.13-4.07,28.39-7.18,17.58-5.9,35.77-9.79,53.2-16.17,10.01-3.66,18.59-9.82,27.34-15.7,6.18-4.15,11.94-8.85,17.99-13.17,3.66-2.61,7.82-4.11,12.28-4.84,13.93-2.3,27.1-6.8,39.45-13.64,2.82-1.56,5.18-3.71,7.25-6.26,5.02-6.18,11.45-10.76,17.99-15.2,1.92-1.3,4.04-.83,6.14-.55,5.65,.74,11.15,.37,17.27-2.45Z"/><path class="cls-2" d="M595.64,445.36c2.36,3.33,4.5,6.84,7.1,9.97,8.31,10.02,18.02,18.61,27.9,27.06,8.47,7.24,16.9,14.62,23.51,24.25-3.81,.13-3.22,2.19-2.33,4.51,2.87,7.44,8.41,12.44,15.15,16.17,6.69,3.72,13.57,7.11,20.4,10.58,2.8,1.43,5.33,3.14,7.5,5.45,2.51,2.67,5.06,5.32,8.31,7.13,3.25,1.82,5.38,4.59,6.83,7.92,1.24,2.84,2.62,5.66,3.52,8.62,2.73,8.95,7.84,16.36,14.59,22.66,6.28,5.87,10.87,12.83,14.41,20.57,1.5,3.28,1,4.94-1.93,7.1-2.32,1.71-5.08,2.16-7.71,3.01-3.12,1.01-6.01,2.13-4.78,6.44,.42,1.46-.42,1.93-1.62,1.04-12.62-9.46-27.9-14.82-39.68-25.55-3.77-3.43-7.39-7.05-10.89-10.76-4.1-4.34-9.24-7.26-14.03-10.63-8.75-6.16-13.01-14.92-13.61-25.15-.59-9.97-4.78-16.8-13.55-21.55-11.22-6.08-20.17-14.74-26.8-25.72-2.06-3.41-3.34-6.92-3.22-10.98,.17-5.78-2.28-10.82-5.17-15.58-4.01-6.59-6.87-13.45-6.14-21.33,.47-5.03,1.91-9.94,1.4-15.09l.85-.14Z"/><path class="cls-2" d="M1853.07,333.39c-3.04,8.16-5.11,16.62-12.93,21.69-.36,.23-.64,.62-.9,.97-1.04,1.43-2.48,2.94-1.49,4.78,1.07,1.98,3.19,1.24,4.84,.94,6.92-1.25,13.27-4.36,19.96-6.39,16.38-4.97,32.97-8.09,50.18-6.11,3.8,.44,4.02,.8,2.93,4.34-5.21,17.02-15.72,30.15-29.83,40.68-5.86,4.37-10.92,9.75-17.27,13.53-2.91,1.74-5.89,2.37-9.24,1.72-7.25-1.41-14.59-1.31-21.9-.73-4.02,.32-7.81,1.73-11.33,3.7-4.48,2.51-9.21,3.46-14.37,3.43-8.87-.05-17.89-1.19-26.59,.76-12.67,2.85-25.71,3.89-38.11,7.99-.39,.13-.82,.15-1.48,.25,.36-1.46,1.54-1.73,2.35-2.33,8.45-6.28,17.01-12.43,25.37-18.84,6.38-4.89,11.24-11.3,16.43-17.36,7.42-8.68,14.76-17.42,22.36-25.94,5.11-5.72,11.94-9.22,18.6-12.72,7.39-3.88,14.86-7.53,20.59-13.83,.36-.4,.81-.78,1.81-.55Z"/><path class="cls-2" d="M718.06,331.57c-1.16,3.23-.03,5.62,.41,8.06,.21,1.17,.76,2.51-.54,3.34-1.09,.7-2.16-.05-3.11-.59-2.63-1.48-4.96-3.36-6.95-5.62-1.57-1.79-2.2-3.98-1.33-6.2,3.01-7.6,6.49-14.99,10.72-22.01,.68-1.12,1.76-1.64,3.05-1.77,2.1-.2,4.21-.67,6.29-.56,3.22,.17,5.72-1.14,7.55-3.47,4.52-5.75,10.22-9.73,17.07-12.23,2.7-.98,5.3-2.27,7.89-3.54,2.19-1.08,3.72-.85,4.86,1.51,2.54,5.24,5.45,10.15,5.78,16.39,.31,5.92,2.27,11.76,6.56,16.38,1.91,2.06,2.64,4.46,2.55,7.29-.2,6.42,1.32,12.03,6.47,16.65,3.6,3.23,6.6,7.11,10.38,10.25,7.74,6.41,13.32,14.8,19.78,22.36,2.79,3.27,4.29,7.72,6.03,11.78,2.15,5.01,.23,7.05-5.19,7.77-14.19,1.89-25.63-3.45-36.46-11.92-8.11-6.34-13.58-14.6-18.7-23.09-2.93-4.86-6.22-7.39-11.94-7.03-6.21,.39-12.08-1.52-17.86-3.49-3.66-1.25-5.46-4.36-6.83-7.72-1.71-4.17-3.16-8.48-6.47-12.55Z"/><path class="cls-2" d="M814.12,703.83c-1.14,1.44-1.13,2.8-1.36,4.08-.62,3.37-1.75,4.05-4.76,2.21-4.63-2.83-9.08-5.96-13.61-8.97-.09-.06-.17-.15-.27-.2-7.6-4.08-10.57-10.79-12.28-18.99-2.74-13.1-6.47-25.99-9.98-38.92-2.55-9.38-7.04-18.02-12.23-26.11-4.01-6.25-4.3-12.88-4.77-19.68-.21-3.09-.04-6.2-.02-9.31,0-.64-.07-1.44,.68-1.74,.75-.3,1.22,.33,1.66,.81,7.17,7.86,14.4,15.67,21.45,23.63,3.14,3.54,4.14,8.3,6.13,12.48,5.47,11.5,13.5,21.28,20.47,31.77,.74,1.12,1.7,1.84,3.03,1.67,6.45-.79,9.35,3.87,12.11,8.22,1.64,2.58,2.38,3.44,4.99,1,4.2-3.92,17.64-3.12,21.65,.9,.93,.93,1.12,2.14,1.42,3.31,3.06,11.78,3.36,23.67,.82,35.55-1.51,7.04-1.34,14.08-.92,21.16,.18,3.05-.79,3.86-3.65,2.55-2.44-1.11-4.61-2.69-6.59-4.47-5.87-5.25-11.81-10.4-18.12-15.12-2.14-1.6-4.04-3.44-5.85-5.84Z"/><path class="cls-2" d="M554.08,703.21c3.61,.78,6.55,1.36,9.45,2.05,8.2,1.96,13.92,6.62,16.18,15,.49,1.82,1.39,3.56,1.64,5.4,.77,5.73,4.26,8.88,9.36,10.98,8.93,3.66,17.28,8.66,26.56,11.52,.61,.19,1.16,.59,2.48,1.29-2.99,.62-5.3,.72-7.44,.14-11.24-3.06-22.85-3.02-34.3-4.36-7.02-.82-13.36-3.99-20.2-5.48-8.45-1.84-16.77-4.31-25-7.04-3.86-1.28-7.51-1.2-11.12,1.19-3.65,2.42-7.88,2.7-12.18,2.17-4.21-.51-8.36-1.31-12.25-2.98-3.47-1.5-5.34-4.39-4.93-7.16,.47-3.17,3.16-5.81,6.8-6.31,4.97-.69,9.96-.56,14.95-.09,1.19,.11,2.58,.65,3.27-.77,.65-1.34-.41-2.29-1.23-3.18-3.31-3.59-7.62-4.84-12.31-4.97-4.33-.11-8.67-.11-13-.02-3.26,.07-5.61-1.14-6.81-4.23-3.13-8.06-9.61-10.67-17.63-11.21-3.58-.24-7.28-.18-11.15-1.43,1.85-2.15,4.05-2.44,6.19-2.47,10-.12,19.92,.36,29.76,2.64,7.76,1.8,15.05,.99,22.04-4.13,12.84-9.4,26.99-9.1,41.36-3.52,1.75,.68,2.1,2.08,2.13,3.75,.05,3.43,.02,6.88,.3,10.29,.16,1.96-1.33,1.99-2.93,2.91Z"/><path class="cls-2" d="M859.44,494.35c-8.65,.31-16.98-1.63-25.27-3.7-4.95-1.24-9.83-2.71-14.85-3.71-5-1-9.63-3.3-11.63-8.04-5.14-12.2-15.45-19.4-25.14-27.29-1.63-1.32-3.14-2.81-4.53-4.38-1.32-1.49-1.07-2.56,1.16-2.8,3.64-.38,7.26-.91,10.9-1.26,2.61-.25,4.22-1.55,5.23-3.95,1.29-3.06,2.8-6.03,4.24-9.02,1.1-2.29,2.78-4.16,5.18-4.91,3.37-1.05,6.86-1.71,9.94-3.58,1.02-.62,1.94-.11,2.48,.92,.62,1.17,1.3,2.33,1.8,3.56,1.29,3.19,3.52,5.15,6.52,7.06,4.81,3.06,8.9,7.26,13.32,10.94,4.94,4.11,9.93,8.17,14.87,12.27,2.84,2.36,5.36,5,6.74,8.51,1.88,4.77,4.49,9.13,7.23,13.43,2.33,3.64,3.12,7.78,3.7,11.97,.28,2.01-.54,3.05-2.59,3.46-3.09,.61-6.19,.47-9.29,.53Z"/><path class="cls-2" d="M382.78,722.52c-2.99-1.94-6.23-2.6-9.43-3.42-8.28-2.12-16.78-3.92-22.69-10.91-3.34-3.95-4.42-8.74-3.71-13.69,.55-3.84,4.46-5.64,6.82-8.32,1.33-1.51,4.37-.41,6.31,.49,6.9,3.19,14.06,6.05,17.47,13.83,2.02,4.61,6.06,7.23,10.74,8.87,9.31,3.26,18.94,5.58,27.72,10.36,9.41,5.14,18.2,10.92,25.49,18.93,5.14,5.65,10.6,11.07,16.31,16.15,10.46,9.3,23.44,13.19,36.76,16.17,.96,.21,2.65-.32,2.59,1.26-.04,1.1-1.59,1.02-2.51,1.15-4.66,.65-9.3,.69-13.83-.85-9.36-3.19-18.91-5.71-28.42-8.4-9.24-2.61-17.58-6.56-22.96-15.27-4.44-7.19-11.9-9.12-19.82-9.71-11.75-.88-23.53-.71-35.29-.52-5.76,.1-11.52,.7-17.29,.53-5.8-.17-8.05-2.27-8.72-7.86-.2-1.7,.34-2.96,1.45-4.21,3.15-3.56,7.31-4.48,11.74-4.54,7.09-.09,14.19-.02,21.28-.02Z"/><path class="cls-2" d="M197.43,582.81c0,3.55,.02,7.09,0,10.64-.03,4.29-.71,4.64-4.69,2.74-3.46-1.65-6.5-3.95-9.19-6.54-5.02-4.81-11.07-6.79-17.75-7.4-5.75-.53-11.06-2.26-15.9-5.45-2.5-1.65-4.97-3.43-7.68-4.66-7.46-3.38-10.7-9.94-13.48-16.94-1.07-2.69-.26-5.13,1.38-7.17,4.1-5.09,7.42-10.32,7.62-17.24,.1-3.57,1.62-4.33,5.24-3.43,4.86,1.21,9.48-.39,14.19-.77,4.53-.37,8.69-.17,12.86,2.12,4.06,2.23,8.44,2.45,12.59-.51,2.82-2.01,3.21-1.78,3.54,1.56,.84,8.47,.65,17.02,2.39,25.43,.76,3.69,2.2,6.8,5.28,8.87,2.75,1.85,3.51,4.43,3.54,7.43,.04,3.77,0,7.54,0,11.31h.04Z"/><path class="cls-2" d="M572.83,583.23c0,3.1,.06,6.21-.02,9.31-.08,3.43-1.02,3.88-4.1,2.2-2.47-1.35-4.26-3.56-6.52-5.14-8.86-6.18-17.06-13.09-24.2-21.22-3.21-3.65-7.3-5.79-12.11-6.38-6.14-.75-11.24-3.34-15.13-8.15-1.79-2.22-4.58-3.15-6.45-5.2-4.28-4.7-5.96-10.51-6.82-16.63-.19-1.33,.08-2.66,.77-3.85,2.68-4.7,6.12-8.7,10.76-11.57,3.26-2.01,6.67-2.4,10.11-.48,2.11,1.18,4.31,1.58,6.71,1.54,4.78-.1,9.55-.05,14.33-.05,5.74,0,11.3,4.4,12.54,10.07,.76,3.46,1.35,6.96,1.97,10.45,1.47,8.32,4.02,16.13,10.23,22.27,6.39,6.31,9.72,13.68,7.92,22.82Z"/><path class="cls-2" d="M1232.8,585.73c-.24,3.95-.23,3.9,3.44,2.73,7.3-2.33,12.59-7.4,17.36-12.98,3.92-4.59,8.4-8.49,12.95-12.38,3.1-2.66,5.73-5.86,8.78-8.58,2.52-2.24,3.31-1.85,4.44,1.17,2.51,6.74,5.45,13.29,9.3,19.4,.52,.82,.92,1.81,1.03,2.77,1.59,13.3,.77,26.27-5.14,38.6-1.15,2.4-2.18,3.07-4.78,1.59-5.13-2.92-10.4-2.65-15.46,.51-3.29,2.06-6.3,4.56-9.89,6.12-4.47,1.94-5.6,1.62-8.35-2.33-1.71-2.46-3.26-5.07-5.53-7.05-7.01-6.09-9.08-14.14-9.37-22.94-.02-.54,.14-1.35-.15-1.58-3.45-2.82,.66-3.5,1.37-5.05Z"/><path class="cls-2" d="M1411.51,448.46c-13.43,6.2-25.31,14.29-36.68,23.22-.44,.34-.9,.66-1.38,.93-.85,.47-1.72,1.48-2.68,.97-1.19-.63-.22-1.79-.13-2.69,.35-3.23-.4-3.95-3.7-3.62-8.47,.83-16.6,2.94-24.42,6.28-1.94,.83-3.93,1.53-5.88,2.35-7.39,3.1-15.02,4.29-23.07,3.96-9.76-.39-19.55-.1-29.32-.13-1.28,0-3.07,.45-3.55-1.05-.54-1.69,1.32-2.31,2.41-3.17,1.85-1.47,4.42-1.94,6.1-4.25-2.23-.84-4.49,.56-6.5-1.05,2.84-2.11,4.74-4.82,6.78-7.41,2.07-2.64,4.88-4.23,8.02-5.12,16.87-4.81,33.74-9.7,51.57-9.16,1.33,.04,2.66-.04,3.99-.09,.16,0,.31-.23,.67-.51-3.57-2.04-7.62-2.9-11.5-5.5,3.03-.55,5.31,0,7.5,.89,2.49,1.01,4.69,2.51,6.64,4.37,2.64,2.52,5.58,3.66,9.39,3.05,3.15-.51,6.43-.42,9.64-.26,10.93,.55,21.67-1.62,32.54-2,1.19-.04,2.38,0,3.58,0Z"/><path class="cls-2" d="M1247.39,334.02c5.72,.45,11.47,.64,17.11,1.82,10.91,2.27,21.23,6.46,31.82,9.79,2.08,.65,4.05,1.87,5.84,3.14,6.91,4.9,14.32,8.88,21.9,12.62,8.71,4.29,15.76,11.12,23.98,16.17,8.11,4.98,15.05,11.24,21.27,18.45,3.83,4.44,8.96,7.57,13.09,11.8,2.08,2.13,1.69,2.95-.96,3.54-16.2,3.61-30.49,1.04-40.53-12.59-4.12-5.59-9.01-9.96-14.43-14.03-6.68-5.01-12.45-10.98-18.03-17.19-5.49-6.1-12.25-9.76-20.78-9.55-4.77,.12-9.54,.1-14.29-.63-4.69-.71-6.48-2.38-7.47-7.04-1.77-8.32-7.23-12.91-15.3-14.78-1.07-.25-2.14-.48-3.21-.72,0-.27,0-.53,0-.8Z"/><path class="cls-2" d="M1739.84,576.57c-1.04-4.56-.34-8.39,.59-12.08,3.2-12.58,5.25-25.35,6.95-38.2,.38-2.84,1.62-4.37,4.43-5.43,7.48-2.83,12.83-8.58,18.05-14.31,7.15-7.85,13.71-16.22,22.28-22.74,5.17-3.93,11.05-6.56,16.4-10.11,2.4-1.6,4.88-3.08,7-5.05,1.4-1.31,2.19-.82,2.37,.87,.58,5.46-.22,10.83-1.38,16.14-.27,1.23-1.3,2.06-2.29,2.77-11.25,8.05-19.52,18.89-27.96,29.59-7.75,9.83-15.8,19.42-23.56,29.23-7.22,9.12-14.23,18.41-21.33,27.62-.33,.42-.72,.79-1.54,1.69Z"/><path class="cls-2" d="M971.73,650.07c8.59,.12,7.24-1.01,9.93,7.07,.14,.42,.3,.84,.37,1.28,.63,3.98,2.47,5.95,6.92,6.84,9.05,1.81,16.71,7.66,20.09,15.59,5.09,11.95,13.24,20.01,23.84,26.55,3.07,1.9,5.58,4.71,8.29,7.16,.72,.65,1.67,1.5,1.1,2.55-.7,1.28-2,.68-2.99,.33-7.62-2.76-15.08-5.92-22.5-9.19-7.61-3.36-15.2-6.77-23.09-9.49-6.76-2.33-11.65-7.62-17.27-11.72-3.94-2.88-7.69-6.03-12-8.35-4.21-2.26-7.61-5.24-10.19-9.3-1.96-3.08-4.36-5.88-6.42-8.9-2.21-3.25-1.75-5.03,1.62-7.09,2.4-1.47,5-2.48,7.81-2.66,4.98-.31,9.97-.47,14.47-.66Z"/><path class="cls-2" d="M652.14,608.81c-.29-5.5,.43-11.39-.47-17.23-.12-.78-.26-1.65,.43-2.17,1-.76,1.93-.01,2.75,.48,5.14,3.1,9.82,6.83,14.53,10.54,9.93,7.82,17.49,17.91,26.05,27.02,5.28,5.62,8.7,12.5,8.14,20.79-.22,3.23-1.21,4.85-4.5,5.35-1.95,.3-5.19-.71-4.98,3.24,0,.17-.93,.47-1.46,.58-4.77,1.06-9.13,.77-13.09-2.71-5.92-5.2-12.27-9.88-18.81-14.27-5.98-4.02-8.61-9.6-8.59-16.63,.01-4.88,0-9.75,0-14.99Z"/><path class="cls-2" d="M446.38,563.37c1.43,4.56,2.54,8.53,2.47,12.84-.17,9.74-.18,19.49-.03,29.24,.05,3.06-1.22,4.71-3.6,6.46-5.27,3.87-10.89,5.55-17.41,4.94-3.17-.3-6.43-.35-9.59,.55-2.19,.62-4.08,1.62-5.73,3.21-7.89,7.61-17.43,11.99-28.07,14.22-1.94,.41-2.94-.35-3.6-2-1.43-3.58-2.47-7.32-5.54-10.08-1.56-1.4,.26-2.29,1.19-3.1,4.78-4.16,10.08-7.65,15.39-11.06,8.68-5.58,16.64-12.21,25.68-17.23,6.42-3.57,13.31-6.09,20.06-8.89,3.29-1.36,5.19-3.43,4.99-6.93-.24-4.34,1.71-7.9,3.8-12.18Z"/><path class="cls-2" d="M1816.41,250.24c8.02,.99,17.46,.51,26.9,.6,2.22,.02,4.46,.13,6.61-.56,2.81-.9,2.78,1.05,3.08,2.85,.3,1.86,.73,3.67-2.09,3.77-3.96,.13-7.31,1.8-10.27,4.26-5.73,4.77-11.22,9.77-14.64,16.58-.97,1.93-2.37,3.51-4.13,4.7-7.08,4.78-14.22,9.47-21.28,14.28-3.68,2.51-7.3,2.69-11.26,.59-2.83-1.5-5.76-2.8-9.04-3.26-3.94-.56-5.16-2.7-3.76-6.69,1.53-4.4,4.88-7.6,7.78-11.09,3.34-4.01,8.39-6.39,11-11.02,2.84-5.04,7.38-8.49,11.1-12.69,1.96-2.21,2.99-2.41,10.01-2.31Z"/><path class="cls-2" d="M1828.1,194.76c0,1.11-.11,2.23,.02,3.32,1.21,10.07-4.17,15.96-12.28,20.8-9.89,5.89-19.75,12.01-27.35,20.9-6.56,7.67-12.18,16.07-17.9,24.37-3.04,4.41-4.35,4.34-6.76-.36-1.06-2.07-2.26-4.06-3.34-6.12-2.06-3.91-1.64-7.11,2.2-9.06,8.2-4.16,12.76-11.38,17.25-18.79,.82-1.35,1.32-2.79,1.66-4.32,1.33-5.88,3.67-11.37,6.53-16.66,.75-1.39,1.64-2.6,3.05-3.41,8.64-4.94,16.19-11.33,23.04-18.43,3.59-3.71,7.63-3.46,11.95-3.18,1.59,.1,1.89,1.31,1.9,2.63,0,2.77,0,5.54,0,8.31h.02Z"/><path class="cls-2" d="M1289.36,706.32c.38,6-1.53,11.6-3.11,17.24-1.28,4.59-2.78,9.11-3.98,13.72-.55,2.12-1.54,3.34-3.78,3.46-.77,.04-1.56,.38-2.3,.29-7.36-.92-13.17,2.13-18.31,6.96-7.09,6.65-16.12,9.29-25.15,11.51-11.61,2.86-22.87,6.38-33.07,12.77-.88,.55-2,1.48-3.05,.66-.95-.74-.6-2.08-.48-3.15,.62-5.61,1.04-11.26,2.05-16.8,.68-3.72,3.96-5.68,7.31-6.43,9.4-2.11,18.86-4.06,28.51-4.74,4.75-.34,9.49-.88,14.24-1.34,2.18-.21,4.08-1.19,5.76-2.46,10.58-8.01,19.51-17.38,24.45-30.01,1.54-3.92,3.66-7.58,6.17-10.99,.56-.76,.95-2.05,2.11-1.86,1.27,.21,1.45,1.59,1.75,2.6,.82,2.79,1.03,5.66,.88,8.55Z"/><path class="cls-2" d="M51.77,590.17c-10.68-1.3-20.36,2.32-30.08,5.92-2.07,.77-4.67,2.76-6.45,.95-1.6-1.64,.45-4.13,.99-6.22,.27-1.07,.83-2.06,1.14-3.12,3.08-10.52,11.19-14.79,21.06-16.67,5.42-1.03,10.04-3.74,14.34-6.77,8.3-5.84,15.88-1.88,23.63,.93,1.22,.44,1.58,1.78,2.02,2.93,2.28,5.98,6.49,9.61,12.88,10.72,2.85,.49,5.6,1.44,8.17,2.78,1.68,.88,2.52,2.16,.5,3.48-5.1,3.32-8.18,8.35-11.47,13.2-1.1,1.62-2.35,2.78-3.9,.99-7.96-9.17-18.85-8.66-29.47-9.09-1.11-.05-2.22,0-3.33,0Z"/><path class="cls-2" d="M1521.52,426.42c-6.88,8.16-12.12,17.75-22.48,22.45-5.23,2.37-9.93,5.93-15.18,8.25-5.64,2.49-11.64,4.17-17.48,6.18-1.38,.47-2.67,.15-3.73-.8-7.37-6.59-15.08-4.91-22.75-.78-5.16,2.78-10.05,6.1-15.25,8.79-3.89,2.01-4.54,1.02-5.33-3.35-1.91-10.52,5-16.1,11.74-21.7,3.04-2.52,7.26-1.57,10.95-2.2,1.42-.24,2.91-.17,4.13-1.06,5.74-4.17,12.3-3.66,18.61-2.59,10.64,1.8,20.63,1.03,30.29-4.2,8.21-4.44,17.42-6.33,26.5-9.01Z"/><path class="cls-2" d="M1885.36,144.78c6.08,7.06,13.44,13.17,16.54,22.48,2.58,7.76,8.08,13.23,15.24,16.84,13.84,6.99,22.17,19.06,29.98,31.67,.82,1.32,1.55,2.69,2.33,4.02,1.96,3.33,2.4,6.66,1.05,10.47-3.88,10.96-2.58,15.01,6.59,22.37,3.03,2.43,6.07,4.83,9.07,7.29,.55,.45,1.53,.85,1.16,1.79-.31,.8-1.26,.88-2,.95-9.05,.87-17.69-.73-25.91-4.53-2.32-1.07-3.32-3.17-3.34-5.71-.02-3.43-.45-6.93,.05-10.29,1.37-9.34-3.23-16.51-8.23-23.45-2.9-4.03-6.45-7.59-9.79-11.29-1.73-1.91-3.16-3.99-4.28-6.3-4.08-8.37-8.57-16.5-13.45-24.45-2.58-4.22-4.35-8.96-6.28-13.55-2.61-6.23-4.99-12.55-8.74-18.33Z"/><path class="cls-2" d="M921.03,560.27c-5-.36-10.28-2.56-15.44-4.76-8.66-3.7-17.04-8.03-25.62-11.94-2.43-1.11-3.61-2.73-3.79-5.29-.56-7.84-2.13-15.55-3.24-23.32-.95-6.64,1.58-8.94,8.17-8.17,7.49,.87,12.99,4.46,17.11,10.67,3.64,5.48,9,9.17,14.55,12.43,8.28,4.86,13.96,11.61,16.04,21.01,1.91,8.63,.44,8.83-7.79,9.37Z"/><path class="cls-2" d="M414.72,640.42c4.04-1.49,7.42-1.25,10.66-1,5.13,.39,9.63-1.35,14.04-3.42,3.46-1.63,6.86-2.04,10.62-1.26,7.45,1.54,15.19,1.67,22,5.9,2.68,1.66,6.05,2.1,9.34,2.07,4.22-.03,8,1.64,11.78,3.26,1.17,.5,2.1,1.38,2.45,2.59,2.22,7.67,6.73,14.48,8.42,22.35,.87,4.06,.43,4.65-3.61,3.84-5.72-1.15-10.84-3.89-16.07-6.31-7.64-3.53-15.04-7.7-23.65-8.57-1.33-.13-2.31-.95-2.7-2.19-1.38-4.38-4.77-6.62-8.77-7.95-9.05-3.02-18.15-5.89-27.29-8.65-1.97-.59-4.16-.41-7.23-.67Z"/><path class="cls-2" d="M1149.5,658.45c-.09-1.46,.06-2.5,.75-3.25,5.53-6.03,9.93-13.06,16.39-18.27,4.38-3.54,9.26-6.23,14.69-7.56,10.41-2.56,19.8-7.04,28.27-13.58,2.01-1.55,4.29-2.76,6.45-4.11,.55-.34,1.18-.89,1.8-.39,.58,.48,.21,1.24,.11,1.88-.89,5.91-1.8,11.81-2.66,17.72-.77,5.36-4.15,9.47-6.65,13.99-.66,1.2-2.11,1.74-3.47,1.67-10.74-.51-20.72,3.24-31.04,5.12-8.98,1.63-15.82,5.12-20.32,13.04-.47,.83-1.02,2.06-2.1,1.91-1.45-.2-1.04-1.76-1.27-2.74-.45-1.94-.69-3.92-.95-5.46Z"/><path class="cls-2" d="M1739.01,181.21c29.3-14.37,57.92-28.41,86.54-42.44-2.6,3.02-6.23,4.56-9.22,7.03-14.71,12.14-27.4,26.07-38.2,41.77-4.14,6.02-8.74,11.71-13.03,17.63-1.3,1.8-2.42,1.68-3.67,.15-.7-.85-1.4-1.74-1.89-2.72-3.49-6.88-9.27-12.13-13.2-18.7-1.4-2.35-4.28-1.79-7.33-2.71Z"/><path class="cls-2" d="M670.06,344.43c5.04,1.09,7.75,5.03,11.15,7.85,3.67,3.04,6.8,6.67,9.24,10.82,2.31,3.93,5.74,6.49,10.06,7.67,6.19,1.69,9.6,6,11.78,11.65,1.96,5.06,3.95,10.1,5.89,15.17,1.07,2.79,.37,4.11-2.61,4.2-4.76,.13-9.54,.07-14.3-.16-7.56-.37-12-5.69-16.36-10.89-3.44-4.12-5.45-9.37-10.41-12.31-1.66-.98-1.78-3.36-1.66-5.2,.6-9.66-1.55-19.06-2.79-28.79Z"/><path class="cls-2" d="M1230.97,679.87c10.75-6.89,12.41-19.21,18.9-28.47,5.34-7.63,11.12-14.92,16.66-22.39,1.34-1.81,3.25-2.16,5.31-2.21,1.9-.04,2.78,.9,2.96,2.8,.87,9.34,.88,18.52-2.68,27.48-3.89,9.79-3.71,20.43-5.83,30.6-.71,3.42-.92,3.75-3.95,2.04-4.05-2.3-8.17-4.57-11.85-7.39-5.17-3.95-10.72-3.48-16.49-2.48-.74,.13-1.41,.7-3.02,.02Z"/><path class="cls-2" d="M874.2,436.82c1.59-15.31,7.19-28.35,18.88-38.84,11.74-10.54,25.97-17.38,38.3-27.01,14.2-11.09,30.5-18.41,47.14-25.03,6.49-2.59,12.63-6.01,19.24-8.34,1.46-.52,2.95-1.09,4.53-.4,.62,.27,1.24,.61,1.33,1.35,.1,.81-.53,1.18-1.16,1.42-2.79,1.1-5.53,2.36-8.4,3.21-10.68,3.16-20.71,8-30.97,12.19-10.51,4.3-19.44,11.47-28.45,18.32-6.54,4.98-12.18,10.96-18.3,16.41-3.77,3.36-7.03,7.17-9.34,11.61-2.64,5.07-6.1,9.5-9.66,13.9-.97,1.2-2.07,2.42-2.62,3.83-3.57,9.22-9.81,17.14-12.83,26.62-.29,.91-.51,2.2-1.8,2.04-1.69-.22-3.28-.95-3.94-2.67-1.08-2.8-1.58-5.76-1.96-8.62Z"/><path class="cls-2" d="M1099.26,732.04c-2.48-.05-1.2-1.7-.85-2.71,2.44-6.96,6.17-13.22,10.57-19.11,1.39-1.86,2.61-3.85,4.02-5.7,3.02-3.97,7.11-6.72,11.97-7.13,8.66-.73,16.19-4.44,23.85-7.88,4.14-1.86,8.13-4.08,12.23-6.05,1.01-.49,2.22-1.77,3.27-.6,.91,1.01-.02,2.37-.54,3.4-1.77,3.48-4.27,6.48-6.85,9.36-6.36,7.09-12.67,14.33-20.38,19.98-10.47,7.66-22.25,12.77-34.84,16-.75,.19-1.53,.28-2.45,.44Z"/><path class="cls-2" d="M735.38,370.51q-.02-7.43,6.57-3.99c1.87,.97,3.72,2.01,5.65,2.83,4.38,1.87,8.09,4.3,10.21,8.91,1.21,2.63,3.72,4.45,6.52,5.42,8.35,2.9,12.88,8.64,15.3,17.2,2.72,9.64,5.06,19.24,5.71,29.22,.05,.73,.4,1.71-.49,2.08-.86,.35-1.36-.57-1.87-1.09-3.39-3.51-6.6-7.24-9.11-11.4-4.96-8.19-11.49-14.88-19.04-20.62-3.49-2.66-6.22-5.96-8.92-9.34-1.66-2.08-3.36-4.13-5.19-6.05-5.28-5.5-5.31-5.47-5.34-13.17Z"/><path class="cls-2" d="M983.7,601.9c7.26,2.18,15.62,2.3,22.03,9.45,3.44,3.84,5.48,6.23,3.31,11.28-1.12,2.61,.91,5.09,3.04,6.88,11.84,10,22.84,20.96,35.05,30.54,.64,.5,1.81,.96,1.43,1.98-.37,1.01-1.57,.7-2.38,.6-10.06-1.23-19.64-3.63-27.09-11.2-8.17-8.3-16.77-16.11-26.15-23.04-1.09-.81-1.98-1.81-2.5-3.05-2.06-4.9-5.32-8.88-9.18-12.48-2.19-2.05-3.83-4.58-5.36-7.17-.98-1.67-.63-2.72,1.42-2.97,1.87-.22,3.73-.47,6.38-.81Z"/><path class="cls-2" d="M1238.4,549.09c3.69-6.05,9.21-10.44,13.75-15.72,6.67-7.76,14.63-14.19,22.43-20.77,2.41-2.04,5.16-2.77,8.28-2.91,11.91-.52,23.72,.39,35.5,2.04,.76,.11,1.71,.03,2.08,.79,.51,1.04-.54,1.56-1.08,2.18-2.75,3.18-6.43,5.1-10.07,6.96-5.53,2.83-11.21,5.37-16.81,8.07-3.83,1.84-7.89,1.91-12.04,1.98-12.01,.19-22.29,5.12-31.6,12.22-3.17,2.42-6.74,3.74-10.44,5.16Z"/><path class="cls-2" d="M1039.63,750.49c-2.6,.03-4.99-.75-7.42-1.6-13.65-4.8-26.37-11.6-39.36-17.84-5.8-2.79-11.14-5.91-15.36-10.79-1.68-1.94-3.21-3.98-3.72-6.57-.22-1.14-.13-2.32,.91-2.99,1.09-.7,2.15-.08,3.05,.6,.61,.46,1.24,1,1.63,1.64,2.63,4.4,6.66,6.25,11.61,6.65,6.25,.51,12.14,2.62,18.04,4.53,9.81,3.17,19.62,6.36,29.18,10.28,4.31,1.77,7.48,4.41,7.85,9.34,.39,5.15-1.3,6.86-6.4,6.76Z"/><path class="cls-2" d="M940.18,516.95c1.75,.24,4.28,.54,6.8,.94,1.25,.2,2.49,.74,2.79,2.06,.64,2.79,2.76,3.83,5.09,4.74,4.92,1.93,7.55,5.44,8.98,10.65,1.68,6.1,3.26,12.13,3.77,18.46,.27,3.36,2.56,6.1,3.63,9.24,.3,.88,1.2,1.99,.06,2.67-1.06,.64-1.83-.49-2.47-1.2-3.92-4.36-7.38-9.15-12.15-12.7-.71-.53-1.31-1.23-2.08-1.65-6.97-3.75-11.91-9.48-15.96-16.1-.63-1.04-1.26-2.19-2.18-2.92-2.91-2.27-3.31-5.27-3.1-8.63,.28-4.35,1.6-5.64,6.82-5.59Z"/><path class="cls-2" d="M527.38,745.22c2.72,.21,5.79,.88,8.61,2.7,7.7,4.97,15.79,8.61,25.09,10.07,7.26,1.14,14.26,4.13,20.97,7.42,.79,.39,1.54,.88,2.26,1.41,1.25,.92,2.93,2.04,2.16,3.66-.65,1.38-2.4,.24-3.66,.18-6.15-.33-12.07-1.64-17.8-3.93-2.18-.87-4.53-1.09-6.89-.97-7.9,.38-15.75-.66-23.63-.72-3.92-.03-7.33-1.2-9.97-4.42-2.45-2.98-5.63-5.33-7.47-8.87-1.13-2.17-.75-3.53,1.48-4.48,2.67-1.14,5.35-2.2,8.86-2.04Z"/><path class="cls-2" d="M1209.26,537.57c.66-12.34,9.35-19.73,16.64-27.93,1.13-1.27,1.78-4.27,3.92-3.17,1.87,.96,.96,3.64,.52,5.54-2.48,10.59-5.42,21.04-11.56,30.22-3.98,5.96-5.65,12.7-7.19,19.51-.3,1.31-.5,2.66-1.63,3.53-1.16,.9-1.8,3-3.63,2.42-1.88-.6-2.92-2.37-3.35-4.27-.39-1.72-.71-3.49-.74-5.25-.11-5.64-.07-11.29-.08-16.93,0-.33,.06-.66,.14-.98,.54-2.24,.63-5.2,2.59-6.18,1.53-.76,2.25,2.53,4.37,3.51Z"/><path class="cls-2" d="M787.43,737.37c0,1.27,.03,1.94,0,2.6-.03,.65,.1,1.43-.59,1.79-.91,.47-1.43-.33-1.96-.83-2.4-2.3-4.89-4.57-6.7-7.38-4.84-7.53-11.89-13.45-15.58-21.86-4.02-9.16-6.05-18.7-6.45-28.61-.08-1.88-.41-4.6,1.88-5.15,1.92-.46,3.12,1.85,4.07,3.41,1.09,1.78,1.84,3.77,2.71,5.68,2.21,4.83,4.15,9.79,7.69,13.91,1.67,1.94,2.69,4.32,3.65,6.69,2.48,6.18,5.25,12.23,9,17.77,2.63,3.89,1.23,8.44,2.29,11.97Z"/><path class="cls-2" d="M1187.75,452.86c2.42,2.48,3.87,5.31,3.65,8.63-.51,7.63-.14,15.24,.12,22.85,.25,7.23-.92,14.34-1.64,21.49-.56,5.55-1.95,11.24,2.28,16.18,.5,.58,.69,1.74,.51,2.52-.93,4.21-1.99,8.39-3.09,12.56-.21,.8-.63,1.88-1.72,1.71-.85-.13-.91-1.14-1.11-1.88-2.48-9.12-2.41-18.41-1.45-27.68,.38-3.63,.86-7.23,.86-10.89,0-15.14,2.21-30.21,1.6-45.48Z"/><path class="cls-2" d="M1186.28,445.62c-1.93-2.93-2.69-5.45-2.84-8.05-.33-5.87-.12-11.69,1.35-17.48,2.23-8.74,2.31-17.65-.19-26.27-2.12-7.3-6.14-13.44-13.07-17.68-5.05-3.09-9.42-7.37-12.34-12.76-.44-.81-1.26-1.91-.35-2.71,.73-.64,1.62,.3,2.42,.6,7.35,2.73,11.6,9.09,16.67,14.43,1.99,2.1,3.95,4.17,6.31,5.85,3.55,2.52,5.02,5.84,3.73,10.11-.8,2.62-.55,4.96,1.14,7.21,1.94,2.58,2.21,5.61,1.35,8.57-1.77,6.11-1.21,12.57-3.01,18.66-1.82,6.13-1.49,12.42-1.18,19.52Z"/><path class="cls-2" d="M1764.35,475.03c.36-6.13-1.38-11.94-1.87-17.89-.72-8.7-5.16-15.96-10.04-22.87-1.88-2.65-1.36-3.67,1.47-4.68,3.62-1.28,7.26-2,11.1-1.74,1.79,.12,2.86,.64,2.73,2.81-.69,11.5-1.07,23.01-.96,34.53,.03,3.46-.93,6.7-2.42,9.83Z"/><path class="cls-2" d="M840.35,253.93c-5.47,4.85-11.56,6.69-18.19,7.03-2.23,.12-4,1.18-5.77,2.36-1,.67-2.32,2-3.23,1.28-3.74-2.97-8.28,.02-12.18-1.95-1.61-.82-3.46,.44-4.92,1.46-1.85,1.28-3.22,1.48-3.84-1.16-.21-.88-.62-1.78-1.47-2.13-3.62-1.53-.97-2.68,.38-3.17,3.01-1.08,6.21-1.9,9.4-.82,2.77,.95,5.33,.68,8.12-.05,4.58-1.21,9.49-1.21,13.55-4.14,.39-.28,1.32-.41,1.57-.17,4.44,4.27,9.33,.52,13.97,.85,.74,.05,1.47,.34,2.61,.62Z"/><path class="cls-2" d="M982.7,573.13c0,1.11,.04,2.21,0,3.32-.05,1.23-.08,2.59-1.64,2.88-1.42,.26-2.38-.68-2.87-1.82-1.41-3.24-2.91-6.47-3.9-9.85-.88-3.01,.65-4.7,3.89-5.27,3.13-.55,3.87,1.25,4.03,3.8,.08,1.32,.36,2.63,.46,3.95,.08,.99,.02,1.99,.02,2.99h.03Z"/><path class="cls-2" d="M954.67,486.38c2.52-.4,3.68,.8,3.5,3.53-.23,3.43,.37,6.79,1.01,10.15,.15,.82,.56,1.89-.57,2.29-.85,.3-1.41-.5-1.84-1.11-2.4-3.39-4.17-7.21-7.62-9.85-1.18-.9-.81-2.39,.4-3.44,1.42-1.23,3.09-1.62,5.13-1.57Z"/><path class="cls-2" d="M1149.25,289.52c-5.82,.03-11.27-2.06-16.92-3.03-.96-.17-2.11-.52-1.88-1.85,.18-1.09,1.11-1.63,2.18-1.72,.87-.07,1.77-.07,2.63,.08,5.45,.91,10.86,1.99,16.15,3.64,1.13,.35,2.89,.5,2.64,1.95-.26,1.51-2.03,.74-3.14,.91-.54,.08-1.1,.01-1.66,.01Z"/><path class="cls-2" d="M1009.86,294.07c-5.07,.6-10.84,.93-16.41,2.62-1.2,.36-2.92,1.34-3.52-.33-.71-1.95,1.42-2.3,2.65-2.62,6.88-1.78,13.9-2.85,20.97-3.51,1.29-.12,2.92-.05,2.93,1.85,.01,1.6-1.39,1.84-2.62,1.96-1.1,.11-2.22,.02-3.99,.02Z"/><path class="cls-2" d="M947.44,313.2c-.36,1.16-1.05,1.76-1.87,2.09-6.45,2.61-12.92,5.18-19.4,7.72-.7,.28-1.59,.55-2.03-.4-.34-.74,.26-1.28,.76-1.67,1.21-.96,2.4-2.02,3.76-2.71,5.06-2.54,10.34-4.55,15.84-5.93,1.17-.29,2.4-.48,2.94,.89Z"/><path class="cls-2" d="M1094.26,281.62c1.99,0,3.98-.03,5.97,.02,.68,.01,1.39,.28,1.47,1.06,.1,.99-.66,1.41-1.47,1.41-6.43,.07-12.78,.97-19.13,1.88-1.54,.22-2.59-.86-2.59-2.39,0-1.61,1.46-1.37,2.5-1.43,4.41-.27,8.83-.49,13.24-.73v.17Z"/><path class="cls-2" d="M1340.09,533.05c11.77-2.91,23.54-5.82,35.31-8.73-11.02,5.97-22.83,8.68-35.31,8.73Z"/><path class="cls-2" d="M869.9,198.53q-1.79,6.16,4.6,8.26c1.36,.45,2.68,1.06,3.99,1.64,.71,.32,1.54,.73,1.02,1.7-.45,.83-1.41,.87-2.04,.43-3.37-2.3-7.15-2.66-11.06-2.69-1.41,0-1.69-1.29-1.96-2.34-.51-2.07,.16-3.96,1.53-5.44,.94-1.02,2.36-1.48,3.93-1.56Z"/><path class="cls-2" d="M891.6,244.62c2.59,1.51,4.71,1.72,7.11,.95,5.92-1.91,6.95-1.58,12.3,2.7-.36,1.05-1.29,.68-1.93,.62-4.81-.51-9.68,.6-14.47-.61-1.7-.43-2.79-1.12-3.01-3.65Z"/><path class="cls-2" d="M895.61,300.82c1.55-.75,2.86-1.64,4.17-2.64,5.2-3.94,10.26-2.37,12.53,3.76,.22,.6,.76,1.24,.12,1.81-.57,.5-1.27,.2-1.85-.11-.58-.31-1.36-.62-1.59-1.13-1.73-3.84-4.67-2.79-7.57-2-1.88,.51-3.72,1.37-5.81,.31Z"/><path class="cls-2" d="M1189.15,298.74c3.52,.3,6.9,1.24,10.04,2.95,1.06,.58,2.38,1.14,1.57,2.71-.73,1.42-2.04,1.08-3.2,.66-3.1-1.14-6.19-2.31-9.24-3.57-.92-.38-2.57-.58-2.15-1.98,.38-1.27,1.92-.56,2.98-.77Z"/><path class="cls-2" d="M1691.01,350.12c9.41-7.62,19.78-13.83,30.03-20.21-9.14,8.02-19.59,14.1-30.03,20.21Z"/></g></g><path class="cls-3" d="M940.85,480.71c8.82,.87,19.81,2.94,26.18,5.12l1.25-3.81c-6.75-2.07-17.64-4.14-26.29-5.01l-1.14,3.7Z"/><path class="cls-3" d="M940.96,463.84c9.25,1.03,20.79,3.16,28.31,5.99l1.58-3.81c-7.51-2.67-19.38-4.84-28.63-5.82l-1.25,3.65Z"/></g></svg>