<?xml version="1.0" encoding="UTF-8"?><svg xmlns="http://www.w3.org/2000/svg" viewBox="0 0 2275.08 1394.49"><defs><style>.cls-1{fill:#edcb8a;}.cls-2{opacity:.3;}</style></defs><g id="clouds" class="cls-2"><path class="cls-1" d="M260.22,819.55l.98,572.38h2001.91v-307.49s-2.02-650.27-2.02-683.54c-8.84-14.03-20.48-23.66-37.06-23.68-10,0-19.75,3.1-27.91,8.88-7.75-11.15-20.47-17.81-34.05-17.81-18.1,0-33.92,11.71-39.43,28.61-4.6-.59-9.27-.9-13.98-.9-12.64,0-25.11,2.18-36.89,6.36-5.6-6.18-13.65-9.91-22.34-9.91-7.13,0-14,2.53-19.42,7.08-17.15-15.23-39.46-23.91-62.89-23.92-29.38,0-56.13,13.5-73.67,35.17-.82-.07-1.63-.11-2.46-.11-6.44,0-12.72,2-17.98,5.72-4.99-7.18-13.18-11.47-21.93-11.47-12.6,0-23.49,8.81-26.12,21.13-3.04-1.45-6.36-2.19-9.72-2.2-7.3,0-14.16,3.52-18.42,9.46-2.78-7.7-10.09-12.84-18.28-12.84-5.16,0-10.1,2.05-13.75,5.7-3.65,3.65-5.7,8.59-5.7,13.75,0,2.28,.41,4.54,1.19,6.68-.56-.05-1.13-.08-1.7-.08-1.51,0-2.97,.19-4.37,.51-12.15-10.24-27.76-16.22-44.39-16.24-18.29,0-35.84,7.27-48.77,20.2-12.93,12.93-20.2,30.48-20.2,48.77,.01,8.08,1.45,16.1,4.24,23.68-2-.19-4.02-.28-6.04-.29-32.46,0-59.66,22.43-67.01,52.63-3.88,2.41-7.31,5.57-10.04,9.38-4.32-11.96-15.66-19.93-28.38-19.94-8.01,0-15.69,3.18-21.35,8.84-5.66,5.66-8.84,13.34-8.84,21.35,0,.44,.01,.87,.03,1.31-11.34,5.12-21.26,13.25-28.57,23.76-13.72-9.71-30.12-14.93-46.93-14.93-27.88,.02-53.8,14.34-68.66,37.93-13.74-9.74-30.16-14.98-47-14.98-44.04,0-79.87,35.06-81.16,78.79-.4,0-.8-.02-1.21-.02-30.54,0-55.86,22.34-60.51,51.58-11.34,3.35-21.38,10.46-28.3,20.41-10.35-7.33-22.72-11.27-35.41-11.27-21.04,.02-40.59,10.82-51.81,28.62-7.08-5.02-15.1-8.45-23.53-10.13,.21-5.32,0-10.64-.81-15.95-2.65-17.49-11.7-34.98-24.08-47.57-.64-.65-1.31-1.3-1.99-1.94-5.44-2.75-11.47-4.21-17.6-4.21-9.9,0-19.42,3.77-26.65,10.54-4.9-12.26-16.7-20.36-29.9-20.53,.61-2.73,.92-5.53,.93-8.33,0-21.15-17.15-38.3-38.3-38.3-1.12,0-2.24,.06-3.35,.16,1.55-4.21,2.34-8.66,2.35-13.15,0-10.16-4.03-19.9-11.22-27.08-7.18-7.18-16.93-11.22-27.09-11.22-16.13,.01-30.52,10.12-36,25.3-8.38-11.7-21.89-18.63-36.28-18.64-6.63,0-13.17,1.48-19.15,4.33-1.03-4.8-2.7-9.33-4.89-13.51,6.89-10.02,10.77-22.05,10.78-34.66,0-32.75-25.69-59.5-58.02-61.2-4.66-7.63-10.13-14.71-16.2-20.89-.85-.87-1.73-1.73-2.64-2.57-7.21-3.65-15.2-5.57-23.33-5.57-12.75,0-25.03,4.73-34.49,13.24-.41-.1-.83-.19-1.24-.27-6.73-15.68-22.07-25.99-39.21-26.2,.81-3.62,1.22-7.33,1.23-11.04,0-28.04-22.73-50.76-50.76-50.76-1.49,0-2.97,.08-4.44,.22,2.05-5.58,3.11-11.48,3.12-17.43,0-13.46-5.35-26.37-14.87-35.89-9.52-9.52-22.43-14.87-35.9-14.87-21.38,.01-40.45,13.42-47.71,33.52-11.11-15.5-29.01-24.69-48.07-24.7-8.78,0-17.45,1.96-25.38,5.73-6.87-32.18-35.3-55.17-68.2-55.17-22.83,0-39.84,16.67-39.84,36.64"/></g></svg>