<?xml version="1.0" encoding="UTF-8"?><svg id="Layer_2" xmlns="http://www.w3.org/2000/svg" viewBox="0 0 1999.01 999.57"><defs><style>.cls-1{fill:#edcb8a;opacity:.3;}</style></defs><g id="clouds-front"><path class="cls-1" d="M1999.01,999.57V27.35c-4.73,4.33-8.74,9.51-11.74,15.42-10.02-10.36-24.08-15.7-38.38-14.54-2.02,.17-4.03,.47-6,.89l-4.64-14.17c-6.35-1.02-12.8-1.07-19.14-.19-10.31-10.02-22.59-15.87-38.47-14.58,0,0-33.69,1.05-43.26,18.23-11.65-2.92-24.14-2.63-36.1,1.34-22.6,7.51-39.33,26.86-43.65,50.48-5.45-.13-10.89,.68-16.07,2.39-13.61,4.53-24.51,14.94-29.73,28.4-14.24-12.07-33.65-15.85-51.3-10-13.52,4.49-24.71,14.22-31.1,27.05-6.4,12.83-7.48,27.7-3.01,41.35,1.99,6.04,5.02,11.69,8.95,16.67-16.36,9.25-26.73,26.46-27.35,45.38-9.27-3.82-19.59-4.2-29.1-1.05-22.1,7.34-34.09,31.39-26.78,53.71,.7,2.14,1.58,4.22,2.61,6.22-12.57,6.65-21.91,18.18-25.86,31.94-12.05-10.91-28.95-14.49-44.3-9.38-7.3,2.42-13.78,6.67-18.92,12.25-5.15,3.48-9.74,7.89-13.49,13.12-5.02,7-8.08,14.8-9.34,22.77-4.68,5.43-8.31,11.84-10.51,18.94-6.59,21.24,.75,43.56,16.86,57.19-4.85,5.43-8.64,11.94-10.92,19.3-3.83,12.36-2.94,25.74,2.49,37.57-18.81-.65-35.65,11.25-41.19,29.1-1.71,5.53-2.23,11.37-1.55,17.13-19.1,2.24-35.02,15.42-40.7,33.69-2.86,9.23-2.82,18.83-.28,27.72-.87,.72-1.72,1.47-2.52,2.27-4.13,.2-8.12,1.13-11.82,2.69l-1.81-.57c-3.97,2.1-8.64,3.04-13.12,3.04-.15,.23-.31,.46-.45,.69-11.04,3.23-19.69,11.73-23.09,22.68-3.43,11.07-.97,22.77,5.83,31.48-3.06,1.47-5.97,3.33-8.66,5.58-4.17,3.5-7.6,7.81-10.11,12.65-.34,.21-.67,.43-1,.66-17.16-8.16-37.41-5.65-51.94,6.51-7.4,6.21-12.57,14.3-15.25,23.14-1.12,.13-2.24,.3-3.34,.54-3.58-2.07-7.44-3.45-11.39-4.14l-1.11-1.34c-4.59-1.17-9.2-2.36-13.44-4.37-.03,.01-.06,.02-.08,.04-11.03-3.26-22.91-.81-31.7,6.55-12.96,10.86-16.1,29.63-7.41,44.3-1.95,.47-3.83,1.14-5.65,1.97-.2-.03-.4-.07-.61-.1-9.23-11.06-24.91-14.66-38.04-8.21-.25,.12-.48,.27-.73,.4-4.53-1.13-9.04-2.33-13.51-3.63-8.43-2.46-16.75-5.28-24.94-8.42-2.24-9.5-6.65-18.56-13.18-26.42-15.23-18.31-39.34-26.85-62.91-22.26-1.86-5.13-4.6-9.89-8.08-14.1-9.17-11.03-22.84-17.39-37.28-17.34,6.05-17.66,2.51-37.11-9.37-51.42-9.11-10.95-22.24-17.83-36.52-19.12-14.27-1.29-28.52,3.12-39.6,12.26-4.9,4.06-9.06,8.93-12.27,14.41-10.69-8.71-24.2-12.84-37.69-11.94-4.65-7.05-9.17-14.18-13.57-21.36-.28-.46-.47-.92-.6-1.37-1.88-.29-3.82-.38-5.78-.22-.91,.08-1.82,.21-2.72,.38-.48-.65-.97-1.29-1.49-1.92-11.05-13.29-28.65-18.04-44.39-13.5,.26-2.97,.28-5.98,.03-8.99-2.3-28.41-25.92-49.92-53.7-49.83-4.29-.72-8.69-.93-13.09-.58-.32,.03-.63,.07-.94,.1-4.32-14.2-17.95-23.99-33.22-22.75-.34,.03-.67,.08-1,.12-1.26-3.26-2.8-6.44-4.64-9.46-8.13-13.34-21.22-22.89-36.4-26.57-.05,0-.09-.02-.14-.03,.43-1.24,.8-2.51,1.12-3.78,2.81-11.58,.9-23.8-5.3-33.97-6.2-10.17-16.19-17.46-27.77-20.27-15.63-3.79-32.1,1.07-43.17,12.74-5.02-13.21-15.2-23.8-28.2-29.33,.86-2.05,1.56-4.16,2.09-6.32,5.46-22.5-8.36-45.17-30.86-50.63-9.68-2.34-19.88-1.15-28.77,3.34-2.14-18.54-13.8-34.62-30.76-42.41,3.5-5.21,6.05-11,7.54-17.09,3.34-13.76,1.07-28.29-6.3-40.38-7.37-12.1-19.24-20.76-33.01-24.1-17.97-4.34-36.9,.92-50.06,13.9-6.26-12.81-17.9-22.18-31.76-25.54-5.28-1.27-10.73-1.63-16.13-1.07-6.17-22.86-24.31-40.54-47.32-46.12-12.18-2.95-24.59-2.25-35.9,1.55-10.87-16.11-44.35-14.47-44.35-14.47-15.85,0-27.55,6.72-36.97,17.38-6.35-.36-12.74,.2-18.96,1.71l-3.47,14.29c-1.99-.26-4.01-.39-6.02-.39-14.26,0-27.78,6.36-36.88,17.34-9.72-15.72-26.89-25.3-45.37-25.31-2.02,0-4.02,.13-6.01,.35V999.57H1999.01Z"/></g></svg>