<?xml version="1.0" encoding="UTF-8"?><svg id="Layer_2" xmlns="http://www.w3.org/2000/svg" viewBox="0 0 2004.1 1343.86"><defs><style>.cls-1{fill:#924d25;}</style></defs><g id="forest-front"><path class="cls-1" d="M1997.64,360.37c.29-3.46,3.08-5.03,4.38-8.21-7.18,1.98-8.14-.63-4.04-6.31q-7.17,2.06-4.3-10.58c-3.01,1.72-5.11,3.8-6.63,6.5-.67,1.19-1.37,2.65-2.94,1.83-2.05-1.07-.54-2.37-.08-3.84,2.67-8.58,5.08-17.25,6.85-26.2-3.26,1.33-4.38,4.14-5.68,6.66-1.27,2.45-2.34,4.99-5.65,4.64-2-.21-3.14-1.73-3.19-3.7-.09-3.21-1.28-6.82,2.29-9.06,1.09-.69,2.45-1,3.73-1.32,6.56-1.66,9.11-7.14,6.44-13.66-1.75-4.28-3.3-8.65-5.27-13.84-1.77,2.9-3.16,5.19-4.55,7.49,.5-8.07-.58-15.72-4.27-23.07-.84,4.34-.15,9.09-3.94,12.32h0c-9.51,1.45-5.72,8.3-5.23,13.51,.31,3.28,1.4,6.42-1.14,9.13-1.4-.14-1.99-.82-2.3-1.67,.52-.72,1.03-1.44,1.5-2.16,.42-.12,.73-.3,.91-.61l-3.59-2.74-.73,.36h-47.85v4.13h44.63c-4.81,7.05-13.13,14.9-21.34,20.74-4.38-3.34-9.24-6.57-13.56-9l-2.92,3.1c10.28,6.02,22.26,16.05,28.64,23.53l3.7-3.21c.34,3.17,2.37,5.7,5.62,7.49,3.02,1.65,6.27,2.89,9.14,4.99-7.56,1.85-13-3.06-19.36-6.16,0,1.04-.14,1.67,.02,2.21,.91,2.95,6.69,4.15,4.16,7.78-1.97,2.82-6.17,.51-9.39,.31-.58-.03-1.17,.16-2.8,.4,3.49,2.28,6.9,2.85,9.27,5.21,1.9,1.89,2.17,4.2-.4,4.48-2.43,.27-4.38,1.58-6.32,2.95l-.06-.25h-5.11l-.93,3.51c-1.4,.32-2.95,.33-4.77-.19,1.53,1.74,2.88,2.3,4.17,2.44l-.86,3.24c-3.24-.39-6.52-.01-9.97,.15-1.59,.07-3.18,.19-4.75,.32l-2.22-9.47h-5.35l2.48,9.99c-5.81,.7-11.55,1.69-17.33,2.68-1.29,.22-3.33-.23-3.27,1.21,.14,3.14-.89,1.94-2.65,1.44-2.25-.63-2.51-1.27-2.19-3.65,.37-2.79,2.26-5.14,2.41-7.5-2.34-2.57-3.52,.19-5.21,.11-7.32-.34-10.01,3.58-7.85,10.71,.95,3.14,3.91,6.37,.53,9.75-2.08,.29-2.12-1.35-2.65-2.49-.48-1.03-1.07-2.12-2.35-2.05-1.79,.09-1.88,1.64-1.97,2.94-.33,4.94-1.91,6.55-5.77,2.23-.95-1.06-2.15-1.92-3.49-1.56-5.05,1.37-9.06-1.27-13.26-3.18-2.28-1.04-4.76-2.53-6.37,.5-2.12,4.01-7.45-1.19-8.88,3.24-1.23,3.84,5.03,3.24,4.78,7.75-.26,4.57,1.51,8.7-4.14,11.62-4.45,2.3-.77,5.43,1.28,7.86-2.96,1.85-5.07,.18-7.71-.4,.94-2.07,2.75-3.61,.17-6.1-2.51-2.43-4.28-1.16-6.48-.61-1.95,.48-3.22,2.78-5.98,1.27-1.87-1.02-3.3,.89-3.08,3,.2,2.02,.61,4.04,3.67,3.36,1.56-.35,4.36-2.62,4.49,1.11,.08,2.34-2.12,4.11-4.72,3.37-2.62-.74-4.09-.75-4.82,2.41-.44,1.88-2.6,1.11-4.08,1.07-1.31-.04-3.43-.77-3.79-.24-3.86,5.69-9.19,3.99-14.41,3.3-1.91-.25-4.23,.73-4.01,2.53,.31,2.56-.62,6.15,3.11,7.34,2.74,.87,5.59,2.32,8.3,2.14,4.81-.32,.37,6.13,4.41,5.45,2.56-.43,6.54-3.07,7.23-2.31,6.32,6.97,16.03,3.82,23.32,8.46-3.44,2.58-6.58,5.09-10.52,.91-.36-.38-1.6-.57-1.85-.31-7,7.61-17.25,.71-25,5.59-1.74,1.09-2.74,2.16-3.08,3.72-.55,2.54,.77,4.25,3.32,4.91,5.97,1.54,10.39,4.92,12.72,10.76-17.46,3.39-27.83,6.07-37.98-24.37,.2,6.26-7.06,10.18-4.55,17.28,.68,1.93,3.18,4.26-.12,6.4-3.01,1.95-5.79,2.7-9.14,.53-1.66-1.07-2.35-4.83-5.11-2.92-1.92,1.32-1.34,4.23-.97,6.29,.71,3.99-1.22,7.21-2.7,10.96-2.58-6.47-8.7-11.68-6.92-19.41,1.28-5.57-.44-10.63-1.8-15.56-1.67-6.06-5.53-11.44-5.99-18.29-4.32,2.11-2.3,6.19-4.52,8.83-5.03-1.5-10.48-2.27-12.51-8.78-.95-3.04-4.02,.06-5.93-1.19-8.71-5.72-17.35-1.67-26.02,.26-1.68,.37-3.71,3.12-5.08,.14-1.18-2.57,.12-4.81,2.87-5.8,3.65-1.32,5.9-3.38,7.88-7.18,2.88-5.52,6.17,1.27,10.09,1.12,2.18-5.67,7.87-9.99,7.96-17.01-6.89-3.01-12.33-9-20.06-10.77-1.38-.32-2.55-2.01-2.08-3.78,.6-2.25,2.03-4.52,4.3-4.62,3.74-.16,5.13-3.13,7.31-5.06,2.04-1.8,1.84-5.74-.07-5.97-5.31-.63-4.3-4.14-4.59-7.3-.37-3.91-11.44-6.76-15.56-4-6.73,4.49-8.7,4.25-10.34-3.11-1.75-7.82-8.46-14-7.14-22.74,.19-1.27-.68-2.6-2.3-2.83-1.32-.19-2.17-.18-3.04,1.49-1.13,2.17-3.32,3.8-5.28,5.92-4.06-4.38-7.07-8.7-7.93-14.34-.25-1.64-.51-3.74-2.88-3.92-2.22-.17-1.84,2.49-2.6,2.94-4.99,2.92-1.52,11.38-8.72,12.95-.89,.19-.78,4.21,.59,6.16,1.74,2.49,1.64,5.5,2.59,8.21,.58,1.65,.3,3.34-1.7,3.65-2.37,.37-1.17-1.65-1.56-2.68-.26-.71-1.06-1.48-1.78-1.69-1.31-.38-2.14,.56-2.29,1.76-.65,5.51-4.72,10.69,1.35,16.54,2.97,2.87,4.19,8.32,6.98,12.33,1.66,2.38,.71,5.56-3.86,5.36-3.62-.16-7.38,.17-10.9,1.03-3.44,.84-4.7,3.68-2.46,6.66,3.18,4.24,5.88,8.95,10.38,12.09,2.24,1.56,5.2,3.24,4.45,6.19-.88,3.47-3.8,5.42-7.57,6.32-2.27,.54-5.95-1.15-6.68,2.52-.71,3.59,2.46,5.34,4.79,7.31,.49,.42,1.52,.5,1.68,.95,.95,2.74,5.19,4.67,3.1,7.96-1.75,2.77-5.44,3.42-8.48,2.42-5.75-1.89-9.03,0-10.22,5.66-.86,4.07-4.08,3.43-6.75,3.64-8.01,.65-8.92,1.7-8.94,9.49,0,3.06-1.32,6.14-1.18,9.17,.16,3.59-1.96,5.03-4.56,5.4-3.15,.45-4.68-1.94-5.26-4.86-.72-3.64-1.47-7.27-2.22-10.91-.83,.15-1.57,.16-1.6,.32-1.75,8.41-7.17,16.05-5.03,25.34,.47,2.03,2.79,5.17-2.2,6.75-1.72,.54-.37,6.19,.19,9.45,.43,2.52,1.4,4.92-2.63,5.24-2.27,.18-1.83,2.2-1.7,3.67,.27,2.95,1.61,5.49,3.3,7.91,1.06,1.52,3.78,2.83,2.2,4.97-1.75,2.37-4.9,3.14-7.72,3.2-2.79,.06-3.12-2.68-3.69-4.84-.55-2.08-.24-4.45-3.09-7.58-.35,7.96-7.27,13.2-3.23,21.03,.77,1.48-.63,3.79-.85,5.02-1.1,6.04-2.35,12.02-3.77,18.03-.58,2.48,2.77,4.79,4.86,7.36-3.12,2.13-5.09,4.27-6.22,8.04-1.07,3.57-7.01,3.43-10.4,3.07-2.94-.31-1.76-4.56-.59-6.7,2.56-4.68,5.37-9.21,6.26-14.56,.7-4.18,.12-4.89-4.49-6.1,.51-1.24,.78-2.6,1.52-3.61,4.24-5.75,3.69-10.49-2.74-14.13-1.12-.63-1.5-1.69-1.31-2.83,.84-5.09-1.34-5.31-4.86-2.76-1.31-2.58,.47-4.23,.71-6.13,.37-2.84,3.84-5.53-2.25-7.9-3.69-1.43-2.36-8.62-1.73-13,1.32-9.09-.84-17.53-4.07-25.6-2.38-5.95-4.29-11.96-5.58-18.15-.81,.06-1.54,.02-1.56,.13-1.97,8.61-7.24,16.6-4.76,26.07,.45,1.73,1.73,3.72-2.05,4.92-2.64,.84-.65,5.12-.6,7.87,.06,2.89,2.32,5.63-2.8,7.93-3.76,1.69-.53,6.93,1.43,9.87,2.56,3.84,6.58,7.16-1.55,9-1.66,.38-2.28,2.16-2.37,3.73-.22,3.84-.02,6.88-5.73,7.58-3.57,.44-1.61,5.93-.63,8.1,2.11,4.69,3.7,7.46-3.5,8.33-2.11,.26-3.79,3.95-7.23,3.43-2.12-.32-4.19-.53-4.46-3.04-.35-3.27,1.84-2.55,3.98-2.47,3.32,.13,4-1.78,2.05-4.22-1.07-1.34-2.84-2.12-5.29-3.87,5.56-1.1,7.2-4.93,5.63-6.91-4.55-5.71,.92-5.48,3.43-7.02,1.81-1.12,4.34-.79,6.98-3.98-8.38,3.97-7.45-10.54-17.16-4.05,1.78-3.38,2.64-5,3.5-6.64-1.77-1.77-3.22,1.51-4.26,.63-.82-22.6,3.01-45.54-13.37-64.23-1.95,3.08-.43,9.28-7.55,9.46-.73,.02-.79,7.68,.33,11.75,.42,1.54,.76,3.19-.77,4.28-1.78,1.27-2.35-1.79-4.57-1.15-.5,5.2-1.02,10.61-1.59,16.67-.83-1.77-1.36-2.91-1.96-4.21-6.75,14.52-6.28,17.69,4.5,27.14-3.18-.58-5.5-1-8.61-1.56,2.57,6.63-1.92,6.01-6.28,5.73,2.88,2.95,7.35,2.6,7.81,6.82-1.62,2.72-5.44,.62-6.97,3.2-1.49,2.5-4.19,2.13-6.58,2.78,1.07,3.25,4,1.32,6.04,2.79-4.6,4.49,2.23,6.55,2.46,10.29-6.49,.57-8.13,3.49-4.99,8.53-3.61,2.16-7.04-4.21-11.17,1.29-.59-7.5,1.88-14.65-5.96-18.4-.87,.39-.83,3.94-3.52,2.65-1.73-.83-1.82-2.99-1.92-4.74-.22-3.98,.41-8.32-5.33-9.05-.94-.12-1.77-1.07-1.44-1.94,3.6-9.59-7.54-13.3-8.42-21.11-.12-1.07-.87-2.55-2.78-2.13-2.16,.47-2.08,1.82-1.87,3.53,.42,3.36,.12,6.12-4.49,4.1-1.07-.47-1.6,.36-2.05,1.14-4.2,7.13-8.59,14.04-13.67,20.69-3.26,4.26-3.76,12.28,.52,18.35,.71,1,.91,2.36,1.92,5.1-5.57-4.58-7.3-9.72-9.92-14.21-5.31,3.06-5.24,3.72,1.41,13.57-2.1,.29-2.33-1.64-3.29-2.62-.9-.93-1.72-1.94-2.6-2.95-6.11,7.38-6.07,8.31,0,15.04,1.99,2.2,4.64,3.76,4.69,7.54,.04,3.15,3.95,4.4,6.25,7.94-8.15-1.62-8.8-10.23-15.38-12.65-1.71,5.24,1.44,10.36,.19,15.4-.25,1,.27,2.5-.29,3.06-1.08,1.09-4.69-.55-3.5,3.1,1.29,3.95,1.97,8.25,6.04,10.73,6.25,3.81,11.43,9.35,18.72,11.69-11.85-1.28-20.17-11.52-32.68-12.91,1.6,7,9.32,10.16,9.13,17.3-5.69,.63-10.57-3.27-13.3-6.27-6.39-7.02-8-.83-10.01,2.58-1.89,3.18-.28,8.28-5.98,9.51-.88,.19-.89,4.32,.43,6.17,1.81,2.53,1.5,5.56,2.62,8.17,.73,1.71,.85,3.13-.96,3.85-2.04,.82-2.03-.91-2.19-2.23-.16-1.34-.99-1.94-2.26-1.92-1.45,.03-1.6,1.11-1.85,2.26-1.18,5.32-3.01,10.18-.43,16.11,1.82,4.17,1.06,9.47,3.16,14.14,1.27,2.82-.86,3.61-4.14,3.78-3.55,.18-9.75-.24-8.24,6.28,.68,2.95,3.83,7.47,5.45,8.04,3.82,1.36,4.25,5.5,7.66,6.81,1.08,.41,4.02,2.43,2.34,4.7-1.56,2.12-1.03,6.37-5.83,5.75-2.49-.32-5.18,.83-8.09,1.38-1.3,4.25,1.37,6.74,4.41,9.04,2.85,2.15,6.31,4.63,4.77,8.41-1.44,3.53-5.72,3.02-8.97,2.56-4.73-.68-8.37-.38-9.31,5.41-.69,4.28-4.44,3.84-7.41,3.93-6.26,.19-9.4,2.62-8.81,9.42,.3,3.44-.74,7.01-1.3,10.51-.4,2.54-2.13,3.86-4.61,4.01-2.67,.17-4.12-1.51-4.71-3.86-.96-3.79-1.74-7.64-3.41-11.51-2.17,8.57-7.41,16.27-5.58,25.68,.41,2.09,2.49,4.67-2.16,5.99-2.01,.57-.53,5.28-.24,8.11,.3,2.9,1.44,5.1-2.6,7.58-4.07,2.5-.47,7.25,1.55,10.47,3.95,6.32,3.89,6.64-2.87,8.55-3.09,.87-4.71-.1-5.48-2.97-.73-2.72-1.36-5.46-2.84-8.26-.62,7.05-8.35,12.53-3.75,20.66,.79,1.39,2.01,3.52-1.63,4.35-2.58,.59-.66,3.43-.54,5.24,.2,3,2.93,6.62-2.7,7.78-1.26,.26-.85,2.28-.64,3.61,1.31,8.39,.71,9.1-9.42,10.8,1.27-3.64,2.84-7.01,3.55-10.54,.51-2.49,2.85-5.93-2.66-7.08-2.64-.55-.42-3.54,.62-4.79,4.61-5.54,1.11-9.58-2.39-13.45-.92-1.02-1.98-1.71-1.86-3.16,.42-5.17-2.35-4.12-5.26-2.35-1.06-2.75,.69-4.61,1.01-6.71,.4-2.66,3.37-4.99-2.26-7.37-3.79-1.6-3.04-9.47-2.06-14.19,1.92-9.24-.94-17.66-4.18-25.51-2.37-5.74-3.61-11.65-5.3-17.48-.74,.13-1.48,.13-1.52,.3-2.05,8.58-7.1,16.56-4.95,26.03,.39,1.72,3.37,5.35-2.25,5.81-1.21,.1-.36,4.49-.27,6.9,.12,3.2,2.13,6.09-2.88,8.69-3.3,1.71-.2,6.9,1.83,10.01,4.13,6.33,3.76,7.33-3.96,8.36-1.53,.2-3.11,.11-4.66,.17-2.99,.11-2.33-1.48-5.38-2.74-3.14-1.3-5.53-6.28-9.85-3.22-1.54-2.16,.95-3.05,.63-4.8-1.26-1.57-3.24,1.49-4.69-.59-.76-3.72,2.3-6.91,1.63-11.27-.6-3.85-.2-7.74-2.31-11.4-.81-1.42-1.37-3.71-.79-5.08,4.18-9.88,.64-17.56-5.64-25.24-2.48-3.03-2.82-7.8-4.46-12.74-2.32,4.91-1.49,10.5-8.12,12.15-1.98,.5-.52,7.68,.25,11.78,.29,1.53,.62,3.24-1.1,4.17-2,1.08-1.8-2.36-3.93-1.86-1.73,4.85-1.09,10.22-2.06,15.64-1.05-.93-1.79-1.59-4.25-3.76,4.32,7.41-4.72,8.42-3.29,13.51,1.3,4.64,3.32,9.01,6.84,12.43-1.94,1.96-3.72-.23-5.62,.65,2.56,6.35-1.86,5.78-6.06,5.4,.45,2.35,2.4,2,3.52,2.71,1.69,1.07,3.94,1.84,3.96,4.08,.02,2.32-2.46,1.94-3.94,2.74-3.18,1.72-5.6,4.9-10.32,4.59,9.28,.25,5.39,9.01,10.71,12.18-4.31,.97-6.74-.57-9.36-.8,1.07,3.43,5.22,5.41,4.55,9.66-4.12,3.08-7.61-5.65-12.04,.68-.68-5.79-2.24-10.45,3.4-13.17-4.32,.07-7.16-5.46-12.49-2.83-1.98,.97-2.68-2.54-2.82-4.38-.32-4.06-.15-8.17-5.25-9.58-.52-.14-1.34-1.08-1.24-1.33,3.59-8.76-6.72-12.06-7.52-19.13-.19-1.65-1.47-3.54-3.49-3.53-2.75,.01-2.1,2.29-2.05,3.99,.05,1.69-.42,3.82-1.93,3.85-8.85,.18-8.4,9.09-12.2,13.64-2.9,3.48-7.7,6.47-7.87,12.99-.15,6.01,1.29,11.13,3.01,16.62-3.76-2.69-5.59-6.66-7.67-10.47-.56-1.03-.79-3-2.62-2.24-1.23,.51-3.27,.84-2.6,3.14,.79,2.71-1.11,5.2-2.3,6.59-4.64,5.42-2.5,9.83,1.85,13.07,5.06,3.77,4.12,10.89,9.17,14.51-6.52-1.14-7.16-9.43-13.33-11.16-1.77,3.46-.02,6.72-.21,9.92-.18,3.06,3.18,7.67-3.58,8.35-1.77,.18-.32,2.68,.09,4.02,3.35,10.99,12.98,14.86,22.09,19.27,1.1,.54,2.75,.05,3.6,3.33-12.72-2.5-21.47-12.9-35.82-14.75,6.54,6.76,8.48,14.72,16.14,18.23,4.12,1.88,2.18,5.57,2.72,9.76-8.43-4.07-11.56-14.11-21.12-15.05-.91,4.82,5.94,11.16-3.12,13.4,.65,4.25,8.28,8.54-.46,12.14,2.71,2.46,3.55,6.38,6.73,8.41-4.21,2.54-10.81-1.28-13.74,5.15,1.76-4.17,3.51-8.34,5.27-12.51-3.78-.68-6.47,.01-8.24,4.13-1.24,2.87-2.64,6.09-6.18,7.93,2.72-6.45,3.65-12.96,2.04-19.68-.31-1.29,.09-3.13-.66-3.86-12.6-12.29-18.98-27.68-22.61-44.5-.17-.77-.92-1.4-1.39-2.08-.64,.32-1.32,.48-1.34,.7-1.15,10.02-7.34,18.5-9.38,27.86-2.02,9.28-8.9,16.15-9.62,25.91-.53,7.16-4.15,1.15-6.32,0-1.01,1.6-1.89,4.29-2.88,4.34-4.81,.22-2.97,3.6-2.59,5.49,.79,3.96,.72,7.22-2.29,10.43-3.21,3.41-2.14,6.92,.13,10.88,3.28,5.73,6.13,11.71,10.36,17.02-6.71-6.09-13.67-11.27-22.1-14.69-3.66-1.48-6.39-5.23-6.63-9.99-.18-3.42-.23-7.05-3.18-9.92q-5.02,12.59-18.96,10.65c3.3-6.86,13.77-13.87,23.8-15.92,.28-1.97-2.25-2.1-2.46-3.62-.62-4.52-2.46-5.59-6.64-3.18-2.62,1.51-5.72,.39-6.87-2.22-1.49-3.39,2.28-3.05,3.95-3.81,10.02-4.58,10.02-7.52-.89-16.03,8.96-5.03,1.21-11.14,1.03-16.96-.04-1.26-1.11-3.4-.25-4.15,4.85-4.21,2.14-10.46,4.49-15.29,.35-.72,.42-2.37,.19-2.45-7.28-2.72-2.74-6.24-.72-9.59,.8-1.32,2.12-2.93,.76-4.21-2.31-2.18-5.07,0-7.64-.12-2.22-4.52-2.3-8.74,2.11-11.95,4.11-2.99-.86-4.41-1.31-6.4-1.75-7.85,2.94-14.21,3.74-21.37,.12-1.04,.64-2.04,.97-3.04-2.57-2.17-3.39,1.46-5.22,1.22-.19-1.39,1.65-2.31,.65-3.86-.71-.73-1.53-.36-2.32,.07-1.8,.97-3.89,2.16-5.48,.33-1.55-1.8-1.08-4.2,.08-6.25,2.19-3.85,4.8-7.53,5.54-11.99,.48-2.92,2.91-6.14-2.19-8.25-2.88-1.19-.08-3.9,1-5.49,3.67-5.41-.24-8.83-3.34-12.03-1.21-1.25-2.1-2.06-1.85-3.7,.95-6.19-2.67-2.9-5.03-2.29-1.35-2.67,.85-4.65,1.17-6.93,.36-2.58,3.55-5.99-2.5-6.38-2.06-.13-1.39-2.84-1.72-4.54-1.44-7.37,.72-14.68-.44-22.27-1.7-11.1-9.29-20.03-9.88-31.54-2.12,8.71-7.94,16.2-5.98,25.68,.43,2.1,2.85,4.94-2.07,6.76-2.5,.93-.06,6.1,.06,9.36,.08,2.32,2.05,4.9-2.74,5.79-3.52,.65-1.52,4.71-.61,6.77,1.81,4.08,.54,6.06-3.2,7.75-9.12,4.13-14.69,12.7-22.5,18.71-1.14-1.64,.22-2.2,.88-2.72,8.51-6.67,12.59-16.49,18.04-25.32,1.67-2.71,1.25-5.64-1.39-7.76-2.01-1.62-4.1-3.8-3.44-6.08,2.11-7.3-.43-12.81-6.08-17.46-1.45,.76-1.59,5.14-4.72,3.57-2.82-1.42-2.72-4.96-2.64-7.76,.17-5.8-.21-10.72-8.53-8.1,.51-3.79,1.16-6.62,1.18-9.45,.01-2.35-.04-5.43-2.36-6.51-4.46-2.08-5.63-5.87-6.78-10.02-1.07-3.87-3.16-6.66-8-5.09-.08,2.95,3.68,6.54,.97,8.59-3.5,2.64-9.22,5.94-12.28,4.7-4.5-1.81-8.41-.87-12.51-1-6.62-.21-15.35,4.15-18.27,8.81-2.81-3.48-6.95-1.81-10.14-2.7-6.84-1.91-5.49,4.17-8.07,6.18-.17,.13-.22,.44-.4,.52-4.95,2.3-9.13,5.45-11.49,11.37,.62-5.7,1-10.15-6.19-6.16-1.27,.7-3.36,.68-4.36-.7-5.66-7.88-12.99-4.3-20.24-3.57-6.08,.61-12.38,.08-18.46-.79-4.35-.62-4.28-4.26-1.09-5.99,8.51-4.63,16.15-12.53,27.45-8.73,1.83,.62,3.9,.87,6.29-.31-2.14-1.98-5.64,.11-7.31-3.31,3.06-1.41,6.2-2.84,9.33-4.31,2.29-1.07,4.2-.72,6.05,1.09,4.26,4.18,8.39,6.46,14.51,2.2,4.49-3.13,10.96-.29,14.36,1.67,6.64,3.83,11.2-2.94,16.74-.97,2.39-6,8.2-2.68,11.9-3.32,5.16-.89,7.95-4.09,8.78-7.17,.87-3.24-.13-7.53-5-10.11-4.97-2.63-10.59-3.13-15.29-6.1-1.1-.7-2.67-.91-2.54-2.61,.09-1.28,1.24-1.67,2.33-2.02,6.36-2.01,13.6-1.06,19.21-5.9,.75-.64,3.29,.68,4.95,1.25,1.35,.46,3.13,.91,3.13-.89,.02-6.06,5.17-4.67,8.14-5.25,3.72-.73,4.8-2.48,5.02-5.71,.23-3.51-1.85-4.13-4.65-3.8-1.69,.2-2.11-.94-2.94-2.05-2.56-3.45-5.9-5.45-10.39-6.06-3.42-.47-7.88-.46-7.82-6.16,.02-1.74-11.58-4.88-13.63-3.47-5.23,3.61-8.48-1.55-8.38-3.77,.4-8.47-6.07-7.87-10.81-9.38-2.05-.65-2.91-1.62-3.52-3.4-3.12-9.04-13.09-12.12-21.05-6.52-2.79-3.88-4.17-8.3-5.62-12.82-1.16-3.62-5.61-3.66-8.09-2.74-7.04,2.62-14.4,.52-21.59,2.61-5.69,1.65-9.36,1.86-4.95,8.43,.36,.54-.09,1.62-1.13,2.71-1.06-2.7-1.68-5.69-3.26-8.03-2.62-3.88-5.43,2.46-8.62-.05-.73-1.62,.57-3.44,.78-5.32,.18-1.6,2.7-2.64,.79-5.26-1.14,.21-2.38,.44-3.7,.52l13.04-23.15h-5.66l-6.69,12.89c-1.82,3.59-3.4,6.75-4.68,9.85h-.18c-1.4-3.35-2.86-6.32-4.62-9.79l-6.44-12.95h-5.78l13.36,25.17c-1.27,2.39-1.84,5.99-.89,8.59,.82,2.24,1.36,3.7,1.63,4.82v2.87c-.23,.72-.62,1.5-1.19,2.62-1.49,.3-1.86-.82-2.28-1.84-.58-1.42-.96-3.34-2.99-2.88-1.88,.42-1.75,2.37-1.85,3.88-.28,4.4-1.24,4.24-5.26,2.3-6.53-3.16-14.04-4.07-21.05-6.25-1.71-.53-6.04,2.85-9.77,3.21-1.81,.17-2.27,2.43-.7,3.58,5.79,4.25,4.49,10.38,4.67,16.15-1.97-.29-3.85-.51-5.44,1.28-1.85,2.08-4.05,2.91-6.25,.43-2.09-2.36-4.18-.73-6.04,.09-2.3,1.02-1.88,3.17-1.36,5.21,1.14,4.42,.83,6.59-5.17,6.87-3.98,.19-10.64,1.75-12.17,4.03-3.61,5.4-7.82,2.4-11.51,2.78-2.62,.27-5.98-1.02-6.22,2.48-.21,3.1-.13,7,5.25,7.6,3.42,.39,8.35,.43,8.96,5.95,.03,.3,.89,.81,.94,.76,6.15-5.67,10.6,2.01,16.1,2.38,5.58,.37,11.83,1.43,17.74,4.51-4.96,2.75-9.02,4.81-13.18,.47-.45-.47-1.91-.61-2.45-.24-8.76,5.96-19.53,2.51-28.86,6.06-1.14,.43-2.94-.07-3.54,1.49-.84,2.21,1.29,2.35,2.55,3.06,.76,.43,1.49,.92,2.2,1.43,5.81,4.24,14.84,3.94,16.65,13.42-4.97,2.02-11.64,1.46-17.56,.88-5.16-.51-7.89-6.5-9.17-11.82-.86-3.57-.59-7.46-3.18-11.09-2.6,2.66-2.41,5.7-2.58,8.34-.74,11.84-13.2,19.99-24.92,8.42-.63,6.49-3.61,14.01-1.07,17.34,2.8,3.68,4.33,10.69,11.67,10.81,5.03,.09,5.61,5.18,5.1,8.64-.49,3.32,2.96,8.44-3.87,10.05-4.49,1.06,.21,4.8-1.16,7.75-2.5-.22-5.86,2.04-7.31-2.9-.53-1.8-2.4-1.94-3.9-.99-1.38,.87-1.39,2.51-.31,3.43,2.64,2.26,.06,8.1,5.71,8.29,.05,0,.34,2.1,0,3.03-1.78,4.96-5.79,9.16-4.5,15.2,.32,1.49-.64,3.91-3.68,3.51-7.28-.95-11.94,3.29-15.89,8.61-2.09,2.82-4.1,5.7-8.31,7.54-.16-5.15-2.37-10.33,5.13-11.16,2.57-.28,2.11-2.48,3.08-3.78,3.54-4.73,7.12-9.44,11.44-15.15-10.06,.6-16.52,6.82-24.39,9.29-4.19,4.23-9.59,5.91-16.56,7.9,4.73-6.69,11.02-6.5,16.55-7.92-.86-3.4,2.1-4.31,4.01-5.29,6.87-3.51,9.34-9.64,10.77-15.97-10.64-4.84-.43-14.26-5.41-20.3-6.79,1.1-6.58,11.86-15.17,12.09,6.01-6.85,8.79-15.18,15.07-21.13,2.1-1.99,2.17-6.66,.4-7.02-2.65-.54-1.87-6.9-6.38-2.97,.37-1.95,.46-3.66,1.04-5.16,.91-2.34-.34-3.28-2.12-3.98-2.3-.9-2.52,1.21-3.2,2.42-2.26,4.05-4.25,8.27-9.13,12.45,2.09-7.02,5.99-12.13,4.05-18.55-1.16-3.85-.39-7.53-5.03-10.72-4.28-2.94-6.1-9.42-9.07-14.29-1.39-2.28-1.51-5.77-6.29-4.2-2.13,.7-3.62-2.61-3.04-5.5,.32-1.56,1.5-3.41-1.32-4.28-3.15-.98-3.63,1.84-4.02,3.21-1.33,4.69-2.32,9.23-7.63,11.38-.99,.4-1.66,3.35-1.35,4.89,.95,4.72,.14,7.61-4.97,9.53-3.32,1.25-1.26,5.59-1.98,8.47-.47,1.86-.34,4.32-2.75,4.89-2.33,.56-2.31-2.37-4.03-3.26-1.85,1.47-.95,5.34-5.3,5.25-2.53-.05,.28,3.38-.21,5.4-.46,1.88,1.51,4.96-1.37,5.6-3.07,.68-2.86-2.61-3.3-4.67-.37-1.71-.28-3.58-2.41-5.07-4.87,9.13-5.41,20.37-13.19,28.31,1.49,2.06,4.16,4.81,2.93,8.18-.83,2.26-3.58-.06-5.61,.36-1.19,4.36,1.84,9.07-.52,13.31-2.84,.71-3.24-2.44-5.64-2.71-.49,2-3.63,3.21-1.58,6.14,.76,1.08,1.32,2.31,2.13,3.34q4.89,6.19-2.34,9.85c-3.66,1.86-3.9,8.26-.54,14.29-5.68,.14-5.95,.19-6.94-4.95-.67-3.49-3.6-4.21-6.07-6.1,.87-3.49,4.75-5.28,5.24-8.91,.33-2.43,2.3-5.1-2.49-5.82-3.31-.49-1.1-3.52-1.24-5.52-.19-2.77,4.55-7.08-2.4-8.1-1.09-.16-.34-2.57,.28-3.59,5.32-8.78-2.38-15.27-3.54-22.97-4.52,13.21-13.22,25.03-10.5,40.03,.65,3.57,1.74,8.76-4.07,10.58-.3,.09-.62,1.37-.39,1.79,3.92,7.02-2.89,9.92-5.44,14.47-1.88,3.35-4.69,6.64-1.29,10.77,.75,.91,1.46,3.15,1.04,3.56-6.5,6.18-.55,11.15,1.44,16.47,.38,1.03,1.14,1.91,1.62,2.91,.75,1.58,1.95,3.38,.26,4.86-1.23,1.08-2.91,.54-4.4-.16-1.52-.72-3.13-1.25-4.63-1.83,.35-2.39,9.93-3.55,.86-7.14-.24-.1-.49-.91-.35-1.15,4.8-7.95-4.41-10.24-6.35-15.46-.32-.86-1.45-1.42-1.26-2.73,1.53-10.27-.77-26.86-5.53-37.82-2.84,7.59-7.73,13.74-7.43,21.23,.3,7.46-2.36,14.12-4.4,21.41-4.64-1.49-4.43-6.26-5-10.26-.24-1.71,.49-3.61-1.29-4.79-5.59-3.7-2.95-5.77,1.42-7.57,2.76-1.14,5.89-2.62,5.07-6.04-.84-3.49-4.31-2.04-6.84-2.08-.63,0-1.26-.23-2.7-.51,2.94-4.05,6.13-7.67,5.76-12.8-.11-1.56,.35-3.98-1.27-3.95-6.24,.13-6.21-3.98-6.58-8.3-.23-2.79-2.43-4.1-4.97-4.71-4.18-1.01-3.7-3.21-1.41-5.69,2.49-2.69,4.2-5.75,4.85-9.34,.42-2.33,1.54-5.06-2.82-4.96-2.66,.06-2.34-2.05-2.05-3.89,.41-2.64,1.05-5.28,1.04-7.92,0-1.74,2.47-4.82-2.66-4.88-2.34-.03-.84-4.32-.32-6.28,2.78-10.45-4.7-18.52-5.93-28.28-1.15,12.21-8.75,21.91-10.94,33.58-1.38,7.34,.5,14.28-.32,21.35-.3,2.61,.19,6.21-4.3,6.04-3.52-.13-8.02,2.03-9.21-3.71-1.25-6.09-4.75-8.09-10.61-6.18-.41,.13-.88,.09-1.33,.09-3.16,.05-7.15,.24-8.22-2.96-1.15-3.44,1.73-6.47,4.25-8.91,1.23-1.19,2.81-2.01,4.19-3.04,2.05-1.54,2.3-3.95,1.89-6.02-.45-2.29-2.93-1.25-4.54-1.63-1.94-.46-3.92-.78-5.82-1.37-4.92-1.53-6.68-7.36-2.77-10.42,5.3-4.15,9.25-9.36,13.4-14.47,2.69-3.3,1.58-7.17-2.62-7.99-3.47-.68-7.07-1.18-10.58-1.03-2.25,.09-4.26,1.26-5.35-1.84-.84-2.39-.68-4.87,1.33-6.03,5.87-3.4,4.96-10.78,9.54-15.41,2.15-2.17,.74-10.34-2.35-14.94-1.17-1.74-3.33-.85-3.64,1.56-.15,1.2,.85,3-1.53,2.57-1.71-.32-2.65-1.61-2.19-3.48,.69-2.79,1.34-5.59,2.19-8.33,1.09-3.55,5.92-7.94-2.48-8.98-1.38-.17-1.42-2.33-1.24-3.5,.71-4.69-4.24-7.19-4.23-11.61,0-1.51-1.66-1.08-2.68-1.11-1.62-.04-2.78,1.14-2.68,2.41,.69,8.23-6.58,12.64-9.29,19.66-.16-4.51-6.06-4.62-6.19-9.16-.04-1.35-1.73-1.01-2.77-.84-1.99,.33-2.43,2.07-2.35,3.56,.56,10.68-7.27,18.68-9.19,28.71-.78,4.1-5.91,1.83-8.92-.22-2.97-2.02-14.68-1.67-17.13,.54-2.19,1.97,1.56,4.29-.98,6.99-2.61,2.78-1.76,3.58-5.31,3.27-2.43,5.73,1.87,10.04,5.37,11.03,7.53,2.11,8.97,5.76,6.73,12.41-.23,.68,.55,1.7-.66,2.15-3.03-2.88-10.48-2.2-13.47,1.55-1.41,1.77-2.59,3.43-4.85,4.28-3.83,1.43-5.26,9.41-1.59,11,4.4,1.91,4.4,5.66,5.81,8.65,2.07,1.15,3.24-.32,4.37-1.13,4.02-2.86,7.11-4.02,8.28,2.61,.51,2.91,3.57,3.74,5.96,4.84,2.11,.97,3.32,2.57,2.63,4.75-.87,2.76-2.88,1.31-4.87,1.18-4.23-.27-8.05-2.14-11.93-2.68-4.51-.63-9.67,.9-14.08,2.67-4.04,1.62-5.98,.3-8.23-2.56-5.99-7.59-9.46-16.13-10.04-25.78-3.27-.8-1.52,4.87-4.44,3.31-2.81-1.5-1.01-4.32-.77-6.62,.26-2.42,.66-4.85,.58-7.26-.07-1.92,1.98-4.63-3.19-4.63-3.44,0-4.54-5.83-6.04-11.64-3.17,11.38-10.77,18.55-13.24,28.41-.7,2.8-.33,5.55,.84,7.69,1.91,3.49,1.67,6.69,.09,9.86-3.64,7.31-2.71,14.66-.66,22.08,.35,1.27,1.35,2.64-.19,3.55-4.77,2.82-8.92,6.89-14.75,7.69,1.59,4.13,2.53,8.8,7.8,10.24,.22,.06,.38,2.03-.01,2.31-3.75,2.66-.98,5.96-1.05,8.96-.1,4.36-4.5,10.97,5.42,10.08,.77-.07,1.14,1.81,.7,2.93-.63,1.62-2,2.16-3.63,2.5-3.63,.75-7.42-1.66-10.95,.6,1.24,1.17,2.48,2.35,4.73,4.48-5.16-.66-5.98,3.25-8.31,6.46-1.99-4.14-.3-8-3.3-10.77-1.58-1.47,.55-3.03,2.23-3.81-.14-.17-.32-.32-.42-.51-3.6-6.7-8.47-9.33-15.72-5.19-1.82,1.04-3.88,.47-6.01-.68,1.21-2.41,2.4-4.52,5.62-4.49,2.94,.02,4.01-2.21,5.58-5.01-4.78,.02-8.26,4.46-12.78,2.43,2.12-5.53,10.23-4.87,11.03-11.63-3.22-.31-5.26,3.44-8.75,1.25,1.53-1.9,.04-4.95,2.16-7.14-2.05-2.42-4.83,.7-6.92-1.09-1.39-4.02,8.45-5.77,1.78-10.64,2.31-2,5.32,.5,7.54-2.54-5.41,.61-7.96-4.63-12.94-5.01-2.57-.2-2.42-2.11-.64-3.77,2.12-1.99,4.76-3.09,7.77-4.19-2.51-2.19-6,1.23-7.45-1.99-1.28-2.85,2.87-3.71,2.74-6.7-2.72-.55-4.2,3.28-7.09,2.27-1.29-2.37,1.48-2.78,2.23-4.09,3.61-6.29,1.31-7.58,.07-14.61-1.23-6.99-8.01-12.15-4.37-21.33-6.24,3.92-7.23,2.04-6.44-2.74,.64-3.89,.57-7.89,.84-12.1-7.03,.87-6.76-5.18-9.02-9.7-4.19,8.72-8.17,16.87-12.01,25.08-1.31,2.8-.87,5.72,.63,8.33,1.61,2.82,1.59,5.77,.1,8.29-4.17,7.02-2.82,14.14-1.03,21.34,1.46,5.86-3.12,1.94-4.75,2.59,1.24,4.42-3.24,8.13-9.54,8.13,4.59,5.56-2.01,2.98-3.32,4.44,1.48,2.21,4.23,1.34,5.86,2.76,2.05,1.77,6.59,1.36,3.23,7-1.85,3.11,1.29,8.91-.03,13.73-.44,1.6,2.06,1.96,3.66,1.5,2.06-.59,2.91,.4,3.25,2.2,.36,1.95-.97,2.91-2.42,3.52-5.4,2.25-11.35-1.99-10.66-7.63,.86-6.95-3.87-12.3-4.28-20.01-5.28,8.48-11.2,27.52-11.76,36.74-4.43-1.15-6.15-3.46-5.24-8.16,1.41-7.27-2.49-13.67-4.48-20.27-.8-2.66-1.34-3.91,1.16-5.22,2.14-1.12,5.21-1.96,4.49-4.95-.77-3.24-4.27-1.16-6.78-2.31,.14-2.81,3.75-4.08,3.56-7.25-.17-2.75,1.55-5.98-3.25-6.3-1.93-.13-2.32-1.7-2.54-3.37-.17-1.3-.29-3.38-1.04-3.7-7.74-3.33-3.66-7.52-1.3-11.93,1.02-1.9,2.48-4.67-1.31-5.97-.7-.24-1.78-1.39-1.66-1.72,2.51-6.53-2.86-12.25-1.66-18.77,1.24-6.76-3.71-12.11-4.57-19.77-7.81,16.66-12.57,32.26-10.08,50.61-5.43-3.45-2.42-7.32-4.91-10.2-2.27,7.09-4.9,13.86-11.12,20.46-.36-6.1,2.39-10.3,.33-15.01-1.73,.59-3.65,1.25-5.57,1.91,0,236.26,0,472.52,0,708.78H2004.1V361.44c-1.75-1.71-4.19-.56-6.46-1.07Zm-1200.48,220.71c.3,5.58-1.37,8.34-6.68,8.05-5.1-.28-7.76,4.29-12.1,6,3.71-8.03,11.5-10.27,18.78-14.06Zm-28.39,17.33c1.01,.08,1.52,1.12,1.11,2.01-1.6,3.44-3.8,5.96-8.77,4.21,1.4-3.96,3.41-6.56,7.66-6.22ZM114.78,735.68c6.27-2.58,11.94-3.42,18.05-2.21-3.23,6.19-10.9,7.22-18.05,2.21Zm17.75-5.17c-4.45,.42-4.55-2.06-5.17-4.49-.82-3.2,1.5-3.4,3.24-3.39,2.48,.02,4.81,1.15,5.1,4.05,.28,2.84-1.81,3.65-3.17,3.83Zm7.51-12.73c-2.71,2.19-4.69,.84-7.1-1.71,2.91-1.01,5.05-3.03,7.64-1.17,.96,.69,.33,2.17-.54,2.87Zm73.91,29.67c4.77,1.48,9.42-.09,14.92,.08-9.51,9.18-9.78,9.17-14.92-.08Zm-3.4-38.5c2.85-5.03,7.62-7.57,11.56-10.98,7.28-6.31,10.1,2.77,16.23,1.04-9.39,5.65-19.45,4.94-27.79,9.95Zm60.7,14.13c2.93-2.53,7.49-3.25,7.69-8.22,2.29,7.13-4.67,6.06-7.69,8.22Zm220.64-22.03c-2.69-3-5.38-5.99-8.07-8.99,2.74,2.94,5.47,5.88,8.21,8.82l-.14,.17Zm25.66,56.8c-.26-.05-.68-1.4-.45-1.72,2.38-3.32,5.94-3.24,9.8-3.63-.47,.89-.56,1.42-.86,1.58-2.75,1.47-4.87,4.4-8.49,3.77Zm11.75,25c-.82,3.14-3.68,3.22-7.09,3.86,.28-3.89,1.6-5.75,4.87-5.7,1.14,.02,2.55,.57,2.22,1.84Zm47.68-27.05c-2.32-3.6-10.79-.69-7.41-8.74,.98-2.32,2.14-4.9,5.28-3.32,4.92,2.48,4.2,6.63,2.13,12.06Zm41.64-58.85c-1.65,2.02-3.7,1.52-5.39,.41-1.72-1.13-5.23,.14-5.19-3.04,.04-3.06,3.16-1.41,4.74-2.21,2.38-1.21,3.42-4.17,6.91-5.01,.61,1.77-2.53,2.9-.55,4.69,2.11,1.91,.8,3.55-.52,5.17Zm125.04-4.28c1.75-1.89-4.22-3.08,.28-4.38,3.97-1.15,6.93-3.73,10.06-6.11,1.78-1.35,3.54-1.7,5.46-.28,1.48,1.1,1.49,2.53,1.13,4.16-.7,3.12-2.71,1.1-4.21,1.16-.65,.03-1.69-.02-1.87,.33-3.6,6.93-11.03,5.9-16.81,8.37-6.04,2.59-12.91,3.14-18.6,6.93,5.65-9.67,14.54-12.05,24.56-10.18Zm-21.24,63.18c-.43-3.29-.95-6.57-1.16-8.07,.02-1.39,.11-2.67,.25-3.89h3.72v-4.2h-2.89c2.01-6.74,6.93-10.17,15.59-11.93,1.07-.22,2.32,.12,3.26-.3,1.95-.86,3.83-3.1,5.96-1.04,2.21,2.13,1.66,5.62,.48,7.49-5.57,8.9-7.44,20.59-19.64,24.68-4.15,1.39-5.06,1.07-5.56-2.75Zm-11.12-4.81c-.1,1.99-1.43,3.99-3.23,3.46-7.8-2.3-16.94,.49-23.56-6.07-1.37-1.36-3.03-1.77-4.72-2.23-5.6-1.53-6.91-4.8-2.86-8.96,3.65-3.75,7.63-7.42,13.58-7.57,2.37-.06,4.73-1.06,7.07-1.72,8.8-2.49,12.51,0,13.42,9.13,.09,.87,.14,1.74,.18,2.62h-23.71v4.2h23.88c0,2.38,.08,4.77-.04,7.15Zm-44.09-14.17c1.76-.2,3.66-.19,4.4,1.99,.55,1.61,.02,3.12-.97,4.34-1.2,1.48-2.69,1.32-4.06,.14-.96-.82-1.97-1.06-2.97-.28-5.25,4.13-8.21,.42-11.34-3.38,4.86-1.9,9.94-2.23,14.95-2.81Zm-33.67,.59c5.55-4.54,21.67-6.65,24.97-3.6-8.16,1.07-15.78,8.29-24.97,3.6Zm30.43-4.86c4.23-4.61,6.46-10.19,13.6-7.78,1.26,.43,3.36,.51,3.57-.75,1.33-7.98,6.58-4.11,10.41-3.42,5.23,.94,10.09-4.49,15.5-.3-1.19,1.72-3.39,1.13-5.06,1.7-8.65,2.92-18.16,3.21-25.62,9.77-2.89,2.55-7.37,1.61-12.4,.77Zm40.53-48.17c-9.49,7.55-10.35,7.57-16.03,.35,5.29,3.54,9.93-2.93,16.03-.35Zm5.81-24.28c0-.27,0-.54,0-.82,.04,0,.07-.02,.1-.02-.04,.28-.07,.56-.11,.84Zm-7.86-9.17c1.88-2.49,5.18-2.87,7.67-2.39,2.29,.44,.94,3.44,.85,5.27-.07,1.41-.22,2.82-.41,4.31l-4.75-.29c0,1.2,0,2.37,0,3.52-1.57-1.17-2.78-2.46-3.93-3.81-2.02-2.36-.88-4.67,.57-6.6Zm5.14,52.47c1.85,2.95,2.31,6.51,.97,9.6-1.36,3.15-4.35,.77-6.58,.74-6.71-.1-8.73-.17-8.9-3.68,4.97-3.11,8.52-6.54,11.03-10.58,1.35,1.09,2.52,2.39,3.47,3.92Zm49.18-105.76c1.04,.08,2.64,2.77,1.54,3.71-2.4,2.05-5.42,3.49-9.01,1.2,1.69-3.06,4.02-5.16,7.47-4.91Zm-18.94,44.64c2.35,4.5,6.91,2.7,10.75,4.26-12.65-1.13-19,11.59-30.3,12.72-.47-6.13,2.87-9.06,8.59-9.47,4.3-.31,7.86-3.37,10.96-7.51Zm-48.38,13.64c5.75,2.46,12.41,4.61,16.31,11.01-.03,1.78-.06,3.48-.11,5.11-5.64-1.76-11.57-.53-13.75-7.54-8.72,.62-14.18-13.61-24.63-5.4-.73,.57-2.13,.82-3-.72,8.09-4.36,16.86-6.03,25.18-2.46Zm-10.6,26.12c-2.23,4.67-6.3,.41-9.67-.31l8.83-1.87c.28,.73,.56,1.45,.84,2.18Zm-5.69-96.24c-8.79,3.94-7.24-4.42-9.49-8.16,4.68,.77,9.3,1.61,9.49,8.16Zm-45.58,110.47c-.81-1.37,.26-3.03,1.33-3.37,12.36-3.88,24.08-11.42,37.96-7.14,.32,.1,.51,.6,.78,.94-1.9,1.1-3.93,.3-5.88,.46-1.73,.13-3.46,.29-5.18,.8,6.96,1.72,13.98,1.03,20.96,.56,4.18-.29,7.85,.27,11.1,3.23,2.84,2.59,6.59,3.63,10.16,4.85,.5,.17,.99,.36,1.46,.57-1.68,2.69-3.87,5.08-6.72,7.29,.03-.27,.07-.55,.11-.83,.27-2.07-.72-2.89-2.06-3.67-4.07-2.38-2.88,3.62-5.64,3.59-1.53-.02-4.94-3.44-4.01,1.85,.24,1.37-.49,1.46-1.4,1.59-1.47,.21-2.36-.16-3.08-1.73-1.43-3.09-3.3-4.11-5.77-.6-1.04,1.49-10.92-.51-11.42-2.26-.88-3.07-.92-7.46-5.11-2.02-.21,.27-1.25,.14-1.75-.11-6.88-3.36-14.08-2.86-21.34-1.85-1.92,.27-3.58-.58-4.51-2.15Zm13.03,205.1c-1.81,.67-3.75,.07-4.75-1.49-2.81-4.41-3.89-9.04-.65-14.67,3.81,3.87,6.27,7.19,6.76,11.59,.19,1.71,.89,3.74-1.36,4.57Zm51.35-102.61c-.97,6.87-4.7,12.83-4.91,20.25-.17,5.77,.63,13.13-5.23,18.05-2.14,1.8-.63,4.52,.39,6.78,1.19,2.63,4.33,3.86,4.94,6.89-7.71,3.33-8.81,2.83-10-5.01-.42-2.72-1.69-4.47-4.21-5.45-3.93-1.53-4.64-3.7-1.52-6.92,2.38-2.45,3.57-5.62,4.14-8.95,.25-1.45,.65-3.95-1.18-3.93-6.38,.06-3.16-4-3.51-6.82-.41-3.33,4.78-8.4-2.76-9.98-.31-.07-.15-4.2,.41-6.28,2.77-10.44-4.26-18.7-6-28.44-.68,11.63-8.22,20.61-10.37,31.6-1.77,9.04,.1,17.89-1.11,26.75-.18,1.29,.16,2.86-1.35,3.49-2.06,.86-2.63-1.1-3.52-2.22-2.54-3.17-4.36-6.3-.88-10.2,3.43-3.85,3.08-7.53-1.46-10.51-1.29-.85-2.69-1.96-2.53-3.69,.89-9.4-.92-18.21-5.29-26.59-.84-1.61,.59-2.82,2.14-3.58,2.15-1.05,5.09-1.77,4.74-4.84-.45-3.91-4.72-1.15-6.45-3.13,4.99-5.65,10.27-6.42,16.68-2.24,1.17,.77,2.13,.63,3.04,.06,4.91-3.06,10.72-3.94,15.96-3.67,9.21,.48,17.9-1.82,26.83-2.64,3.3-.3,6.89,1.43,10.2,2.65,2.65,.98,3.38,3.58,2.96,6.12-.75,4.55-4.88,3.54-7.88,4.24,.59,.86,1.03,1.69,1.34,2.51h-24.55v4.14h25.14c-.35,4.2-3.31,7.98-4.79,11.79-1.9,4.9-6.68,.73-10.25,1.1,.36,3.04,7.4,1.39,4.54,6.44-1.61,.16-3.47,.64-3.7,2.25Zm5.81,10.5c-2.43-3.89-3.42-8.04-2.07-12.65,2.85-.03,6.76-2.12,7.89,1.91,1.28,4.55-.48,8.63-5.82,10.74Zm38.78-42.62c-3.42-.04-1.89,2.21-2.6,3.41,1.68,5.67-1.1,8.9-6.42,12.26,0-2.12,.57-3.74,1.36-5.12h2.29v-3.15c.78-.97,1.5-1.93,1.96-3.02-1.29-.05-2.47,1.21-3.64,2.04h-3.1c-.18-.19-.37-.41-.55-.69-1.96-2.96-.38-6.36,2.27-8.93,1.94-1.88,3.9-3.67,6.67-4.09,2.21-.34,5.37-2.58,6.33,.71,.87,3.01-.95,6.62-4.57,6.58Zm49.73-4.38c-2.78,3.44-2.63,7.12-4.36,10.41-2.8,5.31-6.05,10.2-6.32,16.79-.23,5.6-3.62,4.15-5.56,1.23-7.21,2.9-6.78,8.61-6.17,14.69,.3,3-1.4,6.12-4.94,5.8-3.65-.33-1.32-4.08-2.24-5.74-5.73-10.21,2.24-22.35-4.88-32.27-1.28-1.79-1.48-3.89-3.64-5.66-4.68-3.83-3.43-8.93,1.88-11.6,1.34-.67,2.49-1.76,3.65-2.74,3.15-2.66,5.16-1.69,6.43,1.9,.56,1.59-1.68,4.66,1.78,4.57,2.56-.07,6.09,.71,7.14-3.25,.38-1.41,1.45-2.82,2.77-2.18,6.88,3.32,9.57-2.83,13.98-5.81,11.31,4.22,2.63,11.18,.48,13.84Zm41.46,11.86c-.24,1.04-1.12,1.51-2.03,1.26-7.2-2.03-13.52-5.47-18.08-11.58,6.51,2.65,11.65,7.71,18.94,8.25,.84,.06,1.4,1.07,1.17,2.07Zm6.29-14.71c-.76,1.22-2.01,1-2.91,.26-2.99-2.47-5.82-5.12-6.96-9.11,3.22,1.86,5.65,4.64,9.1,6,1.13,.45,1.45,1.76,.78,2.85Zm8.77,52.74c-2.49-.57-4.29-2.36-4.54-4.94-.25-2.61,1.97-2.36,3.67-2.35,2.62,.02,4.02,1.32,3.93,3.99-.41,1.74-.61,3.87-3.07,3.31Zm.77-13.4c-1.3-.21-2.86-.71-2.43-2.36,.44-1.69,1.69-3.17,3.69-3.13,1.49,.03,2.23,1.16,2.32,2.66-.41,1.93-1.42,3.18-3.58,2.83Zm85.49,176.07c-3-4.57-1.23-10.61-5.92-14.02-1.08-.78,.92-2.6,2.45-3.15,1.24-.45,2.34-.04,2.46,1.31,.44,5.04,3.85,9.86,1.02,15.85Zm-6.05-27.11c2.42-3.43,6.53-2.28,8.59-6.73q-.71,7.7-8.59,6.73Zm28.26,43.53c-1.86-.7-4.41-.77-3.63-3.59,.63-2.29,2.56-3.69,5.14-3.22,3.58,.64,6.44,2.7,9.84,5.46-4.08,2.64-7.58,2.76-11.35,1.36Zm140.12-77.11c-1.23,2.45-2.97,.86-4.41-.12-2.88-1.94-5.73-3.92-8.6-5.88l.39-.92c3.38,.78,6.79,1.44,10.13,2.37,2.2,.62,3.61,2.31,2.49,4.55Zm37.36-78.02c-.7-1.18,.01-2.69,1.56-2.97,3.62-.66,4.63,2.23,6.46,5.16-3.72,.93-6.39,.57-8.02-2.19Zm67.48,3.91c-1.4,1.92-3.7,2.7-5.88,1.93-2.79-.99-.41-1.73,.17-2.99,1.43-3.12-3.23-.65-3.16-3.48,2.89-2.19,5.16-.18,7.44,.82,1.5,.65,2.62,2.1,1.43,3.72Zm.82-29.17c-6.06,3.56-6.76,6.49-3.07,12.58,.44,.72,.88,1.44,1.35,2.19-2.03,2.42-4.72,1.08-6.92,1.72-.85,2.53-1.64,4.88-5.23,4.54-2.67-.25-5.75,.11-6.01-3.37-.26-3.42,3.04-2.16,4.89-2.71,1.04-.31,2.12-.48,3.18-.72-2.54-3.11-3.21-6.55-1.92-10.38,.28-.82,.49-1.68,.63-2.54,.36-2.24-4.76-3.46-1.52-5.98,3.55-2.76,8.15-3.23,12.51-3.87,2.06-.3,3.3,1.22,3.47,3.2,.16,1.87,.96,3.97-1.35,5.32Zm85.27-41.74c-.49-3.86,.52-5.3,4.53-4.93,7.96,.73,15.32-3.42,23.42-2.72-8.4,2.64-12.22,12.72-22.35,12.61-4.42-.04-5.14-1.31-5.6-4.96Zm26.92,41.83c-6.44-.91-7.95,4.71-11.41,7.81-2.75-2.66-8.69-2.89-6.17-8.52-2.53-2.52-3.73,1.67-5.78,.09,.01-5.52,3.48-7.32,8.22-6.95,6.03,.48,11.51-.65,16.09-4.62,3.85-3.35,7.42,.81,11.18,.34-3.11,2.11-5.66,4.48-7.33,7.71-1.05,2.04-2.7,4.43-4.79,4.14Zm8.7,1.05c-1.23,.46-2.25-.62-1.84-1.88,.74-2.29,1.77-4.62,4.32-5.4,1.32-.4,1.89,.7,1.9,2.12-.61,2.34-2.03,4.27-4.38,5.16Zm43.49-193.39c-.1,1.34,.13,2.82-1.62,2.98-1.26,.12-1.87-1.02-2.1-2.14-.56-2.73-.81-5.6-3.77-6.98,4.03,.11,7.95,.3,7.5,6.14Zm31.38,19.73c-1.06,2.64-2.91,1.59-4.24,.37-2.55-2.32-6.21-3.24-8.84-7.1,4.26,.98,7.67,1.65,11.01,2.57,2.04,.56,2.85,2.19,2.06,4.16Zm36.8-77.67c-.68-.66-.42-1.88,.39-2.32,3.99-2.13,5.03,3.43,8.45,3.2-3.59,2.76-6.38,1.5-8.84-.89Zm67.6,4.05c-2.06,1.72-4.43,1.39-6.96,.86,.06-2.09,5.66-5.69-4.09-4.89,6.18-2.4,8.78-.9,11.13,1.09,.9,.76,.85,2.16-.08,2.94Zm86.21-72.05c-.47-1.85-.32-4.1,2.05-4.05,7.82,.15,15.41-.82,21.55-3.58,2.86,.27,5.32-.66,5.34,2.07,.02,2.71-2.45,1.93-4.1,2.03-2.74,.17-4.44,1.04-6.35,3.62-3.6,4.85-9.79,5.67-15.49,5.78-3.32,.06-2.44-3.66-3-5.86Zm9.01,93.76c-.57-5.86,.8-11.21,5.64-13.26,3.53-1.5,8.83-2.69,12.53,1.6-5.04,5.44-10.22,10.2-18.17,11.65Zm14.42-51.22c-2.67-.56-2.5,3.26-4,3.63-2.37,.59-1.98,5.56-5.19,3.39-2.07-1.39-5.97-1.16-5.1-6.14,.89-5.07-3.09-1.26-5.44-1.48,.2-5.49,3.52-7.24,7.55-7.01,6.23,.36,11.79-.85,16.89-4.44,2.15-1.51,4.71-2.04,6.65,.08,2.24,2.44-.65,3.94-1.69,5.66-2.18,3.61-4.17,7.47-9.67,6.32Zm19.41,1.76c-2.15,.75-2.55-3.58-4.98-1.58-1.44,1.19-3.33,2.62-3.77-.41-.4-2.75,1.58-4.96,3.95-6.32,2.08-1.2,3.38,.09,3.83,2.06,.46,2.04,1.72,4.01,.96,6.24Zm16.45-53.7c1.18,2.41,.83,5.12,.15,8.36-3.51-2.81-9.16,.23-11.56-5.82,4.77,2.23,6.77-3.7,11.41-2.54Zm-13.71,45.96c.38-1.45,1.72-1.94,3.2-1.65,1.53,.3,2.6,1.36,2.02,2.8-1.42,3.58-.11,5.02,5.11,4.18-3.28,3.67-5.15,6.48-7.91,3.84-2.39-2.29-3.34-5.72-2.43-9.18Zm.29,72.36c1.96-3.34,3.74-6.53,5.71-9.6,.36-.56,1.48-.82,2.25-.83,.41,0,1.09,.78,1.2,1.31,.54,2.57-5.76,9.12-9.15,9.12Zm11.96-50.42c-1.1,2.67-1.19,6.13-6.39,8.13,2.26-3.12,4.43-4.79,1.72-7.2-2.27-2.02-.75-4.06,.79-5.63,.61-.62,2.3-1.02,2.94-.63,2.07,1.28,1.67,3.56,.94,5.33Zm3.24-5.81c-4.09-4.96-3.91-8.58,.63-12.72-.22,4.48-.4,8.08-.63,12.72Zm8.78-59.72c3.45,.55,5.82,2.87,6.85,5.96-.3,2.25-1.47,3.67-3.13,2.88-2.79-1.32-7.09-.91-7.58-5.34-.29-2.63,1.89-3.82,3.86-3.5Zm3.66,28.69c-2.51-1.23-2.38-3.1-2.08-4.8,.54-2.95,.76-5.36-2.86-6.75-1.76-.67-2.01-3.18-.8-4.59,1.57-1.84,3.03-.4,4.33,.96,5.08,5.34,5.55,9.46,1.41,15.18Zm2.99,3c.39-2.68,1.26-7.06,4.7-6.81,3.34,.24,3.4,4.52,4.2,7.17,.05,2.41-.62,4.72-3,4.34-2.55-.41-6.44-.94-5.9-4.69Zm13.05-23.06c-4.72-.34-6.7-2.83-8.45-5.12-1.82-2.37-3.62-5.5,2.22-4.61,3.91,.59,2.76-3.15,4.35-5.43,1.65,5.28-2.87,10.06,1.88,15.16Zm-.29,58.86c-.9,2.48,1.83,6.97-1.66,6.79-2.98-.15-6.18-3.92-6.58-7.9-.38-3.8,3.64-5.29,5.66-5.3,4.79-.02,1.82,4.23,2.58,6.4Zm4.56-35.92c-.1,1.16-1.63,1.42-2.71,1.1-3.38-1.01-3.49-3.79-3.29-6.55,2.38,1.8,6.32,1.66,5.99,5.44Zm24.6,4.55c-1.61-1.09-3.48-1.85-5.32-2.54-1.76-.67-4.06-.15-5.13-2.39,5.44-1.77,11.28,1.97,16.85-2.74,2.65-2.24,5.59,3.66,9.02,5.11-6.04,6.58-8.95,6.94-15.42,2.57Zm20.29-47.25c-3.63,2.83,.69,6.11-.37,9.53-4.76,.33-8.66-1.93-13.12-3.55-6.84-2.49-13.94-8.03-22.22-3.5-1.21,.66-3.04,.17-4.58,.22,2.04,3.08-1.68,3.21-2.42,5.26-6.08-10.9-16.9-17.4-24.32-28.45,9.39,3.5,15.81,7.98,18.49,16.68,.81,2.62,3.44,3.93,6.26,4.32-.65-1.6-2.91-2.18-2.75-4.74,2.7,0,5.93-.94,8.04,.2,4.49,2.42,7.85,1.47,11.39-1.43,.99-.82,2.34-1.34,3.62-.2,6.06,5.39,12.78,5.74,19.86,2.42,1.43-.67,2.66-.79,3.53,.38,1.17,1.57-.28,1.99-1.39,2.86Zm69.49,53.61c-1.31,.25-3.22-.43-2.87-1.91,.89-3.8,2.16-7.6,6.59-9.52-1.51,4,4.16,9.91-3.72,11.43Zm25.83-1.11c-3.19-1.56,.36-6.77-5.4-6.51,3.34-1.28,6.41-3.7,7.89-1.58,1.82,2.6-.57,5.56-2.49,8.1Zm24.68-118.29c4.74,.22,5.79,3.33,6.52,7.21-6.84,1.67-6.78-2.45-6.52-7.21Zm32.68,82.25c4.08,2.1,6.79,4.52,7.02,9.24-2.21-2.92-4.43-5.83-7.02-9.24Zm8.47,.73c-3.52-.82-6.54-3.38-6.83-7.07-.18-2.28,1.26-5.58,4.65-5.11,4.54,.64,3.97,5.05,5.11,7.78-.15,2.37-.2,5.03-2.93,4.4Zm29.08-16.77c.4,5.58-3.85,7.1-7.82,9.69-1.9-7.42,5.28-6.64,7.82-9.69Zm4.37,16.33c-3.03,2.15-1.22,6.79-5.04,8.95-1.24-3.57,.39-7.77-3.36-10.12-.68-.43-.12-2.21,.93-2.78,2.09-1.13,3.71,.62,5.52,1.19,1.37,.42,2.8,2.15,1.94,2.76Zm21.85-120.54h.12c.15,1.11,.31,2.22,.51,3.35-.24,.21-.48,.41-.7,.62v.02c-.2-.09-.41-.17-.63-.25,.27-1.26,.5-2.5,.7-3.74Zm0,4.11c.28,.58,.64,1.11,1.06,1.63,.44,2.28,.97,4.68,1.62,7.38-3.64-1.88-4.59-4.66-2.68-9Zm13.34-43.84c-.44,1.47-.56,2.83-.43,4.1-3.1-3.4-7.78-8.08-12.45-11.84,7.28-5.24,14.65-11.89,20.24-18.64-1.3,9.07-4.75,17.62-7.36,26.38Zm7.7-9.42c7.34-.06,6,4.45,7.63,8.31-4.46-1.62-4.78-5.06-7.63-8.31Zm13.98-29.87c-4.66-3.07-3.95-7.29-2.86-11.58,7.7,2.35,1.38,7.84,2.86,11.58Zm2.79,49.93c.09-3.82-1.3-6.8,1.88-9.23,.91-.69,2.4-.72,2.71,.58,.8,3.36-.73,5.89-4.59,8.65Z"/><path class="cls-1" d="M0,616.39v17.35c4.09-3.96,3.43-9.25,3.84-14.18,.2-2.45-1.36-3.55-3.84-3.17Z"/><path class="cls-1" d="M1915.22,7.3c7.84-.73,26.02-2.13,32.47-2.55-11.13,6.99-19.58,17.39-19.58,25.96,0,10.82,6.45,17.27,23.72,19.76l2.01-4.26c-15.08-1.95-21.04-6.99-21.04-15.51,0-7.84,8.82-17.63,17.94-23.11,3.89-2.49,6.87-3.1,10.4-3.1,.73,0,1.46,0,2.25,.06l-.06-4.56c-7.91,.06-45.36,2.74-49.92,2.92l.49,5.35c.49-.06,1.16-.49,1.34-.97Z"/><path class="cls-1" d="M1931.21,89.68l6.08,32.53,4.38-.79-6.14-32.59,22.74-4.38c-2.31,5.72-6.51,12.53-11.31,16.72,1.03,.61,2.68,1.7,3.59,2.55,5.59-5.29,10.76-13.44,13.5-21.4,.36-.12,.73-.3,.85-.61l-3.53-2.25-.55,.36-26.09,4.92-2.55-13.92c.97-.3,1.46-.79,1.4-1.46l-6.14,.49,2.98,15.75-17.63,3.34,.85,4.07,17.57-3.35Z"/><path class="cls-1" d="M1963.56,185.13h-14.59c1.16-8.39,3.22-25.24,3.95-33.26,.49-.12,.85-.36,.97-.67l-3.34-1.58-.85,.3h-30.52v4.13h28.88c-.67,8.27-2.43,23.29-3.59,31.01h-31.86v4.2h50.95v-4.13Z"/><polygon class="cls-1" points="1955.9 267.14 1955.9 220.2 1918.56 220.2 1918.56 224.28 1951.64 224.28 1951.64 239.54 1919.96 239.54 1919.96 243.55 1951.64 243.55 1951.64 259.67 1916.86 259.67 1916.86 263.68 1951.64 263.68 1951.64 267.14 1955.9 267.14"/></g></svg>