<?xml version="1.0" encoding="UTF-8"?><svg id="Layer_2" xmlns="http://www.w3.org/2000/svg" viewBox="0 0 2492.01 1636.75"><g id="front"><path d="M2479.06,28.59s-44.95-22.04-65.25-27.55c-20.3-5.51-39.15,12.86-39.15,12.86l-40.6,22.04-4.35,23.88c-4.35,23.88-17.4,108.38-36.25,110.22s-55.1,44.09-55.1,44.09c0,0-5.8,23.88-21.75,3.67-15.95-20.21-4.35-62.46-13.05-66.13-8.7-3.67-39.15-11.02-44.95,0-5.8,11.02-50.75,16.53-63.8,20.21-13.05,3.67-21.75,64.29-21.75,75.31s-6.7,46.76-16.85,54.1c-10.15,7.35-60.01,45.09-60.01,59.79s-27.55,38.58-36.25,51.43c-8.7,12.86-23.2,20.21-26.1,36.74-2.9,16.53,33.35,108.38,33.35,108.38,0,0-31.44,20.08-71.68,51.21-.8-3.16-1.56-7.32-2.35-12.91-1.63-11.53-31.68-20.69-50.69-28.38-19.01-7.69-27.53,31.3-88.71,14.35-31.49-8.73-54.92,82.15-54.92,94.17s31.68,30.6,31.68,40.35-35.91-10.29-48.58-10.29-65.48,20.04-71.82,36.07c-2.73,6.91-3.49,22.74,.74,40.12-20.16-12.63-58.38-75.65-80.56-74.34-24.65,1.45-64.62-18.29-64.62-18.29,0,0-33.58-91.27-63.8-68.52-152.77,114.98-128.55,149.22-166.26,140.49-37.7-8.72-31.78-107.24-50.63-86.89-18.85,20.35-65.88-34.51-65.88-18.52s-29,21.81-30.45,13.08c-1.45-8.72-34.8-13.08-52.2-17.45-17.4-4.36-15.64-1.07-27.24-1.07s-13.6-27.84-13.6-40.93-106.45,5.81-125.3,0c-18.85-5.82-39.39-20-39.39-20,0,0-12.67,12.02-21.37,17.83-8.7,5.82-44.04-15.41-44.04-15.41,0,0-26.85-14.54-26.85,0s13.31-21.26-15.13,48.23c-2.13,5.2-46.31,105.79-68.43,14.46,4.45,18.37,52.39-48.79,0-55.18-3.16-.38-8.2,.29-14.43,1.03-.4-3.03-2.1-7.22-5.37-12.34-6.92-10.83-15.79-9.76-23.18-9.87-7.39-.11-5.66-10.02-10.69-26.04s7.48-44.96,10.61-55.4c3.13-10.43,9.03-27.97,9.03-27.97,0,0,6.67-12.08,10.49-16.38s7.6-1.88,7.6-1.88c0,0,9.37,13.11,14.94,17.74,5.56,4.63,43.05,25.44,43.05,25.44,0,0,30.38,18.04,38.68,22.29s10.49,15.25,14.34,17c3.85,1.76,4.13-.91,4.13-.91,0,0,4.12,11.88,5.97,13.42,1.85,1.54,4.16,5.15,4.16,5.15l3.88,7.81s6.4,9.43,10.7,13.25c4.3,3.82,14.81,6.29,14.81,6.29,0,0,3.47-.98,8.2-1.15,4.73-.17,6.27-2.02,8.03-5.88,1.76-3.85-4.19-11.21-1.98-13,2.21-1.78,.88-1.93-2.48-8.34s-17.48-25.41-17.48-25.41c0,0-22-27.24-28.99-37.41s-36.1-40.18-42.57-48.94c-6.47-8.76,.98-28.16,13.32-43,12.35-14.84,16.89-38.58,16.89-38.58,0,0,5.48-13.55,3.64-27.88-1.84-14.33,.16-45.74,3.15-54.85,2.99-9.1,7.84-29.45,10.34-33.89s3.27-11.76,3.27-11.76l5.13-10.22-2.97-3.68,1.47-1.19-1.85-1.54,4.21-1.57-2.45-2.28,3.02-3.04-1.71-2.87,.35-3.33,.42-3.99,.28-2.66,.21-2-10.7-13.25s-2.83-5.01-3.14-8.41c-.31-3.4-4.12-11.88-5.03-16.01-.91-4.13-2.6-19.79-2.87-29.92-.27-10.12-4.15-17.94-9.33-19.84-5.18-1.9-14.03,18.02-17.19,22.4s-9.13,22.58-9.13,22.58c0,0-4.8,.83-8.2,1.15-3.4,.31-27.89,9.14-27.89,9.14,0,0-15.35,5.1-20.81,5.86s-13.24-2.08-13.24-2.08c0,0-11.03-3.87-18.45-10.04-7.42-6.17-19.47-6.78-19.47-6.78l-.35,3.33s1.98,13,4.67,19.34c2.69,6.34,12.16,24.85,12.16,24.85l3.74,9.15,2.93,10.41-.04,6.73,2.55,7.67s.38,2.73-3.96,5.63c-4.35,2.9-18.89,6.74-18.89,6.74-18.56-2.65-35.7-18.6-47.33-23.21-11.62-4.6-28.22-13.1-73.43-11.85-45.22,1.24-138.87,27.62-150.16,32.47-11.28,4.86-35.95,8.96-52.61,1.13-54-42.76-48.8-85.27-45.95-124.67,2.85-39.4,24.51-53.25,49.29-64.74,24.78-11.5,44.94,1.42,54.56,5.81,9.63,4.39,8.37,3.58,14.07,6.88,5.71,3.3,7.67-2.55,12.09-6.12,4.42-3.57,1.02-3.26,1.02-3.26l.71-6.65-1.49-1.84-8.03-9.94s-6.3-4.04-11.27-7.93c-4.97-3.89-6.75-6.1-6.75-6.1,0,0-4.3-3.82-10.08-6.46s-20.34-4.86-20.34-4.86c0,0-1.21-.28-3.25-.64-4.14-.74-11.69-1.85-19.37-1.77-11.45,.13-17.27,4.22-17.27,4.22l1.61-2.52s-9.07,3.07-15.42,5.76c-6.34,2.69-16.72,11.68-16.72,11.68l-3.35,3.25-15.41,14.94s-11.47,12.91-15.26,23.27c-3.79,10.36-7.24,17.4-7.24,17.4l3.06-9.77s-4.77,6.89-7.76,16c-2.99,9.1-.4,41.68-.4,41.68l-.04,6.72,1.08,8.86,1.98,13-2.83-5.01-.04,6.72,2.34,9.67,1.77,14.99s-4.02-6.48,5.55,17.41c9.57,23.9,43.38,47.68,49.78,57.11,6.4,9.43,1.37,25.04-4.28,33.86-5.65,8.82-12.29,26.96-13.61,45.66-1.32,18.7-2.41,22.62-19.84,40.96-17.43,18.33-53.67,42.74-64.01,45-10.34,2.26-9.13,22.58-9.13,22.58,0,0-3.77,48.05-6.44,60.55-2.68,12.5,.49,26.97,3.88,39.44,.6,2.2,1.32,3.97,2.11,5.4-4.33,2.61-6.99,4.96-6.99,6.77,0,8.72-54.07-53.38-64.22-47.56-10.15,5.81-11.6,39.25-11.6,50.88s-27.55,30.53-36.25,40.71c-8.7,10.18-23.2,15.99-26.1,29.08s.21,205.77,.21,205.77v797.33H2492.01V172.9c-7.44-62.12-12.95-144.32-12.95-144.32ZM297.94,518.64c-27.7,49.76-70.95,6.26-84.01,9.17-4.23,.94-13.54,3.79-24.19,7.52-5.31-3.65-13-5.19-15.98-4.67-4.8,.83,3.19-29.94,7.05-40.97,3.87-11.03,4.67-12.29,13.89-16.69s82.33-14.79,101.74-20.13c19.41-5.34,57.44-27.53,56.87-22.21-.57,5.32-4.79,19.68-3.4,31.94,1.39,12.26,2.52,33.24,2.69,37.97,.17,4.73-3.96,5.63-3.79,10.36-8.7-2.91-45.77-1.44-50.87,7.72Zm263.02,49.58c-9.03-16.12-120.74-24.84-136.69-40.83-3.08-3.09-7.47-5.49-12.61-7.38-10.06-10.78-2.48-23.6-.27-28,2.56-5.11,4.84-7.56,11.33-11.58s3.79-10.36,9.73-21.84c5.93-11.48,5.1-16.28,15.31-30s14.44-9.23,27.34-16.61c12.9-7.38,60.91,3.12,70.67,6.18,9.77,3.06,10.94,17.31,10.94,17.31l10.12,94.62s-1.18,17.37,.42,27.64,3.91,13.87,6.81,18.22,6.64,13.49,6.64,13.49l2.15,2.85c-8.06-5.18-15.6-12.84-21.89-24.06Z"/></g></svg>