<?xml version="1.0" encoding="UTF-8"?><svg id="Layer_2" xmlns="http://www.w3.org/2000/svg" viewBox="0 0 2007.94 1015.37"><defs><style>.cls-1{fill:#591b0c;}.cls-2{fill:#5e2214;}.cls-3{fill:#50180b;}.cls-4{opacity:.2;}.cls-5{opacity:.5;}</style></defs><g id="houses"><path class="cls-1" d="M2002.23,144.22c-6.1-1.26-12.31-1.28-18.47-1.73-15.66-1.15-31.08-3.85-46.04-8.38-7.88-2.38-15.18-6.6-20.39-13.67-4.84-6.56-11.25-9.08-19.58-7.03-8.83,2.18-17.87,1.74-26.84,.51-1.32-.18-2.72-.49-3.87-1.12-12.51-6.86-26.1-10.99-39.37-15.99-8.63-3.25-17.03-7.12-25.18-11.5-3.39-1.82-6.35-4.25-9.39-6.57-2.88-2.2-3.9-1.95-4.54,1.48-2.35,12.57-10.12,21.2-19.89,28.62-8.02,6.09-16.93,10.16-26.55,12.93-18.06,5.2-36.24,10.07-54.62,13.83-10.49,2.15-21.45,2.52-32.28,.84-12.06-1.87-22.93-6.34-32.46-14.05-1.67-1.35-3.56-3.88-5.65-2.94-2.33,1.05-1.6,4.17-1.64,6.47-.18,9.59,5.36,17.95,14.6,21.84,7.48,3.15,14.33,7.47,21.55,11.11,4.81,2.42,9.88,4.33,14.41,7.39,6.06,4.09,8.86,9.67,8.93,16.8,.05,4.5,.15,8.99-.57,13.48-.66,4.08,.73,8.02,1.04,12.02,.99,12.56,1.08,25.13-2.29,37.46-.3,1.08-.8,2.24-.66,3.29,.7,5.22-1.84,8.35-6.18,10.7-2.15,1.17-4.08,2.82-5.92,4.46-11.28,10.04-24.85,11.19-39,10.15-10.82-.79-21.29-3.62-31.77-6.11-5.29-1.25-7.81-6.17-9.66-10.98-.02-.05-.03-.1-.05-.15l3.37-2.92c-1.62-1.78-3.55-3.8-5.67-5.92-.6-1.63-1.36-2.41-2.65-2.58-2.83-2.71-5.88-5.45-8.94-7.91,12.96-9.34,26.17-21.88,34-33.83,.59-.17,1.01-.42,1.26-.84l-4.97-3.79-1.01,.5h-66.23v5.72h61.77c-6.65,9.76-18.18,20.62-29.54,28.7-6.06-4.63-12.79-9.09-18.77-12.46l-4.04,4.29c9.5,5.57,20.05,13.61,28.64,21.43-.81,.34-1.62,.69-2.42,1.08-11.92,5.8-23.29,4.81-34.16-2.72-1.94-1.34-3.99-2.55-6.11-3.59-3.12-1.54-5.53-3.7-7.47-6.61-3.21-4.84-8.05-8.16-12.19-12.1-9.39-8.94-15.63-19.66-19.63-31.84-.88-2.69-2.16-5.19-3.6-7.62-1.13-1.91-2.58-2.51-3.66-.14-3.68,8.04-10.05,14.41-13.68,22.47-.32,.71-.76,1.39-1.22,2.02-2.47,3.37-4.6,3.31-6.54-.33-1.32-2.48-2.34-5.12-3.56-7.65-.46-.95-.64-2.51-1.99-2.37-1.2,.12-1.52,1.55-1.88,2.59-.92,2.66-1.81,5.33-2.63,8.02-1.49,4.86-3.45,9.51-5.7,14.07-1.93,3.91-4.82,6.91-8.76,8.56-5.6,2.34-11.37,4.31-17.52,4.72-.9,.06-1.82,.08-2.68,.32-16.78,4.52-34.13,3.8-51.22,5.39-8.84,.82-17.01-2.87-24.44-7.62-3.6-2.3-6.92-5.02-10.41-7.49-1.35-.96-2.84-2.31-4.56-1.39-1.49,.79-.95,2.6-1.09,4.02-.71,7.46,2.67,13.79,6.64,19.42,6.2,8.81,12.18,17.8,19.18,26.06,4.27,5.04,8.32,10.34,11.57,16.17,1.1,1.96,1.36,3.14-1.41,3.62-9.11,1.57-17.83,4.3-26.42,7.84-2.9,1.19-6.21,2.03-9.28,3.25-5.64,2.25-11.27,4.42-16.19,8.19-1.71,1.31-4.11,2.15-6.27,2.34-8.12,.7-15.8,3.46-23.8,4.63-2.24,.33-4.5,.53-6.7-.16-2.57-.81-3.78,.48-4.49,2.71-1,3.11-1.95,6.23-3.06,9.3-1.33,3.67-3.65,5.92-7.92,6.16-18.72,1.06-36.43,6.83-54.3,11.86-9.53,2.69-19.1,5.29-28.73,7.59-10.4,2.48-19.89,7.22-29.56,11.46-18.48,8.11-37.34,15.18-56.58,21.2-8.46,2.65-17.35,2.34-26.12,2.6-1.81,.05-4.3-.88-5.19,1.24-.83,1.98,.82,3.84,2.02,5.46,1.7,2.31,4.08,3.83,6.51,5.29,8.88,5.33,18.34,9.08,28.63,10.57,5.83,.84,11.18,3.45,16.91,4.68,1.58,.34,2.47,1.47,3.1,2.86,1.17,2.6,2.01,5.33,1.87,8.16-.26,5.06,.82,9.78,2.55,14.5,2.43,6.61,3.42,13.63,3.46,20.56,.09,17.79,1.11,35.55,1.15,53.33,.01,5.84-1.2,11.65-.29,17.52,.33,2.16-1.1,3.02-3.11,3.01-4.28-.01-8.58,.25-12.83-.13-6.53-.59-13.05-.48-19.58-.51-7.21-.03-14.37-.13-21.55-1.17-7.38-1.06-14.82,.24-22.23,.7-11.34,.7-22.17,3.74-32.98,6.89-8.13,2.37-15.1,.74-20.94-5.48-2.52-2.68-5.7-4.29-9.05-5.74-14-6.04-28.84-8.1-43.84-8.45-6.52-.15-11.23-2.52-15.44-6.84-1.92-1.97-4.08-3.23-6.67-4.3-9.86-4.07-15.91-11.89-19.65-21.59-2.56-6.64-4.31-13.51-4.36-20.7-.01-1.83-.74-3.19-2.3-4.23-2.15-1.44-4.08-3.23-6.32-4.51-15.58-8.91-29.43-20.35-44.36-30.2-5.15-3.39-10.62-6.35-16.85-7.55-1.96-.38-3.75-.28-5.65,.2-2.69,.68-4,2.29-3.99,5.06,.02,4.73,.05,9.46-.02,14.19-.16,11.26-2.23,22.34-3.45,33.5-.2,1.85-1.31,2.8-3.22,2.7-5.57-.29-8.83,3.24-11.81,7.17-.88,1.16-1.43,2.55-2.24,3.77-1.3,1.94-2.91,2.93-5.44,2.09-9.32-3.07-18.97-4.68-28.6-6.37-2.66-.47-3.86-1.83-3.67-4.63,.78-10.98,1.44-21.97,2.19-32.95,.05-.76,.19-1.74,.67-2.21,2.62-2.54,2.63-5.59,1.79-8.73-1.03-3.88-2.95-7.29-6.18-9.83-.88-.69-1.81-1.36-2.58-2.16-1.61-1.68-1.86-3.6-.43-5.5,2.63-3.5,4.74-7.41,8.11-10.34,1.82-1.58,3.1-3.59,4.21-5.67,2.28-4.29,5.85-7.32,9.54-10.27,.61-.49,1.26-.96,1.82-1.5,14.03-13.66,26.98-28.35,40.24-42.73,4.95-5.37,7.76-12.09,10.89-18.58,.69-1.43,1.07-2.96-.44-4.32-1.48-1.33-2.8-.86-4.29-.04-7.64,4.19-15.56,7.76-24.35,8.53-7.73,.68-15.5,.79-23.24-.19-.87-.11-1.76-.4-2.55-.8-3.63-1.82-3.61-1.85-4.96,2.13-2.37,7-2.47,7.43-9.38,5.9-13.92-3.09-28.3-4.27-41.75-9.34-14.26-5.38-25.44-13.99-29.17-29.74-.98-4.14-1.26-8.43-2.7-12.5-.83-2.35-1.81-2.71-4.43-2.37-4.53,.6-7.57,2.94-10.47,6.03-1.3,1.38-2.86,2.55-4.45,3.61-3.11,2.08-5.1,1.61-6.9-1.66-3.59-6.52-8.05-12.48-12.13-18.69-2.11-3.22-2.73-3.66-6.44-1.58-4,2.25-5.44,4.98-5.4,9.46,.07,8.3-.54,16.6-1.19,24.89-.47,6-3.52,10.42-8.19,13.72-10.75,7.58-22.6,13.24-34.92,17.53-13.13,4.58-26.09,9.76-39.52,13.46-4.22,1.16-8.27,1.26-12.13-.34,3.77-5.22,6.72-11.07,9-17.58-1.43-.76-3.95-2.19-5.22-3.28-2.14,6.45-5.09,12.44-8.9,17.7-2.71-1.86-5.72-3.33-8.57-5.01-1.84-1.08-3.04-.61-3.29,1.57-.67,5.73-3.78,9.88-7.26,13.78v-51.61c1.18-.17,1.77-.84,1.85-1.6l-7.83-.42v60.41c-.36,.46-.71,.92-1.04,1.4-.61,.86-1.78,1.36-2.77,1.89-9.1,4.85-18.9,7.19-29.13,7.47-15.33,.41-30.56-.42-45.61-3.86-12.57-2.87-21.57-10.15-27.99-21.01-.11-.19-.19-.41-.31-.6-.63-.89-.82-2.54-2.01-2.48-1.48,.08-1.31,1.83-1.73,2.91-4.75,12.27-.16,23.41,4.43,34.43,5.7,13.69,15.73,24.27,25.8,34.78,2.89,3.02,6.32,5.03,10.33,6.09,9.69,2.56,19,6.31,28.58,9.22,2.3,.7,3.16,1.33,.95,3.34-4.44,4.06-9.63,6.66-15.41,7.98-11.3,2.58-22.4,5.77-33.24,9.85-7.55,2.84-15.44,4.82-23.28,9.54,1.09-4.2,1.8-7.43,2.78-10.58,1.68-5.41,1.08-10.93,.97-16.42-.02-1.17-.44-2.57-1.18-3.45-3.5-4.17-8.12-6.83-13.1-9.15,2.14,2.2,3.81,4.57,4.92,7.34,2.31,5.77,2.77,11.13-3.28,16.29-7.39,6.31-14.74,12.51-23.44,16.98-4.29,2.2-8.74,3.22-13.56,3.55-16.85,1.15-33.11-2.18-49.4-5.76-19.81-4.35-39.32-9.59-58.11-17.35-7.42-3.06-15.38-4.24-23.15-6.05-5.07-1.18-9.52-3.36-13.38-6.81-5.52-4.94-10.92-9.89-18.24-12.4-5.28-1.81-5.24-2.36-4.19-7.69,.96-4.89,1.35-9.8,1.24-14.75-.1-4.3,.35-8.51,1.32-12.71,1.55-6.73,.88-13.38-1.11-19.97-1.13-3.75-2.35-7.51-2.19-11.54,.24-6.18,4.03-8.71,9.73-6.54,4.19,1.59,7.02,4.29,8.18,8.71,.74,2.83,1.6,5.62,1.93,8.53,.2,1.77,.7,3.59,2.81,3.6,2.07,0,4.45,.02,5.48-2.44,.43-1.02,.82-2.17,.78-3.25-.47-12.06,2.31-23.97,1.52-36.04-.19-2.91-.41-5.82-.67-8.73-.23-2.47,.9-3.93,3.08-5.04,14.49-7.35,28.06-16.19,41.41-25.42,8.34-5.77,17.66-9.91,26.3-15.2,8.56-5.24,15.22-12.59,21.67-20.12,1.85-2.15,2.59-4.96,3.46-7.64,.8-2.46,1.63-4.91,2.61-7.29,3.37-8.15,3.03-16.19-.45-24.2-1.43-3.3-3.82-5.5-7.24-6.6-4.09-1.31-8.23-2.29-12.56-2.26-1.28,0-2.56,.25-3.25,1.41-.74,1.26,.3,2.19,1.05,2.93,5.96,5.79,4.33,12.55,2.29,19.19-1.91,6.2-6.53,9.79-12.65,11.57-9.2,2.68-18.66,3.99-28.11,5.44-5.99,.92-11.91,2.31-17.86,3.52-3.81,.78-7.59,.76-11.37-.15-1.2-.29-2.44-.68-3.64-.63-9.71,.38-19.32-.97-28.98-1.46-5.97-.3-11.96-1.31-17.51-3.35-10.78-3.95-22.37-5.37-32.75-10.35-12.64-6.06-24.14-13.99-35.1-22.68-3.21-2.54-4.56-6.28-5.94-10.02-4.76-12.93-7.12-26.45-9.7-39.89-1.05-5.47-.61-11.21-1.22-16.78-.67-6.24-.17-12.6-2.06-18.71-1.3-4.22-2.31-4.49-5.65-1.54-6.18,5.44-11.59,11.52-16.87,17.87-5.57,6.7-13.73,10.33-21.81,13.67-6.63,2.74-13.66,2.44-20.55,3.3-3,.38-5.97,1.06-8.95,1.61C.06,403.45,.07,639.36,0,875.27c0,2.53,.57,140.1,3.1,140.1,668.2-.06,1336.39-.06,2004.59-.06,.08-1.57,.24-140.14,.24-141.71,.01-240.85,.01-481.7,0-722.54,0-5.76-.03-5.65-5.71-6.83ZM327.42,593.63c-9.57-.03-19.13-.01-28.7-.01-9.34,0-18.69-.1-28.02,.06-3.09,.05-4.14-.97-4.11-4.09,.14-12.26,.07-24.52,.04-36.79,0-1.92,.37-3.33,2.18-4.51,11.87-7.74,25.24-12.27,38.02-18.04,1.15-.52,1.97-.41,2.4,.84,1.56,4.47,5.15,7.06,8.98,9.18,4.19,2.32,6.98,5.94,9.97,9.44,.79,.93,.85,2.05,.83,3.19-.29,12.6,.38,25.15,1.94,37.65,.36,2.85-1.37,3.09-3.53,3.08Z"/><path class="cls-1" d="M1760.63,67.83c1.43,.93,3.79,2.95,4.8,4.21,14.31-9.51,26.93-22.05,35.6-34.42,6.98,4.46,13.3,9.09,17.93,13.13l4.04-5.3c-5.13-4.38-11.87-8.92-18.35-12.96,5.64-8.58,11.11-19.19,14.98-28.11,1.52,.17,2.69-.25,3.03-1.01l-8.25-3.37c-4.21,10.69-9.76,21.29-15.15,29.37-7.66-4.46-15.99-8.67-23.9-12.12l-3.2,4.97c7.91,3.53,16.08,7.83,23.73,12.37-8.33,11.61-21.21,24.15-35.26,33.24Z"/><path class="cls-1" d="M475.99,254.91h5.98v-38.88c1.35-.17,1.93-.76,2.02-1.51l-7.99-.5v40.9Z"/><path class="cls-1" d="M486.26,277.55c1.43,1.09,3.54,3.28,4.38,4.55,24.15-9.34,30.21-25.5,30.21-43.17v-26.76c1.35-.17,1.93-.59,2.02-1.43l-8.08-.5v28.7c0,15.57-5.22,29.96-28.53,38.63Z"/><path class="cls-1" d="M480.45,323.98c1.09-.17,1.85-.67,1.93-1.43l-7.99-.76c-.25,22.64-1.77,43.68-14.31,57.31,1.68,.93,3.7,2.19,5.05,3.2,12.96-15.06,14.81-35.68,15.32-58.32Z"/><g id="DUYm8A.tif" class="cls-5"><g><path class="cls-2" d="M1811.51,101.35c-.07,.21-.07,.49-.21,.62-2.41,2.33-4.83,4.65-7.25,6.97,3.8,.09,7.6,.08,11.39,.28,12.39,.65,22.62,8.19,34.32,10.93,24.63,5.76,49.38,11.04,72.92,20.59,.66,.27,1.24,.73,1.86,1.09-.59,.6-1.09,1.55-1.8,1.75-30.28,8.48-53.01,30.85-80.97,43.83-24.91,11.57-50.12,11.52-74.96,4.48-38.35-10.88-75.93-24.42-113.88-36.72-3.51-1.14-4.98-3.17-3.87-6.44,1.16-3.4,3.63-.73,5.36-.46,18.79,2.92,36.57-2.65,54.68-5.99,27.73-5.11,54.7-12.39,80.04-25.01,1.4-.7,2.75-1.52,4.01-2.45,1.96-1.44,3.81-3.02,5.71-4.54-2.22-.33-4.44-.66-8.21-1.22,7.09-2.9,12.95-5.31,18.82-7.71,.67,0,1.35,0,2.02,0Z"/><path class="cls-2" d="M105.72,238.71c8.33-3.22,9.91,5.44,14.61,8.48,15.33,9.9,32.57,12.7,50.09,16.37,23.09,4.84,46.05,7.21,69.47,6.56,18.08-.51,33.44-7.78,46.65-19.71,1.99-1.8,2.58-5.1,3.93-7.64,.96-1.82,.61-4.6,3.51-5.08,0,2.25,.61,4.71-.09,6.71-6.54,18.85-22.03,26.77-39.62,32.26-36.55,11.41-71.5,5.06-106.08-8.57-13.23-5.21-26.93-9.21-38.24-18.27-1.68-1.35-2.84-3.34-4.24-5.04v-6.06Z"/><path class="cls-2" d="M1690.13,351.91c7.46,2.89,14.86,5.52,22.41,7.76,47.69,14.12,90.43,3.65,129.56-25.68,10.49-7.86,22.51-12.69,34.78-17.58,31.48-12.55,64.18-20.87,96.48-30.62,11.34-3.42,16.97,7,25.78,9.55-.61,2.05-.86,4.31-1.9,6.12-12.61,22.03-33.7,35.54-51.81,52.17-12.46,11.43-26.15,12.69-41.47,11.97-37.48-1.76-74.34,8.85-111.89,5.94-29.09-2.25-58.63-1.43-86.76-10.9-5.43-1.83-10.14-5.76-15.18-8.72Z"/><path class="cls-2" d="M1330.6,246.38c39.16,12.29,78.26,21.99,117.03-2.22,3-1.88,5.23-3.81,3.57-8.12-1.23-3.19,1.77-1.81,2.74-1.39,19.26,8.39,38.33,17.2,57.74,25.21,8.53,3.51,17.69,5.53,26.63,7.97,2.91,.79,3.61,2.12,2.76,4.81-6.43,20.35-15.73,39.79-14.45,62.3,.34,6.02-9.22,2.11-14.2,2.67-15.7,1.74-16.17-14.59-24.81-21.33-13.01-10.15-24.56-22.69-38.72-30.71-11.5-6.51-25.92-2.3-38.81,.25-36.97,7.3-66-6.16-78.72-37.09-.45-1.08-.73-2.23-.77-2.34Z"/><path class="cls-2" d="M1094.09,396.98c20.02,.23,37.86-11.56,57.07-19.09,29.41-11.52,60.41-16.89,91.07-23.62,5.77-1.27,11.31-3.54,17.02-5.12,1.53-.42,3.29,0,4.94,.03-1,1.5-1.65,3.58-3.05,4.41-19.7,11.68-39.62,22.98-59.22,34.8-13.29,8.02-26.34,16.48-39.19,25.18-8.78,5.94-17.95,6.07-27.64,3.7-20.92-5.12-41.85-10.25-62.76-15.41-.81-.2-1.52-.78-2.28-1.18,.71-.46,1.37-1.04,2.14-1.37,6.45-2.79,13.26-2.99,21.9-2.34Z"/><path class="cls-2" d="M314.06,497.11c-25.35-1.85-51.77-5.84-78.13-11.04-18.8-3.71-38.05-5.63-57.35-5.34-4.34,.07-6-1.04-5.77-5.62,.68-13.24,.97-26.51,1.49-39.76,.03-.79,.93-2.27,1.12-2.22,2.08,.52,5.1,.65,5.99,2.07,9.35,14.82,24.89,23,39.67,27.53,28.03,8.58,54.12,22.34,84.65,25.34,27.13,2.67,50.7,2.04,72.14-15.62,.83-.68,2.24-.66,3.38-.97-.43,1.2-.52,2.77-1.35,3.54-12.94,12.14-27.9,19.99-45.92,21.1-6.15,.38-12.3,.62-19.92,.99Z"/><path class="cls-2" d="M1710.45,280.68c-7.82,.95-16.18-2.15-24.77-3.5-.64-.1-1.17-.82-1.76-1.26,.46-.45,.83-1.12,1.38-1.31,26.38-9.29,49.74-26.44,77.37-31.91,21.18-4.19,43.05-5.47,64.77-2.21,.97,.15,1.84,.99,2.75,1.51-.72,.63-1.37,1.37-2.16,1.88-28.01,18.11-87.2,36.78-117.57,36.78Z"/><path class="cls-2" d="M165.25,468.98c0,20.06,.01,40.12-.03,60.19,0,.9-.49,1.8-.75,2.7-.47-.79-1.24-1.53-1.37-2.37-1.07-6.81-2.93-13.66-2.87-20.47,.45-49.94-5.04-99.58-6.85-149.4-.23-6.24,19.85-19.7,25.62-17.19,2.48,1.08,2.22,3.65,1.28,5.57-15.76,32.16-13.09,66.92-14.31,101.12-.24,6.61-.03,13.24-.03,19.86h-.68Z"/><path class="cls-2" d="M559.94,370.66c-6.94-2.17-13.37,1.32-14.61-3.23-.67-2.44,7.06-2.7,11-3.04,37.14-3.19,68.04-20.23,96.51-42.83,1.1-.87,2.13-1.32,0-2.63-7.61-4.7-12.99-11.13-14.09-20.37-.11-.96,.43-2,.67-3,.51,.66,1.2,1.25,1.5,2,3.92,9.84,11.55,11.57,20.87,9.55,2.54-.55,5.35-1.66,6.76,1.5,1.36,3.04,2.77,5.42,0,9.58-26.75,40.01-69.29,45.18-108.62,52.46Z"/><path class="cls-2" d="M913.01,581.34c8.49-14.28,5.07-35.58,22.22-46.38,6.78-4.27,15.33-2.13,22.82,1.27,4.46,2.02,9.05,3.75,13.49,5.8,1.71,.79,3.17,2.13,4.74,3.22-1.32,1.38-2.46,3.7-4,4-17.1,3.35-27.76,16.36-40.59,26.21-4.88,3.75-10.94,5.98-16.49,8.84-2.03,1.05-2.28-.28-2.19-2.97Z"/><path class="cls-2" d="M769.58,363.56c-32.94-.15-61.77-4.64-88.29-19.44-2.49-1.39-2.54-3.44-2.17-5.4,.78-4.18-3.44-8.84,.49-12.18,.98-.83,5.58,1.55,7.79,3.35,34.34,27.96,72.54,29.87,113.04,17.16,1.38-.43,3.06,.08,4.6,.15-.61,1.33-.94,2.93-1.88,3.96-9.95,10.78-22.48,14.08-33.58,12.39Z"/><path class="cls-2" d="M835.03,466.02c-6.63,.52-10.48,.5-14.2,1.17-14.02,2.51-11.82-6.78-10.5-14.71,1.87-11.19,5.64-17.56,18.73-9.32,2.89,1.82,7.82,2.81,11.42,5.61,4.81,3.74,8.91,7.68,5.7,14.11-3.04,6.09-9.24,2.65-11.16,3.15Z"/><path class="cls-2" d="M428.43,479.63c-.85-.45-2.82-.94-2.92-1.67-.19-1.47-.02-3.83,2.34-3.7,19.23,1.04,35.21-9.95,53.03-14.11,4.35-1.02,10.78-4.49,12.8-1.1,3.12,5.24-3.81,4.15-6.64,5.3-1.45,.59-3.34,0-5,.21-16.87,2.18-32.44,8.92-48.5,13.91-1.48,.46-3.03,.69-5.11,1.16Z"/></g></g><g id="T51hmy.tif" class="cls-4"><g><path class="cls-3" d="M9.57,395.96c28.39-12.35,59.01-16.86,88.5-25.33,15.52-4.46,31.15-9.21,45.13-17.81,.86-.53,1.79-.94,2.62-1.49,3-1.99,5.05-5.4,8.99-5.98,.19,3.53,.46,7.06,.54,10.6,.78,33.82-5.2,67.28-5.59,101.05-.06,5.39-4.53,3.47-6.83,1.45-14.53-12.73-31.61-20.92-49.08-28.62-12.14-5.36-26.09-1.84-37.64-7.05-15.82-7.14-34.31-9.37-46.66-23.44v-3.37Z"/><path class="cls-3" d="M918.75,655.84c-2.93-14.09-9.46-27.39-9.05-42.22,.08-3-1.41-5.96-3.87-7.53-5.42-3.45-5.73-8.49-6.33-14.19-2.53-23.69,5.98-45.7,9.51-68.46,.64-4.12-.21-5.59,4.84-2.62,13.58,7.98,13.8,7.55,9.23,22.81-2.46,8.24-4.71,16.54-7.17,24.78-.72,2.4-.16,3.02,2.22,2.4,12.05-3.16,22.34-9.2,30.76-18.42,.94-1.03,2.33-2.07,3.64-2.27,3.05-.45,6.18-.39,9.27-.54-.82,3.05-4.49,2.42-5.96,4.53-4.61,6.62-12.22,11.38-12.78,20.57-.06,1.03-1.13,2.18-2.02,2.94-14.9,12.76-18.52,30.2-20,48.43-.8,9.91-1.1,19.86-1.63,29.79h-.67Z"/><path class="cls-3" d="M1634.02,350.23c-2.77-6.97-.41-13.46,3.3-19.78,1.91-3.26,4.73-3.84,6.84-1.33,13.11,15.59,31.89,19.61,50.06,21.53,20.86,2.2,34.87,16.43,52.4,24.24,10.39,4.63,20.19,10.61,30.13,16.2,1.84,1.04,4.29,3.09,4.33,4.73,.05,2.25-3.25,2.15-5.14,2.77-34.74,11.4-68.14,25.61-100.05,43.68-17.8,10.08-37.61,16.01-57.89,19.6-2.78,.49-6.97,1.75-6.27-4.48,2.54-22.52,9.59-44.01,14.58-65.97,3.06-13.45,5.12-27.13,7.71-41.18Z"/><path class="cls-3" d="M482.17,607.07c-.68,1.8-.97,3.21-1.75,4.25-.21,.28-2.15-.3-2.91-.94-20.99-17.88-48.36-23.07-71.71-36.03-19.55-10.85-42.22-13.76-60.98-25.73-8.2-5.23-15.18-12.4-22.61-18.82-3.57-3.09-2.94-6.22,1.01-8.31,12.43-6.59,25.85-11.72,37.27-19.71,21.06-14.72,45.57-14.73,69.14-19.35,16.99-3.33,19.95,11.07,26.17,20.14,14.64,21.37,15.8,47.04,20.38,71.54,2.07,11.06,4.03,22.15,6,32.95Z"/><path class="cls-3" d="M1296.62,318.49c-5.59,5.89-10.9,12.11-16.91,17.54-2.73,2.46-2.65,4.18-1.1,6.72,8.17,13.39,18.74,24.98,28.08,37.5,3.87,5.19,7.52,10.55,10.99,16.01,2.2,3.47-.26,5.36-3.17,6.64-14.83,6.54-30.08,12.28-44.4,19.79-12.03,6.31-25.04,10.25-36.86,16.8-19.56,10.84-35.42,2.78-51.03-9.06-7.71-5.85-13.51-12.48-15.74-22.08-.73-3.14,.21-4.75,2.8-6.21,34.62-19.62,68.41-40.61,102.43-61.23,5.43-3.29,2.07-9.65,7.46-12.4,5.86-2.99,10.98-7.42,16.42-11.22l1.02,1.21Z"/><path class="cls-3" d="M578.65,462.92c-3.23,23.62-1.2,47.33,.91,70.9,1.7,19.09,6.66,37.89,5.11,57.28-.11,1.34-.59,2.65-.9,3.98-1.04-.94-2.35-1.7-3.09-2.83-9.46-14.55-16.12-30.75-25.45-45.26-8.41-13.09-17.19-26.13-25.64-39.15-9.76-15.05-21.02-29.36-28.71-45.71-3.1-6.59,.31-13.42,1.99-19.88,.63-2.43,4.15-1.66,6.37-.96,17.16,5.36,33.95,12.01,51.72,15.27,3.81,.7,7.82,.36,11.73,.45,3.85,.09,6.17,1.67,5.97,5.93Z"/><path class="cls-3" d="M1820.2,309.35c-2.84-.48-4.25-1.94-5.48-3.79-10.55-15.84-21.73-31.17-35.11-44.82-4.07-4.15-5.54-7.65,1.81-11.03,18.42-8.47,36.49-17.68,54.58-26.83,3.39-1.71,6.1-1.1,7.97,1.39,13.03,17.31,30.75,28.55,49.3,38.85,4.26,2.36,9.69,5.59,9.17,10.59-.46,4.51-6.85,4.68-10.8,5.7-21.52,5.54-39.69,18.51-60.1,26.46-3.83,1.49-7.87,2.43-11.35,3.48Z"/><path class="cls-3" d="M561,441.98c-20-3.68-38.88-8.37-57.28-15.25-19.46-7.28-37.56-17.16-55.69-27.04-3.59-1.96-6.68-4.84-9.93-7.38-.51-.4-.66-1.28-.97-1.94,.93-.23,1.85-.57,2.8-.68,27.6-3.11,55.33-5.35,82.36-12.25,1.97-.5,4.63-.78,5.1-3.25,.47-2.52-2.05-3.41-3.67-4.69-2.49-1.97-4.9-4.86-3.46-7.61,1.28-2.43,4.44-.03,6.6,.65,8.26,2.62,17.5,2.36,24.73,7.79,2.16,1.62,7.26,3.77,1.99,7.86-.16,.12,.03,.98,.29,1.31,12.47,15.69,13.16,33.78,10.7,52.49-.48,3.68,1.51,8.56-3.55,9.99Z"/><path class="cls-3" d="M1537.05,306.09c-1.09-12.37,8.93-19.88,12.93-29.94,4.81-12.11,14.93-16.86,26.02-18.45,9.87-1.41,19.79,2.16,29,6.43,17.09,7.92,34.36,15.58,53.53,16.27,6.21,.22,12.51-2.08,18.79-3.09,.97-.16,2.06,.38,3.09,.59-.82,.62-1.58,1.68-2.47,1.8-15.66,2.04-30.71,5.76-45.04,12.83-18.23,8.99-36.81,17.31-55.47,25.41-8.58,3.73-17.63,6.46-26.58,9.27-10.24,3.22-11.48,2.24-12.86-9.08-.48-3.99-.64-8.01-.95-12.02Z"/><path class="cls-3" d="M1847.39,195.78c6.95,3.03,15.37,7.38,24.68,9.46,37.69,8.4,71.84,26.4,107.64,39.94,7.83,2.96,15.97,5.1,23.95,7.66,.81,.26,1.53,.79,2.29,1.2-1.02,.12-2.13,.55-3.05,.3-12.75-3.38-25.31-7.78-38.25-10.07-16.78-2.97-33.83-4.54-50.82-6.2-11.9-1.16-23.92-1.09-35.82-2.3-6.59-.67-10.41-6.62-15.23-10.5-8.55-6.88-16.97-13.93-20.58-24.97-1.39-4.26-1.34-4.54,5.18-4.53Z"/><path class="cls-3" d="M806.06,491.52c-.87-4.42,.25-8.75,3.72-12.48,3.88-4.17,5.41-9.35,6.4-14.84,1.12-6.14,5.13-8.93,11.3-8.51,5.35,.36,10.76,.47,16,1.47,4.66,.89,3.89,5.44,2.91,8.14-3.52,9.63-7.59,19.07-11.75,28.45-1.63,3.67-2.82,7.32-2.57,11.29,.65,9.97-1.29,19.57-4.05,29.04-.34,1.17-1.23,2.84-2.14,3.05-1.66,.38-2.23-1.48-2.86-2.77-4.88-9.92-9.5-19.98-14.74-29.7-2.24-4.16-2.4-8.26-2.22-13.14Z"/></g></g></g></svg>