<?xml version="1.0" encoding="UTF-8"?><svg id="Layer_2" xmlns="http://www.w3.org/2000/svg" viewBox="0 0 2007.94 1104.3"><defs><style>.cls-1{fill:#591b0c;}.cls-2{fill:#5e2214;}.cls-3{opacity:.5;}</style></defs><g id="houses"><path class="cls-1" d="M0,73.71C0,314.56,0,555.41,0,796.26c0,1.57,.15,306.41,.24,307.98,668.2,0,1336.39,0,2004.59,.06,2.53,0,3.11-303.84,3.1-306.37-.07-235.91-.06-471.81-.06-707.72-2.98-.55-5.95-1.23-8.95-1.61-6.89-.86-13.92-.56-20.55-3.3-8.08-3.34-16.24-6.97-21.81-13.67-5.28-6.35-10.69-12.42-16.87-17.87-3.34-2.95-4.35-2.68-5.65,1.54-1.89,6.11-1.38,12.48-2.06,18.71-.6,5.58-.17,11.31-1.22,16.78-2.57,13.44-4.94,26.96-9.7,39.89-1.38,3.74-2.73,7.48-5.94,10.02-10.97,8.68-22.47,16.62-35.1,22.68-10.39,4.98-21.97,6.4-32.75,10.35-5.55,2.03-11.54,3.04-17.51,3.35-9.66,.49-19.28,1.84-28.98,1.46-1.2-.05-2.44,.34-3.64,.63-3.78,.92-7.56,.93-11.37,.15-5.95-1.22-11.87-2.6-17.86-3.52-9.45-1.45-18.91-2.76-28.11-5.44-6.11-1.78-10.74-5.38-12.65-11.57-2.04-6.63-3.67-13.39,2.29-19.19,.75-.73,1.8-1.67,1.05-2.93-.69-1.17-1.97-1.4-3.25-1.41-4.33-.03-8.47,.95-12.56,2.26-3.43,1.1-5.81,3.3-7.24,6.6-3.48,8.01-3.82,16.05-.45,24.2,.99,2.38,1.82,4.84,2.61,7.29,.87,2.69,1.62,5.49,3.46,7.64,6.45,7.52,13.11,14.87,21.67,20.12,8.64,5.29,17.96,9.43,26.3,15.2,13.35,9.23,26.92,18.06,41.41,25.42,2.18,1.11,3.3,2.56,3.08,5.04-.27,2.91-.48,5.82-.67,8.73-.79,12.06,1.99,23.98,1.52,36.04-.04,1.08,.36,2.23,.78,3.25,1.03,2.46,3.4,2.45,5.48,2.44,2.11,0,2.61-1.83,2.81-3.6,.33-2.92,1.2-5.71,1.93-8.53,1.15-4.42,3.98-7.12,8.18-8.71,5.7-2.17,9.49,.36,9.73,6.54,.16,4.03-1.06,7.79-2.19,11.54-1.99,6.59-2.66,13.24-1.11,19.97,.97,4.2,1.41,8.41,1.32,12.71-.11,4.96,.27,9.86,1.24,14.75,1.05,5.33,1.09,5.88-4.19,7.69-7.32,2.51-12.72,7.46-18.24,12.4-3.86,3.45-8.31,5.63-13.38,6.81-7.77,1.81-15.73,2.98-23.15,6.05-18.79,7.75-38.3,13-58.11,17.35-16.29,3.58-32.55,6.91-49.4,5.76-4.82-.33-9.28-1.35-13.56-3.55-8.7-4.47-16.05-10.67-23.44-16.98-6.05-5.16-5.59-10.52-3.28-16.29,1.11-2.77,2.79-5.14,4.92-7.34-4.97,2.32-9.59,4.99-13.1,9.15-.74,.88-1.15,2.28-1.18,3.45-.11,5.49-.71,11.01,.97,16.42,.98,3.15,1.69,6.38,2.78,10.58-7.84-4.72-15.72-6.7-23.28-9.54-10.85-4.08-21.95-7.28-33.24-9.85-5.78-1.32-10.97-3.92-15.41-7.98-2.2-2.01-1.34-2.64,.95-3.34,9.58-2.91,18.89-6.66,28.58-9.22,4-1.06,7.44-3.07,10.33-6.09,10.07-10.51,20.11-21.09,25.8-34.78,4.59-11.02,9.18-22.16,4.43-34.43-.42-1.08-.25-2.83-1.73-2.91-1.18-.06-1.38,1.59-2.01,2.48-.13,.18-.2,.4-.31,.6-6.43,10.87-15.43,18.14-27.99,21.01-15.05,3.44-30.28,4.27-45.61,3.86-10.22-.28-20.03-2.61-29.13-7.47-.99-.53-2.16-1.03-2.77-1.89-.34-.47-.69-.94-1.04-1.4v-60.41l-7.83,.42c.08,.76,.67,1.43,1.85,1.6v51.61c-3.48-3.91-6.6-8.05-7.26-13.78-.25-2.17-1.45-2.65-3.29-1.57-2.85,1.67-5.86,3.15-8.57,5.01-3.82-5.26-6.77-11.25-8.9-17.7-1.26,1.09-3.79,2.52-5.22,3.28,2.29,6.51,5.24,12.36,9,17.58-3.85,1.6-7.91,1.5-12.13,.34-13.44-3.7-26.39-8.88-39.52-13.46-12.31-4.29-24.17-9.96-34.92-17.53-4.68-3.3-7.72-7.72-8.19-13.72-.65-8.29-1.26-16.59-1.19-24.89,.04-4.47-1.4-7.21-5.4-9.46-3.7-2.08-4.32-1.64-6.44,1.58-4.07,6.21-8.53,12.17-12.13,18.69-1.8,3.27-3.78,3.74-6.9,1.66-1.58-1.06-3.15-2.23-4.45-3.61-2.9-3.09-5.94-5.43-10.47-6.03-2.63-.34-3.61,.02-4.43,2.37-1.43,4.07-1.72,8.36-2.7,12.5-3.72,15.75-14.91,24.37-29.17,29.74-13.45,5.07-27.83,6.24-41.75,9.34-6.91,1.54-7.01,1.1-9.38-5.9-1.35-3.97-1.34-3.95-4.96-2.13-.79,.4-1.68,.69-2.55,.8-7.74,.98-15.51,.87-23.24,.19-8.79-.77-16.71-4.34-24.35-8.53-1.49-.82-2.81-1.29-4.29,.04-1.52,1.36-1.14,2.88-.44,4.32,3.13,6.48,5.94,13.21,10.89,18.58,13.26,14.38,26.21,29.07,40.24,42.73,.56,.55,1.21,1.01,1.82,1.5,3.69,2.95,7.26,5.98,9.54,10.27,1.11,2.08,2.39,4.09,4.21,5.67,3.37,2.93,5.48,6.83,8.11,10.34,1.43,1.9,1.17,3.82-.43,5.5-.77,.81-1.7,1.47-2.58,2.16-3.23,2.54-5.15,5.95-6.18,9.83-.83,3.14-.83,6.19,1.79,8.73,.49,.47,.62,1.45,.67,2.21,.74,10.98,1.41,21.97,2.19,32.95,.2,2.8-1.01,4.17-3.67,4.63-9.63,1.69-19.28,3.3-28.6,6.37-2.53,.83-4.14-.15-5.44-2.09-.81-1.21-1.36-2.61-2.24-3.77-2.98-3.92-6.25-7.46-11.81-7.17-1.91,.1-3.02-.86-3.22-2.7-1.22-11.16-3.28-22.23-3.45-33.5-.07-4.73-.04-9.46-.02-14.19,.01-2.77-1.3-4.37-3.99-5.06-1.89-.48-3.69-.58-5.65-.2-6.22,1.2-11.7,4.16-16.85,7.55-14.93,9.84-28.78,21.29-44.36,30.2-2.23,1.28-4.17,3.08-6.32,4.51-1.56,1.04-2.29,2.4-2.3,4.23-.05,7.19-1.8,14.06-4.36,20.7-3.74,9.7-9.78,17.52-19.65,21.59-2.59,1.07-4.75,2.33-6.67,4.3-4.21,4.33-8.92,6.69-15.44,6.84-15,.35-29.84,2.41-43.84,8.45-3.36,1.45-6.53,3.06-9.05,5.74-5.84,6.22-12.81,7.85-20.94,5.48-10.81-3.15-21.64-6.19-32.98-6.89-7.41-.46-14.85-1.76-22.23-.7-7.18,1.04-14.35,1.14-21.55,1.17-6.53,.03-13.05-.08-19.58,.51-4.25,.38-8.55,.12-12.83,.13-2.01,0-3.44-.85-3.11-3.01,.9-5.87-.31-11.67-.29-17.52,.04-17.79,1.06-35.55,1.15-53.33,.04-6.93,1.03-13.95,3.46-20.56,1.73-4.71,2.81-9.44,2.55-14.5-.14-2.83,.69-5.57,1.87-8.16,.63-1.39,1.52-2.52,3.1-2.86,5.73-1.23,11.07-3.83,16.91-4.68,10.29-1.49,19.75-5.24,28.63-10.57,2.43-1.46,4.8-2.98,6.51-5.29,1.2-1.62,2.85-3.48,2.02-5.46-.89-2.12-3.38-1.19-5.19-1.24-8.77-.26-17.67,.04-26.12-2.6-19.24-6.02-38.1-13.1-56.58-21.2-9.67-4.24-19.16-8.98-29.56-11.46-9.63-2.3-19.2-4.9-28.73-7.59-17.87-5.03-35.58-10.8-54.3-11.86-4.27-.24-6.59-2.48-7.92-6.16-1.11-3.07-2.06-6.19-3.06-9.3-.71-2.23-1.92-3.52-4.49-2.71-2.2,.69-4.46,.49-6.7,.16-8-1.17-15.69-3.94-23.8-4.63-2.16-.19-4.57-1.03-6.27-2.34-4.92-3.77-10.54-5.94-16.19-8.19-3.07-1.22-6.38-2.06-9.28-3.25-8.59-3.53-17.31-6.26-26.42-7.84-2.77-.48-2.51-1.66-1.41-3.62,3.26-5.83,7.3-11.13,11.57-16.17,7.01-8.26,12.98-17.25,19.18-26.06,3.96-5.63,7.34-11.96,6.64-19.42-.13-1.42,.4-3.24-1.09-4.02-1.73-.91-3.21,.43-4.56,1.39-3.49,2.48-6.81,5.19-10.41,7.49-7.43,4.75-15.6,8.44-24.44,7.62-17.09-1.59-34.44-.87-51.22-5.39-.86-.23-1.78-.26-2.68-.32-6.15-.41-11.92-2.38-17.52-4.72-3.94-1.64-6.82-4.64-8.76-8.56-2.25-4.55-4.21-9.21-5.7-14.07-.82-2.69-1.72-5.36-2.63-8.02-.36-1.05-.68-2.47-1.88-2.59-1.35-.14-1.53,1.42-1.99,2.37-1.22,2.53-2.24,5.17-3.56,7.65-1.94,3.64-4.07,3.7-6.54,.33-.46-.63-.9-1.31-1.22-2.02-3.63-8.06-10-14.43-13.68-22.47-1.08-2.36-2.54-1.76-3.66,.14-1.43,2.43-2.72,4.93-3.6,7.62-3.99,12.18-10.23,22.9-19.63,31.84-4.14,3.94-8.98,7.26-12.19,12.1-1.94,2.92-4.35,5.08-7.47,6.61-2.11,1.04-4.17,2.25-6.11,3.59-10.88,7.52-22.24,8.51-34.16,2.72-.8-.39-1.6-.74-2.42-1.08l.06-.06c-2.99-.36-5.95-.83-8.9-1.43-.7,.39-1.21,1.11-1.63,2.25-2.12,2.11-4.05,4.14-5.67,5.92l3.37,2.92s-.03,.1-.05,.15c-1.85,4.81-4.37,9.72-9.66,10.98-10.49,2.48-20.95,5.31-31.77,6.11-14.14,1.04-27.72-.11-39-10.15-1.84-1.64-3.77-3.3-5.92-4.46-4.34-2.36-6.88-5.48-6.18-10.7,.14-1.05-.36-2.21-.66-3.29-3.37-12.33-3.28-24.9-2.29-37.46,.31-4,1.7-7.95,1.04-12.02-.72-4.48-.62-8.98-.57-13.48,.07-7.12,2.87-12.7,8.93-16.8,4.53-3.06,9.6-4.97,14.41-7.39,7.22-3.64,14.08-7.96,21.55-11.11,9.24-3.89,14.78-12.25,14.6-21.84-.04-2.3,.69-5.42-1.64-6.47-2.09-.94-3.98,1.59-5.65,2.94-9.53,7.71-20.39,12.17-32.46,14.05-10.83,1.68-21.79,1.31-32.28-.84-18.38-3.76-36.56-8.64-54.62-13.83-9.62-2.77-18.53-6.83-26.55-12.93-9.76-7.42-17.54-16.05-19.89-28.62-.64-3.43-1.67-3.68-4.54-1.48-3.04,2.33-6,4.75-9.39,6.57-8.14,4.38-16.55,8.25-25.18,11.5-13.26,5-26.86,9.13-39.37,15.99-1.15,.63-2.55,.94-3.87,1.12-8.97,1.23-18.01,1.67-26.84-.51-8.32-2.06-14.74,.46-19.58,7.03-5.21,7.07-12.51,11.28-20.39,13.67-14.96,4.53-30.38,7.23-46.04,8.37-6.16,.45-12.37,.46-18.47,1.73C.03,68.06,0,67.95,0,73.71Zm1676.99,439.5c1.56-12.5,2.24-25.05,1.94-37.65-.03-1.14,.03-2.26,.83-3.19,2.98-3.5,5.78-7.12,9.97-9.44,3.83-2.12,7.43-4.72,8.98-9.18,.44-1.25,1.25-1.36,2.4-.84,12.79,5.78,26.16,10.31,38.02,18.04,1.81,1.18,2.18,2.59,2.18,4.51-.04,12.26-.1,24.52,.04,36.79,.03,3.11-1.01,4.14-4.11,4.09-9.34-.15-18.68-.06-28.02-.06-9.57,0-19.13-.02-28.7,.01-2.16,0-3.88-.23-3.53-3.08Z"/><path class="cls-1" d="M1527.49,246.64c-1.09-.17-1.85-.67-1.93-1.43l7.99-.76c.25,22.64,1.77,43.68,14.31,57.31-1.68,.93-3.7,2.19-5.05,3.2-12.96-15.06-14.81-35.68-15.32-58.32Z"/><g id="DUYm8A.tif" class="cls-3"><g><path class="cls-2" d="M196.42,24.01c.07,.21,.07,.49,.21,.62,2.41,2.33,4.83,4.65,7.25,6.97-3.8,.09-7.6,.08-11.39,.28-12.39,.65-22.62,8.19-34.32,10.93-24.63,5.76-49.38,11.04-72.92,20.59-.66,.27-1.24,.73-1.86,1.09,.59,.6,1.09,1.55,1.8,1.75,30.28,8.48,53.01,30.85,80.97,43.83,24.91,11.57,50.12,11.52,74.96,4.48,38.35-10.88,75.93-24.42,113.88-36.72,3.51-1.14,4.98-3.17,3.87-6.44-1.16-3.4-3.63-.73-5.36-.46-18.79,2.92-36.57-2.65-54.68-5.99-27.73-5.11-54.7-12.39-80.04-25.01-1.4-.7-2.75-1.52-4.01-2.45-1.96-1.44-3.81-3.02-5.71-4.54,2.22-.33,4.44-.66,8.21-1.22-7.09-2.9-12.95-5.31-18.82-7.71-.67,0-1.35,0-2.02,0Z"/><path class="cls-2" d="M1902.22,161.37c-8.33-3.22-9.91,5.44-14.61,8.48-15.33,9.9-32.57,12.7-50.09,16.37-23.09,4.84-46.05,7.21-69.47,6.56-18.08-.51-33.44-7.78-46.65-19.71-1.99-1.8-2.58-5.1-3.93-7.64-.96-1.82-.61-4.6-3.51-5.08,0,2.25-.61,4.71,.09,6.71,6.54,18.85,22.03,26.77,39.62,32.26,36.55,11.41,71.5,5.06,106.08-8.57,13.23-5.21,26.93-9.21,38.24-18.27,1.68-1.35,2.84-3.34,4.24-5.04,0-2.02,0-4.04,0-6.06Z"/><path class="cls-2" d="M317.81,274.57c-7.46,2.89-14.86,5.52-22.41,7.76-47.69,14.12-90.43,3.65-129.56-25.68-10.49-7.86-22.51-12.69-34.78-17.58-31.48-12.55-64.18-20.87-96.48-30.62-11.34-3.42-16.97,7-25.78,9.55,.61,2.05,.86,4.31,1.9,6.12,12.61,22.03,33.7,35.54,51.81,52.17,12.46,11.43,26.15,12.69,41.47,11.97,37.48-1.76,74.34,8.85,111.89,5.94,29.09-2.25,58.63-1.43,86.76-10.9,5.43-1.83,10.14-5.76,15.18-8.72Z"/><path class="cls-2" d="M677.34,169.04c-39.16,12.29-78.26,21.99-117.03-2.22-3-1.88-5.23-3.81-3.57-8.12,1.23-3.19-1.77-1.81-2.74-1.39-19.26,8.39-38.33,17.2-57.74,25.21-8.53,3.51-17.69,5.53-26.63,7.97-2.91,.79-3.61,2.12-2.76,4.81,6.43,20.35,15.73,39.79,14.45,62.3-.34,6.02,9.22,2.11,14.2,2.67,15.7,1.74,16.17-14.59,24.81-21.33,13.01-10.15,24.56-22.69,38.72-30.71,11.5-6.51,25.92-2.3,38.81,.25,36.97,7.3,66-6.16,78.72-37.09,.45-1.08,.73-2.23,.77-2.34Z"/><path class="cls-2" d="M913.85,319.64c-20.02,.23-37.86-11.56-57.07-19.09-29.41-11.52-60.41-16.89-91.07-23.62-5.77-1.27-11.31-3.54-17.02-5.12-1.53-.42-3.29,0-4.94,.03,1,1.5,1.65,3.58,3.05,4.41,19.7,11.68,39.62,22.98,59.22,34.8,13.29,8.02,26.34,16.48,39.19,25.18,8.78,5.94,17.95,6.07,27.64,3.7,20.92-5.12,41.85-10.25,62.76-15.41,.81-.2,1.52-.78,2.28-1.18-.71-.46-1.37-1.04-2.14-1.37-6.45-2.79-13.26-2.99-21.9-2.34Z"/><path class="cls-2" d="M1693.88,419.77c25.35-1.85,51.77-5.84,78.13-11.04,18.8-3.71,38.05-5.63,57.35-5.34,4.34,.07,6-1.04,5.77-5.62-.68-13.24-.97-26.51-1.49-39.76-.03-.79-.93-2.27-1.12-2.22-2.08,.52-5.1,.65-5.99,2.07-9.35,14.82-24.89,23-39.67,27.53-28.03,8.58-54.12,22.34-84.65,25.34-27.13,2.67-50.7,2.04-72.14-15.62-.83-.68-2.24-.66-3.38-.97,.43,1.2,.52,2.77,1.35,3.54,12.94,12.14,27.9,19.99,45.92,21.1,6.15,.38,12.3,.62,19.92,.99Z"/><path class="cls-2" d="M297.49,203.34c7.82,.95,16.18-2.15,24.77-3.5,.64-.1,1.17-.82,1.76-1.26-.46-.45-.83-1.12-1.38-1.31-26.38-9.29-49.74-26.44-77.37-31.91-21.18-4.19-43.05-5.47-64.77-2.21-.97,.15-1.84,.99-2.75,1.51,.72,.63,1.37,1.37,2.16,1.88,28.01,18.11,87.2,36.78,117.57,36.78Z"/><path class="cls-2" d="M1842.69,391.64c0,20.06-.01,40.12,.03,60.19,0,.9,.49,1.8,.75,2.7,.47-.79,1.24-1.53,1.37-2.37,1.07-6.81,2.93-13.66,2.87-20.47-.45-49.94,5.04-99.58,6.85-149.4,.23-6.24-19.85-19.7-25.62-17.19-2.48,1.08-2.22,3.65-1.28,5.57,15.76,32.16,13.09,66.92,14.31,101.12,.24,6.61,.03,13.24,.03,19.86h.68Z"/><path class="cls-2" d="M1448,293.32c6.94-2.17,13.37,1.32,14.61-3.23,.67-2.44-7.06-2.7-11-3.04-37.14-3.19-68.04-20.23-96.51-42.83-1.1-.87-2.13-1.32,0-2.63,7.61-4.7,12.99-11.13,14.09-20.37,.11-.96-.43-2-.67-3-.51,.66-1.2,1.25-1.5,2-3.92,9.84-11.55,11.57-20.87,9.55-2.54-.55-5.35-1.66-6.76,1.5-1.36,3.04-2.77,5.42,0,9.58,26.75,40.01,69.29,45.18,108.62,52.46Z"/><path class="cls-2" d="M1094.93,504c-8.49-14.28-5.07-35.58-22.22-46.38-6.78-4.27-15.33-2.13-22.82,1.27-4.46,2.02-9.05,3.75-13.49,5.8-1.71,.79-3.17,2.13-4.74,3.22,1.32,1.38,2.46,3.7,4,4,17.1,3.35,27.76,16.36,40.59,26.21,4.88,3.75,10.94,5.98,16.49,8.84,2.03,1.05,2.28-.28,2.19-2.97Z"/><path class="cls-2" d="M1238.36,286.22c32.94-.15,61.77-4.64,88.29-19.44,2.49-1.39,2.54-3.44,2.17-5.4-.78-4.18,3.44-8.84-.49-12.18-.98-.83-5.58,1.55-7.79,3.35-34.34,27.96-72.54,29.87-113.04,17.16-1.38-.43-3.06,.08-4.6,.15,.61,1.33,.94,2.93,1.88,3.96,9.95,10.78,22.48,14.08,33.58,12.39Z"/><path class="cls-2" d="M1172.91,388.68c6.63,.52,10.48,.5,14.2,1.17,14.02,2.51,11.82-6.78,10.5-14.71-1.87-11.19-5.64-17.56-18.73-9.32-2.89,1.82-7.82,2.81-11.42,5.61-4.81,3.74-8.91,7.68-5.7,14.11,3.04,6.09,9.24,2.65,11.16,3.15Z"/><path class="cls-2" d="M1579.51,402.29c.85-.45,2.82-.94,2.92-1.67,.19-1.47,.02-3.83-2.34-3.7-19.23,1.04-35.21-9.95-53.03-14.11-4.35-1.02-10.78-4.49-12.8-1.1-3.12,5.24,3.81,4.15,6.64,5.3,1.45,.59,3.34,0,5,.21,16.87,2.18,32.44,8.92,48.5,13.91,1.48,.46,3.03,.69,5.11,1.16Z"/></g></g><g><path class="cls-1" d="M1173.3,416.41c1.63,3.67,2.82,7.32,2.57,11.29-.65,9.97,1.29,19.57,4.05,29.04,.34,1.17,1.23,2.84,2.14,3.05,1.66,.38,2.23-1.48,2.86-2.77,4.88-9.92,9.5-19.98,14.74-29.7,2.24-4.16,2.4-8.26,2.22-13.14,.87-4.42-.25-8.75-3.72-12.48-3.88-4.17-5.41-9.35-6.41-14.84-1.12-6.14-5.13-8.93-11.3-8.51-5.35,.36-10.76,.47-16,1.47-4.66,.89-3.89,5.44-2.91,8.14,3.52,9.63,7.59,19.07,11.75,28.45Z"/><path class="cls-1" d="M1998.37,318.62c-28.39-12.35-59.01-16.86-88.5-25.33-15.52-4.46-31.15-9.21-45.13-17.81-.86-.53-1.79-.94-2.62-1.49-3-1.99-5.05-5.4-8.99-5.98-.19,3.53-.46,7.06-.54,10.6-.71,30.57,4.1,60.83,5.32,91.31-34.17,13.16-79.04,31.92-122.12,49.86-18.02,7.5,47.42,97.58,30.6,103.41-110.87,38.46-146.31-.68-160.47-28.15,18.65-9.28,39.65-12.54,57.21-23.75,8.2-5.23,15.18-12.4,22.61-18.82,3.57-3.09,2.94-6.22-1.01-8.31-12.43-6.59-25.85-11.72-37.27-19.71-21.06-14.72-45.57-14.73-69.14-19.35-16.99-3.33-19.95,11.07-26.17,20.14-11.76,17.16-14.82,37.09-17.94,56.96-14.73,3.75-31.72,8.74-51.8,15.13-22.61,7.2-37.49,6.89-47.18,4.01,5.77-10.63,10.98-21.57,17.48-31.69,8.41-13.09,17.19-26.13,25.64-39.15,9.76-15.05,21.02-29.36,28.71-45.71,3.1-6.59-.31-13.42-1.99-19.88-.63-2.43-4.15-1.66-6.37-.96-17.16,5.36-33.95,12.01-51.72,15.27-3.81,.7-7.82,.36-11.73,.45-3.85,.09-6.17,1.67-5.97,5.93,3.23,23.62,1.2,47.33-.91,70.9-1.15,12.9-3.78,25.67-4.89,38.57-4.19-3.73-5.41-7.31-5.41-7.31,0,0-119.18-40.95-147.09-26.24-27.91,14.71-88.78,77.99-130.77,76.39-8.3-.32-23.27,1.52-42.21,4.53,.19-2.02,.27-4.06,.22-6.14-.08-3,1.41-5.96,3.87-7.53,5.42-3.45,5.73-8.49,6.33-14.19,2.53-23.69-5.98-45.7-9.51-68.46-.64-4.12,.21-5.59-4.84-2.62-13.58,7.98-13.8,7.55-9.23,22.81,2.46,8.24,4.71,16.54,7.17,24.78,.72,2.4,.16,3.02-2.22,2.4-12.05-3.16-22.34-9.2-30.76-18.42-.94-1.03-2.33-2.07-3.64-2.27-3.05-.45-6.18-.39-9.27-.54,.82,3.05,4.49,2.42,5.96,4.53,4.61,6.62,12.22,11.38,12.78,20.57,.06,1.03,1.13,2.18,2.02,2.94,13.7,11.73,17.86,27.41,19.59,44.02-78.8,13.26-209.14,41.18-235.96,27.18,0,0,14.56-215.84-5.12-217.12-5.95-.39-11.31-2.13-15.9-4.37,5.81-5.12,10.11-11.03,11.95-18.98,.73-3.14-.21-4.75-2.8-6.22-34.62-19.62-68.41-40.61-102.43-61.23-5.43-3.29-2.07-9.65-7.46-12.4-5.86-2.98-10.98-7.42-16.42-11.22-.34,.4-.68,.81-1.02,1.21,5.59,5.89,10.9,12.11,16.91,17.54,2.73,2.46,2.65,4.18,1.1,6.72-8.17,13.39-18.74,24.98-28.08,37.5-3.87,5.19-7.52,10.55-10.99,16.01-2.2,3.47,.26,5.36,3.17,6.64,0,0-155.49-46.27-225.66-70.4,.05-.74,.1-1.48,.15-2.22,1.09-12.37-8.93-19.88-12.93-29.94-4.81-12.11-14.93-16.86-26.02-18.45-9.87-1.41-19.79,2.16-29,6.43-17.09,7.92-34.36,15.58-53.53,16.27-6.21,.22-12.51-2.08-18.79-3.09-.97-.16-2.06,.38-3.09,.59,.82,.62,1.58,1.68,2.47,1.8,10.11,1.32,19.97,3.34,29.55,6.51-51.97-3.3-112.42-7.09-126.01-19.29-4.73-4.24-10.34-9.19-16.43-14.38,4.47-5.52,9.17-10.86,14.18-15.97,4.07-4.15,5.54-7.65-1.81-11.03-18.42-8.47-36.49-17.68-54.58-26.83-3.39-1.71-6.1-1.1-7.97,1.39-2.93,3.89-6.1,7.46-9.46,10.79-3.41-1.23-6.35-1.79-8.67-1.47-2.11,.29-6.02,.5-11.23,.69,3.98-2.16,7-6.15,10.55-9.01,8.55-6.88,16.97-13.93,20.58-24.97,1.39-4.26,1.34-4.54-5.18-4.53-6.95,3.03-15.37,7.38-24.68,9.46-32.89,7.33-63.08,21.96-94.02,34.57-20.29,2.78-36.39,7.15-39.87,14.23L.25,1104.24l2004.59,.06-6.46-785.68Zm-84.3,33.86c7.42-3.27,15.52-3.24,23.33-3.9-9.05,3.03-17.34,4.74-23.33,3.9Z"/><path class="cls-1" d="M1301.82,195.78l-.66,4.61s-.66,4.28,0,6.25c.66,1.97,3.62,11.19,4.28,12.17,.66,.99,0,0,2.63,2.63,2.63,2.63-.33,0,0,1.32,.33,1.32,0,.99,0,.99v.99l.99,1.65v.66l.66,.99v.33l.33,.33-.33,1.65c-.33,1.65,0,.33,0,.33v1.97l.99,.33v2.63l.99,2.96-.99,1.65,3.29,5.92s.66,3.95,.99,7.57c.33,3.62,4.94,14.81,4.94,14.81l-.33,3.29-.66,1.32-1.65,2.96s-.99,3.62-.99,4.61,0,1.97,2.3,4.28c2.3,2.3,6.25,2.63,6.25,2.63l4.28-.33,5.92,.66h-2.96c-2.96,0-5.59,1.65-4.94,3.29,.66,1.65,6.58,1.97,6.58,1.97,0,0,13.49-.33,24.68,.66s70.42-1.65,70.42-1.65c0,0,20.61-.91,29.83-.69-.78,.45-1.55,.93-2.3,1.49-2.16,1.62-7.26,3.77-1.99,7.86,.16,.12-.03,.98-.29,1.31-12.47,15.69-13.16,33.78-10.7,52.49,.48,3.68-1.51,8.56,3.55,9.99,20-3.68,38.88-8.37,57.28-15.25,19.46-7.28,37.56-17.16,55.69-27.04,3.59-1.96,6.68-4.84,9.93-7.38,.51-.4,.66-1.28,.97-1.94-.93-.23-1.85-.57-2.8-.68-27.6-3.11-55.33-5.35-82.36-12.25-1.97-.5-4.63-.78-5.1-3.25-.47-2.52,2.05-3.41,3.67-4.69,1.5-1.19,2.97-2.71,3.58-4.33,1.38-1.31,4.84-3.21,4.84-3.21l.33-3.62,2.3-2.96,.33,.99,.99-3.29,.33,2.3s.66-2.96,.99-5.26c.33-2.3-.33-4.61-1.32-6.58-.99-1.97-.99-3.95-.99-3.95l2.3,2.63v-1.32s-.11-.57-.27-1.3c-.11-.52-.25-1.12-.38-1.66-.33-1.32-1.97-3.62-1.97-3.62l-.33-2.96,2.3,2.63-.99-4.94-.99-1.32-.99-.99-1.65-2.63v-3.29l1.32,2.3,2.3,1.97-1.32-1.97s-1.32-3.29-.99-4.94-3.29-7.57-3.29-7.57h2.3l-1.32-1.65,1.32-1.65-5.92-4.28,1.65-.33-.99-.99h1.97l-2.3-.99-.66-1.97h1.65l-2.3-.66h2.3l-1.32-.99s-1.65-.33-3.29-1.32-3.29-2.63-3.29-2.63l2.3-.66v-.99l-1.97-.66-1.97-1.65-.66-1.32-.99-.66v-1.32l-2.96-.33-.66-1.65-1.97-.99s-5.26-3.95-6.91-4.28-2.96-.33-2.96-.33l-1.32-.66-.66-1.32s2.63-.66,1.65-.99l-2.96-.99,2.3-.99-5.59-.33v-.66l-.99-.33v-.33l-1.32-.66-1.32-.33s-1.65-.33-2.96-.66c-1.32-.33-2.96,0-2.96,0l.66-.99-.99-.99s-5.59-.66-8.56-.66-23.03,.99-27.97,1.97c-4.94,.99-11.85,5.59-14.48,6.91-2.63,1.32-11.85,5.26-12.5,4.94-.66-.33-4.28,.99-6.91,3.62-2.63,2.63-8.88,5.92-8.88,5.92,0,0,.66-4.28,.99-7.57s-1.81-8.39-3.46-10.37-2.63-7.24-2.63-7.24v-4.28s-.66-7.24-.66-7.57,.33-10.2-2.3-15.47c-2.63-5.26-5.59-.99-6.58,0-.99,.99-7.24,15.14-7.24,15.14,0,0-.66,2.3-1.97,1.97-1.32-.33-4.28,1.32-6.25,1.97-1.97,.66-7.57,.99-8.56,.33-.99-.66-5.26,0-5.26,0-1.48-.49-9.38-9.38-11.68-12.67-2.3-3.29-5.59-4.94-8.88-4.94s-3.95,5.59-4.61,13.82c-.66,8.23,3.95,15.14,3.95,15.14l.99,3.95Z"/></g></g></svg>