<?xml version="1.0" encoding="UTF-8"?><svg id="Layer_2" xmlns="http://www.w3.org/2000/svg" viewBox="0 0 632.91 1484.13"><defs><style>.cls-1{fill:#e89746;}.cls-2{opacity:.84;}.cls-3{fill:#f5b86f;opacity:.41;}</style></defs><g id="leeft-castle"><g><path class="cls-1" d="M547.52,338.93c1.97-1.91,6.36-3.91,10.84-3.91,3.76,0,6.15,2.06,6.15,5.29,0,2.78-1.73,4.69-4.12,5.58-.45-2.72-2.72-5.4-6.09-5.4-2.72,0-4.9,1.79-4.9,4,0,2.63,2.66,4.18,6.54,4.18,6,0,10.75-2.99,10.75-8.39,0-4.39-2.99-7.17-7.73-7.17-2.36,0-5.43,.72-7.41,1.73v-.03c2.33-2.24,8-7.55,10.12-9.29,.3-.03,.57-.15,.72-.27l-1.58-1.94-.45,.21c-2.18,.33-9.88,.63-13.91,.66l.24,2.54c.24-.06,.54-.24,.63-.45,3.4-.12,9.38-.36,11.11-.6-4.06,3.79-12.6,11.94-15.29,14.75l1.52,1.52c.81-.93,1.97-2.18,2.87-3.02Zm8.15,7.85c-1.97,0-4.45-.51-4.45-2.33,0-1.37,1.37-2.21,2.93-2.21,2.21,0,3.91,1.94,4.24,4.24-.78,.18-1.82,.3-2.72,.3Z"/><path class="cls-1" d="M548.47,372.34c-.03,1.91,0,10.42-.03,12.15h2.09c-.03-4.06-.03-9.38-.03-13.71,3.11-3.28,6.87-5.7,9.11-5.7,1.46,0,2.36,1.16,2.36,3.76,0,.03-.54,8.24-.54,9.79,0,3.1,.84,4.6,3.34,4.6,1.37,0,3.16-.84,4.69-1.94-.12-.45-.36-1.67-.42-2.27-1.28,1.1-3.08,2-3.97,2-1.25,0-1.46-.96-1.46-2.75,0-2.39,.3-6.12,.51-8.75,.03-.39,.06-.78,.06-1.16,0-3.46-1.4-5.43-4.21-5.43-2.48,0-6.12,2.18-9.41,5.26,.18-1.07,.48-2.84,1.19-4.27l-.93-.36c.06-1.1,.18-2.96,.3-4.27,.51-.06,.78-.27,.84-.6l-3.08-.24c-.12,2.72-.15,3.7-.21,5.49-.99,.24-3.2,.45-5.61,.45l.03,2.12c2.27-.03,4.45-.27,5.49-.51-.03,.96-.06,1.76-.06,2.63-1.31,3.08-4.09,6.69-6.57,9.02l1.08,1.88c2.36-2.39,4.39-5.11,5.43-7.2Z"/><path class="cls-1" d="M544.77,413.51c.78-.93,1.79-2.03,2.42-2.6,2.39-2.21,7.14-4.18,10.75-4.18s6.18,1.7,6.18,5.11c0,4.21-4.66,5.88-13.59,6.27,.27,.48,.6,1.43,.72,2,9.64-.48,15.08-2.75,15.08-8.33,0-4.54-3.19-6.96-7.82-6.96-2.33,0-5.29,.69-7.85,2.12h-.03c1.88-1.94,7.5-7.58,10.27-9.97,.39-.03,.66-.09,.87-.27l-1.76-1.94-.45,.24c-.75,.27-9.62,.84-13.38,.84l.3,2.51c.24-.06,.54-.27,.6-.45,3.02-.18,9.2-.57,10.63-.72-3.28,3.28-11.7,11.74-14.42,14.87l1.49,1.46Z"/><rect class="cls-1" x="546.89" y="431.39" width="17.02" height="1.97"/><path class="cls-1" d="M566.72,439.75l-1.76-.9-.3,.18h-20.66v2.03h19.77c-1.88,6.93-6.93,11.11-15.05,13.14,.42,.45,.99,1.19,1.25,1.73,8.93-2.48,13.91-6.87,16.36-15.89,.18-.06,.33-.18,.39-.3Z"/><path class="cls-1" d="M547.49,482.39h2.12v-13.8c.48-.06,.69-.27,.72-.54l-2.84-.18v14.51Z"/><path class="cls-1" d="M551.13,490.42c.51,.39,1.25,1.16,1.55,1.61,8.57-3.31,10.72-9.05,10.72-15.32v-9.5c.48-.06,.69-.21,.72-.51l-2.87-.18v10.18c0,5.52-1.85,10.63-10.12,13.71Z"/><g><g><path class="cls-1" d="M234.34,11.47c-2.93,1.55-7.11,4.81-7.11,8.66s3.31,5.49,10.54,6.06l.66-2.09c-2.81-.18-6.06-.72-7.41-1.46-.42-.21-1.55-.84-1.55-2.69,0-4.09,6.21-7.76,8.78-8.48,1.25-.33,2.96-.45,4.57-.45,.45,0,.93,0,1.34,.03v-2.12c-5.58-.09-14.06,1.19-18.21,2.06,3.55-2.45,7.91-5.58,10.93-8.09,.63-.54,1.08-.93,1.4-1.02l-.72-1.88c-2.06,.69-9.05,1.25-14.6,1.25l.21,2.39c.3,0,.66-.21,.78-.36,.78-.06,1.97-.09,2.84-.15,1.7-.09,5.43-.39,7.29-.69-2.48,2.36-9.08,7.2-11.32,8.51-.96,.57-2.18,.98-3.91,1.34l.39,2.03c4.96-1.28,10-2.33,15.11-2.87Z"/><path class="cls-1" d="M224.58,52.1h2.12v-7.44h9.65v2.09c0,4.9-1.4,10.21-8.99,13.5,.54,.42,1.16,1.02,1.55,1.49,7.79-3.52,9.56-9.32,9.56-15.02v-2.06h6.24v-2.03h-6.24v-6.12c.48-.06,.72-.3,.75-.57l-2.87-.18v6.87h-9.65v-5.67c.45-.06,.72-.33,.75-.63l-2.87-.18v6.48h-5.85v2.03h5.85v7.44Z"/><path class="cls-1" d="M225.64,73.15v22.75h2.48v-8.93l2.12-2.48,7.44,11.41h2.93l-8.63-13.08,8-9.67h-3.05l-6.93,8.66c-.57,.75-1.19,1.58-1.76,2.45h-.12v-11.11h-2.48Z"/><path class="cls-1" d="M218.72,131.13c.51,.42,1.22,1.16,1.55,1.61,4.33-2.48,8.87-6.84,11.5-10.03,3.05,2.45,7.85,6.99,10.48,10.03l1.82-1.58c-2.78-3.08-7.67-7.53-10.93-10.12,2.45-3.19,4.36-6.48,5.97-10.27,.18-.06,.33-.18,.39-.33l-1.73-.98-.39,.15h-15.83v2.03h14.66c-2.69,6.48-9.23,14.96-17.5,19.5Z"/><path class="cls-1" d="M227.05,155.13v7.23c0,4.12,2.51,5.88,6.27,5.88h4.99c1.13,0,3.23-.09,4.42-.24-.03-.63-.06-1.43-.06-2.09-1.16,.15-3.23,.33-4.45,.33h-4.87c-2.39,0-4.15-.99-4.15-3.91v-7.73l11.44-2.99c-.99,2.39-2.84,5.37-5.11,7.41,.57,.3,1.34,.75,1.79,1.07,2.54-2.45,4.9-6.51,6.24-9.73,.21-.09,.39-.21,.48-.36l-1.88-.99-.33,.24-12.63,3.25v-7.79c.42-.06,.69-.24,.75-.6l-2.9-.12v9.08l-8.03,2,.51,2,7.52-1.94Z"/><path class="cls-1" d="M233,203.38v-9.76l7.32-12.99h-2.78l-3.28,6.33c-.9,1.76-1.67,3.31-2.3,4.84h-.09c-.69-1.64-1.4-3.11-2.27-4.81l-3.16-6.36h-2.84l6.93,13.05v9.7h2.48Z"/><path class="cls-1" d="M225.2,240.13c8.39-3.82,14.12-10.36,17.14-21.5,.48,0,.69-.12,.78-.39l-2.87-.93c-2.84,11.41-8.36,17.62-16.57,21.23,.51,.39,1.19,1.14,1.52,1.58Z"/><path class="cls-1" d="M220.34,218.87c2,2.45,4.12,6.18,4.96,8.54l2.06-1.05c-.93-2.42-3.05-6.03-5.14-8.48l-1.88,.98Z"/><path class="cls-1" d="M244.19,258.64h-10.69c.12-2.18,.12-4.6,.15-7.32,.42-.06,.69-.24,.72-.54l-2.93-.18c0,3.02-.03,5.7-.12,8.03h-12.06v2.06h11.97c-.57,7.08-2.39,11.17-8.57,14.6,.57,.42,1.28,.98,1.7,1.46,6.51-3.73,8.45-8.39,9.02-16.06h10.81v-2.06Z"/><rect class="cls-1" x="222.43" y="290.79" width="18.54" height="2.06"/><rect class="cls-1" x="219.26" y="307.19" width="24.63" height="2.03"/></g><g><path class="cls-1" d="M278.94,477.62c-5.02,0-7.2,4.96-7.2,9.79s2.51,9.56,7.14,9.56,7.17-4.57,7.17-9.76c0-4.57-2.24-9.59-7.11-9.59Z"/><path class="cls-1" d="M278.85,425.35c3.31,0,4.57-4.3,4.57-9.62,0-5.58-1.34-9.44-4.48-9.44-2.66,0-4.54,3.55-4.54,9.44s1.64,9.62,4.45,9.62Z"/><path class="cls-1" d="M623.2,671.62c-4.03-4.78-7.34-9.91-9.69-15.68-1.31-3.22-.34-6.16,1.13-9.02,.88-1.71,1.65-3.51,2.72-5.09,2.77-4.09,2.37-8.01-.48-11.77-4.99-6.57-8.49-14.03-12.84-20.98-2.45-3.91-6.05-6.74-9.9-8.82-9.61-5.19-15.18-12.92-17.38-23.56-1.84-8.89-7.13-16.03-12.44-23.1,1.19-1.28,2.25-2.69,3.16-4.25-.45-.36-1.19-.99-1.58-1.49-.84,1.48-1.8,2.81-2.88,4.02-.11-.14-.22-.29-.32-.43-2.11-2.83-2.56-4.47-.25-6.95,2.93-3.14,4.3-7.07,5.88-10.86,1.15-2.76,2.88-4.38,5.79-4.61,4.67-.37,7.9-3.41,11.38-5.99,.75-.56,1.31-1.41,.93-2.4-.92-2.39,.31-2.95,2.38-3.35,5.72-1.13,11.48-1.15,17.26-1.11,1.15,0,2.37,.21,3.5-.46-.59-1.26-1.73-.73-2.69-1.24,2.99-.28,5.71-.53,8.42-.8,2.67-.26,4.83-1.46,6.33-3.7,1.31-1.94,.81-3.06-1.56-3.08-8-.07-16.01-.39-23.98,.88-2.99,.48-6.04,.55-9.06,.9-2.77,.32-4.15-.98-4.65-3.57-.52-2.68-1.07-5.36-1.67-8.02-.28-1.24-.42-3.07-2.21-2.6-1.65,.44-3.62,1.18-3.49,3.59,.05,.9,.37,1.8,.39,2.7,.03,1.55-.13,3.21-1.68,3.96-1.32,.63-2.83,1.17-4.21-.24-.94-.96-2.34-.88-3.47-.58-2.8,.74-5.68,.84-8.55,1.06v-1.74c.42-.06,.63-.3,.66-.57l-2.78-.15v2.65c-1.89,.21-3.76,.55-5.61,1.23l-2.84-.27c0,.24,0,.47-.01,.71-2.77-.07-5.64-1.37-8.29-2.4-1.5-.58-1.8-2.39-2.16-3.86-.62-2.55-.94-5.19-1.69-7.7-.8-2.65,.19-4.22,2.34-5.57,1.06-.66,2.67-.96,2.27-3.04-.21-1.13,1.36-.91,2.14-1.22,2.69-1.06,2.89-1.66,.8-3.75-2.94-2.95-5.95-5.83-7.93-9.56-1.67-3.14-1.34-3.92,1.97-5.08,.95-.33,2.53-.13,2.2-1.86-.29-1.47-1.04-2.71-2.78-2.75-2.84-.07-5.68-.09-8.52-.09-1.56,0-3.04-.21-4.23-1.35-2.24-2.15-1.75-4.73,1.12-5.87,3.83-1.52,3.93-1.62,2.54-5.55-.83-2.36-1.02-5.09-2.94-6.91-2.2-2.09-4.85-3.28-8.02-2.85-2.48,.34-3.97-.87-4.25-3.24-.54-4.61-1.83-9.06-1.3-13.91,.3-2.77,.1-4.92,2.89-6.34,1.08-.55,.46-1.59-.13-2.34-.81-1.03-1.72-2-2.46-3.07-1.12-1.62-1.48-2.93,.41-4.65,2.8-2.55,1.57-8.56-1.82-10.28-2.01-1.02-4.06-.86-5.56,.86-1.29,1.48-2.34,3.42-.51,5.15,3.64,3.42,2.36,6.87,.41,10.43-.54,.98-1.06,1.96-1.58,2.95-.36,.68-.58,1.55,.23,1.86,3.82,1.47,1.43,4.4,1.61,6.68,.07,.96-.79,2.11-.5,2.93,1.4,3.96-1.81,7.02-1.88,10.67-.02,1.14-1.09,1.11-1.87,.89-2.23-.63-4.4-.3-6.61,.15-4.92,1.01-6.14,4.04-2.91,7.92,1.72,2.07,2.76,4.27,2.6,6.9-.2,3.36-2.58,5.19-5.3,6.5-2.45,1.18-4.94,2.36-7.75,2.56-.8,.06-1.58,.36-2.36,.58-2.02,.56-2.09,2.36-2.24,3.92-.17,1.68,1.43,1.82,2.52,2.09,1.66,.41,3.39,.58,5.09,.81,1.22,.17,2.57,.18,2.77,1.79,.2,1.55-.44,2.81-1.82,3.56-2.67,1.45-5.31,3.02-8.34,3.61-1.97,.39-3.57,1.4-5.08,2.62-2.31,1.86-1.95,3.87,.87,4.97,.56,.22,1.16,.38,1.75,.51,3.36,.76,4.8,3.37,3.38,6.49-.75,1.65-2.11,2.53-3.94,1.39-3.17-1.98-6.08-2.04-8.7,.94-.94,1.07-2.18,1.4-3.57,1.36-3.54-.11-7.07,.18-10.62-.44-2.9-.5-5.77-.28-8.47,1.45-2.92,1.87-6.04,2.71-9.79,2.19-6.03-.83-12.15,.1-18.19,.64-3.57,.32-7.03,.08-9.96-1.78-6.16-3.92-12.67-3.65-19.38-2.41-3.39,.63-6.77,1.36-9.93,2.79-2.28,1.03-3.3,.23-3.96-2.01-1.09-3.69-.79-7.44-.78-11.18,0-2.4-.67-3.57-3.35-3.96-7-1.02-13.9-.74-20.82,.46-3.02,.52-6.08,.42-9.11,.1-2.56-.27-4.44-1.62-4.38-4.51,.05-2.69,1.69-3.91,4.25-4.22,1.53-.19,3.52,.05,3.83-2.13,.58-4.09-.67-7.09-3.13-7.93-1.49-.51-2.75-1.16-3.2-2.89-.91-3.48-.04-4.33,3.59-3.97,7.26,.72,14.33,.11,20.8-3.72,1.49-.88,2.92-1.84,3.69-3.5,.35-.75,.76-1.58,.23-2.29-.61-.83-1.48-.3-2.24-.08-3.98,1.18-7.96,.7-11.94,.46l-.13-.82c3.99-1.19,8.02-2.25,11.96-3.59,8.26-2.81,16.3-6.17,23.86-10.56,6.11-3.54,8.82-9.54,11.3-15.69,.41-1.03,.76-2.41-.29-3.09-1.12-.73-2.04,.4-2.85,1.13-3.37,3.05-6.14,6.74-10.28,8.95-5.9,3.16-12.37,3.86-18.81,4.29-4.64,.31-9.27,.98-13.95,.76-6.55-.3-13.23-3.7-10.88-13.25,.46-1.86,.57-3.8,.82-5.71,.23-1.73,.71-3.37,1.75-4.8,2.35-3.21,2.25-3.67-1.34-5.72-.84-.48-2.22-.53-2.2-1.8,.02-1.36,1.16-2.08,2.3-2.58,1.95-.85,3.87-1.95,5.91-2.36,10.08-2.06,14.92-9.67,19.3-17.82,.53-.98,.81-2.31-.2-3.08-.85-.65-1.7,.33-2.42,.8-3.31,2.18-6.85,3.93-10.4,5.66-6,2.92-12.57,2.87-18.96,3.7-2.45,.32-4.91,.33-7.07-1.78-1.36-1.33-3.71-.49-5.62-.58-3.17-.15-4.38-1.72-3.48-4.76,.4-1.35,1.08-2.61,1.12-4.08,.03-1.09,.68-1.39,1.66-.95,1.29,.58,2.27,.74,2.6-1.14,.27-1.53,.04-2.51-1.53-3.09-4.18-1.53-4.84-3.83-2.5-7.65,2.16-3.52,6.08-5.32,8.22-8.88,1.31-2.18,2.8-4.23,3.43-6.73,.22-.87,.58-1.96-.3-2.53-.81-.52-1.5,.45-2.09,.9-4.34,3.29-9.1,5.67-14.43,6.88-5,1.13-7.22-.17-8.7-5-.36-1.17-.85-2.49-2.39-2.32-2.69,.31-1.94-.98-1.04-2.17,.79-1.04,1.83-1.88,2.73-2.84,.47-.5,1.16-1,.81-1.8-.34-.8-1.19-.68-1.88-.69-3.65-.04-7.31-.06-10.96-.03-2.67,.02-5.26-.46-7.76-1.32-3.71-1.3-4.92-4-3.57-7.68,.24-.66,.52-1.33,.87-1.94,1.21-2.15,.73-3.71-1.63-4.51-2.42-.83-3.57-2.32-3.47-5,.08-2.17-.97-4.49-2.49-6.72,1.14,8.38-2,16.06-1.71,24.07,.12,3.39-3.67,5.6-7.62,5.21-1.61-.16-3.23-.2-4.85-.24-1.15-.02-2.46,.2-2.94,1.25-1.17,2.55-3.42,2.9-5.74,3.29-3.46,.58-6.92,1.16-10.39,1.57-1-.79-2.1-1.59-3.28-2.4,2.24-3.22,4.06-7.11,5.29-11.23,.18-.09,.33-.21,.39-.33l-1.82-.93-.39,.24h-16.18v2.03h15.23c-1.02,3.4-2.51,6.39-4.33,9.02-2.42-1.61-5.11-3.17-7.67-4.45l-1.34,1.58c2.6,1.34,5.26,2.96,7.73,4.6-.66,.85-1.39,1.66-2.15,2.44-.73,0-1.46,.01-2.2,0-2.39-.06-4.64-.4-6.71-1.62-.91-.54-1.84-1.06-2.8-.26-.86,.71-1.05,1.72-.65,2.77,2.6,6.81,5.1,13.73,11.35,17.78-.82-.25-1.62-.47-2.38-.65l-.99,1.73c3.06,.86,6.93,2.15,9.54,3.47,.14,.47,.21,.97,.2,1.52h-14v1.94h13.74c-.16,.68-.37,1.36-.57,2.04-4.01,3.86-9.69,7.34-15.66,9.65-1.45,.13-2.86,.51-4.22,1.19-6.63,3.31-11.73,2.5-17.3-2.67-1.03-.95-2.1-3.32-3.25-2.42-1.39,1.09,.57,2.84,1.09,4.29,2.17,6.15,7.57,9.3,12.27,13.1,1.7,1.37,3.92,2.34,3.34,5.21-.14,.71,.48,1.37,1.09,1.73,4.51,2.69,7.23,7.31,11.31,10.46,.86,.66,1.22,1.54,1.35,2.61,.15,1.22,.25,2.28,.3,3.24-1.76,1.37-3.58,2.58-5.44,3.6,.6,.42,1.31,1.13,1.67,1.58,1.25-.7,2.48-1.49,3.68-2.34-.53,3.63-2.99,4.64-9.28,5.54-5.09,.73-10.19,1.45-15.2,2.84-4.27,1.18-8.61-.1-12.92-.43-1.34-.1-3-.6-3.85,.97-.59,1.1-.5,2.4,.27,3.47,.53,.74,1.19,1.38,1.84,2.03,2.58,2.58,4.43,5.68,6.64,8.56-14.28-.26-28.25-1.82-42.3-1.8-2.8,0-3.91-1.64-4.31-5.2-.98-8.82,.65-17.55,.75-26.33,0-.5,.22-1,.23-1.5,0-4.63,.05-4.83,4.91-4.36,5.62,.54,10.61-.93,15.28-3.9,2.47-1.58,5.02-3.06,7.4-4.77,2.29-1.63,2.24-2.78-.11-4.42-2.65-1.84-5.46-3.3-8.49-4.57-5.41-2.27-10.43-5.74-14.45-9.89-7.09-7.32-14.04-14.89-19.27-23.77-3.91-6.63-7.5-13.44-10.8-20.4-2.2-4.63-5.27-8.62-8.58-12.47-1.58-1.84-3.16-3.7-4.51-5.71-3.46-5.15-7.21-10.04-11.81-14.24-1.43-1.3-2.67-2.76-3.76-4.37-.41-.61-.72-1.67-1.79-1.23-.78,.32-.64,1.21-.65,1.89-.03,3.13-.01,6.27-.01,9.43-.4-.05-.69,0-.75-.1-2.41-3.93-2.5-3.86-5.05,.22-4.83,7.72-9.48,15.57-15.61,22.39-1.74,1.94-2.87,2.38-5.42,.57-13.87-9.83-26.42-21.43-40.86-30.5-4.9-3.08-8.58-7.7-12.92-11.51-3.05-2.68-6.19-5.2-9.43-7.63C.06,677.85,.06,1079.48,0,1481.11c0,2.36,.33,3.02,2.9,3.02,202.08-.08,404.17-.07,606.25-.07,.04-2.03,.11-4.06,.11-6.08,0-253.13,.01-506.26-.08-759.38,0-4.23,1.25-7.52,3.58-10.87,3.35-4.81,7.1-8.99,12.32-11.85,3.55-1.95,5.92-5.17,7.82-8.71v-2.44c-1.9-5.35-6.22-8.94-9.71-13.09ZM233.13,339.36c.31-.36,.62-.72,.91-1.09,.44,.31,.87,.63,1.29,.94-.73,.06-1.47,.12-2.2,.16Zm-2.67,37.82c-2.21,.95-4.54,1.32-7.07,.93,2.53-1.23,5.01-2.66,7.07-4.08v3.15Zm2.96-1.62c-.28,.19-.56,.36-.84,.53v-3.07c.39-.03,.6-.27,.66-.42l-.48-.12c.43-.33,.85-.68,1.27-1.03-.02,.79,.08,1.6,.4,2.43,.29,.76-.38,1.25-1.01,1.68Zm38.28-43.78c5.08,.54,11.59,1.73,15.71,3.2l-.87,2.09c-4.12-1.55-10.45-2.72-15.53-3.28l.69-2Zm-.12,9.23c4.75,.48,10.72,1.61,14.42,2.75l-.69,2.09c-3.49-1.19-9.53-2.33-14.36-2.81l.63-2.03Zm-2.39,9.14c6.57,.75,14.24,2.45,18.93,4.3l-.9,2.09c-4.24-1.76-12.18-3.64-18.75-4.42l.72-1.97Zm9.6,148.89c-5.64,0-9.64-4.45-9.64-11.56s4.21-11.91,9.91-11.91,9.58,4.66,9.58,11.53c0,8-4.48,11.94-9.85,11.94Zm8.62-42.31c-1.64-1.43-3.88-3.08-6.36-4.66-3.08,4.39-7.55,8.84-12.63,12.21-.36-.45-1.19-1.16-1.7-1.49,4.99-3.22,9.56-7.67,12.51-11.79-2.72-1.61-5.61-3.14-8.42-4.39l1.13-1.76c2.81,1.22,5.76,2.72,8.48,4.3,1.91-2.87,3.88-6.63,5.37-10.42l2.93,1.19c-.12,.27-.54,.42-1.07,.36-1.37,3.17-3.31,6.93-5.32,9.97,2.3,1.43,4.69,3.05,6.51,4.6l-1.43,1.88Zm-15.54-40.81c0-7.82,3.05-11.62,7.23-11.62s6.84,4,6.84,11.32c0,7.76-2.72,11.76-7.17,11.76-4.06,0-6.9-4-6.9-11.47Zm18.38-23.85c-.45-1.01-.99-2.09-1.58-3.16-6.21,.66-16.42,1.28-20.99,1.52-.09,.3-.3,.54-.57,.6l-.81-2.69c.9-.03,1.97-.06,3.14-.12,1.97-5.73,4.81-14.66,6.45-20.63l2.9,.78c-.12,.27-.42,.42-.87,.42-1.64,5.49-4.21,13.5-6.27,19.35,4.96-.21,12.03-.72,15.98-1.07-1.55-2.57-3.52-5.29-5.32-7.29l1.79-1.02c3.14,3.43,6.72,9.11,8.24,12.36l-2.09,.96Z"/></g></g></g><text/><g class="cls-2"><path class="cls-3" d="M207.27,453.77c-5.49-3.27-11.45-5.61-16.93-8.86-1.19-.7-1.91-.58-2.85,.43-4.4,4.72-9.92,7.95-15.32,11.33-.5,.31-1.46,.82-1.42,.91,1.1,2.58-1.66,1.9-2.47,3.05,1.44,3.14,2.52,6.39,4.87,8.98,1.04,1.15,.54,2.31-.77,2.98-2.37,1.21-2.64,3.04-1.84,5.35,1.02,2.98,1.45,6.09,1.88,9.21,.89,6.4,1.82,12.8,2.74,19.2,.22,1.54,.8,2.65,2.65,2.67,8.41,.1,16.81-.05,25.19-.76,2.67-.23,3.88-1.74,3.05-4.34-2.74-8.58-1.06-17.29-.81-25.94,.11-3.72,.7-7.46,2.75-10.77,.77-1.24,1.08-2.75,.42-4.09-1-2.03-.78-3.87,.21-5.77,.86-1.65,.36-2.58-1.33-3.58Z"/><path class="cls-3" d="M162.74,386.26c-12.12-4.43-20.11-14.69-30.71-21.17-.67-.41-1.25-1.05-1.72-1.7-3.36-4.68-6.99-9.2-9.94-14.12-4.71-7.86-9.61-15.39-17.15-20.96-4.55-3.36-9.41-6.15-14.25-9.09,4.11,6.56,6.45,13.55,8.32,20.89,1.24,4.89,2.81,9.97,6.49,13.9,4.18,4.46,9.37,7.66,14.11,11.42,3.66,2.9,7.98,4.3,12.28,5.76,.69,.23,1.51,.32,1.48,1.22-.03,.87-.96,.47-1.43,.76-1.38,.83-2.82,1.59-4.19,2.44-.4,.25-.84,.68-.66,1.25,.2,.63,.77,.39,1.26,.45,2.67,.33,4.93,1.82,7.14,3.11,.56,.33-.24,2.96-.42,4.53-.01,.1,0,.2,0,.3,.09,3.89,.87,4.6,4.19,2.67,4.48-2.61,8.27-1.81,12.15,1.07,3.52,2.61,7.36,2.81,11.59,1.03-2.47-2.43-5.75-3.28-8.71-5.49,3.96-.45,6.56,3.08,10.15,1.73Z"/><path class="cls-3" d="M358.86,434.42c-8.34,2.93-16.83,5.23-25.26,7.78-2.94,.89-5.9,1.32-8.98,1.35-1.49,.01-4.17-.75-4.19,.97-.02,2.09,2.73,1.87,4.46,1.94,3.24,.13,6.49,.04,9.74,.04-4.27,.2-8.41,.7-12.54,1.95-4.16,1.26-8.47,2.04-12.74,2.88-12.06,2.38-24.26,.87-36.4,1.08-3.51,.06-7.06-.47-10.61-.31-.67,.03-1.61-.05-1.71,.86-.1,.89,.8,1.07,1.47,1.25,3.23,.84,6.44,1.74,9.83,1.89,5.45,.24,10.9,1.11,16.36,.04,.62-.12,1.6-.38,1.84,.5,.24,.87-.67,1.09-1.32,1.35-3.82,1.52-5.17,4.55-4.26,8.52,.63,2.77,1.77,4.26,4.81,3.61,.51-.11,1.2-.24,1.8,.61h-13.44c3.02,.61,5.96,.38,8.87,.98,1.56,.32,2.34,.98,2.39,2.56,.2,6.78,1.26,13.49,1.43,20.29,.14,5.55,1.1,11.07,2.56,16.47,.65,2.39,2.08,3.4,4.55,2.48,6.2-2.31,12.13-5.12,17.47-9.08,1.55-1.15,3.08-2.34,3.33-4.49,.35-3.11,1.33-6.28,.99-9.31-.63-5.66,.72-11.05,1.3-16.55,.19-1.82,1.19-2.94,2.95-2.76,2.35,.24,4.06-1.03,5.95-1.94,1.44-.69,2.11-1.77,1.87-3.43-.23-1.64-.73-2.99-2.58-3.28-3.28-.51-3.83-2.52-3.36-5.44,.48-3.03,1.31-5.27,4.91-5.86,4.53-.74,8.57-3.02,12.72-4.91,2.23-1.02,3.86-2.93,6.23-3.69,8.19-2.64,15.39-7.22,22.52-11.86,3.64-2.36,7.29-4.8,10.33-7.97q1.24-1.28,1.76-3.46c-7.07,7.58-15.73,11.66-25.06,14.94Z"/><path class="cls-3" d="M421.29,538.99c-3.07,1.85-4.8,4.17-4.53,7.88,.22,3.02,.31,6.07,.27,9.1-.05,3.67,.65,7.58-2.96,10.3-.95,.72-.83,1.99-.49,3.12,.87,2.9,1.5,5.89,3.03,8.57,1.78,3.12,2.72,6.51,3.29,10.04,1.14,6.98,2.14,13.95,4.78,20.64,1.88,4.78,2.84,9.92,2.59,15.18-.06,1.23-.21,2.62,1.17,3.77,.79-1.58,.98-3.13,1.05-4.72,.44-9.78,.15-19.63,2.51-29.26,.38-1.55,.55-3.24,.4-4.82-.42-4.38,1.32-7.76,4.08-11.01,3.59-4.23,7.56-8.21,10.29-13.1,3.58-6.43,5.3-13.53,7.1-20.58,.86-3.37,2.2-6.48,3.68-9.6,1.65-3.47,4.51-6.1,6.71-10.39-4.62,1.22-8.36,2.37-12.17,3.19-10.88,2.31-21.23,5.92-30.8,11.69Z"/><path class="cls-3" d="M323.96,396.99c1.23-1.75,2.88-2.71,4.77-3.56,5.82-2.6,11.62-5.27,17.35-8.07,3.61-1.76,6.91-6.53,6.85-9.05-18.98,13.04-38.22,25.92-59.9,32.88,3.14,.05,7-1.19,11.81-1.85-1.63,1.49-2.81,1.73-3.94,2.08-3.78,1.15-7.53,2.38-11.33,3.47-1.93,.55-2.63,1.71-2.28,3.61,1.26,6.76,2.52,13.52,3.78,20.29,.47,2.55,2.03,3.45,4.4,2.67,5.4-1.77,10.96-2.88,16.52-3.96,4.61-.9,8.6-4.05,13.57-3.5,.71,.08,.58-.67,.6-1.12,.4-9.42-.88-18.8-.88-28.21,0-1.55-.75-2.16-2.38-1.52-1.98,.77-4.04,1.36-6.07,2.02,2.73-1.78,5.31-3.56,7.14-6.17Z"/><path class="cls-3" d="M608.16,511.34c-.14-.91-.96-.97-1.67-.93-2.63,.12-5.29,.63-7.88,.39-12.5-1.19-24.61,1.89-36.76,3.67-10.1,1.48-19.93,1.28-29.89-.15-1.77-.25-2.41-.95-2.79-2.81-1.12-5.39,.45-10.69,.16-16.04-.13-2.31,.2-4.42-3.27-2.96-.69,.29-1.76-.24-2.63-.49-2.38-.7-4.79-.76-7.23-.55-1.48,.13-2.51,.76-2.58,2.41-.19,5.15-.41,10.31-.56,15.46-.05,1.54,.19,3.03,2.34,3.73-6.75,0-13.01,.23-19.26-.05-9.11-.42-18.19-1.05-27.32-.5-11.96,.72-23.71,2.93-35.51,4.76-2.13,.33-4.31,.4-6.46,.59,1.74,1.38,3.6,1.48,5.48,1.46,8.51-.07,17.01-.03,25.52-.37,12.14-.48,24.25-1.36,36.4-1.65,21.59-.5,43.12-.57,64.66,1.2,6.13,.5,12.33,.38,18.51-.27,9.97-1.04,19.18-6,29.42-5.61,.76,.03,1.45-.39,1.3-1.3Zm-82.84,2.68c-1.4-.1-2.82-.02-4.22-.02,4.08-1.02,4.11-1.02,4.08-5.29-.03-3.75,.06-7.5,.51-11.22,.11-.95,.03-1.98,1.33-3.42,0,2.51-.03,4.28,0,6.05,.08,3.63-.41,7.31,.75,10.86,.77,2.34-.1,3.2-2.45,3.03Z"/><path class="cls-3" d="M283.05,372.96c1.08,6.5,1.22,13.06,1.14,19.62-.03,2.2,1.02,2.87,3.02,2.61,3.41-.44,6.85-.69,10.22-1.35,4.83-.95,11.3-4.67,10.54-10.91-.91-4.91-.38-9.89-.76-14.82-.2-2.5-.79-4.99-1.35-7.45-.39-1.7-1.18-2.31-3-1.14-5.7,3.66-11.42,7.3-17.52,10.27-1.3,.63-2.57,1.36-2.27,3.16Z"/><path class="cls-3" d="M513.96,478.05c-.64,1.29-1.6,2.14-1.57,3.42,.03,1.13-.91,2.58,.58,3.28,1.57,.74,2.01-.88,2.74-1.75,3.73-4.48,8.16-4.03,10.59,1.13,.51,1.08,.94,2.25,2.37,1.25,2.55-1.78,3.54-5.21,2.59-8.37-1.15-3.84-3.35-7.13-5.42-10.49-.48-.78-.58-2.42-1.82-2.02-1.29,.42-.28,1.74-.27,2.66,0,.28-.06,.57-.1,.85-.25,.01-.44,.06-.62,.03-6.97-1.26-13.93-2.55-20.91-3.76-1.13-.2-2.6-.64-3.1,.98-.41,1.33-2.76,2.28-1.22,3.91,1.58,1.67,1.78,3.05,.19,4.66-.94,.95,.26,1.88-.01,3.03h-12.67l-.08,.99c9.48,1.63,19,1.85,28.72,.18Z"/><path class="cls-3" d="M360.7,485.03c-.83-1.49-.34-1.65-2.06-1.54-6.81,.4-13.13,3.39-19.96,3.65-.83,.03-1.9,.26-1.44,1.37,1.71,4.16,1.01,8.61,1.62,12.89,.76,5.27,5.62,7.28,9.92,6.04,2.83-.81,5.45-2.11,8.12-3.34,1.9-.88,3.58-1.6,3.55-4.75,.62,1.86,.11,3.05,.94,4.26,.92-.97,.71-1.95,.59-2.77-.77-5.23,1.61-10.67-1.27-15.82Z"/><path class="cls-3" d="M506.31,485.44c2.88,.15,3.39-1.9,4.12-4.32-4.76,0-9.3,.16-13.83-.06-3.01-.15-3.71,1.03-3.79,3.85-.2,6.75,1.07,13.52-.35,20.26-.42,2.02,.98,2.75,2.83,2.26,.96-.25,1.95-.69,2.74-1.27,2.54-1.88,4.97-2.35,7.72-.3,1.92,1.43,2.54,.2,2.2-1.6-.68-3.64-.52-7.24,0-10.86,.28-1.94-.08-3.61-2.23-4.42-.9-.34-1.49-1.11-1.23-2.17,.22-.91,.97-1.4,1.8-1.36Z"/><path class="cls-3" d="M497.1,450.17c2.28,2.12,3.55,4.38,2,7.48-.6,1.2-.11,1.77,1.14,2.18,3.06,.99,6.11,1,9.28,.65,4.17-.46,6.89-3.4,6.42-7.49-.28-2.44-1.23-4.25-4.18-4.13-.71,.03-2.3,.67-1.82-1.27,2.21,.78,4.72,1.53,6.41-.41,1.77-2.03,.67-4.7-.15-6.9-.7-1.9-2.79-1.65-4.49-1.64-.45,0-1.07,.21-1.3,.54-.47,.67,.26,1.01,.65,1.44,2.63,2.9,2.51,4.13-.62,6.5-3.59-1.5-7.36-2.06-11.22-1.94-1.54,.05-3.71-.46-4.33,1.27-.5,1.41,1.12,2.72,2.2,3.72Z"/><path class="cls-3" d="M281.91,346.2c.83,.6,1.74,1.03,3.1,1,2.16-.55,4.61-1.16,7.05-1.79,1.48-.38,2.87-1,4.03-2.01,.71-.62,1.3-1.44,.94-2.39-.42-1.09-1.46-.78-2.37-.72-4.16,.28-8.14,1.39-12.11,2.58-.76,.23-1.67,.3-1.79,1.34-.11,.93,.49,1.5,1.16,1.98Z"/><path class="cls-3" d="M501.81,441.81c.65,.39,1.37,.22,2-.18,1.02-.64,1.07-1.56,.88-2.65-.95-5.14-1.84-10.29-2.02-15.5-.48,5.2-.95,10.4-1.43,15.6-.09,.98-.55,2.06,.58,2.73Z"/><path class="cls-3" d="M600.62,769.79c-3.62-8.66-2.97-18.12-4.77-27.13-1.24-6.21-.1-12.51,.56-18.69,.44-4.15,.54-8.13-.84-11.96-2.38-6.6-.72-13,.68-19.35,.69-3.13,1.87-6.19,2.3-9.41,.13-.93,.53-2.12,.11-2.89,.48-1.08,.98-2.14,1.52-3.2,1.8-3.49,3.11-6.91,2.88-10.96-.19-3.47-.01-6.88-2.64-9.67-.59-.63-.77-1.64-1.16-2.46-1.83-3.86-1.09-7.99-1.04-12,.04-3.45-.84-5.91-4.26-7.13-.75-.27-1.41-.8-2.08-1.25-1.44-.96-2.16-2.3-1.26-3.9,1.2-2.13,.23-3.51-1.41-4.59-3.54-2.32-5.5-5.9-7.66-9.31-.81-1.29-1.56-2.59-2.62-3.69-3.26-3.37-6.04-7.07-7.92-11.41-2.45-5.67-4.85-11.36-7.4-16.98-1.38-3.04-3.51-5.67-4.42-8.95-3.17-11.5-5.55-23.02-2.8-35.01,.46-2,.82-3.64,2.92-4.48,1.4-.56,2.27-1.74,2.42-3.27,.22-2.31,1.43-3.91,3.29-5.17,.57-.39,1.54-.73,1.1-1.97-3.25-.03-6.42,.59-9.45,1.74-6.5,2.45-13.07,4.2-20.14,3.83-3-.16-6.02,.69-8.98,1.39-10.03,2.38-20.19,3.03-30.45,2.24-2.95-.22-5.73,.27-8.35,2.11,20.96,1.86,42-.38,63.42,1.28-2.83,2.43-4.54,5.36-5.7,8.6-.7,1.96-2.07,2.46-4.01,2.47-2.42,.01-4.85,.26-7.27,.47-5.65,.49-11.32,1.73-16.95,1.16-7.05-.71-13.96,.11-20.92,.63-2.22,.17-4.44,.34-6.65,.61-1.02,.12-2.05,.48-2.28,1.69-.22,1.14,.5,1.92,1.28,2.6,1.44,1.27,3.25,1.75,5.07,1.79,9.22,.19,18.44,.44,27.66-.21,5.95-.42,11.89-1.39,17.88-.44,2.14,.34,3.28,1.33,3.14,3.62-.12,1.84,.29,3.63,.94,5.36,1,2.66,.81,5.22,.23,8.02-.83,4.02-2.47,7.7-3.83,11.5-.73,2.03-1.48,4.18-.84,6.24,1.88,6.05-.03,11.55-1.88,17.17-2.4,7.31-4.92,14.62-4.33,22.52,.37,4.94,1.6,9.37,6.24,12.14,1.65,.99,3,2.39,4.22,3.91,2.7,3.36,5.94,6.04,9.9,7.87,2.48,1.14,4.85,2.61,6.71,4.66,5.48,6.04,11.88,10.67,19.63,13.39,1.51,.53,2.84,1.56,4.3,2.26,2.35,1.12,2.96,2.79,2.69,5.42-.42,4.01-.78,8.03-.93,12.04-.48,1.22-1.2,2.4-2.09,3.29-3.01,2.98-3.51,6.46-2.68,10.36,.64,3.02,.2,5.87-1.54,8.43-3.15,4.66-5.17,9.82-7.12,15.06-2.55,6.87-2.76,13.46,1.61,19.66,4.62,6.55,3.49,12.98-.25,19.36-.92,1.56-2.12,2.96-3.22,4.41-4.85,6.38-8.01,13.13-5.09,21.39,.53,1.51,.7,3.17,.9,4.77,1.05,8.14,4.11,15.24,10.71,20.42,4.79,3.76,8.7,8.03,10.68,14,.83,2.5,1.42,5.02,1.98,7.98,1.55-1.12,1.84-2.47,2.11-3.68,1.64-7.31,3.25-14.65,2.53-22.23-.13-1.42-.28-2.8,.65-4.08,3.21-4.43,4.32-9.79,6.45-14.7,.61-1.42,.68-2.97,.34-4.48-.6-2.63-.47-5.22,.24-7.81,.54-1.98,.44-3.99,.29-6.03-.24-3.28-1.08-6.33-2.35-9.36Z"/></g></g></svg>