<?xml version="1.0" encoding="UTF-8"?><svg id="Layer_2" xmlns="http://www.w3.org/2000/svg" viewBox="0 0 2007.91 1724.66"><defs><style>.cls-1{fill:#380101;}</style></defs><g id="Layer_18"><path class="cls-1" d="M2007.78,620.49c-17.3,3.65-8.83,23.67-21.99,34.76-22.16,18.69-67.49,9.28-92.41-6-8.95-5.49-18.2,14.46-26.66,19.06-14.72,8-33.65-12.58-40.6,4.53-4.32,10.63-7.01,22.13-8.92,33.49-2.46,14.68-10.27,8.46-16.94,4.91-3.12-1.66-5.01-5.55-7.57-8.32-19.96-21.65-18.62-34.21-51.31-19.94-9.04-1.78-19.97,4.04-15.04,4.88-3.54,1.88-4.65,5.41-4.18,10.97,2.37,28.49-40.41,37.24-60.04,44.89-15.09,5.88-6.47,18.22-11.24,33.92-3.52,11.59,17.32,49.75,0,52.87-13.95,2.51-34.26,36.49-35.5,51.87-.93,11.53-12.45,0-12.45-16.59,0-11.85-52.23,24.41-51.12,36.22,1.94,20.71-10.9,35.39-30.96,35.39-10.25,0-20.58-.81-30.75,.14-37.82,3.56-13.39,39.18-18.59,59.06-22.16,8.85-14.66,24.51-37.61,24.32-44.1-.35-65.85,15.66-110.12,27.61-21.77,5.88-117.12-25.25-136.43-12.08-13.76,9.39-65.47-98.12-254.32-110.33-22.03-4.48-51.02-3.32-64.88-29.65-.47-.89-1.76-1.33-2.61-2.04-11.04-9.18-28.85-4.69-37.61-18.58-.32-.5-1.89-.77-2.52-.45-12.3,6.38-18.04-.93-23.73-10.4-4.07-6.76-14.4-13.44-11.35-20.07,7.24-15.71-5.24-25.64-7.19-38.32-2.16-14.08-12.58-19.25-23.38-19.45-9.64-.18-22.5,6.24-27.31,11.4-7.47,8.01-13.35,17.98-22.93,24.68-12.97,9.07-2.11,26.94-13.43,36.98-3.29,2.91-4.76,10.51-7.53,10.76-4.41,.39-4.9-6.39-6.76-10.2-9.87-20.26-17.41-21.23-31.96-4.39-5.7,6.6-14.73,4.61-20.26,2.02-4.1-1.92-2.91-10.75-.37-16.53,.93-2.12,2.43-4.39,2.31-6.51-.88-15.22-12.4-22.27-23.5-29.35-3.65-2.33-7.58-3.58-6.92-9.18,1.11-9.5,1.45-19.1,2.85-28.54,.78-5.25-1.1-7.16-5.19-10.42-10.67-8.5-24.34-7.55-35.76-13.17-1.31-.65-4.83,.14-5.19,1.07-4.76,12.54-15.5,10.78-25.36,10.8-9.55,.03-17.48,1.12-21.69,12.07-5.13,13.35-14.03,22.38-28.43,10.23-16.61-14.01-44.08-15.52-50.33-41.07-3.74-15.27-7.57-30.34-13.31-44.9,.74-.06,1.48-.12,2.21-.18-1.4-2.2-2.67-4.43-3.74-6.76-.44,.03-.88,.07-1.33,.1-.53-1.2-1.08-2.4-1.64-3.6-2.24-4.73-1.72-10.91-1.92-16.44-1.17-32.39-1.66-64.83-2.89-97.21,.85,.22,.46-7.91-.32-8.1-.39-9.11-.84-18.22-1.4-27.32,.87,.19,.49-7.58-.51-7.78-.26-3.84-.53-7.68-.84-11.52-.36-4.59-.54-9.23-.65-13.89,1.36,.29,1.16-7.54-.16-7.8-.31-16.64-.75-33.32-6.96-48.85-3.25-8.12-5.68-16.17-7.23-24.35l.99-3.68c-.89-2.56-1.71-5.15-2.4-7.8-3.35-12.81-5.24-25.89-6.79-39.02-5.39-8.63-14.84-13.76-30.43-17.23-19.36-4.31-25.16-16.71-25.84-33.54-1.25-30.91-2.39-61.85-2.31-92.77,.03-12.25-2.6-19.89-15.62-22.56-6.49-1.33-12.64-5.34-15.82-11.55-3.38-6.62-8.05-10.04-15.42-10.67-20.71-1.76-26.56-16.99-29.98-34.01-1.07-5.32-3.13-9.93-7.41-13.01-10.52-7.56-12.92-18.99-8.99-29.22,6.68-17.42,1.35-34.05,1.42-51.1,.1-25.71-8.65-43.87-33.34-53.05h-5.35c-8.99,12.33-18.76,23.35-33.53,29.59-7.87,3.33-6.58,13.39-9.44,20.41-1.9,4.67-2.58,11.08-6.07,13.63-10.1,7.4-15.82,17.33-17.51,28.83-3.63,24.84-10.08,48.72-21.66,69.65-2.92-9.45-6.63-21.21-10.16-33.02-1.39-4.65-2.53-9.25-8.89-8.8-6.86,.49-14.37-1.47-17.52,8.14-3.39,10.34-7.96,20.3-12.05,30.41-1.72,4.27-2.95,4.13-6.9,1.03-22.08-17.36-11.36-41.44-13.85-62.84-2.41-20.73-3.29-42.31-25.86-53.66C6.45,41.28,3.53,36.8,.06,33.43,.06,401.84,.06,940.26,0,1308.67c0,3.98-.32,415.99,5.4,415.99,665.67-.2,1331.35-.19,1997.02-.06,4.58,0,5.48-410.68,5.48-415.26-.15-172.95-.13-515.9-.13-688.85Z"/></g></svg>