<?xml version="1.0" encoding="UTF-8"?><svg id="Layer_2" xmlns="http://www.w3.org/2000/svg" viewBox="0 0 2007.91 1314.87"><defs><style>.cls-1{fill:#230802;}</style></defs><g id="front"><g><path class="cls-1" d="M2007.78,620.49c-17.3,3.65-31.71,12.97-44.87,24.07-22.16,18.69-44.61,19.97-69.53,4.69-8.95-5.49-20.82-15.25-29.28-10.65-14.72,8-31.03,17.13-37.98,34.23-4.32,10.63-7.01,22.13-8.92,33.49-2.46,14.68-10.27,8.46-16.94,4.91-3.12-1.66-5.01-5.55-7.57-8.32-19.96-21.65-18.62-34.21-51.31-19.94-9.04-1.78-18.29-3.24-26.99-4.23l-2.55,7.01c4.68,.55,9.56,1.27,14.5,2.1-3.54,1.88-4.65,5.41-4.18,10.97,2.37,28.49-4.29,43.29-23.93,50.94-15.09,5.88-22.69,15.68-27.46,31.38-3.52,11.59-3.68,28.55-21,31.67-13.95,2.51-21.86,8.74-23.11,24.12-.93,11.53-32.28,33.98-43.07,33.04-11.8-1.04-32.9,20.21-31.79,32.02,1.94,20.71-10.9,35.39-30.96,35.39-10.25,0-20.58-.81-30.75,.14-37.82,3.56-13.39,39.18-18.59,59.06-22.16,8.85-14.66,24.51-37.61,24.32-44.1-.35-65.85,15.66-110.12,27.61-21.77,5.88-117.12-25.25-136.43-12.08-13.76,9.39-65.47-98.12-254.32-110.33-22.03-4.48-51.02-3.32-64.88-29.65-.47-.89-1.76-1.33-2.61-2.04-11.04-9.18-28.85-4.69-37.61-18.58-.32-.5-1.89-.77-2.52-.45-12.3,6.38-18.04-.93-23.73-10.4-4.07-6.76-14.4-13.44-11.35-20.07,7.24-15.71-5.24-25.64-7.19-38.32-2.16-14.08-12.58-19.25-23.38-19.45-9.64-.18-22.5,6.24-27.31,11.4-7.47,8.01-13.35,17.98-22.93,24.68-12.97,9.07-2.11,26.94-13.43,36.98-3.29,2.91-4.76,10.51-7.53,10.76-4.41,.39-4.9-6.39-6.76-10.2-9.87-20.26-17.41-21.23-31.96-4.39-5.7,6.6-14.73,4.61-20.26,2.02-4.1-1.92-2.91-10.75-.37-16.53,.93-2.12,2.43-4.39,2.31-6.51-.88-15.22-12.4-22.27-23.5-29.35-3.65-2.33-7.58-3.58-6.92-9.18,1.11-9.5,1.45-19.1,2.85-28.54,.78-5.25-1.1-7.16-5.19-10.42-10.67-8.5-24.34-7.55-35.76-13.17-1.31-.65-4.83,.14-5.19,1.07-4.76,12.54-15.5,10.78-25.36,10.8-9.55,.03-17.48,1.12-21.69,12.07-5.13,13.35-14.03,22.38-28.43,10.23-16.61-14.01-44.08-15.52-50.33-41.07-3.74-15.27-7.57-30.34-13.31-44.9,6.66-.54,12.98-1.11,18.43-1.69,2.12,3.82,4.04,7.65,5.63,11.26l7.43-3.4c-5.42-11.57-18.16-31.76-29.32-43.97l-6.37,3.61c6.37,7.12,13.38,16.78,18.91,25.92-4.8,.44-10.91,.93-17.57,1.43-.53-1.2-1.08-2.4-1.64-3.6-2.24-4.73-1.72-10.91-1.92-16.44-1.17-32.39-1.66-64.83-2.89-97.21,8.84,2.32,16.74,4.83,22.64,7.28l3.19-7.43c-7.15-2.82-16.25-5.55-26.15-7.95-.39-9.11-.84-18.22-1.4-27.32,6.68,1.45,12.79,3.05,17.56,4.68l2.44-7.43c-5.67-1.74-12.84-3.47-20.51-5.02-.26-3.84-.53-7.68-.84-11.52-.36-4.59-.54-9.23-.65-13.89,8.83,1.88,17.2,4.11,23.91,6.64l3.08-7.43c-7.45-2.65-17.1-5.04-27.15-7.01-.31-16.64-.75-33.32-6.96-48.85-3.25-8.12-5.68-16.17-7.23-24.35l4.86-18.01c2.97-10.62,5.1-18.59,6.37-26.66h.21c1.06,8.07,2.76,16.14,5.42,26.77l10.51,43.23h9.03l22.3-80.83h-9.03l-10.94,41.85c-2.55,9.99-4.78,18.91-6.37,28.15h-.32c-1.17-8.82-3.51-18.48-5.73-28.15l-10.2-41.85h-8.92l-9.21,34.64s0-.05,0-.07c-.11-28.62-8.14-40.45-36.61-46.79-19.36-4.31-25.16-16.71-25.84-33.54-1.25-30.91-2.39-61.85-2.31-92.77,.03-12.25-2.6-19.89-15.62-22.56-6.49-1.33-12.64-5.34-15.82-11.55-3.38-6.62-8.05-10.04-15.42-10.67-20.71-1.76-26.56-16.99-29.98-34.01-1.07-5.32-3.13-9.93-7.41-13.01-10.52-7.56-12.92-18.99-8.99-29.22,6.68-17.42,1.35-34.05,1.42-51.1,.1-25.71-8.65-43.87-33.34-53.05h-5.35c-8.99,12.33-18.76,23.35-33.53,29.59-7.87,3.33-6.58,13.39-9.44,20.41-1.9,4.67-2.58,11.08-6.07,13.63-10.1,7.4-15.82,17.33-17.51,28.83-3.63,24.84-10.08,48.72-21.66,69.65-2.92-9.45-6.63-21.21-10.16-33.02-1.39-4.65-2.53-9.25-8.89-8.8-6.86,.49-14.37-1.47-17.52,8.14-3.39,10.34-7.96,20.3-12.05,30.41-1.72,4.27-2.95,4.13-6.9,1.03-22.08-17.36-11.36-41.44-13.85-62.84-2.41-20.73-3.29-42.31-25.86-53.66C6.45,41.28,3.53,36.8,.06,33.43,.06,401.84,.06,940.26,0,1308.67c0,3.98-.32,6.2,5.4,6.2,665.67-.2,1331.35-.19,1997.02-.06,4.58,0,5.48-.9,5.48-5.47-.15-172.95-.13-515.9-.13-688.85Z"/><path class="cls-1" d="M1779.19,624.78c-14.66-5.21-37.81-9.45-55.87-11.37l-2.44,7.12c18.06,2.02,40.57,6.16,55.23,11.68l3.08-7.43Z"/><path class="cls-1" d="M1774.19,656c-13.17-4.04-34.41-8.07-51.3-9.77l-2.23,7.22c17.21,1.7,38.66,5.73,51.09,9.98l2.44-7.43Z"/></g></g></svg>