<?xml version="1.0" encoding="UTF-8"?><svg id="Layer_2" xmlns="http://www.w3.org/2000/svg" viewBox="0 0 1998.81 1247.36"><defs><style>.cls-1{fill:#b67333;}.cls-2{fill:#b46f2d;}.cls-3{fill:#ae6c2c;}.cls-4{opacity:.6;}</style></defs><g id="left_mountain"><g id="_5FcAb.tif"><path class="cls-2" d="M0,1247.35V0C5.54,1.17,10.22,3.87,14.41,7.67c7.83,7.11,16.64,12.75,25.87,17.94,7.61,4.27,13.12,10.47,13.84,20.1,.62,8.36,.3,16.76,2.09,25.12,1.85,8.58,3.79,16.99,8.36,24.55,5.66,9.36,10.26,19.28,15.39,28.91,1.18,2.22,1.85,4.72,1.89,7.26,.11,8.23,.58,16.49,.02,24.68-.76,11.26,0,22.42,.45,33.63,.18,4.49,1.91,7.74,5.54,10.21,2.45,1.67,3.83,4.1,3.97,7.09,.45,9.38,.54,18.76,.07,28.15-.28,5.6-.73,11.27-.17,16.82,.42,4.23-.11,8.91,3.53,12.48,4.93,4.84,7.92,10.64,7.51,17.85-.13,2.22-.03,4.44-.42,6.65-.4,2.19,.36,3.78,2.57,4.56,3.73,1.31,6.65,3.81,9.6,6.36,4.45,3.86,7.35,8.98,11.26,13.25,6.47,7.05,8.57,15.63,8.85,24.85,.07,2.14,.2,4.24,.68,6.34,1.95,8.47,5.04,9.44,11.77,3.7,4.78-4.08,8.92-8.8,14.01-12.6,7.97-5.95,15.85-12.11,21.08-20.91,4.83-8.12,13.09-9.92,21.49-11.32,1.66-.28,3.22,.18,4.73,1.02,1.26,.7,2.62,1.32,4.02,1.62,2.66,.58,4.62,1.81,5.55,4.5,.28,.8,.76,1.64,1.39,2.19,3.11,2.71,3.93,6.27,4.09,10.17,.14,3.54,1.98,5.9,5.23,7.34,3.75,1.66,7.67,2.62,11.67,3.38,4.16,.79,7.9,2.25,10.6,5.92,6.02,8.19,8.06,17.78,9.09,27.47,1.18,11.03-1.8,21.93-2.45,32.94-1.16,19.33-1.79,38.67-1.31,58,.22,8.93-.03,17.56-2.67,26.08-.77,2.48-.53,4.79,.79,6.98,2.33,3.86,3.87,8.04,4.73,12.42,1.18,6.05,3.7,11.82,3.82,18.09,.02,1.19,.42,2.35,1.23,3.2,4.33,4.56,5.7,9.7,3.49,15.74-.39,1.07-1,2.67,.35,3.47,1.32,.78,2.24-.65,3.28-1.25,9.36-5.45,17.82-12.26,26.98-18.01,3.53-2.21,7.1-4.35,10.33-6.99,5.3-4.32,11.27-7.37,17.54-10.06,10.91-4.67,20.7-2.54,29.99,4.01,2.53,1.78,4.98,3.69,7.85,4.93,1.99,.86,2.97,2.33,3.04,4.51,.06,2.14,.26,4.32,1.3,6.2,1.54,2.79,2.03,5.83,2.49,8.89,.59,3.97,2.21,5.65,6.18,5.92,3.28,.22,6.6,.48,9.84-.16,2.66-.52,4.78,.32,6.62,2.05,1.26,1.19,2.58,2.41,3.49,3.86,4.6,7.33,10.94,13.64,13.27,22.34,.19,.71,.71,1.4,1.23,1.94,2.4,2.44,3.21,5.39,3.17,8.74-.03,3.58-.04,7.14-.56,10.71-.64,4.4-1.19,8.92,.01,13.28,1.58,5.73,2.37,11.54,2.72,17.45,.15,2.51,.42,5.02,.85,7.49,2.23,12.98,3.72,26.04,4.48,39.18,.3,5.11,2.18,8.84,6.81,11.25,5.25,2.74,6.39,5.04,4.97,10.84-1.94,7.88-2.33,15.85-2.33,23.91-.01,11.81,1.06,23.59,.68,35.4-.07,2.22,.11,4.45,.26,6.67,1.25,17.81,1.19,35.6-1.38,53.31-.61,4.18-.29,8.25,.7,12.36,2.73,11.39,4.87,22.85,5.58,34.61,.56,9.28-.15,18.58,1,27.83,1.37,11.01,1.77,22.19,5.76,32.74,.91,2.4,1.17,4.86,1.21,7.4,.07,4.63-.39,9.29,1.01,13.84,.57,1.86,.05,3.74-1.34,5.11-1.48,1.46-1.31,2.91-.82,4.74,2.98,11.15,7.57,21.73,11.22,32.65,4.42,13.22,9.48,26.19,16.25,38.44,6.14,11.1,11.5,22.59,16.4,34.28,2.4,5.73,4.65,11.44,5.57,17.72,.59,4.05,.56,8.24,1.85,12.18,1.99,6.09,4.54,11.94,7.84,17.44,2.35,3.92,4.49,7.96,5.72,12.35,3.01,10.67,7.96,20.56,12.32,30.67,6.01,13.95,12.71,27.61,16.96,42.25,3.31,11.42,6.63,22.85,9.67,34.35,1.88,7.1,3.46,14.29,4.11,21.65,.4,4.52,.42,4.52-4.07,4.52-59.12,0-118.24,0-177.37,0-123.57,0-247.13,0-370.7-.01Z"/></g><g id="bGMUSM.tif"><g><path class="cls-3" d="M0,110.2c1.42-2.77,1.96-5.84,3.01-8.73,.32-.88,.3-2.19,1.29-2.49,3.31-1,3.31-3.75,3.83-6.4,1.11-5.63,1.33-11.32,1.54-17.02,.43-11.66,3.12-22.97,5.2-34.38,.56-3.08,.25-6.18,.49-9.62,1.31,1.1,1.37,2.39,1.4,3.64,.19,8.61,.47,17.22,.48,25.83,0,6.53-2.17,12.75-3.12,19.15-.14,.95-.21,1.92-.32,2.88-.38,3.31,.53,5.75,3.92,7.18,2.2,.92,4.13,2.5,6.13,3.85,1.7,1.15,1.79,2.38,.47,4.11-3.01,3.95-4.02,8.34-4.03,13.49-.04,11.45,2,22.9-.31,34.38-.9,4.48-1.39,9.16-.5,13.85,.55,2.9,1.96,4.77,4.89,4.76,6.98-.02,10.27,4.97,13.75,9.74,1.29,1.76,1.34,2.98-1.14,4.16-3.29,1.57-6.57,2.75-10.19,3.04-2.53,.2-4.25,1.52-5.48,3.74-2.91,5.28-4.3,10.97-4.58,16.93-.3,6.2-.14,12.39,.73,18.54,.26,1.83,.25,2.46-1.93,1.78-2.26-.7-3.11-1.69-3.35-4.19-1.19-12.49,.89-24.94,.11-37.41-.07-1.11,.24-2.26-.47-3.73-.25,4.35-.57,8.29-.68,12.24-.21,7.93,.04,15.87-.49,23.8-.34,5.06,.27,10.1,2.25,14.8,3.28,7.79,4.06,16.05,5,24.31,.82,7.27,4.38,12.36,12.01,13.61,5.46,.9,7.45,4.58,7.89,10.14,2.41-3.27,3.43-6.5,4.68-9.58,1.51-3.72,3.8-6.85,6.08-10.12,4.24-6.07,7.3-12.8,5.55-20.6-1.21-5.41-.88-10.79,.2-16.13,1.46-7.2,3.33-14.34,2.58-22.35,2.71,2.42,3.02,5.17,3.23,7.89,.64,8.3,.72,16.55-.91,24.81-.92,4.66-.1,9.49,.81,14.12,.66,3.34,.66,6.73,1.33,10.05,1.07,5.23-3.04,7.11-6.42,9.1-3.02,1.78-6.05,3.42-8.38,6.11-.32,.37-.66,.71-.96,1.09-2.32,3.03-1.95,4.13,1.68,5.07,4.91,1.27,5.91,2.57,5.91,7.69,0,4.65-.02,9.29,0,13.94,.02,3.09,.21,3.22,3.11,1.89,2.64-1.2,5.26-2.45,7.86-3.72,3.91-1.91,8.1-2.42,13.05-2.7-4.48,4.2-8.1,8.38-10.83,13.26-1.62,2.89-2.94,5.88-3.85,9.06-.87,3.05-.61,3.31,2.38,2.67,3.79-.8,7.51-1.86,11.07-3.41,2.51-1.09,5.15-1.42,7.82-1.78,.06,.43,.17,.7,.09,.77-3.68,3.26-3.08,7.38-2.87,11.73,.33,6.73,1.36,13.45,.32,20.27-1.1,7.18,1.29,14.2,1.87,21.31,.71,8.67,1.46,17.35,1.99,26.03,.27,4.55-.84,9.05-1.02,13.59-.59,14.98-1.79,29.93-1.78,44.93,0,8.22,.18,16.45-.43,24.67-.81,10.87,1.08,21.62,1.88,32.41,.43,5.8,.31,11.6,.58,17.4,.43,9.28,1.6,18.51,1.44,27.82-.16,9.68-2.32,19.07-4.16,28.53,0-1.39-.04-2.77,0-4.16,.46-12.72-.45-25.28-3.53-37.7-1.79-7.21-1.36-14.84-3.48-22.01-6.26-21.16-8.25-42.84-7.94-64.79,.08-5.7,.91-11.41,.49-17.11-.56-7.63-.4-15.28-.69-22.91-.07-1.96-.88-3.06-2.59-4.07-4.74-2.78-8.38-6.1-9.27-12.29-2.08-14.37-3.66-28.71-3.68-43.28-.02-11.86-1.28-23.72-4.4-35.27-.37-1.35-1.07-2.44-1.93-3.51-2.48-3.07-2.41-5.36,.6-7.71,2.08-1.62,2.36-2.9,.6-4.92-1.19-1.36-2-3.07-2.93-4.66-.97-1.65-2.1-3.15-3.52-4.43,0,7.34,0,14.49,0,21.63,0,2.69,.8,5.18,2.15,7.44,4.95,8.28,6.52,17.38,5.86,26.79-.6,8.54-.6,17.02,.85,25.44,1.07,6.27,.16,12.17-2.53,17.79-3.24,6.78-6.19,13.72-11.57,19.31-3.62,3.76-5.92,8.5-7.74,13.6,3.12-4.38,8.71-3.09,12.53-5.81,.82-.58,1.47-.11,1.99,.54,.92,1.17,2.18,2.04,1.48,4.01-1.87,5.3-4.01,10.46-6.64,15.43-1.59,2.99-3.89,5.83-4.54,9.02-.64,3.13,2.6,5.74,3.32,8.91,.09,.37,.21,.76,.42,1.08,2.1,3.15,2.87,5.88-.91,8.69-1.89,1.41-2.05,4.3-2.16,6.73-.23,5.25,.17,10.49,1.86,15.47,1.78,5.25,1.13,10.73,2.12,16.03,.8,4.31,2.31,8.09,6.45,10.45,2.07,1.18,3.86,2.88,5.28,4.91,1.5,2.15,1.66,4.24,.18,6.46-.53,.8-1.03,1.65-1.37,2.54-1.96,5.06-.82,7.48,4.23,9.16,5.86,1.95,5.92,2.28,4.34,8.35-2.27,8.68-5.03,17.33-4.46,26.44,.31,4.89-.2,9.63-1.02,14.38-.35,2.01,.37,2.88,2.02,3.87,6.08,3.65,12.68,4.46,19.54,3.97,2.11-.15,3.75,.37,5.01,2.16,1.15,1.64,2.83,2.57,4.76,3.12,.82,.23,1.72,.52,2.35,1.06,3.46,2.96,7.27,3.23,11.39,1.75,2.02-.73,2.47,.02,1.88,1.96-.51,1.7-1.43,3.16-2.35,4.63-3.95,6.27-6.45,12.94-5.96,20.52,.2,3.15,.95,3.71,3.69,2.2,1.69-.93,3.31-2.01,4.83-3.19,6.68-5.22,14.7-6.55,22.7-7.98,3.37-.6,6.51-1.8,9.38-3.66,3.38-2.19,7.13-3.37,10.96-4.41,1.59-.43,2.34,.03,2.46,1.75,.1,1.43,.41,2.87,.76,4.27,.74,2.92,2.61,3.62,5.14,1.77,2.83-2.07,4.96-4.87,7.15-7.57,1.71-2.12,3.63-4.01,5.75-5.71,.84-.67,1.78-1.4,2.89-.94,1.23,.51,.93,1.78,.95,2.81,.17,7.67-1.7,14.97-4.53,21.99-2.05,5.08-1.41,9.12,2.84,12.68,3.48,2.92,5.28,7.1,7.59,10.89,3.86,6.33,7.26,13.01,13.79,18.39-1.24-3.13-2.21-5.56-3.17-7.98,5.07,3.82,9.32,8.33,13.13,13.27,4.61,6,9.56,11.69,15.3,16.64,4.01,3.46,6.87,7.82,9.86,12.11,7.33,10.5,16.71,18.68,28.16,24.48,4.16,2.11,8.67,2.52,13.17,3.03,3.13,.36,6.04,1.21,8.59,3.13,3.17,2.39,6.51,4.53,10.16,6.13,4.59,2.01,8.53,4.81,11.63,8.85,1.7,2.21,3.81,4.11,6.06,5.81,3.59,2.71,5.57,6.4,7.25,10.57,3.6,8.96,3.27,18.19,2.7,27.45-1.28,20.58-.31,40.87,4.99,60.96,3.8,14.42,5.05,29.28,5.17,44.22,.03,4.34,.75,8.68,.53,13.04-.04,.82,.31,2.07-.75,2.25-1.2,.2-1.29-1.06-1.64-1.97-5.54-14.54-8.25-30.03-14.52-44.27-4.39-9.96-8.13-20.29-14.17-29.48-.74-1.13-1.58-2.25-2.03-3.51-3-8.39-9.72-13.34-16.31-18.69-10.45-8.49-21.96-15.97-29.34-27.77-1.72-2.75-4.22-4.77-7.14-6.22-9.1-4.54-17.01-11.05-26.04-15.74-4.15-2.16-6.05-6.3-7.63-10.57-2.42-6.54-3.3-13.21-3-20.19,.33-7.73,.09-15.49,.09-23.23,0-2.47-.73-4.68-1.83-6.91-3.12-6.34-6.23-12.65-10.97-18.01-1.22-1.38-2.58-1.9-4.3-2.49-4.09-1.4-8.33-2.31-12.33-3.84-3.2-1.23-3.92-4.56-4.19-7.75-.31-3.6,.54-7.11,.84-10.67,.39-4.7,1.11-9.4-.92-13.98-1.54-3.48-5.53-4.67-8.58-2.3-1.48,1.15-2.5,2.67-3.29,4.36-6.54,13.87-10.21,28.42-10.76,43.79-.21,5.69-.91,11.36-1.21,17.06-.3,5.7-3.86,8.32-12.23,9.49-1.35,.19-2.62,.02-3.41,1.54-7.14,13.71-15.58,26.89-20.18,41.68-3.69,11.85-7.4,23.76-10.09,35.92-1.79,8.1-2.18,16.12,0,24.34,1.97,7.45,1.36,15.46,3.71,22.83,4.09,12.79,2.83,25.88,2.69,38.87-.11,9.71-3.3,18.95-5.59,28.33-3.94,16.12-7.25,32.39-11.29,48.48-2.05,8.15-3.92,16.33-5.53,24.57-1.7,8.73-2.27,17.62-2.9,26.46-.73,10.22-2.11,20.33-3.76,30.44-2.84,17.32-6.83,34.43-9.39,51.78-1.83,12.43-3.91,24.73-6.93,36.92-1.4,5.66-.99,11.71-2.6,17.43-2.5,8.85-6.13,17.16-12.45,23.96-4.66,5.01-9.07,10.34-14.87,14.18h-2.32c-4.59-5.33-6.76-11.79-8.66-18.41-4.5-15.72-6.08-31.96-8.8-48-1.07-6.34-1.68-12.77-3.44-18.99V110.2Z"/><path class="cls-3" d="M151.18,443.88c-2.71,2.24-3.77,4.45-2.19,7.39,.23,.42,.37,.89,.56,1.34,2.59,5.87,2.5,6.03-2.87,9.38-2.23,1.39-4.63,2.4-6.98,3.54-.76,.37-1.81,.72-1.8,1.69,.01,.83,1.02,1.1,1.71,1.4,1.79,.77,2.91,2.2,3.91,3.76,.79,1.22,1.05,2.45,.15,3.78-.97,1.42-1.2,3.07-1.01,4.74,.8,7,.48,14.08,2.15,21.03,1.83,7.64,1.35,15.59,2.43,23.35,.55,3.96,1.16,7.93,.88,11.99-2.11-5.3-4.19-10.57-6.27-15.83-3.37-8.55-8.97-15.53-14.46-22.63-1.22-1.58-1.86-3.02-1.36-5.02,1.22-4.81,.11-9.86,1.59-14.83,1.24,6.28,4.44,11.59,8.01,16.82-.38-5.15-.66-10.31-1.16-15.45-.41-4.26-.32-8.51-.17-12.76,.09-2.71,1.05-5.26,3.24-6.89,2.93-2.18,3.72-5.09,3.55-8.41-.18-3.38,.12-6.32,3.92-7.72,1.29-.47,1.98-1.84,2.33-3.19,2.04-7.92,3.91-16.35,2.46-24.07-1.4-7.45-.64-14.64-1.12-21.92-.51-7.72-.35-15.47-.6-23.21-.09-2.64,.36-4.26,3.58-3.97,1.86,.17,3.34-1.08,4.84-2.27,3.65-2.9,5.84-5.01,9.7,1.38,2.25,3.73,2.44,3.69,4.76,.05,1.04-1.63,2.29-2.76,4.15-3.33,2.8-.85,4.53-2.54,5.67-5.5,2.24-5.84,5.83-11.02,9.1-16.34,.25-.4,.52-.81,.87-1.11,2.59-2.19,2.82-2.06,3.58,1.33,2.4,10.64,.95,21.39,.89,32.09-.04,6.57-.42,13.14-2.11,19.56-.29,1.1-.48,2.23-.8,3.72-3.79-8.28-2.38-16.69-1.51-25.03-.48,.03-.97,.07-1.45,.1-.62,9.18-3.79,18.33-.15,27.56,1.99,5.05,.38,9.97-.3,14.88-2.14,15.35-3.69,30.72-3.15,46.24,.24,6.89-.48,13.7-1.61,20.49-1.27,7.68-.63,15.44-.74,23.17-.25,17.88-1.44,35.73-1.43,53.63,0,8.87,.02,17.8-.49,26.68-.64,10.9-.04,21.87-1.71,32.72-.08,.55,.07,1.18-.69,1.71-1.67-3.09-1.45-6.52-1.81-9.76-.63-5.76-.99-11.56-1.37-17.34-.22-3.3-1.77-6.12-3.13-8.98-4.21-8.8-8.67-17.48-10.52-27.21-1.31-6.91-2.8-13.79-4.08-20.7-.49-2.66-.44-5.34,.25-8.05,.71-2.76,.31-5.65-.6-8.27-2.22-6.38-2.36-13.09-3.34-19.64-2.52-16.86-2.63-33.89-2.43-50.91,0-.68,0-1.36-.11-2.02-.16-.93-.43-1.85-.74-3.16Z"/><path class="cls-3" d="M296.12,676.79c-1.76-2.34-4.56-3.32-6.96-4.46-7.95-3.75-8.81-10.33-7.98-17.78,1.43-12.85,1.95-25.79,3.91-38.59,.79-5.16,1.33-10.34,1.19-15.58-.05-1.82-.54-3.34-1.64-4.81-2.94-3.93-5.37-8.29-10-10.65-1.18-.6-1.23-1.91-1.12-3.09,.37-3.75,.77-7.49,1.19-11.23,.06-.52,.03-.95,.86-1.19,4.16-1.23,7.21-3.77,8.58-8.04,.44-2.11,1.38-4,2.53-5.8,5.85-9.17,14.4-15.71,22.28-22.9,4.23-3.86,9.73-5.83,14.28-9.24,3.47-.48,5.65-3.18,8.42-4.87,.63-.39,1.17-1.29,1.98-.96,.87,.36,.42,1.37,.55,2.09,.71,4.02-1.56,7.29-2.81,10.79-1.73,4.87-3.08,9.8-2.93,14.98,.07,2.45-1.24,4.93,.32,7.84,3.8-5.82,5.58-12.28,9.16-18.28,.4,1.42,.12,2.47-.07,3.54-.21,1.14-.3,2.3-.54,3.44-2.79,13.39-3.84,26.96-4.33,40.6-.06,1.59-.06,2.88-1.82,3.82-1.98,1.05-2.62,3.09-2.75,5.39-.29,4.97,.46,9.81,1.34,14.65,.9,4.98,.89,9.82-1.77,14.32-1.41,2.39-.53,4.08,1.49,5.4,1.86,1.22,3.81,2.29,5.73,3.41,1.77,1.03,1.45,2.15,.02,3.09-.95,.63-2.1,.96-3.16,1.44-4.55,2.08-7.36,7.47-6.39,12.37,.54,2.76,1.06,5.52,.9,8.34-.12,2.2,.21,4.25,2.14,6.26-2.34,.31-4.28,.57-6.22,.82-3.74,.49-6.16,2.64-6.98,6.32-1.09,4.9-.43,9.85-.24,14.76,.18,4.63-.9,9.01-1.94,13.42-.15,.65-.32,1.47-1.03,1.64-1.01,.23-1.21-.81-1.57-1.42-2.22-3.86-4.32-7.78-6.97-11.37-.63-.85-1.05-1.87-2.09-2.34-1.8-2.1-3.18-4.58-5.57-6.14Z"/><path class="cls-3" d="M379.27,643.02c1.87,5.64,2.63,11.42,4.75,16.86,.48,1.23,.09,2.67-.13,4.02-.75,4.81-.81,9.61,.27,14.41,.42,1.85,1.06,3.2,3.12,3.62,.91,.18,1.76,.78,2.56,1.31,3.51,2.33,4.19,5.81,1.26,8.76-3.63,3.67-5.75,7.86-6.22,12.98-.17,1.85-.48,3.68,.21,5.45,3.83,9.83,4.59,20.26,4.65,30.54,.07,12.05,2.23,23.58,4.93,35.21,3.72,16.01,4.46,32.31,3.68,48.74-.47,9.85-.27,19.74-.22,29.61,.06,11.31-.53,22.64,.95,33.93,.35,2.68,.32,5.43-.65,8.03-.25,.66-.36,1.69-1.37,1.6-.76-.07-.92-.92-1.13-1.54-2.08-5.95-3.24-12.14-4.85-18.21-2.41-9.14-2.52-18.57-3.08-27.92-.58-9.76-1.75-19.44-3.02-29.13-1.23-9.39-1.52-18.89-2.45-28.32-.66-6.73-2.16-13.36-2.61-20.13-.94-14.27-3.29-28.39-3.9-42.71-.45-10.46,1.73-20.6,2.74-30.88,.33-3.37,.81-6.74,.83-10.11,.09-13.26,.04-26.52,0-39.78,0-2.12-.22-4.23-.33-6.35Z"/><path class="cls-3" d="M376.6,590.91c-3.35-3.64-8.06-3.76-12.13-5.43,.74-1.6,2.1-2.06,3.11-2.9,2.53-2.09,4.13-4.61,3.89-7.99-.53-7.45,1.33-14.56,2.87-21.75,.72-3.35,3.01-4.83,5.68-6.02,1.7-.76,2.73,.54,2.2,2.7-.85,3.47-1.75,6.93-2.69,10.38-2.74,10.07-3.73,20.31-2.93,31Z"/><path class="cls-3" d="M323.24,523.43c-4.55,3.41-10.06,5.38-14.28,9.24-7.88,7.19-16.43,13.73-22.28,22.9-1.15,1.8-2.09,3.69-2.53,5.8-2.1-2.65-2.25-5.99-3.1-9.07-.3-1.08,1.01-1.51,1.73-2.1,4.56-3.75,9.8-6.47,14.69-9.7,3.33-2.2,6.35-4.76,8.85-7.82,2.55-3.12,5.62-5.53,8.92-7.7,2.44-1.6,5.19-1.8,8.01-1.55Z"/><path class="cls-3" d="M296.12,676.79c2.39,1.57,3.77,4.05,5.57,6.14,.23,4.34-1.58,8.27-2.53,12.36-.66,2.86-1.31,5.79-3.04,8.51-1.16-1.05-1.23-2.31-1.25-3.5-.1-7.13-.18-14.26-.21-21.4,0-.94-.35-2.34,1.46-2.12Z"/><path class="cls-3" d="M378.98,635.68c-2.05-11.02-1.06-22.2-1.36-34.19,2.42,11.86,.82,23.04,1.36,34.19Z"/></g></g><g id="fBJRSb.tif"><g><path class="cls-1" d="M35.48,88.24c1.17,1.49,1.83,3.27,2.07,5.06,.78,5.84,3.97,10.33,7.54,14.74,5.07,6.28,8.16,13.38,9.02,21.58,.61,5.86,.11,11.52-.53,17.3-.78,6.97-1.51,13.94-1.43,21.02,.08,7.9-.18,15.84-1.07,23.72-.11,1.02-.09,2.42-1.2,2.77-1.34,.42-1.95-1-2.65-1.84-1.34-1.58-2.03-3.53-2.51-5.5-1.86-7.49-6.15-13.48-11.5-18.81-2.34-2.33-4.23-5.03-6.19-7.66-2.49-3.35-5.16-6.52-8.68-8.86-2.64-1.75-3.88-4.18-3.77-7.37,.18-5.31-.23-10.62,.46-15.93,.41-3.16,.12-6.37-1.03-9.43v-8.13c.18-.74,.43-1.48,.52-2.23,1.1-9.26,5.28-16.39,13.99-20.43h6.97Z"/><path class="cls-1" d="M14,198.61c.75-2.7,1.48-5.4,2.26-8.09,.56-1.95,1.01-3.95,1.8-5.81,3.75-8.83,7.38-7.82,12.14-1.56,5.38,7.08,10.45,14.98,9.36,24.93-.45,4.11,0,8.32-.09,12.48-.12,5.13,.08,10.25,.72,15.34,.59,4.74,.55,9.43-.04,14.16-1.04,8.37-.27,16.79-.6,25.26-.31-.15-.56-.2-.58-.29-2.41-11.83-5.65-23.48-5.94-35.71-.28-11.9-5.88-21.43-14.9-28.98-1.66-1.39-3.22-2.76-4.13-4.76v-6.97Z"/><path class="cls-1" d="M299.09,951.39c0-11.52-.43-23.06,.1-34.55,.83-18.26,1.14-36.53,1.56-54.8,.34-14.53-.17-28.98-2.79-43.36-2.49-13.69-3.26-27.66-5.96-41.34-.94-4.74-2.28-9.38-2.3-14.29-.03-6.6,2.12-12.36,7.16-16.47,5.38-4.38,7.69-10.28,9.66-16.47,.76-2.39,1.27-4.88,1.69-7.35,.92-5.37,3.48-9.81,7.38-13.51,1.32-1.25,1.76-2.22,.49-3.88-2.9-3.81-3.81-8.27-3.04-12.92,1.03-6.25-.06-12.34-.94-18.46-.03-.19-.08-.38-.11-.57-1.06-6.69,3.56-10.58,10.13-8.44,2.75,.9,5.4,2.12,8.27,2.69,1.36,.27,2.89,.52,3.77-.71,.96-1.34-.49-2.3-1.14-3.27-1.3-1.96-3.09-3.45-5.1-4.66-2.77-1.67-4.34-4.09-4.51-7.34-.09-1.77-.53-3.47-1.28-5.04-1.53-3.22-.72-6.46-.31-9.7,.19-1.49,1.32-2.36,2.77-2.62,1.61-.28,3.25-.54,4.88-.59,3.19-.11,6.38-.02,9.58-.1,1.21-.03,2.84,.25,3.32-1.13,.41-1.2-1.06-1.9-1.76-2.78-2.64-3.33-5.34-6.61-7.89-10-4.38-5.83-3.57-12.62-2.45-19,.81-4.63,2.61-9.2,5.29-13.4,4.95-7.74,16.2-7.71,22.11-2.08,1.93,1.84,2.18,4.35,2.2,6.73,.13,19.8,3.85,39.24,5.79,58.85,.91,9.24,1.85,18.48,3.12,27.67,1.91,13.8,2.95,27.63,2.89,41.57-.02,4.85-.82,9.61-.79,14.47,.04,6.9,.47,13.68,2.3,20.4,2.71,9.94,3.1,20.24,4.19,30.42,1.06,9.9,2.15,19.8,3.22,29.7,.63,5.86,1.22,11.73,1.86,17.6,.16,1.46-.57,2.3-1.67,3.1-7.71,5.58-9.88,11.8-7.29,21.06,.68,2.41,1.34,4.94,2.6,7.06,6.24,10.51,9.16,22.05,11.44,33.91,3.89,20.23,8.15,40.4,12.15,60.61,1.03,5.22,1.46,10.54,1.45,15.87-.02,6.69,.87,13.31,1.56,19.94,.57,5.5,.55,11.05,.04,16.53-.53,5.72-.38,11.4-.21,17.11,.1,3.19-.75,3.96-3.68,2.58-5.07-2.4-10.06-4.97-15.06-7.51-10.03-5.1-20.74-7.31-31.9-7.5-9.37-.16-18.74-.42-28.03,1.53-2.7,.57-5.59,.49-8.35-.26-7-1.89-11.75-6.06-13.54-13.28-1.7-6.87-2.99-13.8-2.99-20.92,0-10.36,0-20.72,0-31.08h.11Z"/><path class="cls-1" d="M218.38,349.56c3.15-3.48,4.06-7.19,6.17-10.18,2.65-3.78,6.83-5.14,10.62-2.86,2.76,1.66,5.42,3.77,6.76,6.94,.76,1.8,1.67,3.44,3.11,4.83,1.58,1.53,2.46,3.48,2.36,5.74-.37,8.13,.77,16.24,.47,24.37-.66,18.06-1.64,36.11-2.12,54.18-.41,15.75-2.91,31.41-1.86,47.21,.42,6.35-1.99,12.41-1.83,18.74,.03,1.28-.93,1.8-2.04,2.1-4.08,1.11-8.14,2.08-11.79,4.55-2.79,1.88-5.19,.43-6.01-2.91-.59-2.39-.55-4.81-.13-7.21,1.94-11.16,1.16-22.33,.54-33.54-.52-9.46-.68-18.95,.17-28.42,.64-7.16-.03-14.3-.65-21.43-.43-4.93-.55-9.84,.01-14.76,.4-3.52,.3-7.04-.16-10.58-.23,1.61-.67,3.22-.64,4.82,.13,9.49-.93,18.92-1.22,28.39-.26,8.39-.72,16.77-.44,25.21,.2,6.07-1.69,12.21-2.21,18.38-.41,4.9-1.22,9.73-.45,14.72,.76,4.9-.32,9.55-3.26,13.78-3.06,4.39-4.18,9.52-4.65,14.79-1.15,12.86-.31,25.69,.33,38.53,.35,7.15,.27,14.32,.12,21.48-.12,6.01,.46,11.99,.72,17.97,.31,7.33-.86,14.45-2.12,21.6-.36,2.08-1.06,2.65-3.03,1.71-2.74-1.3-5.31-.4-7.71,1.04-1.82,1.09-3.51,2.42-5.35,3.48-4.24,2.44-9.01,1.3-11.74-2.71-2.25-3.3-3.28-6.98-3.27-10.95,.02-15.87-.04-31.75,.08-47.62,.08-10.37-1.34-20.64-1.59-30.98-.22-8.99,.32-18,2.07-26.83,.93-4.71,5.46-6.5,9.3-7.33,5.7-1.23,5.4-3.54,3.31-7.53-3.63-6.9-5.77-14.12-5.6-21.96,.02-1.15,.12-2.33,.39-3.44,1.13-4.61,1.26-4.65,5.88-3.31,1.19,.34,2.51,1.03,3.54-.09,1.06-1.15,.21-2.45-.33-3.51-1.74-3.44-2.78-7.22-5.28-10.3-1.3-1.6-1.61-3.71-1.87-5.73-.22-1.76,.15-3.19,2.09-3.95,2.4-.94,2.65-2.46,1-4.5-1.82-2.26-2.5-4.94-2.54-7.86-.07-5.9,.12-11.78-.45-17.69-.6-6.29,1.31-12.07,4.87-17.26,2.84-4.14,2.74-8.76,2.35-13.42-.59-7.05-.58-14.1-.01-21.15,.13-1.65,.34-3.31-.07-4.91-1.58-6.22-.16-12.3,.72-18.41,.34-2.36,1.22-4.29,3.66-5.5,1.86-.92,3.28-2.68,4.98-3.96,2.01-1.52,3.1-1.16,3.74,1.3,.59,2.24,.97,4.54,1.46,6.81,.35,1.64,1.24,2.58,2.92,3.2,5.29,1.94,6.64,4.06,6.67,9.86,.03,5.39,0,10.78,0,17.04Z"/><path class="cls-1" d="M418,717.65c.95,8.96-1.77,18.36-4.85,27.66-5.06,15.27-4.65,30.62-1.2,46.1,3.34,15.01,6.57,30.05,9.83,45.08,1.41,6.53,.95,13.09,.12,19.63-.58,4.61-1.03,9.21-1.02,13.87,.06,15.1,.17,30.2-.02,45.3-.13,10.36,1.87,20.37,3.8,30.45,2.23,11.69,5.48,23.16,7.51,34.89,2.26,13.06,5.02,26,9.73,38.46,1.35,3.57,2.55,7.34,1.82,11.33-.8,4.35-4.01,6.05-7.6,3.44-9.09-6.6-17.05-14.05-20.4-25.51-3.42-11.68-5.81-23.41-5.95-35.63-.16-13.56-2.5-26.91-4.19-40.34-2.35-18.68-5.17-37.3-4.52-56.31,.55-16.12-.01-32.4-2.99-48.26-3.1-16.48-3-33.35-6.85-49.66-2.65-11.24-3.31-22.57-2.76-34.01,.25-5.22,.51-10.43,.53-15.65,0-2.4,.81-4.63,1.99-6.61,2.96-4.96,2.84-10.31,2.58-15.77-.5-10.54-3.13-20.58-6.68-30.45-2.03-5.66-3.16-11.6-3.48-17.6-.21-3.94,.26-7.91,.4-11.87,.04-1.17,.05-2.44-1.03-3.18-3.83-2.61-4.02-6.81-4.77-10.75-2.44-12.81-1.95-25.79-2.54-38.72-.37-8.1-1.15-16.19-.94-24.32,.1-3.87,.51-7.71,1.17-11.53,.62-3.64,2.4-6.7,4.6-9.58,1.12-1.47,1.92-1.34,3.16,.02,4.1,4.51,6.14,9.74,6.17,15.81,.03,4.75,1.17,9.12,3.99,13.09,2.76,3.88,4.02,8.45,4.09,13.14,.26,16.38,2.01,32.66,4.85,48.73,2.07,11.76,5.34,23.4,11.03,34.1,1.68,3.17,2.57,6.59,2.45,10.05-.39,11.26,2.52,22.3,2,34.6Z"/><path class="cls-1" d="M126.88,481.66c-4.14-8.35-7.86-16.32-11.98-24.08-4.94-9.32-8.41-19.34-13.98-28.35-3.9-6.31-9.26-11.13-15.1-15.46-2.81-2.08-4.5-4.65-5.39-7.96-3.84-14.13-4.05-28.19,.06-42.36,3.19-10.98,3.24-21.95-1.56-32.62-.28-.62-.37-1.33-.72-1.9-4.47-7.39-1.36-13.58,3.05-19.56,3.91-5.31,14.54-6.15,19.04-1.5,2.36,2.43,4.96,4.51,8.71,6.25-1.05-1.97-1.8-3.37-2.54-4.77-.94-1.78-.55-2.66,1.61-2.73,5.17-.18,8.21,1.67,10.09,6.45,2.01,5.13,4.32,10.15,5.68,15.53,.42,1.65,.47,3.05-1.11,4.09-1.51,.99-.87,2.4-.67,3.69,1.77,11.08,3.58,22.15,5.33,33.22,.26,1.62,.4,3.28,.35,4.91-.28,9.79,.79,19.5,1.49,29.23,.4,5.57,.14,11.23-.42,16.79-.54,5.31-.62,10.63-.83,15.92-.48,11.98-1.1,23.96-.77,35.97,.08,2.92,1.3,5.9-.32,9.24Z"/><path class="cls-1" d="M330.88,568.13c.5-4.22,.61-8.51,2.04-12.55,2.25-6.4,2.66-13.02,2.65-19.71,0-3.87,0-7.72,1.03-11.51,1.51-5.58,6.04-8.74,11.74-7.9,2.49,.37,4.87,1.09,7.12-.89,1.03-.91,1.35-.16,1.41,1.03,.65,13.37,.69,26.78,2.83,40.04,.94,5.84,1.38,11.71,.31,17.59-.12,.65,.03,1.52-.7,1.79-1.01,.37-1.22-.7-1.65-1.26-3.35-4.44-7.48-5.74-12.71-3.89-1.55,.55-3.4,.8-4.54,1.83-3.44,3.09-5.98,.88-8.62-1.05-1.2-.88-.72-2.3-.92-3.51Z"/><path class="cls-1" d="M66.84,262.47c8.46-1.12,14.85,4.43,20.59,11.22,1.26,1.49,1.03,3.31,.62,4.99-.44,1.82-2.17,1.32-3.42,1.34-7.53,.1-14.57,2.6-21.73,4.47-2.86,.75-4.98,2.89-7.36,4.51-1.02,.7-2.08,1.73-3.4,1.19-1.53-.62-.81-2.17-.98-3.34-.16-1.14-.22-2.31-.42-3.44-1.26-7,.93-12.95,5.53-18.15,2.33-2.64,3.03-2.81,10.57-2.77Z"/><path class="cls-1" d="M80.17,218.81c.27,6.8-.54,13.39,1.23,19.87,.78,2.84-1.5,4.86-4.74,4.41-2.29-.32-4.53-.89-6.86-1.06-2.03-.14-2.76-1.67-3.05-3.62-.9-6.11-.03-12.15,.68-18.18,.57-4.8,1.29-9.58,2.11-14.34,.56-3.26,1.77-6.32,3.67-9.08,1.32-1.9,2.43-1.82,3.77,0,2.16,2.92,3.12,6.2,3.17,9.76,.06,4.16,.01,8.32,.01,12.23Z"/></g></g></g><g id="right-mountain"><g id="_N8tMk.tif"><path class="cls-2" d="M1998.57,1244.83h-264.13c-4.21-5.11-5.19-11.46-6.29-17.62-1.99-11.08-3.51-22.25-5.21-33.39-1.18-7.74-2.54-15.46-3.44-23.23-1.19-10.24-2.19-20.51-3.88-30.69-1.87-11.31-3.99-22.55-6.51-33.74-1.67-7.44-2.74-15.14-5.06-22.3-4.06-12.5-7.83-25.05-9.77-37.99-3.17-21.13-7.29-41.94-13.92-62.32-5.32-16.35-8.5-33.33-13.08-49.92-6.41-23.26-8.88-47.33-13.8-70.91-3.6-17.28-4.65-34.87-4.1-52.53,.07-2.28,.15-4.58-.5-6.82v-16.67c1.11-4.87,1.46-9.87,1.48-14.8,.05-14.05,3.6-27.19,9.05-40.01,4.57-10.74,9.3-21.42,12.77-32.6,1.58-5.11,3.24-10.28,6.14-14.82,5.52-8.67,9.45-18.09,13.81-27.35,4.35-9.26,4.74-18.41,2.86-27.92-1.87-9.47-4.69-18.75-6.5-28.23-3.64-19.06-6.88-38.21-10.26-57.32-1.42-8-3.37-15.98-3.47-24.12-.22-17.91-.27-35.83,.06-53.74,.28-15.46,2.75-30.65,6.97-45.55,2.26-7.99,4.81-15.91,4.56-24.44-.14-4.87,1.65-9.36,4.6-13.34,8.03-10.84,16.49-21.34,25-31.8,4.39-5.39,9.23-10.59,12.39-16.84,7.77-15.35,19.75-26.08,35.18-33.18,2.43-1.12,4.11-2.7,4.98-5.2,1.61-4.65,4.1-8.84,6.75-12.95,1.5-2.32,3.5-4.57,3.7-7.37,.22-3.01,1.63-5.08,3.81-6.73,2.59-1.95,3.49-4.51,3.87-7.63,.89-7.33,3.37-13.93,9.6-18.57,2.61-1.94,5.09-4.05,7.69-6,2.94-2.2,5.15-4.95,5.93-8.55,.86-3.93,2.89-6.95,5.89-9.56,4.3-3.75,7.53-8.12,7.27-14.31-.1-2.22,1.09-3.91,2.94-5.29,3.76-2.79,7.41-5.73,11.06-8.67,1.32-1.06,2.83-2.05,3.04-3.99,.9-8.44,6.48-12.4,14.05-13.64,10.15-1.65,20.21-.27,30.02,2.6,11.79,3.44,22.75,8.89,33.72,14.34,6.42,3.19,13.06,6.01,20.28,6.85,3.6,.42,7.29,.13,10.88,.6,7.29,.95,12.51,5.57,17.12,10.76,8.27,9.31,16.75,18.37,26.17,26.54,4.37,3.79,6.51,8.47,6.5,14.83-.17,330.22-.15,660.45-.15,990.67,0,1.82-.05,3.64-.08,5.46Z"/></g><g id="_hUYST.tif"><g><path class="cls-1" d="M1697.76,708.62c5.56,4.52,5.31,10.77,6.54,16.46,1.23,5.66,.19,11.47,1.11,17.15,1.78,11.03,3.42,22.2,8.2,32.34,4.63,9.83,7.78,20.1,11.28,30.29,7.59,22.12,13.4,44.77,19.85,67.22,2.59,9.01,3.44,18.4,5.75,27.44,2.49,9.7,5.85,19.17,8.54,28.82,3.23,11.58,6.25,23.22,9.19,34.88,3.25,12.92,8.21,25.23,13.25,37.5,2.33,5.67,4.3,11.44,6.19,17.25,1.61,4.95-.95,8.49-6.16,8.31-4.29-.14-8.53-.91-12.49-2.73-4.61-2.11-9.32-3.94-14.22-5.23-7.09-1.87-12.22-6.94-17.98-10.99-3.75-2.64-7.38-5.5-11.31-7.83-4.06-2.41-6.59-5.94-8.94-9.84-4.58-7.62-7.15-15.94-9.64-24.41-7.64-26.02-13.09-52.58-19.71-78.85-3.57-14.17-5.01-28.75-7.39-43.15-2.65-16.06-2.7-32.16-2.74-48.33-.03-12.51,1.79-24.75,4.27-36.94,.97-4.77,1.8-9.55,2.16-14.42,.26-3.55,1.41-6.95,2.8-10.18,3.58-8.33,8.43-16.06,11.45-24.77Z"/><path class="cls-1" d="M1779.78,889.67c-7.29-19.5-13.24-39.29-16.03-59.93-.49-3.6-1.67-7.06-2.98-10.45-3.23-8.39-5.87-16.93-7.46-25.82-1.58-8.84-5.74-17.02-6.99-25.97-3.05-21.92-9.95-42.93-15.42-64.27-6.49-25.33-12.03-50.85-17.01-76.51-1.07-5.54-3.5-10.68-4.69-16.22-1.65-7.7-2.06-15.54-2.69-23.32-.92-11.34-2.44-22.57-4.39-33.77-.79-4.53-.04-9.16-.81-13.73-.62-3.66-.84-7.39-1.24-11.09-1.09-10.05,.89-20.02,.79-30.06-.1-10.71,.67-21.42,.97-32.14,.35-12.42,2.44-24.68,4.82-36.87,1.13-5.81,1.62-11.74,2.81-17.53,1.45-7,3.41-13.88,7.67-19.87l-.57-.47c-1.52,1.43-3.03,2.85-4.92,4.63,1.98-7.31,6.67-12.04,11.7-16.45,3.98-3.49,7.86-6.98,10.25-11.84,1.32-2.69,3.66-4.48,6.12-5.9,2.12-1.22,4.51-1.39,6.66,.48,4.17,3.62,8.54,6.74,14.57,6.11,1.77-.19,2.27,1.47,2.47,2.96,.96,7.06,3.55,13.07,10.37,16.43,.67,.33,1.33,.84,1.77,1.44,3.27,4.43,7.85,7.24,12.43,9.99,2.28,1.37,1.53,2.28-.14,3.06-3.54,1.65-7.12,3.26-10.78,4.63-3.51,1.33-6.68,3.28-9.99,4.96-6.27,3.19-8.25,9.48-11.02,15.17-.75,1.55-.19,3.22,1.06,4.49,1.68,1.7,1.5,3.35-.02,5.05-.83,.93-1.45,2.08-2.39,2.85-9.25,7.57-14.04,17.95-18.26,28.71-.17,.44-.3,.93-.56,1.32-3.46,5.19-2.4,11-2.22,16.66,.08,2.54,1.98,3.32,4.16,3.44,3.95,.21,7.1-1.96,10.39-3.65,3.83-1.96,7.62-4.04,12.11-3.85,.92,.04,2.19-.39,2.68,.48,.62,1.08-.52,1.96-1.17,2.67-6.49,7.14-10.29,15.8-13.93,24.56-1.67,4.01-1.68,4.07,2.58,5.14,1.79,.45,1.45,1.56,1.18,2.88-.84,4.02-2.99,7.67-3.35,11.82-.17,1.9-.32,3.81-.34,5.72-.03,3.46,1.09,4.56,4.6,4.82,3.29,.24,6.48-.09,9.56-1.33,3.67-1.48,7.54-2.01,11.45-2.23,2.65-.15,3.07,.43,1.6,2.71-3.92,6.11-7.78,12.28-12.11,18.09-4.09,5.49-7.37,11.39-10.3,17.52-1.59,3.31-3.88,6.06-6.15,8.92-6.75,8.48-12.3,17.49-11.24,29.13,.52,5.72,.93,11.38,2.63,16.94,1.62,5.28,1.7,11,.47,16.22-2.68,11.3-1.9,22.23,.48,33.44,4.07,19.13,8.45,38.19,12.58,57.31,2.16,9.99,3.26,20.18,4.22,30.33,1.06,11.13,4.06,21.74,6.93,32.42,3.47,12.91,6.37,25.95,8.62,39.12,.79,4.58,.54,9.36,.6,14.04,.06,4.36,.75,8.43,2.89,12.39,2.66,4.93,2.7,10.69,4.08,16.03,.69,2.67,1.28,5.39,.89,8.19Z"/><path class="cls-1" d="M1845.13,803.59c-.63-2.47-1.41-4.91-1.87-7.41-2-10.87-7.17-20.76-9.61-31.48-4.16-18.23-9.29-36.23-11.94-54.8-1.37-9.63-3.94-19.06-5.22-28.73-1.38-10.41-2.8-20.84-5.69-30.94-3.23-11.31-5.88-22.73-7.64-34.35-.67-4.43-1.09-8.91-1.43-13.39-1.3-16.88-2.35-33.78-1.9-50.74,.25-9.52-1.82-18.77-3.46-28.1-1.46-8.31-1.31-16.78-.95-25.21,.08-1.97,1.36-3.54,2.3-5.2,3.16-5.58,2.73-8.96-3.14-11.52-2.9-1.27-3.14-2.51-1.77-5.53,2.48-5.47,6.32-10.02,10.02-14.65,4.07-5.09,8.47-9.88,13.9-13.6,2.91-1.99,4.89-1.34,5.48,2.08,.67,3.89,.72,7.8,.01,11.7-.45,2.48-.66,5.03,0,7.41,1.27,4.6,2.12,9.3,3.7,13.83,2.02,5.79,1.85,11.68-.32,17.4-3.76,9.94-4.82,19.9-1.81,30.32,1.58,5.47,2.2,11.22,3.18,16.86,.56,3.25,1.75,6.26,3.19,9.17,1.57,3.18,3.08,6.4,4.02,9.8,2.09,7.56,7.42,13.32,10.82,20.15,2.51,5.04,5.28,9.99,7.66,15.06,2.84,6.04,2.5,12.84-.13,18.95-4,9.29-9.12,18.12-12.29,27.77-4.68,14.22-7.82,28.65-7.06,43.86,.61,12.03,1.03,24.08,2.02,36.08,.65,7.89,2.02,15.72,2.99,23.59,.83,6.73,1.12,13.51,2.05,20.24,1.4,10.21,2.67,20.44,5.15,30.47,.06,.26,0,.55,0,.83l-.28,.06Z"/><path class="cls-1" d="M1898.85,209.99c11.61-2,20.62,4.9,29.5,12.06,2.16,1.74,4.1,3.77,6.35,5.36,4.9,3.48,7.61,8.18,8.39,14.08,.98,7.44,.79,14.86-.43,22.26-.16,.98-.08,2.37-1.35,2.59-1.19,.21-1.69-1.06-2.34-1.84-7.59-9.17-12.08-20.1-17.07-30.7-4.52-9.59-12.02-13.56-22.11-13.89-4.26-.14-8.34,.74-12.43,1.71-5.96,1.42-12.14,.92-18.16,2-10.07,1.81-19.75,5.02-29.43,8.2-1.27,.42-2.52,.92-3.81,1.22-1.34,.31-2.38-.3-3.21-1.39-.95-1.24-.26-2.18,.51-3.03,7.26-8.08,13.57-17.14,23.23-22.75,.49-.29,.98-.61,1.41-.98,.7-.62,1.86-1.14,1.69-2.15-.2-1.11-1.53-.82-2.38-1.1-.6-.2-1.52,.01-1.65-.81-.12-.73,.68-1.11,1.21-1.47,6.52-4.37,13.51-7.92,20.52-11.39,2.26-1.12,5.09-1.47,7.68,.11,2.11,1.29,4.39,2.31,6.53,3.55,1.79,1.04,2.16,2.54,1.12,4.38-1.32,2.33-2.66,4.65-3.84,7.04-.58,1.18-1.05,2.5-1.21,3.8-.22,1.83,.44,3.19,2.67,3.14,2.58-.06,5.16-.01,8.62-.01Z"/><path class="cls-1" d="M1823.28,270.33c13.07,.32,26.14,.8,39.18,1.75,.94,.07,1.89,.3,2.78,.61,3.18,1.1,3.57,2.65,1.38,5.22-5.74,6.77-13.36,10.28-21.85,11.37-10.26,1.32-19.72,5-29.3,8.45-4.39,1.58-8.83,3.03-13.25,4.55-2.14,.73-4.33,.59-6.52,.41-2.26-.18-2.83-1.56-2.01-3.39,1.73-3.82,3.09-7.84,5.46-11.35,3.69-5.47,7.45-10.88,11.54-16.07,.93-1.18,1.94-1.63,3.41-1.59,3.06,.09,6.12,.03,9.17,.03Z"/><path class="cls-1" d="M1864.37,243.64c-.04,1.25-.94,1.67-1.75,2.16-4.52,2.73-9.61,3.54-14.67,4.57-7.65,1.56-15.27,3.27-22.91,4.93-2.82,.61-5.32,2.09-8.02,3.03-.73,.25-1.53,1.09-2.34,.16-.66-.76-.49-1.64-.04-2.41,2.36-4.12,5.36-7.47,9.78-9.63,7.89-3.85,16.5-3.56,24.83-4.89,3.75-.6,7.47-1.8,11.29-.52,1.53,.51,3.1,1,3.82,2.61Z"/></g></g><g id="_ykQcz.tif" class="cls-4"><g><path class="cls-3" d="M1831.47,1012.57c-1.76-3.68-3.45-7.1-5.03-10.57-3.49-7.64-4.23-16.04-6.53-24.01-4.53-15.69-9.1-31.36-13.82-46.99-2.8-9.28-3.51-18.62-2.82-28.31,.75-10.56,1.57-21.2,.2-31.8-.25-1.96-.83-3.94-1.6-5.77-3.4-8.05-4.31-16.6-5.18-25.15-.46-4.57-1.11-9.1-2.04-13.58-.76-3.68-1.06-7.36-1.14-11.1-.19-9.55,.45-19.15-1.46-28.6-1.25-6.2-3.4-12.13-5.54-18.06-3.05-8.45-6.2-16.89-7.42-25.85-.98-7.18-1.06-14.55-2.67-21.58-3.45-15.09-3.46-30.33-3.31-45.63,.04-4.14-.54-8.23-1.33-12.24-.78-3.99-.23-7.68,1.45-11.16,5.26-10.89,11.53-21.15,19.58-30.23,3.14-3.54,4.5-7.27,3.51-12.08-.88-4.29-.23-8.77-.78-13.16-.94-7.48-1.47-15.02-4.29-22.13-1.18-2.98-1.63-6.06-1.51-9.26,.43-11.45-2.47-22.28-5.93-33.05-1.33-4.12-2.72-8.14-5.02-11.81-.66-1.05-.48-2.15-.2-3.32,1.08-4.58,1.61-9.21,1.41-13.93-.13-3.14-.73-6.16-2.64-8.64-4.36-5.67-6.55-11.81-4.81-18.98,1.78-7.31-2.88-11.38-7.74-15.28-1.48-1.19-3.21-2.07-4.87-3.03-1.5-.87-1.84-1.91-1.11-3.57,1.09-2.48,2.6-4.67,4.1-6.89,1.04-1.54,1.57-3.03,.09-4.67-.9-1-.75-2.17-.45-3.49,1.27-5.55,5.01-9.87,7.16-14.94,2.8-6.57,8.05-10.66,13.8-14.02,5.24-3.06,10.42-6.46,16.5-7.85,3.98-.9,8.01-.57,11.99-.29,3.34,.23,4.46,1.92,3.5,5.45-1.46,5.34-2.32,10.86-4.48,15.99-1.83,4.35-2.86,8.9-3.43,13.56-.26,2.13-1.03,4.08-2.4,5.75-3.22,3.93-5.85,8.28-8.78,12.42-3.01,4.23-4.58,8.99-5.36,14.05-.27,1.75-.22,3.72,.76,5.02,3.47,4.57,2.85,9.6,1.9,14.58-2.1,11.1-1,22.11,1.03,33.01,1.96,10.52,3.43,21.1,4.74,31.69,1.69,13.71,1.18,27.75,4.81,41.16,3.49,12.89,3.15,26.13,4.8,39.18,1.33,10.53,1.72,21.21,0,31.96-1.44,9.04-.03,18.31,.95,27.44,.2,1.85,1.02,3.7,1.87,5.39,2.45,4.91,4.35,9.99,5.17,15.43,1.1,7.31,4.24,14.08,5.59,21.32,.93,4.99,1.06,10.06,1.65,15.07,1.66,14.16,1.91,28.55,8.01,41.96,3.31,7.27,5.69,14.99,7.07,22.95,1.17,6.77,2.12,13.57,3.77,20.25,3.27,13.25,5.95,26.65,9.77,39.77,2.49,8.52,5.94,16.77,7.61,25.52,.81,4.21,1.02,8.45,.7,12.81-.49,6.67-.24,13.39-.29,20.1-.02,2.88-.45,5.7-.96,8.53-1.23,6.79-5.42,11.31-10.85,15.17-8.27,5.89-13.7,13.82-15.42,23.95-.57,3.37-.51,6.86-.63,10.3-.23,7.05,.18,14.14-1.68,21.22Z"/><path class="cls-3" d="M1873.23,615.75c-1.53-6.45-2-12.25-2.51-18.03-1.8-20.14-1.8-40.43-5.61-60.42-1.39-7.28-1.62-14.79-1.99-22.25-.45-8.95-.75-17.93-2.02-26.84-.6-4.24-.41-8.6-.38-12.91,.05-7.91-.93-15.61-3.66-23.08-2.22-6.06-2.59-12.5-3.62-18.8-.81-4.94-3.18-9.39-4.8-14.08-.56-1.63-2.23-2.28-3.67-3.04-1.76-.93-1.96-2.05-.63-3.64,1.96-2.34,3.86-4.75,5.62-7.25,4.67-6.63,6.88-14.3,6.72-22.16-.2-9.39-3.64-17.91-10.97-24.35-1.44-1.26-2.91-2.48-4.12-3.97-3.05-3.74-6.78-6.63-10.7-9.45-6.27-4.51-12.19-9.51-18.2-14.39-1.49-1.21-2.99-2.38-4.67-3.31-2.31-1.28-3.12-3.04-2.37-5.73,1.05-3.76,2.97-7.26,3.15-11.28,.06-1.32,1.42-1.73,2.38-2.28,2.42-1.38,4.87-2.69,5.82-5.61,.29-.88,1.14-1.23,1.93-1.6,7.38-3.39,14.84-6.47,22.88-8.1,6.86-1.39,13.16-4.54,19.43-7.59,7.18-3.49,11.13-2.52,16.23,3.61,4.29,5.17,6.37,11.15,7.99,17.54,3.13,12.3,6.48,24.54,10.1,36.7,4.41,14.8,6.26,29.84,5.91,45.26-.15,6.58,.25,13.19,2.57,19.5,.43,1.16,.69,2.48,1.41,3.43,5.39,7.15,6.37,15.56,7.23,24.07,.3,2.93,1.12,5.8,1.64,8.71,1.52,8.6-.06,16.63-4.03,24.39-3.5,6.85-5.85,14.1-5.12,21.99,.26,2.77,1.81,5,3.12,7.33,1.32,2.36,2.13,4.76,.5,7.28-4.47,6.88-6.64,14.78-9.93,22.19-6.67,15.02-13.64,29.91-18.47,45.67-3.06,9.98-5.1,20.14-5.71,30.6-.21,3.68-.22,7.45-1.46,11.87Z"/><path class="cls-3" d="M1831.88,1025.83c.07,1.85-.63,3.39-1.69,4.81-3.33,4.43-6.62,8.9-10.03,13.27-2.58,3.3-3.62,3.13-5.08-.75-3.59-9.57-6.99-19.22-10.75-28.73-4.42-11.2-9.73-22.08-13.58-33.46-6.52-19.26-15.44-37.71-19.58-57.76-2.53-12.26-6.9-24.03-9.28-36.32-3.12-16.13-8.72-31.47-15.42-46.4-3.99-8.88-5.9-18.34-8.62-27.58-3.91-13.29-8.46-26.4-11.94-39.8-2.57-9.88-6.88-19.25-8.28-29.47-1.2-8.72-3.38-17.22-5.84-25.67-1.46-4.99-3.48-9.71-5.77-14.34-1.47-2.96-1.61-5.72,.05-8.72,3.94-7.13,6.87-14.71,9.68-22.34,.76-2.06,1.79-4.01,2.66-6.03,.54-1.26,1.66-1.71,2.79-1.56,1.36,.18,.92,1.51,.89,2.37-.13,3.98,.69,7.83,1.78,11.57,2.87,9.83,4.11,19.99,6.24,29.96,.93,4.34,3.27,8.14,4.73,12.29,5.72,16.23,10.61,32.68,13.11,49.76,1.78,12.16,5.34,23.83,9.83,35.24,4.53,11.52,6.68,23.69,9.74,35.62,1.66,6.47,3.98,12.76,5.71,19.21,2.88,10.68,4.49,21.72,9.08,31.92,4.66,10.36,8.59,21.03,14.9,30.63,5.83,8.86,9.05,18.87,11.22,29.27,3.27,15.68,9.1,30.55,15.05,45.36,3.24,8.08,6.01,16.31,7.94,24.81,.21,.93,.31,1.87,.47,2.81Z"/><path class="cls-3" d="M1971.48,363.69c-3.66-6.87-8.47-12.88-13.53-18.73-2.77-3.2-4.34-7.19-6.47-10.81-1.03-1.76-2.14-3.54-3.86-4.56-6.37-3.78-11.82-9.16-19.22-11.16-3.35-.91-6.02-2.8-7.95-5.74-2.19-3.35-5.26-5.78-8.6-7.88-2.71-1.71-4.47-4.22-5.39-7.2-2.14-6.94-5.77-13.11-9.59-19.18-1.96-3.13-4.94-5-8.37-6.18-4.96-1.7-9.94-3.32-14.89-5.03-5.77-1.99-11.62-2.7-17.73-2.01-4.78,.54-9.49,.24-13.82-2.5-3.32-2.1-7.13-2.1-11.03-2.16-5.58-.08-11.14-.99-17.3-1.6,2.92-2.01,5.47-3.38,8.28-4.26,8.1-2.54,16.23-4.99,24.31-7.6,4.28-1.38,8.76-.36,13.05-1.42,1.66-.41,3.38-.66,4.98-1.22,3.31-1.15,3.58-2.27,1.02-4.79-1.63-1.59-3.56-2.88-5.36-4.29-.59-.46-1.21-.9-1.76-1.31,.12-1.05,.91-1.05,1.5-1.22,6.5-1.92,13.05-3.34,19.84-3.98,8.02-.76,16.09,.46,23.99-.63,4.55-.63,6.67,.95,8.99,4.32,5.25,7.61,11.85,14.25,15.99,22.69,3.7,7.55,7.68,14.92,12.45,21.92,4.16,6.1,6.13,13.38,7.82,20.54,3.82,16.16,9.59,31.6,16.46,46.67,2.81,6.17,4.6,12.7,6.21,19.32Z"/></g></g></g></svg>