<?xml version="1.0" encoding="UTF-8"?><svg id="Layer_2" xmlns="http://www.w3.org/2000/svg" viewBox="0 0 748.65 1485.42"><defs><style>.cls-1{fill:#d88d41;}.cls-2{fill:#dd9448;}</style></defs><g id="right-castle"><g><path class="cls-1" d="M196.16,147.7c.51,.42,1.22,1.16,1.55,1.61,4.33-2.48,8.87-6.84,11.5-10.03,3.05,2.45,7.85,6.99,10.48,10.03l1.82-1.58c-2.78-3.08-7.67-7.53-10.93-10.12,2.45-3.19,4.36-6.48,5.97-10.27,.18-.06,.33-.18,.39-.33l-1.73-.98-.39,.15h-15.83v2.03h14.66c-2.69,6.48-9.23,14.96-17.5,19.5Z"/><path class="cls-1" d="M212.97,175.58c.57,.3,1.34,.75,1.79,1.07,2.54-2.45,4.9-6.51,6.24-9.73,.21-.09,.39-.21,.48-.36l-1.88-.99-.33,.24-12.63,3.25v-7.79c.42-.06,.69-.24,.75-.6l-2.9-.12v9.08l-8.03,2,.51,2,7.52-1.94v7.23c0,4.12,2.51,5.88,6.27,5.88h4.99c1.13,0,3.23-.09,4.42-.24-.03-.63-.06-1.43-.06-2.09-1.16,.15-3.23,.33-4.45,.33h-4.87c-2.39,0-4.15-.99-4.15-3.91v-7.73l11.44-2.99c-.99,2.39-2.84,5.37-5.11,7.41Z"/><path class="cls-1" d="M210.43,219.95v-9.76l7.32-12.99h-2.78l-3.28,6.33c-.9,1.76-1.67,3.31-2.3,4.84h-.09c-.69-1.64-1.4-3.11-2.27-4.81l-3.16-6.36h-2.84l6.93,13.05v9.7h2.48Z"/><path class="cls-1" d="M197.77,235.44c2,2.45,4.12,6.18,4.96,8.54l2.06-1.05c-.93-2.42-3.05-6.03-5.14-8.48l-1.88,.98Z"/><path class="cls-1" d="M202.64,256.7c8.39-3.82,14.12-10.36,17.14-21.5,.48,0,.69-.12,.78-.39l-2.87-.93c-2.84,11.41-8.36,17.62-16.57,21.23,.51,.39,1.19,1.14,1.52,1.58Z"/><path class="cls-1" d="M592.11,53.99c4.57-.24,14.78-.87,20.99-1.52,.6,1.07,1.13,2.15,1.58,3.16l2.09-.96c-1.52-3.25-5.11-8.93-8.24-12.36l-1.79,1.02c1.79,2,3.76,4.72,5.32,7.29-3.94,.36-11.02,.87-15.98,1.07,2.06-5.85,4.63-13.85,6.27-19.35,.45,0,.75-.15,.87-.42l-2.9-.78c-1.64,5.97-4.48,14.9-6.45,20.63-1.16,.06-2.24,.09-3.14,.12l.81,2.69c.27-.06,.48-.3,.57-.6Z"/><path class="cls-1" d="M603.2,90.95c4.45,0,7.17-4,7.17-11.76,0-7.32-2.6-11.32-6.84-11.32s-7.23,3.79-7.23,11.62,2.84,11.47,6.9,11.47Zm.18-21.08c3.14,0,4.48,3.85,4.48,9.44s-1.25,9.62-4.57,9.62c-2.81,0-4.45-3.73-4.45-9.62s1.88-9.44,4.54-9.44Z"/><path class="cls-1" d="M606.77,113.81c2-3.05,3.94-6.81,5.32-9.97,.54,.06,.96-.09,1.07-.36l-2.93-1.19c-1.49,3.79-3.46,7.55-5.37,10.42-2.72-1.58-5.67-3.08-8.48-4.3l-1.13,1.76c2.81,1.25,5.7,2.78,8.42,4.39-2.96,4.12-7.52,8.57-12.51,11.79,.51,.33,1.34,1.05,1.7,1.49,5.08-3.37,9.56-7.82,12.63-12.21,2.48,1.58,4.72,3.23,6.36,4.66l1.43-1.88c-1.82-1.55-4.21-3.17-6.51-4.6Z"/><path class="cls-1" d="M603.5,139.13c-5.7,0-9.91,4.51-9.91,11.91s4,11.56,9.64,11.56,9.85-3.94,9.85-11.94c0-6.87-3.76-11.53-9.58-11.53Zm-.18,21.41c-4.63,0-7.14-4.72-7.14-9.56s2.18-9.79,7.2-9.79,7.11,5.02,7.11,9.59c0,5.2-2.48,9.76-7.17,9.76Z"/><path class="cls-1" d="M601.8,232.25c-1.97,0-3.76-.81-4.57-1.34l-.75,1.91c1.02,.72,3.05,1.43,5.29,1.43,5.02,0,7.58-3.11,7.58-6.66,0-3.22-2.24-5.34-4.87-5.79v-.09c2.6-.93,4.06-2.99,4.06-5.29,0-2.69-1.82-5.29-5.91-5.29-2.15,0-4.24,.84-5.31,1.67l.75,1.82c.9-.66,2.45-1.46,4.09-1.46,2.69,0,3.85,1.67,3.85,3.61,0,2.81-2.78,4.15-4.93,4.15h-1.46v1.85h1.46c2.93,0,5.7,1.49,5.7,4.78,0,2.06-1.22,4.69-4.99,4.69Z"/><path class="cls-1" d="M126.88,22.31c.51,.45,1.13,1.13,1.55,1.67,4.51-2.3,8.66-5.52,11.94-9.7,2.21,1.55,4.15,3.14,5.64,4.54l1.46-1.82c-1.49-1.4-3.49-2.96-5.76-4.51,2.24-3.22,4.06-7.11,5.29-11.23,.18-.09,.33-.21,.39-.33l-1.82-.93-.39,.24h-16.18V2.27h15.23c-1.02,3.4-2.51,6.39-4.33,9.02-2.42-1.61-5.11-3.17-7.67-4.45l-1.34,1.58c2.6,1.34,5.26,2.96,7.73,4.6-3.1,3.97-7.32,7.23-11.73,9.29Z"/><path class="cls-1" d="M136.79,50.04v10.36h2.12v-11.38c.39-.03,.6-.27,.66-.42l-.48-.12c2.75-2.12,5.32-4.69,7.23-7.08,.27-.03,.45-.12,.54-.27l-1.58-1.16-.33,.21h-17.11v1.94h15.11c-4.09,4.78-10.96,9.23-18.18,11.91,.24,.24,1.22,1.46,1.37,1.67,3.67-1.46,7.61-3.58,10.66-5.67Z"/><path class="cls-1" d="M140.77,49.89c2.87,1.52,6.57,3.94,8.57,5.61l1.52-1.61c-2.15-1.7-5.73-3.94-8.72-5.49l-1.37,1.49Z"/><path class="cls-1" d="M132.11,35.2c3.17,.9,7.23,2.24,9.82,3.61l1.1-1.82c-2.72-1.31-6.75-2.75-9.94-3.52l-.99,1.73Z"/><path class="cls-1" d="M147.75,71.95c.36,.03,.69-.06,.84-.36l-2.93-1.1c-4.27,11.5-11.67,19.2-19.8,23.68,.6,.42,1.31,1.13,1.67,1.58,8.3-4.66,15.68-12.6,20.22-23.8Z"/><path class="cls-1" d="M125.63,112.76h6.99c-.45,4.9-1.43,9.17-2.39,10.24l2.09,.99c1.97-2.96,6.54-4.57,9.2-4.57,3.46,0,5.26,1.85,5.26,4.54,0,4.51-5.55,5.97-14.12,6.15,.27,.51,.48,1.4,.6,1.97,9.71-.24,15.71-2.24,15.71-8.18,0-4.03-2.72-6.42-7.17-6.42-2.54,0-6.15,1.28-8.48,3.17,.48-1.1,1.02-4.18,1.4-7.91,3.55-.12,8.96-.75,12.84-1.73l-.39-2.15c-3.58,1.04-9.08,1.73-12.24,1.82,.12-1.4,.21-2.93,.27-4.42,.54-.06,.9-.15,.95-.66l-3.16-.3c0,1.79-.06,3.7-.18,5.4-2.24,0-5.91,0-7.17-.03v2.09Z"/><path class="cls-1" d="M126.04,151.91c.27-.09,.54-.39,.54-.69,2.72-1.16,10.39-3.64,14.66-3.64,3.94,0,7.17,2.03,7.17,6.72,0,5.76-6.63,8.27-15.86,9.14,.3,.54,.69,1.58,.78,2.03,10.09-1.02,17.41-3.88,17.41-11.29,0-6.27-4.27-8.75-9.29-8.75-3.28,0-8,1.16-13.29,2.87-1.4,.45-2.39,.72-3.08,.87l.96,2.75Z"/><path class="cls-1" d="M144.08,182.95c1.91-1.22,3.37-1.52,5.11-1.52,.36,0,.72,0,1.11,.03l-.03-2.24c-3.88,.03-22.28,1.34-24.52,1.43l.24,2.63c.24-.03,.57-.24,.66-.48,3.85-.36,12.78-1.05,15.95-1.25-5.46,3.43-9.62,8.54-9.62,12.75,0,5.32,3.17,8.48,11.65,9.71l.99-2.09c-7.41-.96-10.33-3.43-10.33-7.61,0-3.85,4.33-8.66,8.81-11.35Z"/><path class="cls-1" d="M151.04,219.35l-1.73-1.1-.27,.18-12.81,2.42-1.25-6.84c.48-.15,.72-.39,.69-.72l-3.02,.24,1.46,7.73-8.66,1.64,.42,2,8.63-1.64,2.99,15.98,2.15-.39-3.02-16,11.17-2.15c-1.13,2.81-3.2,6.15-5.55,8.21,.51,.3,1.31,.84,1.76,1.25,2.75-2.6,5.29-6.6,6.63-10.51,.18-.06,.36-.15,.42-.3Z"/><path class="cls-1" d="M150.38,270.14h-7.17c.57-4.12,1.58-12.39,1.94-16.33,.24-.06,.42-.18,.48-.33l-1.64-.78-.42,.15h-14.99v2.03h14.18c-.33,4.06-1.19,11.44-1.76,15.23h-15.65v2.06h25.02v-2.03Z"/><polygon class="cls-1" points="146.62 310.41 146.62 287.36 128.28 287.36 128.28 289.36 144.53 289.36 144.53 296.85 128.97 296.85 128.97 298.82 144.53 298.82 144.53 306.74 127.45 306.74 127.45 308.71 144.53 308.71 144.53 310.41 146.62 310.41"/><path class="cls-1" d="M741.3,560.6c-4.84-7.27-8.3-16.31-16.79-20.07-4.27-1.66-6.02-6.53-8.57-9.63-6.84-2.61-11.96-9.04-20.3-8.56-15.15,.43-14.59-8.15-23.89-14.56-4.22-3-3.67-9.63-5.8-14.1-.68-4.69,5.29-8.7,9.12-10.11,8.75-3.9-.58-16.16,5.26-22.24,3.34-3.88-6.73-19.05-6.33-26.96-1.08-23.76-48.57-64.57-37.97-75.86,4.22-5.96,5.48-5.74-1.41-13.66-4.61-6.35-20.46-23.93-16.24-31.14,1.27-6.07-3.7-8.64-8.29-10.58,.08-.52,.1-1.06,.11-1.58,1.85,.87,3.61,2.18,4.84,3.4l1.16-1.91c-1.55-1.4-3.82-2.87-6.09-3.79-.09-1.91-.24-5.4-.36-8.72,2.54-.21,4.6-.63,6.03-1.08l-.27-2.09c-1.58,.54-3.49,.96-5.85,1.19-.06-2.27-.12-4.21-.15-6.12,.48-.09,.75-.33,.78-.63l-3.02-.09c.06,2.21,.15,4.42,.27,6.99-1.88,.13-3.76,.15-5.64,.14-.92-1.28-1.37-2.79-1.3-4.24,.34-6.64-2.2-12.69-3.48-18.98,1.9,2.96,5.1,4.42,8.73,4.42,2.6,0,4.63-.51,5.67-1.01l-.54-2c-1.13,.54-2.84,.93-4.57,.93-5.32,0-8.54-3.52-8.54-9.5,0-6.27,3.52-9.73,8.69-9.73,1.79,0,3.25,.42,4.3,.93l.66-2.09c-.72-.36-2.3-.93-5.02-.93-5.74,0-9.92,3.4-10.97,9.05-1.63-11.96-2.34-24.02-2.89-36.08-1.67-7.03,6.75-10.05,11.36-13.72,3.37-2.24-.39-2.87-1-4.91,.11-1.19-.21-2.13-.83-2.9,.63,.22,1.38,.34,2.28,.34h5.64c1.02,0,2.72-.03,3.67-.18,0-.45-.03-1.46-.06-2.03-.99,.15-2.57,.21-3.61,.21h-5.49c-2.18,0-2.93-1.08-2.93-2.66v-6.75h13.53v-1.97h-13.53v-7.38h10.69v-1.97h-19.23v1.97h6.39v7.38h-8.54v1.97h8.54v6.75c0,1.1,.22,2.06,.7,2.82-4.37-2.27-12.62-2.21-15.37-4.74,.62-1.41,3.06-.8,2.93-2.77-1.51-4.45-7.92-2.08-11.08-4.54,1.68-2.56,7.35-2.62,5.82-6.42-.76-1.47-1.73-1.25-3.04-.6-4.45,2.24-9.48-.07-14.2,.33-.83,.02-1.71-.09-2.01-1.05-.57-2.53,6.17-2.35,1.19-4.94-4.9-1.95,1.24-4.7-1.38-7.01-1.12-.9-.36-2.53-1.36-3.9-1.09,2.09-1.91,4.03-3.84,5.16-1.85,2.07,5.55,3.15,.11,6.89-2.89,2.02,3.7,5.47-1.85,5.52-4.61,1.49-10.29-7.17-10.27-.38,.07,2.15-3.51,2.74-3.63,.55-.18-1.75-1.71-3.41-.44-5.28-2.1-3.73-1.99-8.24-3.18-12.34-1.77,4.46,2.47,9.5-1.62,13.16-.66,.54-.23,.98-.02,1.58,1.68,4.86,.86,6.41-4.09,7.57-10.4,2.45-19.88,7.35-29.74,11.2-.8,.31-2.25,.89-1.81,1.72,.86,1.64,.46,4.14,2.64,4.89,2.68,.92,4.08,2.14,2.58,5.14-.48,.96,.05,2.16,.91,2.74,4.54,3.22,2.65,8.79,3.69,12.98,3.23,2.63,2.4,6.25,2.52,9.65,.07,2.13-.22,4.29,.82,6.31,.6,1.17,.06,1.81-1.15,1.76-6.03-.23-12.02,.45-18.03,.62-3.36,.43-3.18-4.74-1.32-6.23,1.42-1.1,2.28-3.22,4.67-2.97,.6,.06,1.38-.52,1.39-1.39-1.78-2.97-7.91-3.55-11.13-5.06-6.3-2.19,5.48-6.85-2.29-11.42-1.85-1.41-2.79-3.13-2.02-5.56,.52-1.83,1.34-10.55-.36-11.16-.99-.07-1.1,.78-1.13,1.48-.07,1.63-.36,3.33-.02,4.89,.73,3.37-1.7,6.24-1.22,9.53,.03,.23-.2,.65-.42,.74-4.04,1.67-2.71,4.64-1.8,7.48,.27,.84,1.14,1.62,.36,2.52-17.99-1.96-36.92,.5-55.33-.17-3.58-.16-4.23-1.5-3.82-5.08,.4-9.01,7.71-10.11,12.54-17.11,1.23-1.12-.55-3.89-2.16-3.04-3.26,2.1-18.65-.45-20.7-3.25-.35-.46-1.19-.73-.76-1.38,.99-1.49-.51-2.87-.31-3.81,.67-3.17-2.54-5.08-2.19-8.12-5.2,6.38,.15,10.43-4.14,15.16-.64,.56-1.25,1.29-2.02,1.19-4.14-.5-7.61,1.84-11.43,2.67-1.45,.31-1.67,.05-2.01-1.11-.96-3.84-3.28-.32-5.28,.5-1.38,.46-3.08,2.6-4.17,.41-.87-1.75-1.05-4.05,1.03-5.83,3.5-3,6.85-6.16,10.94-8.4,2.9-1.56,1.5-6.01-1.89-4.49-2.72,.48-5.58-.22-8.13-.85-1.03-3.57-16.59-4.32-11.08-8.5,1.17-.91,.43-2.04-.64-2.75-2.53-1.27-.55-3.61-.76-5.43-2.07-2.23-.81-4.85-1.03-7.29h-3.68c-.13,3.71-2.04,7.11-1.95,10.87,.03,1.01-.74,1.55-1.47,2.17-2.19,1.9-1.97,2.79,1.16,4.03-7.22,4.45-14.38,8.03-23.03,6.05-1.24-.28-2.09-.06-2.26,1.24-.24,1.85-.38,3.75,1.95,4.56,1.71,.59,3.79,.62,4.8,2.39,1.14,2.01,2.54,3.17,4.68,4.36,1.75,.98,2.91,4.36,4.46,6.63,1.18,4.34-20.75,5.17-24.63,5.92-5.3,.27-10.96,1.82-15.97-.61-2.82-2.32-5.08,3.01-2.4,4.59,.88,.61,2.07,1.14,3.1,1.12,3.95-.09,6.52,2.75,9.75,4.09,3.2,1.32,5.56,2.34,5.22,6.21,5.31,2.76,5.13,7.97,6.59,12.69,.76,1.98-.86,1.94-1.91,2.31-23.25,5.01-47.32,6.57-71.07,5.22-1.28,.04-2.54-.35-3.32-1.32-2.26-3.41-7.16,2.49-4.57,4.8,2.39,2-1.76,7.7,3.94,6.22,4.81-1.97,9.63-.05,14.52-.22,2.49-.06,4.78-.12,6.24,2.67,.85,1.63,2.98,1.04,4.55,.98,2.41-.1,4.23,.41,4.82,3.07,.88,2.84,5.8,1.54,4.85,5.59-1.37,12.38-1.97,24.79-1.78,37.25,.1,6.65-4.08,9.56-10.15,6.5-8.27-4.28-17.04-2.53-25.68-3.56-3.84-2.12-16.67,2.71-17.11-2.04,0-2.19-1.11-4.8,1.75-6.25,4.61-1.65,3.08-5.36,6.9-6.66,2.09-.86,5.81-2.73,4.04-5.54-.87-1.18-1.74-.57-2.66-.07-6.3,3.44-11.82-.13-17.5-2.02-2.82-1.65,3.08-3.85-1.61-5.82-1.29-.65-1.46-1.6-.53-2.73,2.89-2.91-3.55-5.11-.22-7.76,1.02-.98,1.22-2.14,.45-3.32-3.2-5.26,1.36-9.82-1.64-15.55-1.92,5.83-.48,10.68-3.89,15.53-1.08,1.31-1.23,3.08,.47,4.32,1.41,1.02,1.24,1.98,0,2.93-6.22,4.51,2.75,4.38-.96,7.29-.32,.18-.59,.36-.82,.53h-9.24c.12-2.18,.12-4.6,.15-7.32,.42-.06,.69-.24,.72-.54l-2.93-.18c0,3.02-.03,5.7-.12,8.03h-12.06v2.06h11.97c-.2,2.54-.57,4.7-1.25,6.58-1.68,.19-3.35,0-4.98-.88-4.24-2.3-2.92,6.84,.74,6.57,.09,0,.18,.03,.27,.04-.95,.81-2.05,1.56-3.35,2.29,.57,.42,1.28,.98,1.7,1.46,1.59-.91,2.9-1.88,3.99-2.93,2.51,1.49,3.95,4.47,6.54,6.18,4.56,4.49-2.81,5.28-6.06,5.28-10.57,.56-21.16,1.74-31.53-1.67-1.31-.43-2.72-1.07-4.17-.5-2.74,.29-3.12,3.91-.55,4.69,5.96,1.87,7.98,2.21,8.28,8.93,.65,4.76,.2,5.33-4.4,6.63-8.11,2.29-15.99,5.5-24.27,7.11,.26-.37,.53-.73,.77-1.09,.21-.06,.36-.15,.45-.3l-1.76-1.34-.36,.18h-23.5v2.03h21.92c-.24,.35-.51,.71-.78,1.07-7.78,1.09-15.75,1.22-23.54,1.99-2.91,.36-2.87,4.62,.02,4.71,1.88,.16,3.13,.94,4.28,2.47,1.25,1.68,3.53,1.44,5.37,1.84,2.22,.48,3.16,1.61,3.01,3.82-.88,5.89,6.73,8.43,5.8,13.91-.84,3.81,.62,7.5,.47,11.26-.04,1.02,.87,1.52,1.56,2.14,1.64,1.47,1.62,2.92-.58,3.66-2.77,.93-2.8,2.05-.63,3.7,.59,.45,1.18,1.1,.82,1.82-1.25,2.51-.42,5.25-1.04,7.84-1.45,6.48,4.27,6,2,14.14-.03,2.71-1.29,4.24-4.36,4.79-8.52,1.54-16.98,3.45-25.42,5.39-1.66,.38-4.64,.49-4.51,2.25,.18,2.68,12.67,2.89,16.05,3.99,1.71,.28,2.66,1.29,2.41,2.94-.13,28.65,15.37,33.82-23.9,32.29-4.55-.1-8.79,.55-13.07,2.39-9.93,4.26-20.46,6.96-30.38,11.27-9.94,2.97,2.51,5.26,5.71,5.11,6.36-.81,10.34,4.07,15.5,6.1,2.67,1.65,.63,6.43,4.98,6.8,.62,.1,.74,.72,.55,1.23-1.92,3.9,.56,12.58-5.95,12.09-11.72-.45-24.3-7.34-35.44-1.28-2.23,1.45-4.53,2.77-6.87,4.01,.15,.17,.3,.37,.46,.55-.75,.13-1.51,.26-2.3,.41-20.76,3.69-29.02,19.99-29.02,23.77s4.13,3.58,4.59,13.78c.08,1.83-.06,4.05-.32,6.5-9.84,6.6-13.5,15.48-12.47,29.44,1.18,12.51,5.82,24.43,17.54,30.33,1.03,.85,2.42,1.42,3.84,1.98,.26,29.78,.98,128.15,5.05,138.41,.42,1.07,.97,1.8,1.61,2.25,.75,243.59-.53,487.29,.04,730.9,0,7.41-.64,6.81,6.74,6.81,234.96,0,469.92,0,704.88,0,7.66,0,6.99,.69,7-6.86-5.33-305.11,10.33-615.22-5.57-917.94ZM218.84,280.3c-2.9,.59-5.94,2.19-8.97,3.05,.49-1.8,.79-3.8,.95-6.08h8.22c.22,1.31,1.89,2.26-.2,3.03Zm384.87,10.47h.89c.87,0,2.12-.03,3.05-.09,.15,2.93,.33,6.06,.42,7.94-.93-.27-1.91-.39-2.84-.39-.66,0-1.34,.08-2,.24-.03-.53,.15-1.13,.61-1.81,1.34-2.05,1.41-4.11-.12-5.89Zm4.49,11.56c-1.7-.71-3.19-1.39-4.09-2.21,.38-.06,.77-.1,1.14-.1,.98,0,2,.24,2.96,.54l.03,1.05c0,.26-.01,.5-.03,.72Z"/></g><g id="ajN9gq.tif"><g><path class="cls-2" d="M250.63,482.75c-6.29,.21-12.37-1.57-18.6-1.97-1.83-.12-2.51-1.19-2.41-3.02,.1-1.87,1.16-2.41,2.74-2.32,4.79,.28,9.5-.39,14.16-1.38,1.26-.27,3.21-.06,3.37-1.8,.15-1.69-1.52-2.39-2.91-2.96-6.94-2.85-14.35-3.8-21.66-5.03-8.02-1.35-16.14-1.6-24.27-1.9-5.61-.21-11.16-1.5-16.69-2.64-2.26-.47-3.09-1.72-3.17-3.93-.29-8.74,.6-17.43,1.04-26.13,.19-3.66,.27-7.32,.33-10.98,.3-17.03,1.63-34.02,2.05-51.05,.21-8.45,1.48-16.94,2.22-25.42,.18-2.01,1.01-3.82,1.91-5.59,1.07-2.11,2.59-2.86,4.86-1.61,2.57,1.42,5.07,3.18,8.32,1.93,1.07-.41,1.95-.84,2.48-1.92,1.37-2.73,4.22-3.56,6.33-1.41,2.36,2.39,5.33,1.78,8.03,2.45,1.06,.26,1.8-.51,2.5-1.29,3.1-3.46,9.15-3.57,12.52-.26,2.93,2.87,4.14,2.72,6-.91,.46-.9,1.17-1.29,1.89-.9,3.38,1.82,7,.89,10.51,1.05,3.67,.17,3.59,.46,2.99,3.98-.75,4.44-1.44,8.98-.81,13.53,.26,1.88,.29,3.75,.36,5.63,.72,18.72-.09,37.49,.84,56.17,.88,17.63,.65,35.25,1.22,52.87,.14,4.33-.05,8.71,.76,13.03,.61,3.26,.09,3.74-3.34,3.77-1.19,.01-2.38,0-3.57,0Zm-19.12-126.51c.21,4.64,.53,9.27,.6,13.91,.03,2.12,.94,3.16,2.91,3.31,2.29,.18,2.18-1.74,2.24-3.08,.17-3.55-.02-7.12,.16-10.68,.2-4-.9-8.12,1.06-11.97,.26-.51,.2-1.18-.33-1.63-1.39-1.17-5.11-.13-5.75,1.63-1,2.76-.93,5.63-.87,8.51Zm-28.18-8.84l-1.29,.17c0,7.5-.02,14.99,.02,22.49,0,1.01,.26,2,1.72,1.83,1.32-.15,1.89-.71,1.81-2.12-.36-6.02-.64-12.04-.94-18.06-.08-1.57-.44-3.02-1.32-4.29Z"/><path class="cls-2" d="M352.1,255.82c15.22,0,26.32,.06,37.43-.05,2.29-.02,3.35,.64,3.83,2.94,.94,4.48,1.38,8.96,1.44,13.55,.13,10.51-.34,20.97-1.78,31.39-.22,1.59-.76,2.26-2.38,2.3-11.99,.34-23.83,2.2-35.74,3.28-6.74,.61-13.57,.76-20.43,.46-11.78-.52-23.59-.27-35.39-.19-2.57,.02-3.21-.74-3.46-3.33-1.35-14.01-2.11-28.02-1.72-42.09,.21-7.54-1.01-6.52,6.76-6.97,18.49-1.07,37.01-1.85,51.44-1.29Zm-14.41,10.26c2.78,1.15,5.63,1.56,8.43,1.92,3.05,.39,4.05,1.7,4.06,4.83,.01,8.04-.98,16-1.25,24-.09,2.78-.81,3.92-3.73,3.77-5.25-.27-10.49-.07-15.65,1.13-.78,.18-1.69,.22-1.84,1.17-.14,.89,.58,1.48,1.25,1.87,.76,.44,1.63,.72,2.49,.94,6.74,1.75,13.58,2.58,20.55,2.56,2.75,0,3.75-1.13,3.76-3.67,.06-11.88-.03-23.76,.47-35.63,.07-1.71,.17-2.63,2.13-2.51,.88,.06,2.06-.2,2.03-1.26-.04-1.24-1.33-.96-2.14-.93-6.33,.2-12.65,.46-18.98,.72-.57,.02-1.23,.02-1.57,1.1Z"/><path class="cls-2" d="M183.31,540.23c-.35,3.68,.02,8.25,2.17,12.58,.73,1.47,.62,2.76-1.68,2.4-12.12-1.93-24.28-3.63-36.35-5.85-5.33-.98-10.63-1.14-15.96-1.22-3.15-.05-5.22,2.14-7.25,4.18-1.04,1.05-1.85,2.33-2.9,3.38-4.36,4.39-7.4,4.93-12.92,2.39-.43-.2-1.13-.58-1.12-.86,.1-3.48-3.91-4.72-4.39-7.15-.81-4.1-4.13-5.2-6.4-7.55-.94-.97-1.48-2.01-1.53-3.41-.23-6.55,1.08-13.04,.72-19.59-.11-1.97,1.3-1.48,2.47-1.5,9.86-.18,19.53,1.67,29.26,2.71,10.52,1.12,21.04,2.42,31.49,4.09,7.31,1.17,14.48,3.15,21.73,4.65,2.08,.43,2.81,1.45,2.69,3.48-.12,2.07-.03,4.16-.03,7.27Z"/><path class="cls-2" d="M108.06,484.28c8.26-.68,16.09,1.92,24.09,3.21,6.76,1.09,13.61,1.24,20.36,2.24,8.1,1.21,16.33,1.36,24.36,3.07,1.41,.3,2.25,.89,2.29,2.55,.13,5.15,.3,10.3,.65,15.43,.15,2.16-.61,3.26-2.59,4.01-1.5,.57-3.92,1-3.8,2.77,.12,1.91,2.65,1.54,4.16,2.04,1.02,.34,2.16,.33,3.2,.63,1.63,.47,1.6,1.83,1.45,3.16-.16,1.41-1.07,1.29-2.18,1.16-12.57-1.5-25.21-2.56-37.71-4.51-13.58-2.12-27.35-3.03-40.75-6.34-2.07-.51-2.16-1.4-2.5-3.33-1.14-6.57-1.09-13.15-1.11-19.74q-.01-6.35,6.2-6.35c1.29,0,2.58,0,3.87,0Z"/><path class="cls-2" d="M330.93,439.22c-1.44,1.43-1.3,3.21-1.94,4.75-1.33,3.19-3.47,4.29-6.23,2.2-3.05-2.3-6.14-3.28-9.82-2.81-.19,.02-.43,.03-.59-.06-5.34-2.86-11.15-2.97-17.01-3.11-2.47-.06-4.78-1.31-6.85-2.7-2-1.34-3.36-2.85-3.18-5.77,.29-4.62-.07-9.3-.37-13.94-.15-2.31,.67-3.29,2.9-3.39,5.54-.27,11.07-.82,16.6-.83,9.24-.02,18.32-1.77,27.51-2.21,5.35-.25,10.7-.33,16.04-.04,3.33,.18,3.84,1.02,2.71,4.23-3.74,10.58-4.46,21.66-5.46,32.68-.26,2.89-.9,5.04-4.45,4.84-1.16-.06-2.53,.02-3.48,.58-2.88,1.69-3.27-.38-3.89-2.28-1.27-3.94-2.31-7.93-2.51-12.15Z"/><path class="cls-2" d="M189.75,540.61c0-4.07,.16-8.14-.05-12.19-.16-2.91,.32-3.82,3.64-3.23,8.54,1.5,17.16,2.57,25.78,3.56,3.37,.39,4.52,2.54,4.58,5.2,.19,9.02,.08,18.04,.1,27.07,0,1.69-.75,1.94-2.29,1.58-10.18-2.43-20.35-4.94-30.71-6.55-1.45-.23-1.02-1.27-1.02-2.04-.05-4.46-.02-8.92-.02-13.39Z"/><path class="cls-2" d="M36.02,534.06c0-2.38,.07-4.76-.02-7.13-.08-2.1-.3-4.15-2.83-4.98-1.28-.42-1.46-1.59-.92-2.71,.61-1.26,1.8-1.15,2.84-.74,2.68,1.08,5.53,1.47,8.3,2.18,6.39,1.65,13.07,.45,19.42,2.27,.38,.11,.79,.1,1.17,.2,5.17,1.38,6.5,2.81,5.46,8-1.26,6.31-1.05,12.61-1,18.92,.02,2.6-.84,3.46-3.43,3.43-5.15-.06-9.98-1.42-14.75-3.08-3.55-1.23-6.96-2.86-10.5-4.13-2.65-.95-3.73-2.71-3.66-5.41,.05-2.28,.01-4.56,.01-6.83h-.08Z"/><path class="cls-2" d="M348.52,234.52c-3.7,0-6.48,0-9.25,0-3.4,0-4.91-1.29-5.42-4.77-.28-1.86-.5-3.73-.58-5.6-.1-2.38-.38-4.52-2.99-5.57-1.35-.54-1.33-1.86-1.18-3.07,.19-1.53,1.42-1.39,2.5-1.45,10.56-.58,21.14-1.02,31.68-1.82,4.25-.32,8.48-.54,12.73-.54,.95,0,2.09-.25,2.45,1.08,.31,1.14-.39,1.84-1.21,2.48-.54,.42-1.06,.89-1.53,1.4-1.16,1.25-1.67,2.42,.68,2.78,1.25,.19,1.98,1,1.57,2.01-1.19,2.95-.16,6.06-.93,9.01-.37,1.42-.95,2.2-2.56,2.29-8.97,.48-17.86,2.27-25.96,1.76Z"/><path class="cls-2" d="M260.75,243.9c12.37,.25,24.65-.46,36.92,.36,12.57,.84,25.14,1.17,37.72,.33,.79-.05,1.59-.05,2.38-.07,11.2-.23,22.41-.25,33.59-.76,5.35-.24,10.69-.41,16.04-.41,4.16,0,4.9,.91,4.89,4.83,0,2.4-1.32,2.43-3.07,2.41-9.62-.09-19.22-.66-28.84-.56-11.01,.11-21.94,1.23-32.89,2.16-10.85,.92-21.74,1.83-32.66,1.37-.79-.03-1.8,.17-2.24-.53-1.65-2.65-4.2-2.63-6.82-2.51-.94,.04-1.83-.26-2.41-.98-1.91-2.35-4.46-2.66-7.24-2.59-3.87,.1-7.74,.05-11.61,.01-2.62-.03-2.62-.06-3.76-3.06Z"/><path class="cls-2" d="M324.44,330.13c12.65,1.75,25.48,.75,38.16,2.33,1.58,.2,2.46,.69,2.28,2.34-.16,1.52,.78,3.52-1.83,4.01-4.14,.78-8.33,.55-12.46,.31-13.45-.78-26.85-2.45-40.36-2.06-1.16,.03-2.51,.3-3.28-.89-.7-1.07-1.32-2.33-.91-3.63,.49-1.53,1.96-1.17,3.06-1.08,5.18,.43,10.1-2.17,15.33-1.31Z"/><path class="cls-2" d="M343.05,182.09c4.14-.23,8.27-.57,12.41-.65,5.73-.11,11.47-.03,17.16-.88,.49-.07,1.02-.34,1.4,.08,.51,.58,.03,1.12-.29,1.58-.56,.81-1.13,1.62-1.78,2.37-1.75,2.01-2.32,4.03-.62,6.42,.85,1.19,1.66,2.52-.69,3.43-1.19,.45-.87,2.08-.91,3.25-.04,1.42-.62,2.27-2.13,2.26-2.67-.02-5.36,.09-8.01-.15-2.08-.19-3.37-1.35-4.97-3.08-2.35-2.54-2.76-7.42-7.63-7.55-1.34-.04-1.72-1.56-1.82-2.75-.14-1.7-.74-3.05-2.12-4.33Z"/><path class="cls-2" d="M167.53,364.86c-3.27,0-6.55,.16-9.81-.04-3.61-.22-6.09-1.65-5.5-5.64,.16-1.07,.02-2.18,.02-3.27,0-5.79,0-5.84,5.94-5.62,6.24,.23,12.48-.1,18.72,.48,2.33,.22,3.17,1.27,3.25,3.29,.11,2.97,.11,5.94,.16,8.91,.03,1.64-1.03,1.93-2.37,1.92-3.47-.01-6.94,0-10.41,0v-.03Z"/><path class="cls-2" d="M150.54,427.94c-1.33,7.61,.46,15.45-1.69,23.02-.36,1.28-.55,1.8-2.08,1.6-5.84-.74-5.85-.67-5.86-6.75,0-2.77-.07-5.55,.02-8.32,.07-2.08-.46-3.85-1.73-5.53-1.68-2.21-1.7-7.87-.29-10.21,.73-1.22,1.73-1.09,2.84-.9,1.95,.34,3.91,.92,5.86,.9,2.44-.02,3.18,1,2.94,3.23-.1,.98-.02,1.98-.02,2.97Z"/><path class="cls-2" d="M184.55,320.59c3.06-2.15,2.92-5.14,2.85-8.17-.04-1.61-.42-2.85-1.8-3.81-.75-.52-2-1.2-1.42-2.29,.64-1.21,1.97-.54,2.95-.24,4.83,1.45,9.64,2.98,14.62,3.87,6.71,1.2,13,3.9,20.15,5.27-12.67,2.21-24.83,4.45-37.34,5.37Z"/><path class="cls-2" d="M285.33,484.14c-2,1.55-1.71,3.47-1.64,5.63,.3,9.1,.54,18.22-.24,27.32-.05,.58-.04,1.45-.83,1.27-1.39-.32-3.08-.43-3.6-2.16-.31-1.03-.5-2.15-.49-3.22,.05-5.16-.98-10.26-.72-15.42,.05-1.07-.2-2.16-.32-3.24-.28-2.37-1.64-3.09-3.99-3.44-7.16-1.06-14.13-3.16-22.11-4.05,3-2.76,5.7-2.14,8.17-1.5,5.56,1.43,11.08,3.01,16.72,4.1,1.8,.35,2.81,0,3.19-1.95,.9-4.59,.95-4.58,5.86-3.34Z"/><path class="cls-2" d="M169.86,482.86c-8.56,.53-16.3,.6-24.12-.45-14.8-1.98-29.54-4.5-44.51-5.23-4.28-.21-8.61-.81-12.75-2.28,8.09-.34,16.17-.42,24.24,.13,8.89,.61,17.64,2.6,26.58,2.73,2.41,.04,4.68,.85,6.95,1.5,6.04,1.74,12.23,2.4,18.48,2.62,1.49,.05,2.95,.2,5.12,.97Z"/><path class="cls-2" d="M296.85,390.9c0-1.38,.21-2.81-.05-4.14-.43-2.17,.07-2.69,2.22-1.96,4.2,1.41,8.48,2.58,12.64,4.17,2.17,.83,3.38,1.95,4.07,4.1,1.32,4.12,.52,5.07-3.72,4.82-4.13-.25-8.3-.29-12.43,0-2.26,.16-2.83-.52-2.7-2.54,.1-1.47,.02-2.96,.02-4.44h-.05Z"/><path class="cls-2" d="M137.02,332.23c15.96-2.93,32.64-5.27,49.84-4.78-.96,1.04-2.16,1.17-3.2,1.56-.82,.31-1.95,.32-2.12,1.34-.2,1.2,1.05,1.2,1.78,1.62,.75,.44,1.49,.91,2.17,1.67-16.47,.2-32.83-1.69-48.48-1.4Z"/><path class="cls-2" d="M153.8,399.08c0-.49,.04-.99,0-1.48-.25-2.4,.66-3.19,3.08-2.61,6.42,1.54,12.93,1.33,19.45,.7,2.45-.24,3.68,.51,2.77,3.16-.64,1.86,.13,4.49-1.48,5.55-1.78,1.17-3.46-1.18-5.31-1.66-2.54-.65-5.07-.85-7.54,.11-1.68,.66-3.42,.99-5.17,1.21-5.45,.71-5.79,.38-5.79-4.99Z"/><path class="cls-2" d="M307.45,369.46c0-2.38,.04-4.75-.01-7.13-.03-1.59,.64-2.15,2.18-1.83,.87,.18,1.76,.24,2.64,.38,6.66,1.06,6.76,1.08,5.45,7.72-.59,2.99-1.81,5.86-2.52,8.83-.52,2.19-1.86,2.65-3.73,2.24-1.9-.41-4.09-.58-4.04-3.39,.04-2.28,0-4.55,0-6.83h.03Z"/><path class="cls-2" d="M201.1,507.65c0,1.46,.05,2.16-.01,2.84-.09,.98-.74,1.34-1.65,1.28-.82-.05-1.24-.53-1.3-1.33-.02-.29,0-.59-.02-.89-.03-1.33,1.15-2.99-.16-3.91-1.49-1.05-3.38-1.58-5.15-2.19-1.39-.47-1.75,.38-1.61,1.6,.15,1.37,.32,2.74,.39,4.11,.05,.8-.04,1.72-1.12,1.75-.88,.02-1.51-.62-1.67-1.44-.21-1.05-.24-2.15-.3-3.23-.1-1.92,.37-3.94-1.83-5.24-.94-.56-.62-1.8-.13-2.71,.59-1.1,1.51-.78,2.3-.31,3.82,2.27,7.63,4.56,11.42,6.89,1.37,.85,.8,2.3,.85,2.76Z"/><path class="cls-2" d="M219.13,289.54c1.26,.06,1.96,.04,2.64,.14,.84,.12,2.01-.4,2.46,.48,.46,.91-.79,1.12-1.24,1.69-1.11,1.41,.23,1.3,1.03,1.47,1.37,.31,2.8,.57,1.24,2.39-.61,.72-.15,1.16,.28,1.77,.9,1.27,1.36,3.25-.14,3.75-1.55,.52-4.64,.4-4.83-1.55-.3-3.06-2.9-4-4.08-6.13-.64-1.15-2.43-2.02-1.57-3.48,.69-1.18,2.37-.38,3.6-.52,.39-.04,.79,0,.61,0Z"/><path class="cls-2" d="M156.81,461.11c-1.9,2.3-5.23,2.49-6.47,5.52-.34,.84-1.78,.48-2.77,.3-4.08-.74-8.17-1.45-12.25-2.15-.7-.12-1.62-.16-1.8-.83-.82-2.97-3.39-2.89-5.63-3.52,9.6,.66,19.1,5.04,28.92,.67Z"/><path class="cls-2" d="M320.19,354.28c.29,2.32-.48,3.26-2.85,2.29-2.17-.89-4.48-.73-6.76-.69-2.89,.05-2.45-2-2.37-3.74,.1-2.34,1.68-1.4,2.79-1.06,2.15,.65,4.33,.49,6.5,.46,1.99-.03,3.08,.61,2.69,2.75Z"/></g></g></g></svg>