<?xml version="1.0" encoding="UTF-8"?><svg id="forest-front" xmlns="http://www.w3.org/2000/svg" viewBox="0 0 2265.51 1528.98"><defs><style>.cls-1{fill:#924d25;}</style></defs><g id="GqfCkQ.tif"><g><path class="cls-1" d="M2265.51,546.57v982.41H261.41c0-236.26,0-472.52,0-708.78,1.92-.66,3.84-1.32,5.57-1.91,2.05,4.71-.7,8.91-.33,15.01,6.22-6.6,8.86-13.37,11.12-20.46,2.49,2.88-.52,6.74,4.91,10.2-2.5-18.35,2.26-33.95,10.08-50.61,.86,7.66,5.81,13.01,4.57,19.77-1.19,6.52,4.17,12.25,1.66,18.77-.13,.33,.96,1.48,1.66,1.72,3.79,1.3,2.33,4.07,1.31,5.97-2.36,4.41-6.44,8.6,1.3,11.93,.75,.32,.86,2.4,1.04,3.7,.22,1.67,.6,3.24,2.54,3.37,4.79,.32,3.08,3.54,3.25,6.3,.19,3.18-3.41,4.45-3.56,7.25,2.52,1.14,6.01-.93,6.78,2.31,.71,2.99-2.35,3.83-4.49,4.95-2.51,1.31-1.96,2.56-1.16,5.22,1.99,6.6,5.89,13,4.48,20.27-.91,4.7,.81,7.01,5.24,8.16,.57-9.23,6.49-28.26,11.76-36.74,.4,7.7,5.13,13.06,4.28,20.01-.7,5.64,5.25,9.89,10.66,7.63,1.45-.61,2.78-1.56,2.42-3.52-.34-1.8-1.19-2.79-3.25-2.2-1.6,.45-4.1,.1-3.66-1.5,1.33-4.82-1.82-10.62,.03-13.73,3.36-5.63-1.18-5.23-3.23-7-1.64-1.41-4.38-.54-5.86-2.76,1.31-1.46,7.9,1.12,3.32-4.44,6.3,0,10.78-3.7,9.54-8.13,1.63-.66,6.21,3.27,4.75-2.59-1.79-7.2-3.14-14.32,1.03-21.34,1.5-2.52,1.52-5.47-.1-8.29-1.49-2.61-1.94-5.53-.63-8.33,3.85-8.21,7.83-16.37,12.01-25.08,2.26,4.52,1.99,10.57,9.02,9.7-.26,4.21-.19,8.22-.84,12.1-.79,4.78,.2,6.65,6.44,2.74-3.64,9.17,3.14,14.34,4.37,21.33,1.24,7.04,3.54,8.32-.07,14.61-.75,1.31-3.52,1.72-2.23,4.09,2.89,1.01,4.37-2.81,7.09-2.27,.13,2.98-4.02,3.85-2.74,6.7,1.44,3.22,4.93-.2,7.45,1.99-3.02,1.1-5.65,2.21-7.77,4.19-1.78,1.66-1.93,3.57,.64,3.77,4.98,.39,7.53,5.62,12.94,5.01-2.21,3.03-5.22,.53-7.54,2.54,6.67,4.87-3.18,6.62-1.78,10.64,2.09,1.79,4.87-1.33,6.92,1.09-2.12,2.2-.63,5.24-2.16,7.14,3.5,2.19,5.53-1.56,8.75-1.25-.8,6.76-8.91,6.1-11.03,11.63,4.52,2.03,8-2.41,12.78-2.43-1.57,2.8-2.64,5.03-5.58,5.01-3.22-.03-4.41,2.08-5.62,4.49,2.12,1.15,4.18,1.72,6.01,.68,7.26-4.15,12.12-1.51,15.72,5.19,.1,.19,.28,.34,.42,.51-1.68,.78-3.81,2.34-2.23,3.81,3,2.77,1.31,6.63,3.3,10.77,2.33-3.2,3.15-7.11,8.31-6.46-2.25-2.13-3.49-3.31-4.73-4.48,3.53-2.26,7.32,.15,10.95-.6,1.63-.34,3.01-.87,3.63-2.5,.43-1.13,.07-3-.7-2.93-9.92,.89-5.52-5.72-5.42-10.08,.07-3-2.7-6.3,1.05-8.96,.39-.27,.23-2.25,.01-2.31-5.27-1.44-6.21-6.11-7.8-10.24,5.83-.79,9.98-4.86,14.75-7.69,1.54-.91,.54-2.29,.19-3.55-2.04-7.41-2.98-14.77,.66-22.08,1.58-3.17,1.82-6.37-.09-9.86-1.17-2.14-1.54-4.89-.84-7.69,2.47-9.86,10.08-17.03,13.24-28.41,1.51,5.81,2.6,11.64,6.04,11.64,5.17,0,3.12,2.71,3.19,4.63,.08,2.41-.32,4.84-.58,7.26-.25,2.3-2.05,5.12,.77,6.62,2.92,1.56,1.17-4.12,4.44-3.31,.58,9.64,4.05,18.19,10.04,25.78,2.26,2.86,4.19,4.19,8.23,2.56,4.4-1.77,9.56-3.3,14.08-2.67,3.88,.54,7.7,2.42,11.93,2.68,1.99,.13,3.99,1.57,4.87-1.19,.69-2.18-.53-3.78-2.63-4.75-2.4-1.1-5.45-1.93-5.96-4.84-1.17-6.63-4.26-5.47-8.28-2.61-1.13,.8-2.3,2.28-4.37,1.13-1.42-2.99-1.41-6.73-5.81-8.65-3.67-1.59-2.24-9.57,1.59-11,2.26-.84,3.44-2.51,4.85-4.28,2.99-3.75,10.44-4.43,13.47-1.55,1.21-.45,.43-1.47,.66-2.15,2.24-6.64,.79-10.29-6.73-12.41-3.5-.98-7.79-5.3-5.37-11.03,3.56,.31,2.7-.49,5.31-3.27,2.54-2.71-1.21-5.02,.98-6.99,2.45-2.21,14.16-2.56,17.13-.54,3.01,2.05,8.13,4.32,8.92,.22,1.92-10.03,9.75-18.03,9.19-28.71-.08-1.49,.36-3.22,2.35-3.56,1.04-.17,2.74-.51,2.77,.84,.12,4.54,6.03,4.65,6.19,9.16,2.71-7.02,9.98-11.43,9.29-19.66-.11-1.27,1.06-2.46,2.68-2.41,1.02,.03,2.69-.4,2.68,1.11-.01,4.42,4.95,6.92,4.23,11.61-.18,1.17-.14,3.33,1.24,3.5,8.4,1.04,3.58,5.43,2.48,8.98-.84,2.74-1.5,5.54-2.19,8.33-.46,1.87,.48,3.17,2.19,3.48,2.38,.44,1.38-1.36,1.53-2.57,.31-2.41,2.47-3.3,3.64-1.56,3.09,4.6,4.5,12.77,2.35,14.94-4.58,4.63-3.67,12.02-9.54,15.41-2,1.16-2.16,3.64-1.33,6.03,1.09,3.1,3.1,1.94,5.35,1.84,3.51-.15,7.11,.35,10.58,1.03,4.2,.83,5.31,4.69,2.62,7.99-4.16,5.11-8.11,10.33-13.4,14.47-3.91,3.06-2.16,8.89,2.77,10.42,1.9,.59,3.88,.92,5.82,1.37,1.61,.38,4.09-.66,4.54,1.63,.4,2.07,.15,4.48-1.89,6.02-1.38,1.04-2.97,1.85-4.19,3.04-2.52,2.44-5.4,5.47-4.25,8.91,1.07,3.21,5.06,3.01,8.22,2.96,.44,0,.92,.04,1.33-.09,5.86-1.91,9.36,.1,10.61,6.19,1.18,5.74,5.68,3.58,9.21,3.71,4.48,.17,4-3.43,4.3-6.04,.82-7.07-1.06-14.01,.32-21.35,2.19-11.67,9.79-21.37,10.94-33.58,1.23,9.76,8.7,17.83,5.93,28.28-.52,1.96-2.02,6.25,.32,6.28,5.13,.06,2.65,3.13,2.66,4.88,.01,2.64-.63,5.29-1.04,7.92-.29,1.85-.61,3.95,2.05,3.89,4.36-.1,3.24,2.63,2.82,4.96-.64,3.59-2.36,6.65-4.85,9.34-2.29,2.48-2.77,4.68,1.41,5.69,2.54,.61,4.74,1.92,4.97,4.71,.36,4.32,.34,8.44,6.58,8.3,1.62-.03,1.16,2.39,1.27,3.95,.37,5.12-2.83,8.75-5.76,12.8,1.43,.28,2.06,.5,2.7,.51,2.53,.04,6-1.41,6.84,2.08,.83,3.42-2.31,4.9-5.07,6.04-4.37,1.81-7,3.88-1.42,7.57,1.78,1.18,1.05,3.07,1.29,4.79,.57,4.01,.37,8.78,5,10.26,2.04-7.29,4.71-13.94,4.4-21.41-.3-7.49,4.59-13.64,7.43-21.23,4.77,10.96,7.07,27.55,5.53,37.82-.19,1.3,.94,1.87,1.26,2.73,1.93,5.22,11.14,7.51,6.35,15.46-.15,.24,.1,1.06,.35,1.15,9.08,3.59-.5,4.75-.86,7.14,1.5,.59,3.11,1.11,4.63,1.83,1.49,.71,3.17,1.24,4.4,.16,1.69-1.47,.5-3.28-.26-4.86-.48-1-1.23-1.88-1.62-2.91-1.99-5.32-7.95-10.29-1.44-16.47,.43-.41-.28-2.64-1.04-3.56-3.4-4.13-.59-7.42,1.29-10.77,2.56-4.55,9.37-7.44,5.44-14.47-.23-.42,.08-1.69,.39-1.79,5.81-1.81,4.72-7.01,4.07-10.58-2.72-15,5.98-26.83,10.5-40.03,1.16,7.7,8.87,14.19,3.54,22.97-.62,1.02-1.37,3.43-.28,3.59,6.95,1.03,2.2,5.33,2.4,8.1,.14,1.99-2.08,5.02,1.24,5.52,4.8,.72,2.82,3.39,2.49,5.82-.5,3.64-4.37,5.42-5.24,8.91,2.47,1.89,5.4,2.6,6.07,6.1,.99,5.14,1.27,5.09,6.94,4.95-3.37-6.03-3.13-12.43,.54-14.29q7.24-3.67,2.34-9.85c-.81-1.03-1.37-2.26-2.13-3.34-2.05-2.93,1.09-4.14,1.58-6.14,2.4,.27,2.79,3.42,5.64,2.71,2.35-4.23-.67-8.95,.52-13.31,2.03-.42,4.79,1.9,5.61-.36,1.23-3.37-1.44-6.12-2.93-8.18,7.78-7.94,8.32-19.17,13.19-28.31,2.13,1.48,2.04,3.36,2.41,5.07,.44,2.06,.24,5.35,3.3,4.67,2.87-.64,.91-3.73,1.37-5.6,.49-2.02-2.32-5.46,.21-5.4,4.35,.09,3.45-3.78,5.3-5.25,1.73,.9,1.71,3.82,4.03,3.26,2.41-.58,2.27-3.03,2.75-4.89,.73-2.87-1.33-7.22,1.98-8.47,5.11-1.92,5.92-4.81,4.97-9.53-.31-1.55,.36-4.49,1.35-4.89,5.31-2.15,6.3-6.69,7.63-11.38,.39-1.37,.88-4.19,4.02-3.21,2.82,.88,1.64,2.72,1.32,4.28-.58,2.88,.91,6.2,3.04,5.5,4.77-1.57,4.89,1.92,6.29,4.2,2.98,4.87,4.8,11.35,9.07,14.29,4.64,3.19,3.86,6.87,5.03,10.72,1.94,6.42-1.96,11.53-4.05,18.55,4.88-4.18,6.87-8.41,9.13-12.45,.68-1.21,.9-3.32,3.2-2.42,1.79,.7,3.04,1.65,2.12,3.98-.59,1.51-.67,3.21-1.04,5.16,4.51-3.92,3.72,2.43,6.38,2.97,1.77,.36,1.7,5.03-.4,7.02-6.28,5.95-9.06,14.28-15.07,21.13,8.59-.23,8.39-11,15.17-12.09,4.98,6.04-5.23,15.46,5.41,20.3-1.43,6.33-3.9,12.46-10.77,15.97-1.92,.98-4.88,1.88-4.01,5.29-5.53,1.42-11.82,1.23-16.55,7.92,6.97-1.99,12.37-3.67,16.56-7.9,7.87-2.47,14.33-8.69,24.39-9.29-4.32,5.71-7.89,10.42-11.44,15.15-.97,1.29-.52,3.49-3.08,3.78-7.5,.83-5.28,6.01-5.13,11.16,4.22-1.84,6.22-4.72,8.31-7.54,3.95-5.33,8.61-9.56,15.89-8.61,3.04,.4,4-2.02,3.68-3.51-1.29-6.04,2.72-10.24,4.5-15.2,.34-.93,.05-3.03,0-3.03-5.65-.19-3.07-6.03-5.71-8.29-1.08-.93-1.07-2.56,.31-3.43,1.49-.95,3.37-.81,3.9,.99,1.45,4.94,4.81,2.68,7.31,2.9,1.37-2.95-3.33-6.69,1.16-7.75,6.83-1.61,3.37-6.73,3.87-10.05,.51-3.46-.07-8.56-5.1-8.64-7.34-.12-8.87-7.14-11.67-10.81-2.54-3.33,.44-10.86,1.07-17.34,11.72,11.57,24.18,3.42,24.92-8.42,.17-2.64-.02-5.67,2.58-8.34,2.59,3.63,2.32,7.52,3.18,11.09,1.28,5.32,4,11.31,9.17,11.82,5.92,.58,12.59,1.14,17.56-.88-1.81-9.48-10.84-9.18-16.65-13.42-.71-.52-1.44-1-2.2-1.43-1.26-.71-3.39-.85-2.55-3.06,.59-1.56,2.4-1.05,3.54-1.49,9.33-3.55,20.09-.1,28.86-6.06,.54-.37,2-.22,2.45,.24,4.16,4.35,8.22,2.28,13.18-.47-5.91-3.08-12.16-4.14-17.74-4.51-5.5-.37-9.95-8.05-16.1-2.38-.05,.05-.9-.46-.94-.76-.62-5.51-5.54-5.56-8.96-5.95-5.38-.61-5.46-4.5-5.25-7.6,.24-3.51,3.59-2.21,6.22-2.48,3.69-.38,7.9,2.62,11.51-2.78,1.53-2.29,8.19-3.85,12.17-4.03,6-.28,6.31-2.45,5.17-6.87-.53-2.04-.94-4.18,1.36-5.21,1.86-.83,3.95-2.46,6.04-.09,2.2,2.48,4.39,1.65,6.25-.43,1.61-1.81,3.52-1.56,5.52-1.27,2.35,3.69,.68,12.24,9.55,8.26-.19-6.62-4.91-7.41-9.63-8.19-.2-5.79,1.15-11.96-4.67-16.24-1.57-1.15-1.11-3.41,.7-3.58,3.73-.36,8.06-3.74,9.77-3.21,7,2.18,14.52,3.1,21.05,6.25,4.02,1.94,4.98,2.1,5.26-2.3,.09-1.51-.03-3.46,1.85-3.88,2.03-.45,2.41,1.46,2.99,2.88,.42,1.02,.79,2.14,2.28,1.84q1.94-3.81-.44-10.3c-1.64-4.45,1.21-11.9,4.37-11.01,2.94,.83,5.58,.31,7.87-.11,1.91,2.62-.61,3.67-.79,5.26-.21,1.88-1.51,3.7-.78,5.32,3.2,2.52,6-3.83,8.62,.05,1.58,2.34,2.21,5.33,3.26,8.03,1.04-1.09,1.49-2.17,1.13-2.71-4.41-6.57-.74-6.78,4.95-8.43,7.2-2.09,14.55,.02,21.59-2.61,2.48-.92,6.92-.88,8.09,2.74,1.45,4.51,2.84,8.94,5.62,12.82,7.96-5.59,17.94-2.52,21.05,6.52,.61,1.78,1.47,2.75,3.52,3.4,4.74,1.51,11.21,.91,10.81,9.38-.11,2.22,3.15,7.38,8.38,3.77,2.05-1.41,13.65,1.72,13.63,3.47-.06,5.7,4.4,5.7,7.82,6.16,4.49,.61,7.83,2.61,10.39,6.06,.82,1.11,1.25,2.25,2.94,2.05,2.8-.33,4.88,.29,4.65,3.8-.21,3.24-1.3,4.98-5.02,5.71-2.97,.58-8.11-.81-8.14,5.25,0,1.8-1.78,1.35-3.13,.89-1.66-.56-4.2-1.89-4.95-1.25-5.61,4.84-12.85,3.88-19.21,5.9-1.09,.34-2.24,.73-2.33,2.02-.12,1.7,1.44,1.91,2.54,2.61,4.7,2.97,10.32,3.47,15.29,6.1,4.87,2.58,5.87,6.87,5,10.11-.83,3.08-3.62,6.28-8.78,7.17-3.7,.64-9.52-2.68-11.9,3.32-5.54-1.97-10.11,4.8-16.74,.97-3.4-1.96-9.87-4.79-14.36-1.67-6.12,4.26-10.25,1.98-14.51-2.2-1.84-1.81-3.76-2.16-6.05-1.09-3.13,1.47-6.27,2.9-9.33,4.31,1.67,3.42,5.17,1.33,7.31,3.31-2.38,1.17-4.46,.92-6.29,.31-11.3-3.81-18.93,4.1-27.45,8.73-3.19,1.73-3.26,5.37,1.09,5.99,6.08,.87,12.38,1.4,18.46,.79,7.25-.73,14.57-4.31,20.24,3.57,.99,1.38,3.09,1.4,4.36,.7,7.2-3.99,6.82,.46,6.19,6.16,2.36-5.92,6.53-9.07,11.49-11.37,.18-.08,.23-.39,.4-.52,2.58-2.01,1.23-8.08,8.07-6.18,3.19,.89,7.32-.78,10.14,2.7,2.92-4.66,11.66-9.02,18.27-8.81,4.09,.13,8.01-.81,12.51,1,3.06,1.23,8.78-2.06,12.28-4.7,2.71-2.04-1.05-5.64-.97-8.59,4.84-1.57,6.92,1.22,8,5.09,1.15,4.15,2.32,7.94,6.78,10.02,2.32,1.08,2.37,4.17,2.36,6.51-.01,2.83-.67,5.66-1.18,9.45,8.32-2.62,8.7,2.3,8.53,8.1-.08,2.79-.18,6.34,2.64,7.76,3.13,1.58,3.27-2.8,4.72-3.57,5.66,4.66,8.2,10.16,6.08,17.46-.66,2.28,1.43,4.46,3.44,6.08,2.64,2.12,3.06,5.05,1.39,7.76-5.45,8.83-9.53,18.65-18.04,25.32-.66,.52-2.02,1.08-.88,2.72,7.81-6.01,13.38-14.58,22.5-18.71,3.73-1.69,5-3.67,3.2-7.75-.91-2.06-2.91-6.11,.61-6.77,4.79-.89,2.82-3.48,2.74-5.79-.12-3.26-2.56-8.43-.06-9.36,4.92-1.82,2.51-4.66,2.07-6.76-1.95-9.47,3.86-16.96,5.98-25.68,.59,11.52,8.19,20.44,9.88,31.54,1.16,7.59-1,14.89,.44,22.27,.33,1.7-.34,4.41,1.72,4.54,6.05,.39,2.86,3.8,2.5,6.38-.32,2.28-2.52,4.25-1.17,6.93,2.36-.62,5.97-3.9,5.03,2.29-.25,1.64,.64,2.46,1.85,3.7,3.11,3.2,7.01,6.62,3.34,12.03-1.08,1.59-3.88,4.29-1,5.49,5.1,2.11,2.68,5.33,2.19,8.25-.74,4.46-3.35,8.15-5.54,11.99-1.16,2.04-1.64,4.45-.08,6.25,1.58,1.83,3.68,.64,5.48-.33,.79-.42,1.61-.8,2.32-.07,1,1.55-.84,2.47-.65,3.86,1.83,.24,2.65-3.39,5.22-1.22-.33,1-.86,2-.97,3.04-.8,7.16-5.5,13.53-3.74,21.37,.44,1.98,5.41,3.4,1.31,6.4-4.4,3.21-4.32,7.43-2.11,11.95,2.56,.12,5.33-2.06,7.64,.12,1.35,1.28,.03,2.89-.76,4.21-2.02,3.35-6.57,6.87,.72,9.59,.23,.08,.16,1.73-.19,2.45-2.34,4.82,.36,11.08-4.49,15.29-.86,.75,.21,2.89,.25,4.15,.18,5.81,7.94,11.93-1.03,16.96,10.9,8.51,10.91,11.45,.89,16.03-1.67,.76-5.44,.43-3.95,3.81,1.15,2.61,4.25,3.73,6.87,2.22,4.18-2.41,6.02-1.34,6.64,3.18,.21,1.52,2.74,1.65,2.46,3.62-10.03,2.06-20.5,9.07-23.8,15.92q13.93,1.94,18.96-10.65c2.95,2.86,3.01,6.5,3.18,9.92,.24,4.76,2.97,8.5,6.63,9.99,8.42,3.42,15.39,8.6,22.1,14.69-4.22-5.31-7.08-11.29-10.36-17.02-2.27-3.96-3.34-7.47-.13-10.88,3.02-3.2,3.09-6.47,2.29-10.43-.38-1.89-2.21-5.28,2.59-5.49,1-.05,1.88-2.74,2.88-4.34,2.17,1.14,5.79,7.15,6.32,0,.72-9.76,7.6-16.63,9.62-25.91,2.04-9.36,8.23-17.84,9.38-27.86,.03-.23,.7-.38,1.34-.7,.47,.68,1.23,1.31,1.39,2.08,3.63,16.82,10.01,32.21,22.61,44.5,.75,.74,.35,2.58,.66,3.86,1.61,6.72,.68,13.23-2.04,19.68,3.54-1.83,4.94-5.06,6.18-7.93,1.77-4.12,4.47-4.81,8.24-4.13-1.76,4.17-3.51,8.34-5.27,12.51,2.93-6.43,9.53-2.61,13.74-5.15-3.17-2.03-4.02-5.95-6.73-8.41,8.74-3.6,1.11-7.88,.46-12.14,9.06-2.24,2.21-8.58,3.12-13.4,9.57,.93,12.69,10.98,21.12,15.05-.54-4.19,1.4-7.88-2.72-9.76-7.66-3.5-9.6-11.47-16.14-18.23,14.35,1.85,23.1,12.26,35.82,14.75-.85-3.28-2.49-2.79-3.6-3.33-9.11-4.42-18.74-8.28-22.09-19.27-.41-1.34-1.86-3.84-.09-4.02,6.76-.68,3.39-5.29,3.58-8.35,.19-3.2-1.56-6.46,.21-9.92,6.17,1.73,6.81,10.02,13.33,11.16-5.04-3.63-4.11-10.74-9.17-14.51-4.34-3.24-6.48-7.64-1.85-13.07,1.19-1.39,3.09-3.87,2.3-6.59-.67-2.3,1.37-2.63,2.6-3.14,1.84-.76,2.06,1.21,2.62,2.24,2.08,3.81,3.91,7.78,7.67,10.47-1.71-5.49-3.16-10.61-3.01-16.62,.17-6.53,4.96-9.51,7.87-12.99,3.8-4.56,3.35-13.46,12.2-13.64,1.51-.03,1.98-2.16,1.93-3.85-.05-1.7-.7-3.98,2.05-3.99,2.02,0,3.3,1.88,3.49,3.53,.8,7.06,11.11,10.36,7.52,19.13-.1,.25,.72,1.19,1.24,1.33,5.1,1.41,4.93,5.52,5.25,9.58,.14,1.84,.85,5.35,2.82,4.38,5.33-2.63,8.17,2.9,12.49,2.83-5.65,2.72-4.08,7.38-3.4,13.17,4.43-6.33,7.93,2.4,12.04-.68,.67-4.25-3.48-6.23-4.55-9.66,2.61,.23,5.05,1.77,9.36,.8-5.32-3.16-1.44-11.92-10.71-12.18,4.71,.31,7.14-2.86,10.32-4.59,1.47-.8,3.95-.42,3.94-2.74-.02-2.25-2.27-3.02-3.96-4.08-1.12-.71-3.08-.36-3.52-2.71,4.2,.37,8.62,.95,6.06-5.4,1.9-.88,3.67,1.31,5.62-.65-3.52-3.41-5.54-7.79-6.84-12.43-1.43-5.09,7.6-6.1,3.29-13.51,2.46,2.18,3.2,2.84,4.25,3.76,.97-5.42,.34-10.79,2.06-15.64,2.14-.49,1.93,2.95,3.93,1.86,1.72-.93,1.39-2.64,1.1-4.17-.77-4.1-2.23-11.29-.25-11.78,6.63-1.66,5.8-7.24,8.12-12.15,1.64,4.94,1.98,9.71,4.46,12.74,6.28,7.68,9.82,15.37,5.64,25.24-.58,1.37-.03,3.67,.79,5.08,2.1,3.66,1.71,7.55,2.31,11.4,.68,4.36-2.39,7.56-1.63,11.27,1.46,2.08,3.43-.98,4.69,.59,.32,1.75-2.17,2.64-.63,4.8,4.32-3.06,6.71,1.91,9.85,3.22,3.05,1.26,2.38,2.86,5.38,2.74,1.56-.06,3.13,.04,4.66-.17,7.72-1.03,8.09-2.02,3.96-8.36-2.02-3.1-5.13-8.29-1.83-10.01,5.02-2.6,3-5.49,2.88-8.69-.09-2.41-.93-6.8,.27-6.9,5.61-.45,2.64-4.09,2.25-5.81-2.15-9.47,2.9-17.45,4.95-26.03,.04-.16,.78-.16,1.52-.3,1.69,5.82,2.93,11.73,5.3,17.48,3.24,7.85,6.1,16.27,4.18,25.51-.98,4.72-1.73,12.59,2.06,14.19,5.64,2.38,2.67,4.71,2.26,7.37-.32,2.1-2.07,3.96-1.01,6.71,2.91-1.77,5.68-2.83,5.26,2.35-.12,1.45,.94,2.14,1.86,3.16,3.5,3.86,7,7.91,2.39,13.45-1.04,1.25-3.26,4.24-.62,4.79,5.5,1.15,3.17,4.59,2.66,7.08-.72,3.54-2.28,6.9-3.55,10.54,10.13-1.7,10.73-2.41,9.42-10.8-.21-1.33-.62-3.35,.64-3.61,5.63-1.16,2.9-4.78,2.7-7.78-.12-1.81-2.04-4.65,.54-5.24,3.64-.83,2.41-2.96,1.63-4.35-4.6-8.12,3.13-13.61,3.75-20.66,1.47,2.79,2.11,5.54,2.84,8.26,.77,2.87,2.39,3.84,5.48,2.97,6.76-1.91,6.82-2.23,2.87-8.55-2.01-3.22-5.61-7.96-1.55-10.47,4.04-2.48,2.9-4.68,2.6-7.58-.29-2.83-1.77-7.54,.24-8.11,4.65-1.32,2.57-3.9,2.16-5.99-1.84-9.41,3.41-17.12,5.58-25.68,1.67,3.87,2.45,7.71,3.41,11.51,.59,2.35,2.04,4.03,4.71,3.86,2.48-.16,4.2-1.47,4.61-4.01,.55-3.49,1.59-7.07,1.3-10.51-.59-6.81,2.55-9.24,8.81-9.42,2.97-.09,6.72,.34,7.41-3.93,.94-5.79,4.57-6.08,9.31-5.41,3.25,.46,7.53,.97,8.97-2.56,1.54-3.78-1.92-6.26-4.77-8.41-3.04-2.3-5.72-4.79-4.41-9.04,2.91-.55,5.6-1.7,8.09-1.38,4.8,.62,4.27-3.63,5.83-5.75,1.68-2.27-1.26-4.29-2.34-4.7-3.41-1.31-3.84-5.45-7.66-6.81-1.62-.57-4.76-5.09-5.45-8.04-1.51-6.52,4.69-6.1,8.24-6.28,3.27-.17,5.41-.96,4.14-3.78-2.11-4.66-1.35-9.97-3.16-14.14-2.58-5.93-.75-10.79,.43-16.11,.25-1.15,.4-2.23,1.85-2.26,1.27-.02,2.1,.57,2.26,1.92,.16,1.31,.14,3.05,2.19,2.23,1.81-.72,1.69-2.14,.96-3.85-1.12-2.62-.82-5.65-2.62-8.17-1.32-1.85-1.31-5.98-.43-6.17,5.7-1.23,4.09-6.33,5.98-9.51,2.02-3.4,3.62-9.59,10.01-2.58,2.74,3.01,7.65,6.94,13.38,6.26,3.12,1.35,3.37,4.28,3.94,7.07,.23,1.12,.84,2.26,2.1,2.14,1.76-.16,1.52-1.64,1.62-2.98,.46-5.96-3.63-6.03-7.74-6.15,.25-7.2-7.53-10.35-9.14-17.37,12.5,1.39,20.83,11.63,32.68,12.91-7.29-2.34-12.47-7.87-18.72-11.69-4.08-2.49-4.75-6.78-6.04-10.73-1.19-3.65,2.42-2,3.5-3.1,.55-.56,.04-2.06,.29-3.06,1.25-5.04-1.9-10.16-.19-15.4,6.58,2.42,7.23,11.02,15.38,12.65-2.3-3.53-6.21-4.79-6.25-7.94-.04-3.78-2.7-5.34-4.69-7.54-6.08-6.72-6.12-7.65,0-15.04,.89,1.01,1.7,2.02,2.6,2.95,.95,.98,1.19,2.91,3.29,2.62-6.64-9.85-6.71-10.51-1.41-13.57,2.63,4.49,4.35,9.64,9.92,14.21-1.01-2.74-1.21-4.09-1.92-5.1-4.27-6.06-3.77-14.09-.52-18.35,5.08-6.64,9.46-13.56,13.67-20.69,.46-.78,.99-1.61,2.05-1.14,4.61,2.01,4.91-.75,4.49-4.1-.21-1.72-.3-3.06,1.87-3.53,1.91-.42,2.66,1.07,2.78,2.13,.89,7.81,12.02,11.52,8.42,21.11-.33,.88,.5,1.83,1.44,1.94,5.75,.73,5.12,5.07,5.33,9.05,.09,1.75,.18,3.9,1.92,4.74,2.69,1.29,2.65-2.26,3.52-2.65,7.84,3.75,5.37,10.9,5.96,18.4,4.13-5.49,7.56,.88,11.17-1.29-3.15-5.04-1.5-7.96,4.99-8.53-.22-3.74-7.05-5.8-2.46-10.29-2.04-1.47-4.97,.46-6.04-2.79,2.4-.65,5.1-.28,6.58-2.78,1.53-2.58,5.35-.48,6.97-3.2-.45-4.23-4.93-3.87-7.81-6.82,4.36,.28,8.85,.9,6.28-5.73,3.12,.57,5.44,.99,8.61,1.56-10.78-9.44-11.25-12.62-4.5-27.14,.61,1.3,1.14,2.44,1.96,4.21,.58-6.05,1.1-11.47,1.59-16.67,2.22-.64,2.79,2.42,4.57,1.15,1.52-1.09,1.19-2.74,.77-4.28-1.12-4.08-1.06-11.74-.33-11.75,7.12-.18,5.61-6.38,7.55-9.46,16.37,18.69,12.55,41.63,13.37,64.23,1.04,.88,2.49-2.4,4.26-.63-.86,1.64-1.72,3.26-3.5,6.64,9.71-6.49,8.78,8.02,17.16,4.05-2.64,3.19-5.17,2.86-6.98,3.98-2.5,1.54-7.97,1.3-3.43,7.02,1.57,1.97-.07,5.81-5.63,6.91,2.45,1.75,4.22,2.53,5.29,3.87,1.94,2.43,1.26,4.35-2.05,4.22-2.14-.08-4.33-.8-3.98,2.47,.27,2.51,2.35,2.72,4.46,3.04,3.44,.52,5.13-3.17,7.23-3.43,7.2-.87,5.61-3.65,3.5-8.33-.98-2.17-2.94-7.66,.63-8.1,5.71-.7,5.51-3.75,5.73-7.58,.09-1.58,.71-3.36,2.37-3.73,8.12-1.83,4.1-5.15,1.55-9-1.96-2.95-5.2-8.18-1.43-9.87,5.11-2.3,2.85-5.04,2.8-7.93-.05-2.76-2.05-7.03,.6-7.87,3.78-1.2,2.5-3.19,2.05-4.92-2.48-9.47,2.79-17.46,4.76-26.07,.03-.12,.75-.07,1.56-.13,1.29,6.19,3.2,12.2,5.58,18.15,3.23,8.07,5.4,16.51,4.07,25.6-.64,4.38-1.96,11.57,1.73,13,6.09,2.37,2.62,5.05,2.25,7.9-.25,1.9-2.03,3.55-.71,6.13,3.52-2.55,5.7-2.33,4.86,2.76-.19,1.14,.19,2.2,1.31,2.83,6.43,3.64,6.98,8.38,2.74,14.13-.75,1.01-1.02,2.37-1.52,3.61,4.62,1.21,5.19,1.92,4.49,6.1-.89,5.35-3.7,9.89-6.26,14.56-1.17,2.14-2.35,6.4,.59,6.7,3.39,.35,9.34,.5,10.4-3.07,1.13-3.77,3.1-5.91,6.22-8.04-2.09-2.57-5.44-4.88-4.86-7.36,1.42-6.01,2.66-11.99,3.77-18.03,.22-1.23,1.62-3.53,.85-5.02-4.04-7.83,2.88-13.07,3.23-21.03,2.85,3.13,2.55,5.5,3.09,7.58,.57,2.15,.89,4.89,3.69,4.84,2.82-.06,5.97-.83,7.72-3.2,1.58-2.14-1.15-3.45-2.2-4.97-1.68-2.42-3.03-4.95-3.3-7.91-.13-1.47-.57-3.49,1.7-3.67,4.03-.32,3.06-2.72,2.63-5.24-.56-3.26-1.91-8.91-.19-9.45,4.99-1.58,2.67-4.72,2.2-6.75-2.14-9.29,3.27-16.93,5.03-25.34,.03-.16,.78-.16,1.6-.32,.74,3.64,1.5,7.27,2.22,10.91,.58,2.93,2.1,5.31,5.26,4.86,2.6-.37,4.73-1.81,4.56-5.4-.14-3.03,1.17-6.11,1.18-9.17,.02-7.78,.93-8.83,8.94-9.49,2.67-.22,5.89,.43,6.75-3.64,1.2-5.66,4.48-7.55,10.22-5.66,3.05,1,6.73,.35,8.48-2.42,2.09-3.3-2.16-5.22-3.1-7.96-.16-.45-1.19-.54-1.68-.95-2.33-1.97-5.5-3.72-4.79-7.31,.73-3.66,4.41-1.98,6.68-2.52,3.77-.9,6.69-2.84,7.57-6.32,.75-2.95-2.22-4.64-4.45-6.19-4.5-3.13-7.21-7.84-10.38-12.09-2.23-2.98-.98-5.82,2.46-6.66,3.52-.86,7.28-1.18,10.9-1.03,4.58,.2,5.52-2.99,3.86-5.36-2.8-4.01-4.01-9.47-6.99-12.33-6.07-5.85-1.99-11.03-1.35-16.54,.14-1.21,.98-2.15,2.29-1.76,.72,.21,1.52,.98,1.78,1.69,.38,1.03-.81,3.05,1.56,2.68,2-.31,2.28-2,1.7-3.65-.95-2.71-.85-5.71-2.59-8.21-1.36-1.95-1.48-5.97-.59-6.16,7.2-1.57,3.73-10.03,8.72-12.95,.77-.45,.39-3.11,2.6-2.94,2.36,.18,2.63,2.28,2.88,3.92,.86,5.63,3.86,9.96,7.93,14.34,1.97-2.11,4.15-3.74,5.28-5.92,.87-1.67,1.72-1.68,3.04-1.49,1.62,.23,2.49,1.57,2.3,2.83-1.32,8.75,5.4,14.92,7.14,22.74,1.64,7.36,3.62,7.6,10.34,3.11,4.13-2.75,15.19,.09,15.56,4,.3,3.16-.72,6.67,4.59,7.3,1.91,.23,2.11,4.17,.07,5.97-2.18,1.93-3.57,4.9-7.31,5.06-2.26,.1-3.7,2.37-4.3,4.62-.47,1.77,.7,3.46,2.08,3.78,7.73,1.78,13.17,7.76,20.06,10.77-.08,7.02-5.77,11.34-7.96,17.01-3.93,.15-7.21-6.65-10.09-1.12-1.99,3.8-4.23,5.86-7.88,7.18-2.75,.99-4.05,3.22-2.87,5.8,1.37,2.98,3.41,.24,5.08-.14,8.67-1.93,17.31-5.98,26.02-.26,1.91,1.26,4.99-1.85,5.93,1.19,2.03,6.51,7.48,7.28,12.51,8.78,2.23-2.64,.2-6.71,4.52-8.83,.45,6.85,4.31,12.23,5.99,18.29,1.36,4.93,3.08,9.99,1.8,15.56-1.77,7.72,4.34,12.94,6.92,19.41,1.48-3.75,3.41-6.97,2.7-10.96-.37-2.07-.95-4.97,.97-6.29,2.77-1.91,3.46,1.84,5.11,2.92,3.35,2.17,6.13,1.42,9.14-.53,3.3-2.14,.8-4.47,.12-6.4-2.5-7.1,4.75-11.03,4.55-17.28,10.15,30.44,20.52,27.76,37.98,24.37-2.33-5.84-6.75-9.22-12.72-10.76-2.55-.66-3.88-2.37-3.32-4.91,.34-1.56,1.34-2.62,3.08-3.72,7.76-4.88,18,2.03,25-5.59,.24-.26,1.49-.07,1.85,.31,3.94,4.17,7.08,1.67,10.52-.91-7.29-4.64-17-1.5-23.32-8.46-.69-.76-4.67,1.88-7.23,2.31-4.04,.68,.4-5.77-4.41-5.45-2.71,.18-5.56-1.26-8.3-2.14-3.73-1.19-2.8-4.78-3.11-7.34-.22-1.8,2.1-2.79,4.01-2.53,5.23,.69,10.55,2.4,14.41-3.3,.36-.53,2.48,.2,3.79,.24,1.48,.05,3.64,.81,4.08-1.07,.73-3.15,2.2-3.15,4.82-2.41,2.59,.74,4.79-1.03,4.72-3.37-.12-3.73-2.93-1.46-4.49-1.11-3.06,.68-3.47-1.34-3.67-3.36-.21-2.11,1.22-4.02,3.08-3,2.76,1.5,4.04-.79,5.98-1.27,2.21-.54,3.97-1.82,6.48,.61,2.58,2.5,.78,4.04-.17,6.1,2.64,.58,4.75,2.25,7.71,.4-2.06-2.44-5.73-5.56-1.28-7.86,5.65-2.93,3.89-7.05,4.14-11.62,.25-4.51-6.01-3.91-4.78-7.75,1.42-4.43,6.76,.77,8.88-3.24,1.6-3.04,4.09-1.54,6.37-.5,4.2,1.91,8.21,4.54,13.26,3.18,1.33-.36,2.53,.49,3.49,1.56,3.87,4.32,5.44,2.71,5.77-2.23,.09-1.29,.18-2.85,1.97-2.94,1.27-.06,1.86,1.02,2.35,2.05,.53,1.14,.56,2.77,2.65,2.49,3.38-3.38,.42-6.61-.53-9.75-2.15-7.13,.53-11.05,7.85-10.71,1.68,.08,2.87-2.68,5.21-.11-.16,2.36-2.04,4.71-2.41,7.5-.31,2.38-.06,3.02,2.19,3.65,1.76,.5,2.79,1.7,2.65-1.44-.06-1.44,1.98-.99,3.27-1.21,9.01-1.55,17.94-3.1,27.18-3.52,5.13-.23,9.89-.97,14.7,1.09-2.37,5.29-.53,8.27,5.23,10.14,.47-5.33-3.89-6.95-5.33-10.2,1.08-1.06,2.85-1.97,2.05-3.75-.65-1.45-2.32-.84-3.6-.72-1.98,.19-3.95,.37-6.39-2.38,7.87,2.25,10.93-5.33,17.18-6.02,2.57-.28,2.3-2.6,.4-4.48-2.37-2.36-5.78-2.93-9.27-5.21,1.63-.24,2.22-.44,2.8-.4,3.22,.19,7.42,2.51,9.39-.31,2.53-3.62-3.25-4.83-4.16-7.78-.17-.54-.02-1.17-.02-2.21,6.36,3.1,11.8,8.02,19.36,6.16-2.87-2.11-6.12-3.34-9.14-4.99-4.56-2.5-6.72-6.46-5.19-11.61,3.27-10.99,7.87-21.65,7.89-33.4,0-.13,.32-.25,.59-.45,2.23,1.12,.37,5.14,4.01,5.49,2.53-2.71,1.44-5.86,1.14-9.13-.49-5.21-4.28-12.06,5.23-13.52-1.11,4.34-1.89,8.62,2.82,11.72-1.48-3.76,4.89-9.27-2.94-11.61,3.92-3.23,3.21-8.04,4.05-12.42,3.69,7.35,4.76,15,4.27,23.07,1.39-2.29,2.79-4.58,4.55-7.49,1.97,5.19,3.52,9.56,5.27,13.84,2.66,6.52,.12,12-6.44,13.66-1.28,.32-2.64,.64-3.73,1.32-3.57,2.24-2.38,5.85-2.29,9.06,.06,1.97,1.19,3.49,3.19,3.7,3.31,.34,4.38-2.19,5.65-4.64,1.31-2.52,2.42-5.33,5.68-6.66-1.77,8.95-4.17,17.62-6.85,26.2-.46,1.47-1.97,2.77,.08,3.84,1.57,.82,2.27-.64,2.94-1.83,1.51-2.7,3.62-4.78,6.63-6.5q-2.88,12.64,4.3,10.58c-4.1,5.68-3.15,8.3,4.04,6.31-1.3,3.19-4.09,4.75-4.38,8.21,2.27,.52,4.71-.64,6.46,1.07ZM995.36,955.2c.71-1.2-.82-3.45,2.6-3.41,3.62,.05,5.44-3.56,4.57-6.58-.96-3.3-4.12-1.05-6.33-.71-2.76,.43-4.72,2.21-6.67,4.09-2.66,2.57-4.24,5.97-2.27,8.93,2.53,3.81,4.69-1.46,7.3-1.35-1.46,3.48-5.61,5.57-5.61,11.29,5.31-3.36,8.1-6.59,6.42-12.26Zm451.29,55.04c-1.06,.23-2.14,.41-3.18,.72-1.85,.55-5.15-.71-4.89,2.71,.26,3.48,3.35,3.12,6.01,3.37,3.59,.34,4.38-2.01,5.23-4.54,2.2-.64,4.89,.7,6.92-1.72-.46-.75-.91-1.47-1.35-2.19-3.69-6.1-2.99-9.03,3.07-12.58,2.31-1.35,1.51-3.46,1.35-5.32-.17-1.98-1.42-3.5-3.47-3.2-4.35,.64-8.95,1.1-12.51,3.87-3.23,2.52,1.88,3.73,1.52,5.98-.14,.86-.35,1.71-.63,2.54-1.29,3.82-.62,7.27,1.92,10.38Zm494.61-350.07c-2.82-.4-5.45-1.7-6.26-4.32-2.68-8.7-9.09-13.18-18.49-16.68,7.42,11.05,18.24,17.54,24.32,28.45,.75-2.05,4.47-2.18,2.42-5.26,1.54-.04,3.38,.44,4.58-.22,8.29-4.53,15.38,1.01,22.22,3.5,4.45,1.62,8.35,3.87,13.12,3.55,1.06-3.42-3.26-6.7,.37-9.53,1.11-.87,2.56-1.29,1.39-2.86-.87-1.17-2.1-1.04-3.53-.38-7.08,3.32-13.8,2.97-19.86-2.42-1.28-1.14-2.62-.61-3.62,.2-3.54,2.9-6.9,3.85-11.39,1.43-2.11-1.14-5.34-.2-8.04-.2-.16,2.56,2.1,3.14,2.75,4.74Zm-984.14,321.49c-1.39,4.65-.4,8.83,2.05,12.75,5.34-2.11,7.09-6.19,5.82-10.74-1.14-4.07-5.12-1.9-7.98-1.9,3.01-5.16-4.12-3.47-4.49-6.53,3.57-.38,8.35,3.8,10.25-1.1,2.21-5.7,7.77-11.34,2.86-18.43,3-.69,7.13,.31,7.88-4.24,.42-2.54-.31-5.14-2.96-6.12-3.3-1.23-6.9-2.96-10.2-2.65-8.93,.82-17.62,3.12-26.83,2.64-5.24-.27-11.05,.61-15.96,3.67-.91,.57-1.86,.7-3.04-.06-6.41-4.18-11.69-3.41-16.68,2.24,1.73,1.98,6.01-.78,6.45,3.13,.35,3.07-2.6,3.78-4.74,4.84-1.55,.76-2.98,1.96-2.14,3.58,4.37,8.38,6.17,17.18,5.29,26.59-.16,1.73,1.24,2.84,2.53,3.69,4.54,2.99,4.88,6.67,1.46,10.51-3.48,3.91-1.66,7.03,.88,10.2,.9,1.12,1.46,3.08,3.52,2.22,1.51-.63,1.18-2.2,1.35-3.49,1.21-8.86-.66-17.7,1.11-26.75,2.15-10.99,9.69-19.97,10.37-31.6,1.73,9.74,8.76,18,6,28.44-.55,2.08-.72,6.22-.41,6.28,7.54,1.58,2.35,6.65,2.76,9.98,.35,2.82-2.86,6.88,3.51,6.82,1.84-.02,1.43,2.48,1.18,3.93-.57,3.33-1.75,6.5-4.14,8.95-3.13,3.22-2.42,5.39,1.52,6.92,2.52,.98,3.79,2.73,4.21,5.45,1.2,7.84,2.3,8.34,10,5.01-.61-3.03-3.75-4.26-4.94-6.89-1.02-2.27-2.53-4.98-.39-6.78,5.85-4.92,5.06-12.28,5.23-18.05,.21-7.41,3.94-13.38,4.91-20.25,.23-1.63,2.13-2.1,3.75-2.25Zm90.09-48.1c-4.41,2.98-7.1,9.13-13.98,5.81-1.33-.64-2.4,.78-2.77,2.18-1.06,3.95-4.59,3.18-7.14,3.25-3.46,.09-1.22-2.99-1.78-4.57-1.27-3.6-3.28-4.57-6.43-1.9-1.16,.98-2.31,2.07-3.65,2.74-5.31,2.66-6.56,7.77-1.88,11.6,2.16,1.77,2.35,3.87,3.64,5.66,7.12,9.92-.86,22.07,4.88,32.27,.93,1.65-1.4,5.41,2.24,5.74,3.54,.32,5.24-2.79,4.94-5.8-.6-6.09-1.04-11.8,6.17-14.69,1.95,2.92,5.34,4.37,5.56-1.23,.27-6.59,3.52-11.49,6.32-16.79,1.73-3.28,1.58-6.97,4.36-10.41,2.15-2.66,10.83-9.62-.48-13.84Zm-118.14-61.71c-.27-.34-.47-.84-.78-.94-13.89-4.28-25.6,3.25-37.96,7.14-1.06,.33-2.14,2-1.33,3.37,.93,1.57,2.58,2.42,4.51,2.15,7.26-1.02,14.45-1.51,21.34,1.85,.5,.25,1.54,.38,1.75,.11,4.19-5.44,4.22-1.05,5.11,2.02,.5,1.75,10.38,3.75,11.42,2.26,2.47-3.51,4.34-2.5,5.77,.6,.73,1.57,1.61,1.94,3.08,1.73,.91-.13,1.64-.22,1.4-1.59-.93-5.28,2.49-1.86,4.01-1.85,2.76,.03,1.57-5.97,5.64-3.59,1.34,.78,2.33,1.6,2.06,3.67-1.28,9.91-1.19,9.99,8.33,10.13,2.23,.03,5.22,2.41,6.58-.74,1.33-3.09,.88-6.65-.97-9.6-2.05-3.28-5.06-5.55-8.78-6.82-3.58-1.22-7.32-2.26-10.16-4.85-3.25-2.97-6.92-3.52-11.1-3.23-6.98,.48-14,1.17-20.96-.56,1.72-.5,3.45-.66,5.18-.8,1.95-.15,3.98,.64,5.88-.46Zm43.69,56.99c-.11-2.22-.12-4.44-.34-6.64-.91-9.13-4.62-11.62-13.42-9.13-2.34,.66-4.7,1.66-7.07,1.72-5.95,.14-9.93,3.82-13.58,7.57-4.05,4.16-2.74,7.43,2.86,8.96,1.69,.46,3.35,.87,4.72,2.23,6.62,6.56,15.76,3.77,23.56,6.07,1.8,.53,3.13-1.47,3.23-3.46,.12-2.43,.03-4.87,.04-7.31Zm9.92,4.06c.22,1.49,.73,4.78,1.16,8.07,.5,3.82,1.41,4.14,5.56,2.75,12.2-4.09,14.07-15.78,19.64-24.68,1.17-1.87,1.73-5.36-.48-7.49-2.13-2.05-4,.18-5.96,1.04-.95,.42-2.19,.08-3.26,.3-11.61,2.35-16.5,7.71-16.67,20.01Zm600.11,51.33c-3.76,.47-7.33-3.69-11.18-.34-4.57,3.98-10.05,5.1-16.09,4.62-4.75-.37-8.21,1.42-8.22,6.95,2.05,1.58,3.26-2.61,5.78-.09-2.51,5.63,3.42,5.86,6.17,8.52,3.46-3.1,4.97-8.72,11.41-7.81,2.09,.3,3.74-2.1,4.79-4.14,1.67-3.23,4.21-5.61,7.33-7.71Zm265.78-264.49c2.35,.22,6.33-3.59,5.44,1.48-.87,4.98,3.03,4.75,5.1,6.14,3.22,2.17,2.83-2.81,5.19-3.39,1.5-.37,1.33-4.19,4-3.63,5.5,1.15,7.49-2.71,9.67-6.32,1.03-1.72,3.93-3.22,1.69-5.66-1.94-2.12-4.5-1.59-6.65-.08-5.1,3.59-10.67,4.8-16.89,4.44-4.03-.23-7.35,1.52-7.55,7.01Zm-878.88,138.54c-2.73-11.5-11.52-14.08-18.82-17.21-8.32-3.57-17.09-1.9-25.18,2.46,.87,1.54,2.27,1.3,3,.72,10.45-8.21,15.91,6.02,24.63,5.4,2.52,8.11,10.06,5.19,16.36,8.63Zm10.84,29.69c5.69-3.79,12.56-4.34,18.6-6.93,5.77-2.47,13.21-1.44,16.81-8.37,.18-.34,1.22-.3,1.87-.33,1.49-.07,3.51,1.95,4.21-1.16,.36-1.63,.35-3.05-1.13-4.16-1.91-1.42-3.67-1.07-5.46,.28-3.14,2.38-6.09,4.97-10.06,6.11-4.49,1.3,1.48,2.48-.28,4.38-10.02-1.87-18.91,.51-24.56,10.18Zm-55.13,29.74c5.03,.84,9.51,1.78,12.4-.77,7.46-6.57,16.97-6.85,25.62-9.77,1.67-.56,3.87,.02,5.06-1.7-5.41-4.19-10.27,1.24-15.5,.3-3.83-.69-9.09-4.56-10.41,3.42-.21,1.27-2.31,1.18-3.57,.75-7.14-2.41-9.37,3.16-13.6,7.78Zm943.08-247.54c-6.14,2.76-13.73,3.73-21.55,3.58-2.37-.04-2.51,2.21-2.05,4.05,.55,2.2-.33,5.92,3,5.86,5.7-.11,11.89-.93,15.49-5.78,1.91-2.57,3.61-3.45,6.35-3.62,1.65-.1,4.12,.68,4.1-2.03-.02-2.72-2.48-1.8-5.34-2.07Zm-296.76,276.43c-8.1-.71-15.46,3.45-23.42,2.72-4.02-.37-5.02,1.07-4.53,4.93,.46,3.65,1.18,4.92,5.6,4.96,10.13,.1,13.95-9.98,22.35-12.61Zm-561.7-114.9c-3.84-1.57-8.4,.23-10.75-4.26-3.1,4.15-6.67,7.21-10.96,7.51-5.72,.41-9.05,3.34-8.59,9.47,11.3-1.13,17.65-13.85,30.3-12.72Zm862.04-71.79c-3.7-4.29-9-3.1-12.53-1.6-4.84,2.05-6.21,7.39-5.64,13.26,7.96-1.45,13.13-6.22,18.17-11.65Zm-1372.29,124.22c-6.13,1.74-8.95-7.34-16.23-1.04-3.94,3.41-8.71,5.95-11.56,10.98,8.35-5.01,18.4-4.3,27.79-9.95Zm1478.93-179.8c-3.43-1.45-6.37-7.35-9.02-5.11-5.57,4.72-11.41,.97-16.85,2.74,1.08,2.24,3.37,1.72,5.13,2.39,1.83,.69,3.7,1.46,5.32,2.54,6.47,4.37,9.37,4.01,15.42-2.57Zm-1065.02,220.47c3.13,3.8,6.09,7.51,11.34,3.38,1-.78,2.01-.55,2.97,.28,1.37,1.17,2.86,1.33,4.06-.14,1-1.22,1.52-2.72,.97-4.34-.74-2.18-2.64-2.2-4.4-1.99-5.01,.58-10.09,.92-14.95,2.81Zm57.61-76.01c.45-3.77,.96-6.79,1.11-9.82,.09-1.83,1.44-4.82-.85-5.27-2.49-.48-5.79-.09-7.67,2.39-1.45,1.92-2.59,4.24-.57,6.6,1.98,2.32,4.1,4.49,7.98,6.1Zm-51.36,70.19c-3.29-3.05-19.42-.94-24.97,3.6,9.18,4.69,16.81-2.53,24.97-3.6Zm-23.29,151.38c-3.24,5.62-2.16,10.25,.65,14.67,1,1.56,2.94,2.16,4.75,1.49,2.26-.83,1.55-2.86,1.36-4.57-.49-4.4-2.96-7.72-6.76-11.59Zm1251.01-397.91c-1.14-2.73-.57-7.14-5.11-7.78-3.39-.48-4.83,2.83-4.65,5.11,.3,3.69,3.32,6.25,6.83,7.07,2.73,.63,2.78-2.03,2.93-4.4Zm-213.53,65.82c-.76-2.17,2.21-6.42-2.58-6.4-2.02,0-6.04,1.51-5.66,5.3,.39,3.97,3.59,7.74,6.58,7.9,3.49,.18,.76-4.31,1.66-6.79Zm-894.31,41.99c4.34-1.71,7-6.28,12.1-6,5.31,.29,6.97-2.47,6.68-8.05-7.28,3.78-15.07,6.02-18.78,14.06Zm184.25,394.77c-3.39-2.75-6.25-4.81-9.84-5.46-2.58-.46-4.51,.93-5.14,3.22-.78,2.82,1.77,2.89,3.63,3.59,3.76,1.41,7.27,1.29,11.35-1.36Zm-385.65-234.1c2.07-5.43,2.79-9.57-2.13-12.06-3.14-1.58-4.3,1-5.28,3.32-3.38,8.05,5.09,5.14,7.41,8.74Zm1079.97-241.46c4.14-5.72,3.68-9.84-1.41-15.18-1.3-1.37-2.76-2.8-4.33-.96-1.21,1.41-.95,3.92,.8,4.59,3.62,1.39,3.4,3.8,2.86,6.75-.31,1.7-.44,3.57,2.08,4.8Zm11.88,3.35c-.8-2.65-.85-6.93-4.2-7.17-3.44-.25-4.31,4.14-4.7,6.81-.54,3.75,3.35,4.28,5.9,4.69,2.38,.38,3.05-1.92,3-4.34ZM376.19,920.81c7.16,5.01,14.82,3.98,18.05-2.21-6.11-1.21-11.78-.37-18.05,2.21Zm692.85,28.13c4.56,6.11,10.88,9.55,18.08,11.58,.91,.26,1.79-.21,2.03-1.26,.23-1-.33-2.01-1.17-2.07-7.29-.55-12.43-5.6-18.94-8.25Zm-187.94-76.72c-3.49,.84-4.53,3.8-6.91,5.01-1.59,.81-4.71-.84-4.74,2.21-.04,3.19,3.48,1.91,5.19,3.04,1.69,1.11,3.74,1.61,5.39-.41,1.32-1.61,2.63-3.26,.52-5.17-1.98-1.79,1.17-2.92,.55-4.69Zm-405.75,60.36c5.15,9.25,5.42,9.26,14.92,.08-5.51-.17-10.15,1.4-14.92-.08Zm1425.41-212.87c-5.22,.83-6.53-.61-5.11-4.18,.57-1.44-.49-2.5-2.02-2.8-1.48-.29-2.82,.19-3.2,1.65-.92,3.46,.04,6.89,2.43,9.18,2.76,2.64,4.63-.17,7.91-3.84Zm-8.03-48.76c2.4,6.06,8.06,3.02,11.56,5.82,.67-3.24,1.03-5.95-.15-8.36-4.63-1.17-6.64,4.77-11.41,2.54Zm28.82,5.8c-1.04-3.1-3.41-5.41-6.85-5.96-1.97-.32-4.15,.87-3.86,3.5,.49,4.43,4.79,4.03,7.58,5.34,1.66,.78,2.84-.63,3.13-2.88Zm10.96-12.49c-1.59,2.28-.44,6.03-4.35,5.43-5.85-.89-4.04,2.24-2.22,4.61,1.75,2.29,3.74,4.77,8.45,5.12-4.75-5.1-.23-9.88-1.88-15.16Zm240.6,21.09c3.82-2.16,2.01-6.79,5.04-8.95,.86-.61-.57-2.34-1.94-2.76-1.81-.56-3.43-2.31-5.52-1.19-1.05,.57-1.62,2.35-.93,2.78,3.74,2.35,2.11,6.55,3.36,10.12Zm-1207.2,184.21c-6.1-2.58-10.74,3.89-16.03,.35,5.68,7.22,6.53,7.2,16.03-.35Zm224.56,290.42c2.83-5.99-.57-10.81-1.02-15.85-.12-1.36-1.22-1.76-2.46-1.31-1.52,.55-3.52,2.37-2.45,3.15,4.69,3.4,2.92,9.45,5.92,14.02Zm697.22-437.86c.76-2.23-.49-4.2-.96-6.24-.45-1.97-1.75-3.26-3.83-2.06-2.37,1.36-4.35,3.57-3.95,6.32,.44,3.03,2.32,1.6,3.77,.41,2.43-2,2.83,2.32,4.98,1.58ZM393.94,915.64c1.36-.18,3.44-.99,3.17-3.83-.28-2.9-2.62-4.02-5.1-4.05-1.74-.02-4.06,.18-3.24,3.39,.62,2.43,.72,4.91,5.17,4.49Zm1662.83-213.81c-4.43,1.92-5.71,5.72-6.59,9.52-.35,1.49,1.56,2.17,2.87,1.92,7.88-1.52,2.21-7.44,3.72-11.43Zm-716.57,390.53c-.13,.31-.26,.62-.39,.92,2.86,1.96,5.72,3.94,8.6,5.88,1.44,.97,3.18,2.57,4.41,.12,1.12-2.24-.29-3.93-2.49-4.55-3.34-.94-6.75-1.6-10.13-2.37Zm300.97-275.6c2.62,3.85,6.28,4.78,8.84,7.1,1.33,1.21,3.18,2.27,4.24-.37,.79-1.96-.02-3.6-2.06-4.16-3.34-.92-6.75-1.59-11.01-2.57Zm-192.38,203.87c-.07,2.83,4.59,.36,3.16,3.48-.58,1.26-2.96,2-.17,2.99,2.18,.77,4.48,0,5.88-1.93,1.18-1.62,.06-3.07-1.43-3.72-2.28-1-4.56-3.01-7.44-.82Zm447.51-276.19c5.2-2,5.29-5.46,6.39-8.13,.73-1.77,1.13-4.05-.94-5.33-.64-.4-2.33,0-2.94,.63-1.54,1.57-3.06,3.61-.79,5.63,2.71,2.41,.54,4.09-1.72,7.2Zm-5.57,42.29c3.4,0,9.7-6.55,9.15-9.12-.11-.52-.79-1.31-1.2-1.31-.77,0-1.89,.28-2.25,.83-1.97,3.07-3.75,6.26-5.71,9.6Zm188.16-74.58c1.91-2.53,4.3-5.5,2.49-8.1-1.48-2.12-4.55,.3-7.89,1.58,5.77-.26,2.21,4.95,5.4,6.51Zm-971.6,281.84c.08-2.67-1.32-3.97-3.93-3.99-1.7-.01-3.92-.26-3.67,2.35,.25,2.58,2.05,4.38,4.54,4.94,2.46,.56,2.65-1.57,3.07-3.31Zm-84.77-204.24c4.97,1.75,7.17-.77,8.77-4.21,.41-.88-.1-1.93-1.11-2.01-4.25-.34-6.26,2.26-7.66,6.22Zm1151.27-129.68c-2.54,3.05-9.72,2.27-7.82,9.69,3.97-2.6,8.22-4.11,7.82-9.69Zm-1088.22,275.64c1.15,3.99,3.97,6.64,6.96,9.11,.9,.74,2.15,.96,2.91-.26,.68-1.1,.36-2.41-.78-2.85-3.44-1.35-5.88-4.13-9.1-6Zm662.03-189.88c9.75-.79,4.15,2.8,4.09,4.89,2.52,.53,4.9,.86,6.96-.86,.93-.78,.98-2.18,.08-2.94-2.35-1.99-4.94-3.49-11.13-1.09Zm-736.88,41.88c3.59,2.28,6.61,.85,9.01-1.2,1.1-.94-.5-3.63-1.54-3.71-3.45-.26-5.78,1.85-7.47,4.91Zm1092.84-193.85c-.26,4.76-.32,8.88,6.52,7.21-.73-3.89-1.78-6.99-6.52-7.21Zm134.26-67.1c3.86-2.76,5.38-5.29,4.59-8.65-.31-1.31-1.8-1.28-2.71-.58-3.17,2.43-1.78,5.41-1.88,9.23Zm-839.62,496.68c-1.83-2.93-2.84-5.82-6.46-5.16-1.55,.28-2.26,1.78-1.56,2.97,1.63,2.76,4.3,3.12,8.02,2.19Zm301.69-276.75c-3.42,.23-4.46-5.33-8.45-3.2-.82,.44-1.08,1.66-.39,2.32,2.46,2.39,5.25,3.64,8.84,.89Zm232.79-49.79c-.21,2.76-.09,5.54,3.29,6.55,1.07,.32,2.61,.06,2.71-1.1,.33-3.78-3.62-3.65-5.99-5.44Zm-1144.36,240.72c-3.85,.39-7.42,.31-9.8,3.63-.23,.33,.19,1.68,.45,1.72,3.62,.63,5.75-2.3,8.49-3.77,.29-.16,.39-.69,.86-1.58Zm-4.69,34.21c3.41-.64,6.26-.71,7.09-3.86,.33-1.27-1.08-1.82-2.22-1.84-3.27-.05-4.59,1.81-4.87,5.7Zm1122.3-241.34c.23-4.64,.41-8.24,.63-12.72-4.54,4.14-4.72,7.77-.63,12.72Zm-721.49,402.36q7.88,.97,8.59-6.73c-2.06,4.46-6.16,3.3-8.59,6.73Zm951.81-456.75c2.59,3.41,4.8,6.33,7.02,9.24-.23-4.72-2.94-7.14-7.02-9.24Zm-1195.98,191.09l-.84-2.18c-2.94,.62-5.89,1.25-8.83,1.87,3.37,.72,7.44,4.98,9.67,.31Zm643.48,124.78c-.01-1.42-.59-2.52-1.9-2.12-2.55,.78-3.58,3.11-4.32,5.4-.41,1.26,.62,2.35,1.84,1.88,2.35-.89,3.78-2.83,4.38-5.16Zm-841.2-117.67l.13,.04c3.55,3.95,7.09,7.9,10.64,11.85l.14-.17c-3.63-3.9-7.27-7.81-10.9-11.71Zm366.03,106.77c-.1-1.51-.84-2.63-2.32-2.66-2-.04-3.24,1.44-3.69,3.13-.43,1.65,1.12,2.15,2.43,2.36,2.17,.35,3.17-.9,3.58-2.83Zm1112.47-474.37c2.84,3.25,3.17,6.69,7.63,8.31-1.63-3.86-.29-8.38-7.63-8.31ZM532.66,908.22c3.02-2.16,9.98-1.09,7.69-8.22-.2,4.96-4.76,5.69-7.69,8.22Zm-138.32-7.02c2.41,2.55,4.39,3.89,7.1,1.71,.87-.71,1.5-2.19,.54-2.87-2.59-1.87-4.73,.16-7.64,1.17Z"/><path class="cls-1" d="M261.41,801.52c2.47-.38,4.04,.72,3.84,3.17-.41,4.93,.26,10.22-3.84,14.18v-17.35Z"/></g></g></svg>