<?xml version="1.0" encoding="UTF-8"?><svg id="trees-bg" xmlns="http://www.w3.org/2000/svg" viewBox="0 0 2013.9 943.29"><defs><style>.cls-1{fill:#dd8e39;}</style></defs><g><path class="cls-1" d="M171.86,215.65c-.3-.66-.51-1.12-.77-1.69-.25,.18-.42,.3-.64,.45,.48,.7,.96,1.71,1.46,2.78,.1,0,.16,0,.26,0l-.31-1.53Z"/><path class="cls-1" d="M168.67,213.65c.06,.48,.13,1,.19,1.48,.25,.07,.37,.14,.42,.11,.37-.25,.78-.55,1.18-.83-.59-.86-1.18-1.27-1.78-.75Z"/><path class="cls-1" d="M174.26,228.5c-.02-.07-.03-.12-.05-.19,0,.07,.02,.12,.03,.19h.02Z"/><path class="cls-1" d="M.82,229.13c.91-2.25,.17-3.91-.82-5.58v-4.72M.02,943.16l673.83,.13-2.2-605.55c0-5.76,0-11.52,0-17.28,0-2.71,.02-5.41-.01-8.12,0-.68-.15-1.36-.27-2.27,.67-2.4,.08-5.2,.24-7.91,.16-2.75,.04-5.54,.04-8.35-.42-.37-.81-.72-1.21-1.08,.35-.1,.71-.19,1.16-.31-.03-2.26,.32-4.5-.2-6.66,.12-1.19,.23-2.28,.34-3.3-.82-.83-1.56-1.56-2.45-2.46,.69-.42,1.47-.7,1.89-1.21,.4-.5,.42-1.25,.6-1.86-.54-.62-.97-1.12-1.59-1.84,.59,.12,.94,.19,1.39,.29v-4.35c-1.35-.94-2.74-1.9-4.26-2.95,1.51-.62,2.46,.17,3.49,.87,1.56-1.23,.56-2.88,.93-4.57-1.01,.44-1.72,.75-2.6,1.13-.22-.93-.4-1.67-.56-2.33,1-.55,1.99-1.09,2.97-1.64v-1.71c-.63-.02-1.14-.04-1.71-.06,.12-.38,.23-.73,.34-1.07-1.18-.99-1.65,.43-2.9,.21-.24-.17-.72-.52-1.3-.95,.31-.16,.47-.33,.65-.33,.66,.02,1.33,.1,2.07,.16v-.93c-.89-.49-2.28-.38-2.66-1.67,.44-.32,.94-.68,1.82-1.31-1.2-.04-1.86-.06-2.75-.09-.29-1.24-.57-2.45-.86-3.71l-1.14-.1c-.05,.99-.11,1.99-.17,3.02-.33,.14-.59,.25-.86,.36-.58-.26-.95-1.16-1.86-.46,.17,.85,1.19,1.27,1.78,2.18,.01,.26,.04,.73,.06,1.25-.5,.25-.95,.48-1.56,.78-.6-.89-1.3-1.72-2.77-1.13,.53,.52,.99,.97,1.51,1.47-.22,.15-.39,.37-.54,.35-.69-.09-1.39-.24-2.22-.4-.16,.16-.4,.39-.72,.7,.72,.46,1.31,.83,2,1.27-.31,.43-.62,.86-1.03,1.44,.62,.38,1.17,.71,1.71,1.04-1.03,.29-1.91-.19-2.63-.77-.77-.62-1.57-.71-2.45-.67,.47,.71,.93,1.43,1.4,2.14-.08,.04-.15,.08-.23,.12,.69,.5,1.38,1,2.13,1.54-.53,.04-.99,.08-1.37,.12-1.58,1.09-3.1,2.13-4.69,3.22,.17,.27,.32,.5,.48,.75,.56-.27,1.06-.51,1.65-.79,.2,.55,.37,1.04,.58,1.64,2.07-.43,3.55-1.53,5.28-2.3,.56,1.68-.54,2.64-1.93,3.67-2.13,.42-4.44,.87-6.98,1.37-.54-.18-1.35-.44-2.27-.75-.06,.33-.11,.58-.13,.7,.68,.62,1.26,1.14,2.04,1.84,.44-.05,1.17-.12,2.11-.22-1.06,.87-2.29,1.31-2.71,2.47,.3,.13,.51,.22,.74,.32,1.15-.73,2.27-1.45,3.57-2.28,.59,.89,1.55,1.51,1.21,2.58,1.21,.52,1.39-.52,2.13-.96,.39,.31,.8,.63,1.14,.9,.12,.96-2.58,1.84-4.84,1.74-3.75,1.03-7.31,2.14-9.2,5.81,0,.16-.04,.77-.1,1.76-.34-.65-.51-.97-.7-1.31l-1.03-.09c-.1,.63-.2,1.22-.31,1.85-.35-.16-.64-.29-1.02-.46-.14-.47-.29-.99-.45-1.53-.4,.03-.7,.06-1.05,.09-.04-.2-.17-.44-.09-.59,.25-.47,.58-.91,.94-1.45-.31-.37-.64-.75-1.05-1.24,.21-.27,.44-.57,.61-.78-.25-.88-.5-1.73-.66-2.31-.68-1.05-1.21-1.88-1.79-2.78-.18,.01-.48,.03-.88,.06-.06,.72-.12,1.39-.19,2.08-.4,.12-.74,.23-1.09,.34,0,.13,.02,.25,.03,.37,.12,1.55,.77,3.21-.79,4.39h0c-.5-.34-.99-.68-1.54-1.06-.59,.3-1.08,.55-1.57,.8-1.16-.71-2.3-1.3-3.26-2.06-.48-.38-.65-1.08-.92-1.57,1.01-.84,2.62-.69,2.97-2.1-.75-.17-1.42-.32-2.11-.48,.7-.73,1.59-1.39,.9-2.7-1.55,.09-2.12,1.17-2.96,2.08-.1-.8-.19-1.53-.27-2.27-1.53-.16-1.88,.82-2.6,1.71-.66-.65-1.28-1.25-1.92-1.88,2.04-1.24,3.97-2.41,5.91-3.59-.18-.46-.34-.88-.5-1.3-.15-.4-.3-.8-.6-1.59,.07-.35,.23-1.12,.42-2.05-.57-.07-.92-.12-1.39-.18-.1,.63-.18,1.16-.29,1.87-.35-.21-.63-.39-.87-.54-.82,.12-1.61,.23-2.53,.36-.12,.45-.26,.96-.41,1.55-.25-.42-.44-.77-.74-1.28-.77,.41-1.44,.77-2.12,1.14-.1-.08-.19-.16-.29-.24,.37-.59,.73-1.19,1.18-1.91,1.29-.69,2.73-1.45,4.25-2.26-.39-.7-.66-1.19-.9-1.61,.66-.29,1.32-.57,2.14-.93-.31-.4-.51-.67-.68-.89,.4-.7,.77-1.37,1.2-2.13-.46-.15-.74-.24-1.15-.38-.21,.39-.39,.73-.64,1.21-.53-.61-1.01-1.17-1.5-1.76-.21,0-.45,0-.89,0-.1,.83-.21,1.69-.33,2.61-.55-.17-1.05-.32-1.65-.51-.06-.56-.11-1.09-.18-1.74l-1.3-.11c-.17-.15-.51-.45-.88-.79,1.25-.85,1.58-1.94,1.14-3.47-.43,.34-.77,.6-1.12,.87-.6-1.23,1.31-1.44,1.14-2.53-.32-.4-.65-.81-1.06-1.31,.14-.3,.34-.71,.6-1.24-.55-.46-1.13-.95-1.75-1.46-.22-.77-.46-1.58-.72-2.46-.33-.05-.63-.09-1.05-.16-.29,1.47-.27,3.08-2.25,3.74,1.43,1.73-.21,3.24,.31,4.98-.23,.16-.57,.39-1.11,.77,.05,.65,.12,1.45,.21,2.51-.09,.66-.22,1.6-.36,2.67-.29,.34-.67,.79-1.06,1.25,0-.01-.14-.09-.15-.17-.04-.7-.11-1.4-.07-2.09,.05-.82-.33-1.47-1.03-2.18-.59,.21-1.12,.39-1.72,.6-.26-1.07,.2-2.27-1.23-3.3-.15,.39-.3,.7-.39,1.03-.18,.69-.32,1.39-.52,2.24,.38,.39,1.89-.16,1.87,1.21-.94,.46-1.64-1.49-2.81-.33,1.41,.77,2.73,1.5,3.96,2.17-.48,.09-1.11,.22-2.07,.4,1.28,.66,2.28,1.17,3.33,1.7-.74,.24-1.37,.45-2.04,.67-.14-.12-.35-.31-.61-.53-1.11,.92-.27,2.29-.86,3.56-.11-.95-.19-1.65-.27-2.35-.84-.53-1.34-.3-1.69,.67-.61-.94-1.05-1.6-1.52-2.32-.25,0-.55-.01-.97-.03-.05,.74-.1,1.41-.16,2.21-.31,.03-.66,.06-1.02,.1q-.11-.99,.41-1.59c-.18-.14-.35-.29-.55-.45-1.23,.04-1.49,.92-2.01,1.93-.55-.93-.98-1.67-1.35-2.31,1.47-.94,2.85-1.82,4.35-2.78-1.01-.91-1.9-.71-3.02-.52,.1-.38,.17-.65,.24-.94-.5-.5-1-1.02-1.5-1.53,.06-.05,.12-.11,.17-.17-.87-.37-1.74-.74-2.83-1.21,.28-.32,.48-.6,.73-.83,.26-.24,.57-.45,1.2-.93-.97-.03-1.45-.04-2.09-.06-.48-1.06-.96-2.15-1.49-3.31-1.17,.62-.63,1.98-1.35,2.82-.58-.1-1.23-.2-1.83-.3-.1,.16-.17,.23-.16,.25,.7,.78,1.41,1.56,2.1,2.32q-.76,.85-1.88,1.2c-.24-.2-.55-.43-.81-.69-.21-.2-.37-.44-.57-.69-.46,.05-.84,.08-1.16,.12-.87-.9-1.72-1.79-2.58-2.69,.46-.14,.87-.26,1.39-.41-.65-1.02-1.25-1.95-2.09-3.27-.55-.16-1.52-.46-2.66-.8-1.18-1.08-3.06-1.78-4.13-3.6,.82-.02,1.39-.04,1.94-.05,.59,.64,1.1,1.19,1.7,1.84,.39-.21,.74-.39,1.18-.63,1.36,.8,2.82,1.66,4.3,2.54,.17-.12,.34-.24,.66-.46-.79-.68-1.54-1.32-2.28-1.96q.62-.69,2.28-1.07c-2.95-.97-5.71-1.87-8.62-2.83,.56-.73,.96-1.25,1.67-2.17,.16,.5,.27,.83,.31,.93l2.98,.25c.3-1.26-2.06-1.14-1.72-2.32-1.98-.88-3.92-1.59-5.78-3.24,1.07,.28,1.73,.46,2.41,.64,1.17-.35,2.66-.17,3.58-1.43l-1.92-.16c-.1-.71-.19-1.31-.31-2.18-.8,.45-1.39,.78-2.1,1.18-.23-.46-.44-.88-.72-1.43,1.19-.8,2.31-1.55,3.51-2.36-.79-1.11-1.72-.32-2.74-.45,.04-.31,.08-.6,.13-.94-.82-.95-2.09,1.04-2.89-.68,.67-.05,1.35-.1,2.44-.19-1.04-.66-1.77-1.12-2.53-1.6,.43-.48,.77-.87,1.27-1.43l-1.77-.15c-.27-.81-.57-1.73-.9-2.71-.33,0-.62-.02-1.03-.03-.09,.79-.17,1.52-.27,2.34-.64-.1-1.14-.17-1.65-.25-.46,1.04,.8,1.27,1.38,2.06-.24,.33-.53,.73-.87,1.2-.89-.39-1.59-.7-2.64-1.16,.23,.5,.31,.73,.44,.95,.11,.19,.27,.35,.54,.68-1.04-.03-1.95-.05-3.12-.09,.2,.43,.36,.77,.5,1.07,.57,.16,1.03,.29,1.55,.43-.3,.4-.58,.77-.87,1.15-.84-.12-1.72-.24-2.93-.41,.82,1.38,1.5,2.38,2.79,2.96-1.62,.63-3.55,1.93-4.45,3.08,.61,.03,1.1,.05,1.64,.07,.1,.21,.25,.53,.45,.94,1.28-.45,2.53-.89,3.86-1.36,.48,.95-.06,1.69-1.02,1.97-1.86,.55-3.79,.95-5.74,1.29-.52,.09-1.19-.26-1.96-.45,.31,1.27,1.35,1.84,2.34,2.31-.32,.39-.65,.8-1.14,1.4,.55,.05,.93,.18,1.12,.08,.8-.43,1.56-.92,2.48-1.49,.25,.82,.42,1.4,.65,2.17,.72-.19,1.33-.34,2.24-.57-.11,.61-.18,1-.27,1.51-1.16,.09-2.27,.07-3.29,.29-1.26,.27-2.53,.62-3.63,1.16-1.13,.56-2.07,1.39-2.97,2.02-.14,.79-.24,1.36-.36,2.03,1.31-.11,1.21-1.22,2.03-1.76,.06,.37,.08,.67,.18,.95,.11,.32,.3,.62,.51,1.04,.74-.83,1.36-1.53,1.99-2.23,.08,.04,.17,.08,.25,.12-.1,.41-.2,.82-.32,1.28,1.51,.41,1.24-1.32,2.62-1.2-.2,.39-.36,.71-.61,1.21,.62,.36,1.28,.73,2.04,1.17-1.03,1.15-2.87-.16-4.27,.67,.53,.28,.89,.48,1.22,.65-1.07,.25-2.19,.51-3.5,.82,1.38,1.62,2.43,.17,3.68,.4,.05,.35,.11,.73,.18,1.17-.56,.33-1.11,.65-1.76,1.03-1.95-.27-3.78-.17-4.25,2.05,1.2,.3,1.61-1.61,3.09-.6-.29,.34-.56,.67-1.15,1.36,1.1-.24,1.72-.38,2.34-.51,.41,.13,.85,.26,1.28,.39,.74-.75,1.42-1.44,2.23-2.26v2.08c-.31,.13-.7,.29-1.39,.57,.84,.33,1.46,.57,2.1,.82-.02,.02-.06,.13-.13,.15-1.25,.26-2.51,.51-3.74,.83-.9,.29-2-.32-3.04,.29,1.01,.95,2.28,.28,3.08,.82-1.27,.32-2.62,.65-4.18,1.03-.38-.03-1.06-.11-1.73-.14-.69-.03-1.38-.01-2.54-.02,1.42-.51,2.38-.85,3.35-1.2-.22-.31-.44-.61-.63-.88-.28-.79,1.45-1.04,.29-2.1-.34,.19-.71,.4-1.23,.7-.36-.53-.67-.97-.98-1.43-.24,0-.48-.01-.91-.03-.11,.84-.21,1.7-.36,2.93-.27-.56-.4-.79-.5-1.04-.2-.47-.4-.94-.68-1.59,.3-.65,2.08-.9,1.02-2.45-.33,.09-.81,.09-1.05,.29-.52,.45-.92,1-1.43,1.59-.11-1.55,.01-1.78,1.68-3.42-.08-.26-.16-.53-.26-.86,.42-.27,.83-.54,1.37-.88v-2.69c-.38-.23-.85-.51-1.45-.87-.61,.33-1.22,.66-1.99,1.07-.27-.3-.59-.66-1-1.11,.57-.57,1.06-1.05,1.45-1.44,.05-.74,.1-1.39,.15-2.05,.49-.17,.91-.31,1.37-.47v-1.27c-1.55-.11-2.34,.62-3.1,1.62-1.4-.11-2.48,.35-2.75,1.79-.37-.45-.7-.85-1.17-1.43,.82-.4,1.91-.61,2.34-1.22,.53-.74,2.03-.47,1.98-1.62,.92-.3,1.91-.51,2.32-1.56-.42-.74-.87-1.55-1.43-2.53-.36,.2-.75,.33-1,.57-.85,.8-1.64,1.63-2.71,2.7-.07-.8-.11-1.25-.15-1.66,.46-.5,.87-.95,1.42-1.55-.83-.19-1.48-.34-2.18-.5-.14-.24-.29-.49-.48-.8,1.29-.57,2.63-1.1,3.53-2.33-.4-.17-.73-.31-1.05-.45-.14-1.01,.97-1.95-.2-3.2-.46,.59-.87,1.11-1.32,1.68-.19-.21-.46-.51-.68-.76-1.24-.42-2.43-.83-3.62-1.24,0-.12-.01-.23-.02-.35,.51-.09,1.03-.18,1.58-.27,.09-.41,.18-.8,.26-1.18,.55-.34,1.09-.68,1.52-.95-.25-1.32-.48-2.5-.72-3.77-.02,0-.25-.05-.57-.1-.38,.7-.76,1.4-1.11,2.05-.71,.09-1.33,.17-2.02,.26-.05,.81-.1,1.49-.15,2.23-1.32-1.27-1.53-2.18-.92-4.04-.09-.17-.21-.43-.37-.67-.16-.24-.36-.47-.32-.42-.14-1.33-.25-2.34-.37-3.46,.14-.16,.4-.45,.62-.71-.65-.67-1.25-1.2-1.73-1.8-.45-.55,.21-1.46-1.05-1.85-.65,.93-1.32,1.9-2.16,3.1,.03,.06,.21,.44,.45,.94-.23,.29-.5,.65-.84,1.09,.26,.49,.53,.98,.82,1.52l-1.09-.09c-.7,1.25,.97,2.07,1.26,3.3-.76,.07-1.42,.13-2.25,.21,.03,.32,.07,.62,.11,.97-.26,.09-.54,.19-.94,.33-.59-.73,.21-1.87-1.08-2.35-.84,.44-.87,.47-1.2,1.16-.46-.23-.93-.45-1.39-.68-.08,.08-.15,.15-.23,.23,.3,.46,.59,.92,.91,1.42-.1,.09-.31,.26-.7,.6,.93,.6,1.78,1.14,2.51,1.61-.31,.05-.83,.12-1.72,.25,1.14,1.03,2.07,1.87,2.98,2.69,.33,.91-.3,1.11-1.08,1.24-.1-.27-.19-.53-.29-.81-.85-.21-1.73-.43-2.56-.63-.14-.54-.24-.95-.34-1.36-.17,.01-.37-.02-.42,.04-.64,.79-.65,1.6,.29,2.43-.33,.11-.65,.21-1.1,.36-.03,.48-.06,1.02-.09,1.63,.58,.4,1.15,.8,1.89,1.32-.5,.14-.86,.25-1.42,.41,.44,.47,.82,.87,1.2,1.28-.49,.22-.99,.43-1.55,.68-.35-.21-.82-.49-1.35-.81-.36,.18-.68,.33-1.1,.54,.44,.54,.82,.99,1.26,1.53-.6,.05-1.12,.1-1.71,.16,.06,.33,.11,.59,.17,.91-.52,.08-1.07,.17-1.88,.31,1.11,1.1,2.11,2.06,2.06,3.59-1.09-.38-2.06-.71-3.15-1.09q.33,1.35,1.8,2.62c-.73,.46-1.46,.92-2.11,1.33l-2.59-.22c-.3,.94,.36,1.57,1.07,2.19-.2,.17-.4,.35-.61,.52,.47,.65,.94,1.29,1.47,2.02-.31,.25-.53,.42-.74,.59-.94-.3-1.75-.56-2.65-.86v.86c.41,.21,.83,.41,1.34,.67v3.15c.96,.38,1.83,.73,2.91,1.16-.21,.34-.3,.74-.58,.91-1.14,.67-2.35,1.26-3.72,1.98-.23-.19-.69-.56-1.33-1.09-.09,.82-.16,1.47-.25,2.21-.3,.13-.63,.26-1.03,.43-.3-.44-.52-.89-.87-1.27-.36-.39-.83-.7-1.26-1.05,.27-.29,.5-.54,.82-.88-.36-.79-.75-1.63-1.19-2.59-2.46-.75-4.62-2.08-6.6-4.13,.68-.07,1.1-.11,1.49-.15,.61,.54,1.16,1.03,1.81,1.61,.37-.32,.62-.53,.88-.75,1.5,.65,2.48,2.42,4.91,2-.91-.62-1.53-1.05-2.15-1.47-.31-1.41,1.35-.47,1.82-1.21-1.18-.74-2.64-.66-3.87-1.19-1.31-.57-2.65-1.07-3.9-1.56,.35-.65,.64-1.2,.94-1.76,.26,.17,.57,.5,.93,.59,.97,.23,1.97,.37,3.12,.29-.46-.35-.96-.68-1.37-1.07-.44-.42-.78-.92-1.2-1.42-1.04-.38-2.49-.12-3.04-1.51,1.23-.28,2.67-.32,3.59-1.54-.75-.26-1.39-.48-2.12-.73,.17-.4,.34-.81,.55-1.31-.26-.02-.52-.11-.67-.04-.57,.27-1.1,.59-1.67,.9-.4-1.53-.28-1.8,.87-2.33,.58-.27,1.13-.59,1.76-.92-.27-.4-.42-.63-.66-.99-.53,.14-1.02,.28-1.56,.43-.36-.66-.72-1.33-1.07-1.99-.36-.72-1.9-.33-1.81-1.64,.29-.09,.64-.19,1.2-.36-.68-.36-1.21-.63-1.77-.92-.18-.7-.35-1.43-.55-2.21-1.48,.18-1.48,1.11-1.6,2.02-.4-.07-.74-.13-1.13-.2-.83,1.08,1.18,1.44,.89,2.48-.7,1.22-1.91-.62-2.92-.04,.19,.28,.38,.56,.67,.99-.71,.03-1.36,.05-2.11,.08-.04,.26-.07,.51-.11,.82,.45,.23,.86,.43,1.33,.67-.1,.17-.16,.45-.3,.47-.82,.12-1.66,.19-2.49,.27-.29-.3-.58-.6-1.01-1.06-.29,.51-.47,.84-.78,1.38-.54-.63-1-1.16-1.54-1.8-.13,0-.43,0-.87,0-.07,.86-.14,1.66-.21,2.6-.57-.17-1.07-.31-1.63-.48-.12-.55-.24-1.08-.35-1.63-.27-.09-.48-.2-.69-.23-.29-.03-.6,.04-.88-.02-.22-.05-.4-.24-.71-.44,.92-1.06,2.16-1.92,1.16-3.59-.34,.24-.61,.43-.93,.66-.04-.23-.18-.47-.11-.61,.31-.58,.69-1.14,1.08-1.75-.39-.47-.72-.86-1.13-1.36,.23-.41,.49-.86,.82-1.44-.66-.45-1.35-.92-2.13-1.46-.04-.51-.08-1.13-.14-1.86-.37-.19-.77-.4-1.32-.69-.08,.63-.15,1.16-.24,1.89-.58,.53-1.3,1.17-2.15,1.94,.17,.29,.4,.71,.79,1.39,.06,1.31-.05,2.84-1.14,4.13-.17,.2-.23,.5-.23,.77,0,1.42,.03,2.84,.06,4.26,.31,.08,.57,.16,.89,.24-.45,.77-.36,1.84-1.83,1.91-.98-1.2-.28-2.53-.71-3.93-.27-.27-.64-.65-1.09-1.1-.5,.2-.96,.38-1.5,.6-.06-.66-.11-1.28-.18-2.06-.3-.33-.7-.75-1.15-1.24-.23,.24-.49,.38-.48,.54,.04,.47,.17,.95,.28,1.45-.27,.34-.52,.65-.79,1,.72,.38,1.44,.76,2.35,1.23-.69,.4-1.13,.48-1.55-.07-.43-.57-.87-.49-1.52-.22,1.05,1.09,2.26,1.75,3.67,2.25-.56,.19-1.07,.37-1.93,.67,1.48,.65,2.61,1.15,3.9,1.71v.98c-.63-.36-1.08-.61-1.54-.86-.3,.14-.63,.29-.94,.44-.17-.19-.33-.35-.55-.59-.19,.2-.52,.37-.54,.58-.05,1.02-.02,2.06-.43,3.08-.06-.79-.13-1.59-.19-2.34-.87-.76-1.28-.27-1.74,.33-.66-.75-1.3-1.47-2.08-2.36-.38,.51-.64,.87-.9,1.23,.29,.78,.56,1.51,.85,2.28-.46,.29-.94,.58-1.57,.98,1.56,1.16,2.93,2.17,4.3,3.17-.12,.38-.24,.75-.4,1.25-.46-.25-.89-.49-1.52-.83-.32,.44-.62,.85-.89,1.22,.64,1.17,2.2,1.98,1.27,3.4-1.87-1.12-2.49-3.11-4.29-4.49-.5,1.23-2.19,1.83-1.48,3.58,.77,.56,1.61,1.17,2.43,1.77-.15,.13-.3,.25-.61,.52,.78,.28,1.42,.52,2.05,.74,.87,.72,1.75,1.45,2.72,2.25-.08,.18-.18,.41-.37,.84-.65-.36-1.15-.71-1.71-.94-.5-.21-1.06-.31-1.42-.41-1.16-1.09-2.21-2.08-3.25-3.06-.6,.26-.99,.43-1.62,.7,1.04,1.2,1.98,2.28,2.91,3.36-.21,.14-.44,.3-.76,.53,.71,.93,1.42,1.86,2.22,2.91-.53,.12-1,.22-1.56,.34-.58-.26-1.23-.55-1.86-.83-.71,.15-1.37,.3-2.12,.46v3.13c.56,.48,1.14,.97,1.69,1.44-.12,.45-.23,.82-.35,1.26,1.06,.74,2.07,1.45,3,2.1-.49,.13-1.16,.32-1.99,.54-.29-.24-.76-.64-1.33-1.11-.32,.16-.63,.32-1,.5,.27,.83,.52,1.6,.83,2.55,.47,.28,1.13,.66,1.87,1.1-.78,.12-1.43,.22-2.26,.35,.35,.39,.53,.59,.8,.88-1.23,.2-2.39,.39-3.55,.59,.33,1.17,1.43,.74,2.15,1.27-.87,.51-1.7,1.01-2.79,1.66-.1-1.26-.19-2.32-.28-3.44-.26-.18-.58-.4-.9-.62-.09-.71,1.22-1.15,.2-2.11-1.66,.51-1.4,2.09-2.06,3.19-.29-.33-.56-.65-.87-1-.42,.31-.8,.59-1.27,.92-.04,.54-.09,1.15-.14,1.89-.5,.11-1.05,.23-1.64,.36v-2.95c.49-.26,1.15-.49,1.61-.9,.45-.39,1.09-1.04,.94-1.43-.33-.86,.4-1.37,.32-2.15l-1.91-.16c-.42,.46-.83,.91-1.27,1.39-.17-.18-.35-.3-.33-.36,.45-1.17-.41-2.33-.39-3.4,.6-.44,1.15-.85,1.99-1.47-1.19-.23-1.97-.39-2.86-.56-.2-.5-.49-1.2-.83-2.02,.02-.02,.15-.15,.37-.36-.12-.43-.27-.96-.44-1.55-.5-.22-1-.44-1.49-.66,.85-.54,1.11-1.2-.07-2.46-.63,.67-1.22,1.29-1.99,2.1,.14-.64,.23-1.05,.32-1.51-1.28-.68-1.68,.36-2.55,.73-.44-.32-.93-.67-1.5-1.08,1.64-1.05,3.25-2.08,5.02-3.22-1.63-1.32-.44-2.89-1.13-4.56-.57,.7-1.04,1.27-1.5,1.84-.9,.25-2.14-.45-2.77,.54-1.19-.74-1.47,.91-2.82,.47,1.47-1.17,2.82-2.24,4.43-3.53,.02-.18,.06-.71,.11-1.26,.38-.21,.76-.42,1.05-.59,.1-.98,.19-1.87,.32-3.18-.59,.56-.88,.82-1.13,1.06-.42-.45-.88-.93-1.52-1.6-.39,1.04-.23,2.11-1.65,2.38-.11-.57-.22-1.1-.35-1.78-.5-.07-.99-.14-1.63-.24,.3-.84,.58-1.65,.93-2.62-.18-.16-.46-.41-.71-.63,.05-.59,.15-1.17,.13-1.75-.01-.58-.15-1.16-.24-1.88-.63-1.01-1.34-2.17-2.3-3.7-.3,.76-.46,1.18-.63,1.6,.11,.06,.23,.11,.34,.17-.66,.6-1.33,1.2-2.03,1.83,1.6,2.02,0,3.55-.54,4.88-.08,1.52-.14,2.65-.2,3.86-.37,.05-.65,.08-.94,.12-.19-.83-.37-1.61-.57-2.52-.61,0-1.12,0-1.72-.01-.13-.8-.15-1.66-1.05-2.34-.28,.14-.52,.26-.83,.42,.27,.42,.5,.78,.77,1.2-.27,.26-.55,.53-.93,.91,.29,.21,.54,.39,.81,.58-.39,.1-.74,.2-1.46,.38,1.08,.58,1.92,1.03,2.72,1.46-.26,.14-.57,.32-1.06,.59,.94,.58,1.76,1.08,2.66,1.64-.79,0-1.55,0-2.34,0-.19,.17-.4,.36-.66,.6-.25-.07-.55-.15-.89-.24-.15,.27-.31,.56-.53,.96-.45-.58-.85-1.1-1.23-1.6-.81-.26-1.32-.19-1.27,.76,.19,.1,.45,.24,.7,.38,.2,.11,.4,.22,.57,.32v1.08c-.45,.15-.86,.29-1.32,.45,.08,.23,.08,.48,.22,.6,.95,.8,1.94,1.57,2.98,2.41-.17,.3-.32,.58-.5,.9-.31-.23-.57-.44-.92-.71-.37,.24-.73,.47-1.17,.77,.71,.85,1.63,1.65,1.14,2.85-1.6-.83-1.97-2.44-3.25-3.47-1.07,.39-1.12,1.4-1.85,2.18,.92,.95,1.84,1.9,3.11,3.2,.87,.56,2.17,1.4,3.59,2.32-.24,.43-.46,.83-.69,1.25-1.83-1.48-3.61-2.93-5.51-4.47l-2.7-.23c-.11-.92-.21-1.79-.33-2.83-.41,.1-.74,.18-1.19,.28-.09,.69-.19,1.42-.29,2.22-.59-.09-1.13-.17-1.96-.29,.71,.94,1.22,1.64,1.83,2.44-.53,.29-.89,.49-1.34,.73-.56-.36-1.11-.72-1.76-1.14-.22,.42-.42,.82-.69,1.34-2.5-2.16-5.81-2.83-8.82-4.24,.09-.35,.17-.64,.3-1.09,.49,.28,.8,.46,1.11,.64,.31,.18,.62,.36,1.12,.66,.2-.8,.36-1.42,.58-2.29,1.09,.82,2.04,1.53,3.02,2.26,.16-.13,.32-.26,.57-.47-.26-.41-.52-.83-.74-1.17,.71-.5,1.4-.99,2.08-1.48-.73-1.24-1.18,.01-1.7-.24-1.46-.56-2.91-1.13-4.37-1.69-.04,.08-.07,.16-.11,.24-.72-.47-1.44-.95-2.23-1.47-.03-.46-.06-.91-.11-1.52,1.12,.55,2.04,.99,3.08,1.5,.41-.16,.88-.34,1.57-.6,.06,.11,.19,.35,.32,.58,.21-.1,.34-.16,.61-.3-.63-1.66-2.58-2.41-3.77-3.78,.64-.66,1.25-1.29,1.87-1.92-.14-.29-.27-.55-.49-1-.94,.34-1.85,.66-2.91,1.04,.19-.74,.33-1.25,.53-2.04,.17-.11,.64-.41,1.4-.9-.34-.17-.55-.34-.77-.36-.75-.09-1.51-.14-2.29-.21,0-.57,1.53-.66,.42-1.69-.58,.31-1.18,.64-1.89,1.02-.34-.56-.63-1.04-.92-1.53,.59-.65,1.12-1.24,1.88-2.07-.95,.11-1.52,.17-2.25,.25-.11-.83-.21-1.57-.32-2.41-.34-.16-.69-.32-1.22-.58-.08,1.02-.15,1.96-.22,2.89-.67-.02-1.31-.03-2.19-.05,.5,.71,.86,1.21,1.22,1.72-1.72,.52-2.81,1.25-3.55,2.39-.56-.02-1.18-.03-1.98-.06,.8,1.6,2.27,2.32,3.78,3.22-.43,.59-.83,1.16-1.14,1.58-.56-.49-1.14-1.01-2.03-1.79,.08,.87,.13,1.31,.18,1.88-.75,.02-1.43,.05-2.18,.07-.03,.33-.05,.58-.07,.81,.82,.46,1.58,.88,2.5,1.39l2.43,.2c.04,.1,.08,.2,.12,.3-1.28,.45-2.56,.91-3.85,1.36-1.06,.68-2.62,1.02-3.18,2.27,.82,.96,1.22,.24,1.73-.09,.25,.17,.5,.35,.75,.53l1.49-.79c.3,.66,.57,1.26,.89,1.96-.21,.15-.6,.44-1.01,.75-1.61,.02-3.4-.4-4.44,.83-.97,0-1.75,0-2.53-.01-.03,.1-.06,.2-.09,.31l2.16,.91c-.07,1.25-2.21,.97-2.05,2.54,1.64-.68,3.15-1.31,4.73-1.96,.27,.3,.61,.65,1.01,1.09,.6-.53,1.13-.99,1.64-1.44l1.84,.15c-.7,1.04-1.68,1.62-2.74,2.08-.98,.43-2.06,.7-3.41,.73-.35,.56-.65,1.14-1.06,1.66-.38,.49-.86,.9-1.34,1.39,.2,.28,.37,.5,.6,.82,.77-.55,1.47-1.04,2.3-1.64-.18,1.56-1.95,1.69-2.59,2.61-.68,.97-2.27,1.4-2.18,2.83,1.49,1.04,1.42-1.02,2.69-.63v2.23c.74-.63,1.21-1.03,1.67-1.43-.03,.38,.02,.72,.15,1.02-.12,.15-.2,.32-.11,.52,.18,.08,.42,.19,.65,.29,.07,.08,.12,.17,.2,.25-1.54,.35-3.13,.71-4.79,1.09-.41-.6-.87-1.26-1.43-2.09-.31-.17-.95-.52-1.73-.95-.26-.39-.62-.93-1.07-1.59,.31,.04,.59,0,.7,.11,.39,.41,.72,.88,1.1,1.36,.38,0,.76,.02,1.28,.03,.08-.66,.15-1.26,.22-1.8-.77-.89-1.46-1.68-2.15-2.46,.17-.14,.39-.33,.72-.62-.43-.52-.83-1.01-1.24-1.5-2.13-.15-4.18-.39-5.47-2.51-.94-.67-1.89-1.34-2.79-1.98-.17-1,.28-1.37,1.23-1.41,1.33,.53,2.15,1.47,1.95,3.06,.55,.02,1.1,.04,1.78,.06,.11-.72,.22-1.4,.33-2.1,1.83,2.5,4.55,3.43,6.87,4.79,.83-.51,.76-1.08,.32-1.54-.5-.53-1.13-.95-1.72-1.39-.68-.5-1.38-.97-2.35-1.65,1.43-.21,2.49-.36,3.74-.55,.04-.38,.09-.88,.17-1.59-1.38-.18-2.63-.35-3.96-.53-.19-.39-.4-.82-.59-1.2-2.14-.43-4.23-.85-6.15-1.24-.3-.58-.46-.88-.61-1.18,.41-.16,.8-.32,1.34-.53-.28-.34-.47-.58-.73-.9,.1-.08,.26-.18,.37-.31,.15-.17,.28-.36,.44-.57,.66,.63,1.31,1.27,2.12,2.05,.35-.54,.6-.94,.91-1.41,.37,.46,.73,.9,1.11,1.37,.39,0,.77,.02,1.3,.03,.06-.51,.11-.96,.17-1.53-.77-.47-1.53-.92-2.32-1.4-.05-.53-.11-1.09-.18-1.81-1.25-.4-2.54-.81-3.86-1.23-.03-.36-.05-.79-.11-1.22-.05-.38-.16-.75-.26-1.24,1.78-.28,3.3-.84,4.34-2.31-.98-1.09-2.26-.28-3.33-1.1,.14-.68,.3-1.41,.47-2.21-1.7-1.05-2.17,.53-3.22,1.25-.41-.53-.82-1.08-1.39-1.82,1.92-1.38,3.66-2.63,5.5-3.95-.02-.21-.05-.51-.1-.94l-3.19-.27c-.66-1.15-1.28-2.23-1.78-3.09-1.1-.68-2.02-1.26-3.15-1.97,.63-.39,1-.63,1.42-.89,.18-.54,.37-1.12,.57-1.7-.15-.06-.31-.19-.4-.16-.82,.3-1.63,.62-2.63,1.01-.17-1.84-.32-3.51-.48-5.21-1.18-.69-1.34,.67-2.21,.95v2.87c-.96-.21-1.76-.39-2.88-.63,.22,.71,.24,1.19,.48,1.49,.52,.63,1.15,1.16,1.82,1.81v1.45c-1.7,1.01-3.4-1.26-5.28-.17,.72,.56,1.27,.98,1.97,1.53-1.29,.49-2.48,1.03-4.15,.5,.54,1.82,1.77,1.86,2.93,2.01-.48,.84-.93,1.63-1.41,2.48-.4-.36-.88-.8-1.48-1.36-.58,0-1.26,0-2.14,0,.53,1.23,.95,2.22,1.51,3.53,.58,.32,1.41,.78,2.25,1.24-2.06,.7-3.67,2.04-5.29,3.44-.52-.63-1.01-1.24-1.58-1.93-.12-.99,.87-1.9,1.65-3.39-1.18,.14-2.15,.26-3.33,.4v-5.39c-.66-.64-1.2-1.16-1.68-1.62-2.14,1.25-1.28,3.89-1.78,6.21-.6-.57-1.02-.96-1.53-1.44-.42,.57-.87,1.18-1.39,1.9,.66,.75,1.19,1.35,1.82,2.07,.09,1.31,.43,2.72-.52,3.82-1.15-.66-1.82-2.64-3.5-1.89-.06,.38-.13,.85-.21,1.44,.55,.42,1.04,.8,1.96,1.5l-4.81-.4c-.04,1.08-.07,1.89-.11,2.88,1.05,.29,1.92,.52,3.08,.84-.67,.94-1.16,1.64-1.81,2.54-.42-.48-.84-.96-1.41-1.61-.31,0-.59,5.23-.92,10.53-.35,3.06-.69,7.05-1.03,10.44-.06,.18-.12,.5-.19,.5,0,.07,.04,.12,.05,.19-.14-.16-.28-.33-.38-.52-.06-.62-.12-1.25-.2-2.02-.5-.08-.95-.15-1.45-.24-.86,2.16-2.29,3.8-3.96,5.35-.64-1.77,.21-2.82,1.25-3.71-.03-.58-.06-1.05-.1-1.64-.88-.27-1.75-.55-2.97-.93,1.62-1.13,2.92-2.03,4.38-3.05v-1.73l-1.65-.14c.62-1.13,1.12-2.04,1.7-3.1-.42-.46-.89-.99-1.45-1.62-.54,.37-.95,.65-1.54,1.06-.96-.15-2.13-.32-3.27-.5-.55-.49-1.07-.96-1.61-1.44,.72-.54,1.44-1.08,2.45-1.83-1.02-.28-1.67-.46-2.72-.75,1.41-.27,2.47-.47,3.65-.7,.19-.23,.47-.58,.75-.92,.49,.13,.92,.24,1.35,.36-.92-1.39-.94-1.42-2.5-1.71-.25-.63-.52-1.3-.79-1.97,.18-.75,.36-1.5,.56-2.34-.45-.33-.84-.61-1.25-.9-.22,.43-.42,.81-.64,1.24-2.36-1.51-4.96-2.6-5.86-5.69-.33,.25-.54,.41-.75,.57-.89-1.5,1.82-2.21,.41-3.92-.32-.09-.77-.22-1.21-.34-.04-.07-.11-.16-.1-.17,.38-.37,1.41-.04,1.07-1.3-.31,.2-.6,.39-.99,.64-.3-.13-.65-.3-1.09-.49,.09-.59,.16-1.1,.25-1.69-.3-.37-.61-.75-1.02-1.25-.46,.39-.88,.76-1.29,1.11-.05,.76-.09,1.47-.13,2.23-1.47,.31-1.99,1.2-1.78,2.73,.15,1.13,.03,2.28,.03,3.76-.18,.19-.59,.62-1.02,1.07v2.05c.52,.75,.98,1.41,1.35,1.94-.32,1.71-1.6,.02-2.22,.83,.08,.49,.19,1.09,.31,1.77-.46,.17-.87,.32-1.27,.47-.1,.31-.19,.6-.38,1.18-.41-1.54-.74-2.81-1.11-4.2,.37-.12,.72-.23,1.22-.39-.72-.32-1.33-.58-2.04-.89-.49,.8-.95,1.54-1.58,2.56-.37-.75-.6-1.21-.89-1.79l-1.08-.09c-.1,1.21-.02,2.36,1.04,3.09-.26,.6-.5,1.17-.84,1.98,1.26,.5,2.27,.9,3.29,1.31-.42,.06-.89,.14-1.62,.25,.11,.61,.17,1.2,.33,1.76,.14,.51,.39,1,.6,1.5,.73,0,1.44,.05,1.83,.88v2.62c-.28-.48-.39-.7-.53-.89-.14-.2-.31-.38-.42-.53q-1.7-.03-2.23-1.32c-.35,.38-.7,.76-1.25,1.37-.03-.27-.06-.49-.09-.74,.15-.16,.29-.31,.45-.47-.17-.31-.36-.44-.56-.48-.04-.35-.08-.7-.12-1.07-.4-.05-.75-.1-1.27-.17-.03,.65-.05,1.25-.08,1.86-.08,.04-.15,.1-.23,.14-.77-.73-1.5-1.43-2.53-2.39-1.2-.43-2.77-1-4.63-1.67-.54-1.17-1.19-2.55-2.03-4.35,1.62,1.05,2.78,2.12,4.04,2.51,1.2,.37,2.5,0,3.84-.03,.53-2.14-1-3.03-1.83-4.18-.9-1.25-2.07-2.21-3.02-3.19,.82-1.54,1.71-3.22,2.67-5.03-1.46-1.11-2.57-1.01-3.51,.12-.33-.73-.67-1.5-.99-2.2,.74-.55,1.6-1.19,2.51-1.87-.98-2.29-2.51-1.32-3.68-1.87,.21-.82,.43-1.65,.65-2.48-.16-.16-.33-.31-.49-.47-.72,.66-1.43,1.32-2.18,2.02-1.52-.27-1.72-1.55-1.5-3.92,.34-.24,1.1-.78,1.98-1.4-.4-.68-.64-1.37-.84-1.36-.67,0-1.32,.24-2.15,.43-.2-1.91-.38-3.63-.59-5.68-2.49,1.2-1.02,4.1-1.94,5.86l-2.69-.23c.79,1.22,1.32,2.05,1.91,2.97-1.11,.75-2.04,1.39-3.44,2.34,1.38,.39,2.22,.63,3.14,.88-.25,.64-.47,1.18-.69,1.73q-2.3-1.92-4.23-.07c-.87-.32-1.85-.67-2.72-.99-.62,1.33-1.21,2.61-1.66,3.58v8.18c.41,.49,1.15,1.37,2.03,2.43-1.42,2.98-3.12,5.7-4.66,9.07,1.69,.34,2.87,.58,4.1,.83-.56,3.17-.91,3.39-3.89,2.71-.21,.34-.5,.83-.85,1.39l-2.78-.23s-.03,.04-.05,.07c-.48,0-.95,0-1.5,0-.2-.96-.44-2.04-.66-3.11,.08-1.05-.08-2.16-.4-3.36-1.79,1.22-2.43,3.08-2.65,5.36-.14-.08-.29-.17-.44-.26-.16,.16-.4,.41-.75,.78-.69,.07-1.47,.14-2.44,.24-.06,1.79-.12,3.43-.18,5.12-.57-.27-1.11-.64-1.66-.83-.22-1.41-.44-2.82-.69-4.42,1.77-3.05-.67-6.75,.08-10.31-.46-.98-.92-1.97-1.45-3.11,.48-.69,.9-1.3,1.42-2.06-.52-1.15-1.07-2.33-1.67-3.64-.34,.06-.72,.12-1.26,.21-.35-2.34-.7-4.71-1.05-7.07q-1.47-.42-2.75,.52c-.07,1.14-.14,2.41-.24,4.04-.82,.86-1.8,1.88-2.97,3.1,.33,.72,.71,1.56,1.09,2.39-.46,.72-.94,1.46-1.51,2.33,.36,1.16,.71,2.3,1.12,3.61-.15,.06-.55,.24-1.12,.49-.36,1.88-.23,3.7,.37,5.58-.27,.88-.56,1.81-.86,2.8-.18-.04-.35-.08-.52-.12-.05-.21-.1-.4-.15-.59-.08-.04-.18-.08-.26-.12,.14-.51,.16-1.07-.05-1.73-.36-.2-.73-.4-1.04-.57h0s-.05-.03-.07-.04c.34-.88,.66-1.68,1-2.52-.58-.51-1.08-.95-1.59-1.4,.14-.29,.26-.54,.41-.84-.57-.11-.95-.19-1.32-.26-.06-.36-.14-.78-.21-1.17,.41-.53,.7-1.1,.17-1.97-.17-.09-.58-.3-.81-.41,.24-.78,.48-1.53,.71-2.28-.85-.61-1.54-1.11-2.14-1.55-.17-.93-.33-1.79-.49-2.63-1.82-.36-1.95-.2-1.58,1.79-.58,.52-1.32,1.02-.72,2.1-.57-.11-1.06-.19-1.7-.31-.07,.51-.13,.94-.19,1.37,.47,.22,.82,.39,.97,.46-.62,1.58-1.06,3.14-.89,4.97-.43,.33-1,.76-1.6,1.21,.42,.92,.78,1.7,1.15,2.51-1.07,.79-.37,2.11-.57,2.83-.78,.33-1.35,.58-1.9,.82v-3.09c-.5-.45-1.01-.92-1.7-1.55-.4,.58-.68,.99-1.03,1.5-.61-1.53-1.2-3.01-1.81-4.53-.41-.01-.71-.02-1.25-.04,.24,.89,.45,1.67,.71,2.64-.42,.31-1.11,.71-.57,1.55,.86,.36,1.77,.74,3.13,1.3-1.75,.36-2.89-1.15-4.3-.37,1.33,1.28,3.12,1.8,4.7,2.83-.79,.06-1.48,.11-2.63,.2,1.71,1.1,3.05,1.91,5.02,2.49-1.3,.19-2.21,.32-3.46,.51-.09-.05-.49-.29-1.15-.68v4.71l-.39-.04v-2.64c-.41-.46-.76-.85-1.25-1.4-.57,.5-1.07,.93-1.68,1.47-.55-.85-1.1-1.69-1.67-2.56-1,.05-1.41,.55-1.75,1.26,.31,.54,.62,1.1,1.02,1.81-.64,0-1.15,0-1.55,0-1.07-1.03,.48-1.71-.06-2.65-1.42-.03-2.01,1.06-3.22,1.7-.43-.7-.83-1.36-1.36-2.23,1.79-1.07,3.59-2.15,5.47-3.27-.31-.28-.7-.64-1.1-1-.89,.09-1.73,.16-2.75,.26,.11-.56,.19-.97,.25-1.31-.35-.65-1.5-.38-1.51-1.35,0-.3-.89-.66-1.36-.99-.57-.4-1.15-.8-1.91-1.34,.64-.39,1.22-.75,1.87-1.15-.03-.19-.07-.45-.11-.73-.85,.05-1.6,.1-2.42,.15-.29-1.46-.56-2.82-.83-4.17-1.11-.24-1.31,.46-1.65,.74-.1,.96-.19,1.8-.3,2.92-.89-.41-1.5-.69-2.2-1.01-.14,.13-.34,.31-.52,.47,.23,1.15,1.41,1.38,2.24,1.92v2.02c-.71,.17-1.42,.34-2.4,.58-.43-.51-.81-.97-1.05-1.26-.8-.25-1.86-7.56-2.3-7.94-.67-.58-1.27-1.22-1.91-1.83,.42,0,.83,.02,1.39,.03,.07-.59,.12-1.11,.2-1.76-.4-.24-.81-.49-1.21-.73-.44-.54-.88-1.08-1.42-1.76-.03-.25-.09-.73-.16-1.34-.57-.05-1.04-.22-1.55-.35-.52-.17-1.05-.34-1.59-.51-.5-.22-.98-.46-1.43-.76-.03-.35-.05-.71-.1-1.1-.04-.29-.13-.63-.2-.96,.04,.06,.07,.1,.11,.16,.35,.05,.73,.1,1.21,.16,.13-.34,.26-.64,.37-.93,1.87,1.15,3.74,2.31,5.67,3.5,.28-.14,.52-.27,.75-.39-.38-1.52-2.44-1.44-3.17-2.85,.98-.26,1.93-.52,2.98-.81q-1.17-.63-3.06-.85c-.16-.18-.37-.42-.56-.62,.19-.2,.44-.28,.61-.51-1.13-1.25-2.61-.32-3.84-1.26,.11-.54,.24-1.15,.37-1.74,.82,.1,1.57,.2,2.28,.29,.31-1.47-2.59-1.47-1.79-3.11-.92-.29-1.79-.54-2.62-.81,1.09-.79,2.21-1.59,3.32-2.38-.03-.25-.06-.59-.12-1.08l-1.02-.09s.06-.03,.08-.07c-.37-1.31-1.75-.75-2.55-1.17,.07-.62,.13-1.19,.23-2.17-.66,.4-1.17,.72-1.67,1.02-.27-.46-.59-1.02-.81-1.41-.16-.1-.31-.19-.47-.29,1.17-.76,2.33-1.52,3.6-2.34-.5-.44-.83-.72-1.2-1.06-.75,.23-1.42,.44-2.58,.79,.5-.74,.74-1.1,.98-1.47-1-1.4-2.64-2.16-4.52-3.14,.8-.44,1.25-.7,1.78-.99-.02-.21-.04-.46-.08-.82-.7,.07-1.28,.13-1.92,.2-.24-.62-.45-1.16-.66-1.71-.12,0-.24,0-.36,0-.04,.16-.07,.33-.11,.49-1.2-.56-1.44,.83-2.41,1.13v3.32c-1.11-.24-2.03-.45-3.33-.73,.25,.82,.27,1.38,.56,1.72,.59,.72,1.33,1.33,2.1,2.09v1.67c-1.97,1.17-3.92-1.46-6.1-.2,.83,.64,1.47,1.14,2.28,1.76-1.49,.56-2.87,1.19-4.8,.57,.62,2.1,2.05,2.14,3.38,2.32-.55,.97-1.07,1.89-1.62,2.86-.46-.42-1.01-.93-1.71-1.57-.58,0-1.31,0-2.14,0l.12,.59v.21c-.13-.28-.25-.53-.38-.8h-.07c.16,.37,.3,.71,.45,1.05v.1c-.56,0-1.18,0-1.93,0-1.29-1.58-2.55-3.11-4-4.87-.12-.99,.87-1.9,1.65-3.39-1.19,.14-2.15,.26-3.33,.4v-5.39c-.66-.64-1.2-1.16-1.68-1.62-2.14,1.25-1.28,3.89-1.78,6.21-.6-.57-1.02-.96-1.53-1.44-.42,.57-.87,1.18-1.39,1.9,.66,.75,1.19,1.35,1.82,2.08,.09,1.3,.43,2.72-.52,3.82-1.15-.66-1.82-2.64-3.5-1.89-.06,.38-.13,.85-.22,1.44,.55,.42,1.04,.8,1.96,1.5l-4.81-.4c-.04,1.08-.07,1.89-.11,2.88,1.05,.29,1.92,.52,3.08,.84-.67,.95-1.16,1.64-1.81,2.54-.42-.48-.84-.96-1.41-1.61-.48,0-1.14,0-1.82,.01-.14-.95-1.12-1.54-1.54-2.37-.07-.71-.14-1.44-.23-2.34-.26-.04-.51-.08-.76-.12,.04-.46,.08-.86,.12-1.35-.63-.46-1.14-.85-1.81-1.34-.06-1.16-.12-2.42-.18-3.69l-.65-.05v-.31l-1.9-.16c.72-1.3,1.29-2.35,1.96-3.58-.48-.54-1.03-1.14-1.67-1.87-.63,.43-1.1,.75-1.78,1.22-1.11-.17-2.46-.37-3.78-.57-.63-.57-1.24-1.11-1.86-1.66,.84-.63,1.66-1.24,2.83-2.12-1.18-.33-1.93-.54-3.14-.87,1.62-.31,2.85-.55,4.21-.81,.22-.27,.54-.67,.86-1.06,.56,.15,1.06,.28,1.56,.41-1.07-1.6-1.08-1.64-2.88-1.97-.29-.73-.6-1.5-.91-2.27,.21-.87,.42-1.73,.65-2.7-.53-.38-.97-.7-1.45-1.04-.26,.5-.48,.93-.74,1.43-2.73-1.74-5.72-3-6.77-6.57-.38,.29-.62,.47-.86,.65-1.03-1.74,2.1-2.56,.47-4.53-.37-.1-.89-.25-1.4-.39-.05-.08-.13-.19-.12-.2,.44-.42,1.63-.04,1.24-1.5-.36,.23-.7,.45-1.14,.74-.34-.15-.75-.34-1.26-.57,.1-.68,.19-1.27,.29-1.95-.35-.42-.71-.87-1.18-1.44-.53,.45-1.02,.87-1.49,1.28-.05,.87-.1,1.69-.15,2.57-1.69,.35-2.29,1.38-2.05,3.15,.18,1.31,.04,2.64,.04,4.34-.21,.22-.69,.72-1.18,1.23v2.36c.6,.87,1.13,1.63,1.56,2.24-.37,1.97-1.84,.02-2.56,.96,.1,.57,.22,1.26,.35,2.04-.53,.2-1.01,.37-1.47,.54-.11,.36-.22,.7-.43,1.36-.47-1.77-.86-3.24-1.28-4.85,.42-.14,.83-.26,1.41-.45-.84-.36-1.54-.67-2.36-1.03-.57,.92-1.1,1.78-1.82,2.96-.43-.86-.69-1.4-1.03-2.07l-1.25-.1c-.12,1.39-.02,2.73,1.2,3.57-.29,.7-.57,1.35-.97,2.29,1.45,.58,2.62,1.04,3.8,1.51-.49,.07-1.03,.16-1.86,.29,.13,.71,.2,1.39,.38,2.04,.16,.59,.45,1.16,.69,1.73,.84,0,1.66,.06,2.12,1.02v3.03c-.33-.56-.45-.8-.61-1.03-.16-.23-.35-.44-.49-.61q-1.97-.04-2.57-1.53c-.41,.44-.81,.88-1.45,1.58-.14-1.16-.24-2.09-.37-3.19-.46-.06-.86-.12-1.47-.2-.06,1.43-.12,2.69-.18,4.1-.36,.1-.78,.22-1.19,.33-.06,.97-.11,1.68-.1,2.26-.65-.68-1.32-1.32-1.92-1.94,.82-1.54,1.71-3.22,2.67-5.03-1.46-1.11-2.57-1.01-3.51,.12-.33-.74-.67-1.5-.99-2.21,.73-.55,1.6-1.19,2.51-1.87-.98-2.29-2.51-1.32-3.69-1.87,.21-.82,.43-1.65,.65-2.48-.16-.16-.33-.31-.49-.47-.72,.66-1.43,1.32-2.18,2.02-1.52-.27-1.72-1.55-1.49-3.92,.34-.24,1.1-.78,1.98-1.4-.4-.68-.64-1.37-.84-1.37-.67,0-1.32,.25-2.15,.43-.2-1.91-.37-3.63-.59-5.67-2.49,1.2-1.02,4.1-1.94,5.86l-2.7-.23c.79,1.22,1.32,2.05,1.91,2.98-1.11,.75-2.04,1.39-3.44,2.34,1.38,.39,2.22,.62,3.14,.88-.25,.64-.47,1.18-.69,1.73q-2.3-1.92-4.23-.07c-.87-.32-1.85-.67-2.72-.99-.62,1.33-1.21,2.61-1.66,3.58v8.18c.41,.49,1.15,1.37,2.03,2.43-1.42,2.98-3.12,5.7-4.66,9.07,1.69,.34,2.87,.58,4.1,.83-.56,3.17-.91,3.39-3.89,2.71-.21,.34-.5,.83-.85,1.39l-2.71-.23c.38-1.08,.78-2.25,1.27-3.64-.39-.79-.78-1.9-1.89-2.16-.18-.49-.34-.96-.55-1.53-1.23-.18-2.4-.34-3.63-.52,.3-.34,.52-.59,.74-.84-.63-.69-1.27-1.39-2.23-2.44-.43-.2-1.19-.56-2.1-.99,1.75-.85,3.58-1.56,4.82-3.66-.63-.36-1.08-.63-1.65-.96,.06-.48,.13-.94,.2-1.47-.31-.49-.68-1.06-.98-1.53,.27-1.65,.51-3.1,.79-4.82-1.59,.31-1.89,1.49-2.2,2.84-.29,1.28-.87,2.43-1.33,3.64-.36-.31-.88-.76-1.75-1.52-.13,.19-.25,.36-.37,.54-.1-.47-.18-.86-.29-1.36-.65,.26-1.1,.44-1.55,.62-.02,.36-.04,.71-.05,1.06-.13-.28-.24-.51-.37-.8-.31,.05-.68,.11-1.14,.19v-3.83c.15-.03,.29-.07,.43-.1-.48-.88-1-1.82-1.56-2.84-.02-.1-.03-.19-.04-.29-.06-.02-.08-.02-.13-.04-.06-.11-.1-.18-.16-.29,.05-.56,.12-1.43,.19-2.38-1.36-1.49-.51-3.49-.86-5.27,.42-.76,.8-1.45,1.32-2.4-2.54-1.91-3.53-4.7-3.18-8.23-.51-.22-.88-.38-1.54-.65-.62,1.66-1.23,3.29-1.84,4.92l.28,.25c-.77,.76-1.53,1.52-2.43,2.42,.31,1.14,.64,2.35,.97,3.59-1.3,.73-1.07,2.18-.91,3.55,.61,1.11,1.19,2.16,1.77,3.21-.09,.16-.18,.32-.26,.48-.64-.41-1.28-.82-2.02-1.3-1.08,1.17-.92,2.47-.12,4.02,.72,1.4,1.63,2.84,.93,4.88-.61-.19-1.24-.39-2.21-.69-.07,1.4-.14,2.71-.21,4.09-.41,.17-.86,.36-1.37,.57-.15,.53-.31,1.1-.54,1.9-.66-2.92-1.28-5.62-1.88-8.28-2.11-.43-.98,3.26-2.87,3.28-.27-.68-.56-1.44-.95-2.43-.83,.26-1.63,.52-2.43,.77-.15-.08-.32-.18-.45-.25,.4-1.01,.77-1.93,1.15-2.91-1.03-.91-1.85-1.63-2.81-2.47-.22-1.23-.49-2.68-.76-4.19-.57-.37-1.11-.73-1.74-1.15-.37,.38-.87,.65-.91,1-.09,.9-.05,1.84-.03,2.78-.36,.3-.66,.55-1.09,.9-.31-.23-.73-.55-1.3-.97v-2.97c.53-.31,1.05-.62,1.62-.95-.02-.54-.04-1.03-.07-1.75-.78,.15-1.4,.26-1.98,.37-.93-1.72,.45-4.16-1.72-5.38-.93,1.68-1.07,3.67-1.18,5.62-.81-.14-1.46-.25-2.58-.44,.8,1.47,1.33,2.46,1.83,3.38-1.17,.64-2.23,1.22-3.95,2.16,1.34,.38,2.13,.6,2.94,.83-.47,.25-.78,.67-.77,1.42-.4-.36-.82-.73-1.16-1.04-1.37,.6-2.63,1.15-4.14,1.81,.12,.49,.13,1.32,.46,1.73,1.18,1.44,2.46,2.73,3.67,4.04-.28,1.16-.48,1.97-.72,2.91-1.03-.95-2.04-1.89-3.49-3.24,.27-.28,.54-.56,.82-.85-.46-.7-.77-1.16-1.17-1.78-.72,.45-1.38,.85-2.42,1.5,.34-.95,.53-1.46,.73-2.02-1.07-1.32-2.01,.13-3.11,0-.22-.34-.45-.71-.92-1.44,.97-.08,1.65-.14,2.33-.2,0-.32,.08-.65-.01-.75-.75-.83-1.52-1.62-2.41-2.55,.55-.96,.83-1.45,1.24-2.17-.7-.26-1.3-.48-2-.74-.44-1.82-.9-3.7-1.36-5.58-.15,0-.3,0-.44,.02-.31,1.8-.62,3.6-1.02,5.94-.67-.84-.99-1.24-1.39-1.74-.27,.29-.54,.59-.92,1.02,.63,1.09,1.22,2.11,1.91,3.3-.11,.45-.17,1.08-.42,1.54-.19,.36-.61,.51-1.03,.83-.86-.8-1.66-1.55-2.49-2.32-.86,1.76,.57,2.33,1.39,3.58-1.57-.13-2.94-.25-4.44-.37,.46,1.79,1.33,2.49,2.66,2.59-.38,.71-.63,1.18-.88,1.65,.31,.72,.63,1.45,.94,2.17-.11,.12-.22,.23-.32,.35-.66-.66-1.31-1.33-2.21-2.23-.48,0-1.24,0-2.36,0,1.04,1.98,1.88,3.57,2.69,5.1-1.52,1.48-3.24,3.16-5.17,5.05,1.2,.93,2.17,1.68,3.15,2.44,1.49-.74,3-1.48,4.8-2.37-.28,1.28-.5,2.28-.74,3.4-2.79,1.11-5.58,2.23-8.61,3.44-.36-.23-.89-1.73-1.87-.46,.74,1.16,1.47,2.3,2.05,3.22-.13,1.37-.23,2.41-.38,3.93,1.54-1.4,2.75-2.5,3.88-3.52,1.41,.78,1.37,2.32,1.67,3.85,.76-.68,1.36-1.22,1.98-1.78,.35,.26,.7,.52,1.1,.82-.63,.8-1.24,1.59-2,2.55-3.72-.51-6.55,2.4-9.65,4.32m26.64-22.21c.08,.09,.15,.19,.23,.28-.08-.02-.12-.03-.2-.05,0-.07-.02-.16-.03-.23Zm19.93,3.62c.14-.27,.27-.53,.36-.72,.19,.09,.39,.16,.59,.24-.32,.16-.63,.32-.95,.48Zm1.36-.31c1.16,.46,2.35,.91,3.41,1.69-.39,1.36-.77,2.72-1.18,4.13-.13-.74-.26-1.41-.38-2.08-.51-.34-.98-.65-1.96-1.3l2.11,.18c-.73-.95-1.34-1.74-2-2.61Zm39.39,62.39c.17,.01,.35,.03,.52,.04-.04,.04-.1,.11-.14,.15-.14-.07-.25-.13-.38-.19Zm54.16-49.87c.1-.05,.2-.1,.3-.15,0,.06,0,.12,0,.17l-.3-.02Zm78.44,41.16c.55-.23,1.1-.45,1.65-.68,.34,.08,.68,.17,1.07,.26,.08,.85,.17,1.78,.27,2.91-1.2-.82-2.36-1.49-2.99-2.49Zm75.28,3.26s.03-.06,.05-.09c.02,.02,.02,.05,.04,.07-.04,.02-.06,0-.09,.02Zm58.56,6.28s0-.06,0-.09c.2-.07,.37-.14,.57-.21,0,.28-.14,.4-.23,.59-.12-.09-.23-.19-.35-.28Zm.66-30.16c.24-.2,.48-.41,.73-.62v.83c-.25-.07-.5-.14-.73-.21Zm204.76,16.61c-1.36-.08-1.65,1.33-3.05,.99v-2.24c.62-.23,1.23-.45,1.95-.71-.04,.42-.08,.78-.12,1.11,.36,.26,.67,.47,1.21,.86Zm38.77,3.66c1.03,.55,1.97,1.05,3.06,1.63,.36,.6,.35,1.27-.13,2.08-1.25-1.25-2.46-2.3-2.93-3.71Zm55.01,26.98c-.47,.36-.81,.62-1.1,.84l-2.4-.2c-.5-.35-1.09-.75-2.31-1.59,.59-.18,.87-.32,1.18-.34,2.17-.19,3.28-1.45,4.23-2.92,.22-.34,.68-.55,1.03-.82,.09,.06,.19,.13,.28,.19-.39,1.05-.79,2.1-1.19,3.17-.29,.06-.58,.13-.9,.2v1.04c.38,.14,.65,.24,1.17,.44Zm-10.47-7.63c-.11-.46-.19-.85-.28-1.23,.51-.19,1.04-.4,1.32-.5,.21-1.22,.03-2.46,.64-3.09,.64-.65,.66-2.12,2.41-1.99-.01,.99-.86,1.75-.09,2.68,.29-.09,.57-.17,.69-.21,.53-.93,.84-1.59,1.29-2.18,.1-.13,.66,.04,1.04,.07v2.01c1.23-1.14,2.2-2.04,3.3-3.07,.19,1.25-.89,1.79-1.19,2.76,.86,.42,1.68,.83,2.53,1.25-.19,.31-.37,.59-.63,.98l-5.09-.43c.7,.58,1.07,.9,1.77,1.48-1.31,.08-2.28,.14-3.25,.2-.36,.31-.69,.6-1.13,.97,.96,.58,1.73,.74,2.54,.24,.75-.47,1.61-.27,2.67-.05-.3,.39-.5,.66-.66,.86,.24,.28,.41,.49,.58,.69-.95,.47-1.71,1.07-2.62,1.24-.89,.16-1.94-.11-2.91-.19-.13-.67-.24-1.24-.43-2.21-.68,.7-1.08,1.13-1.6,1.66-.35,.02-.88,.06-1.41,.09-.3,.3-.58,.58-.93,.93-.33-.48-.62-.91-.88-1.3,.8-.57,1.55-1.11,2.31-1.66Zm-9.19-6.73c.8,2.09,.68,2.62-.66,3.13-.32-.76-.63-1.52-.98-2.35,.52-.25,1.08-.51,1.64-.77Zm-34.92-16.79c.04-.11,.07-.22,.11-.33,1.43,1.06,2.85,2.11,4.15,3.07-.15,.49-.28,.91-.38,1.23-1.66-.85-3.33-1.73-5.04-2.56-1.5-.72-1.51-.69-2.6-1.87,1.17,.14,2.46,.3,3.76,.46Zm-17.77-11.28c1.4,1.01,2.79,2,4.28,3.07-.33,.28-.65,.54-.76,.64-1.29-.43-2.28-.76-3.26-1.08,.11-.31,.21-.62,.26-.76-.11-.76-1.65-1.1-.52-1.86Zm-23.03,5.29c.38,.48,.65,.83,.81,1.03l1.74,.14c1.23-.92,2.48-1.51,4.4-1.68-1.46,1.38-2.94,2.24-4.29,3.23-.32-.22-.64-.44-.92-.63-1.15,.5-2.28,.98-3.36,1.45-.23-.67-.43-1.24-.72-2.09-.68,.95-1.16,1.62-1.64,2.29-.33-.43-.64-.84-1.02-1.33,1.65-.79,3.27-1.58,5.01-2.41Zm-45.62,6.68c-.86,.95-1.42,1.57-2.2,2.44-.4,.14-1.15,.4-1.99,.7-.09-.65-.17-1.15-.27-1.87,1.36-.39,2.68-.76,4.46-1.27Zm-5.61-5.15c1.02-.33,.38-1.14,.49-1.8,.61,.49,1.14,.93,2.05,1.67-.15-1.02-.24-1.61-.37-2.44,.79,.67,1.33,1.11,1.79,1.5-.5,.86-.88,1.51-1.19,2.04-1.15-.16-2.23-.32-3.37-.48-.18-.38-.33-.71-.69-1.46,.72,.55,1,.76,1.28,.97Zm-20.7-22.25c1.61,.05,3.09-.02,3.97-1.24-.21-.26-.39-.5-.61-.77,.4-.47,.81-.95,1.23-1.43,.17,1.14,.73,2.05,1.88,2.34-1.19,.71-2.45,1.45-3.7,2.19-.89-1.17-1.89-.62-2.97-.25,.07-.3,.13-.54,.2-.83Zm-1.98,3.77c.29-1.27,2.05-.6,2.87-1.25,.09-.07,.42,.09,.71,.16v1.21c-.4,.26-.79,.51-1.19,.77,.27,.25,.43,.41,.99,.94-1.11-.35-1.62-.52-2.12-.68-.48,.35-.96,.7-1.49,1.08-.83-1.02,.07-1.58,.22-2.24Zm-25,41.72s.14-.25,.39-.48c.22-.2,.52-.33,.91-.56-.13,1.01-.15,.99-3.4,2.93-.38-.33-.78-.68-1.37-1.19,1.17-.24,2.14-.43,3.46-.7Zm-4.58-7.85c.77,.68,1.44,1.27,2.15,1.9-.69,.3-1.22,.53-1.79,.79-.05-.35-.11-.69-.16-1.03-1.28-.27-2.4-.51-3.51-.74-.02-.09-.04-.18-.06-.27,1.12-.22,2.25-.43,3.36-.64Zm-9.9-16.68v1.56l-.5-.41c-.89,.84-1.78,1.69-2.74,2.6l-2.24-.19c2.35-.94,3.66-2.37,5.47-3.56Zm-3.03,32.08c-.59-.98-.83-1.82-1.42-2.23-.69-.48-1.4-.77-1.38-1.84,2.56,1.01,3,1.61,2.8,4.07Zm-15.54-1.35c-.16-.52-.34-.97-.42-1.42-.02-.11,.24-.25,.47-.47,.31,.51,.56,.92,.79,1.3,1.14-.03,1.13-.04,1.79-.57,.14-.11,.34-.16,.51-.24,.47,.47,.88,.87,1.42,1.41-.73,.56-1.37,1.04-1.84,1.39-1.41-.4-2.63-.75-3.93-1.12,.45-.11,.8-.19,1.21-.29Zm-19.51-29.61c.33,.72,.64,1.4,1.03,2.25-1.43,0-2.66,.4-3.5-.91,.84-.46,1.59-.86,2.47-1.35Zm-26.6,13.89c1.16,.34,2.31,.67,3.67,1.07-.19,.15-.33,.25-.5,.38-.53-.06-1.07-.13-1.62-.2,.11,.44,.19,.8,.29,1.21-.04,.03-.08,.06-.12,.09l-.22-.02c-.53-.33-1.01-.64-1.5-.94v-1.58Zm-25.66-33.92c.04-.23-.01-.59,.12-.66,.93-.53,1.89-.99,2.98-1.55-.17,1.07-.29,1.88-.45,2.89-.76,.08-1.48,.15-2.21,.22-.02,.17-.04,.37-.06,.63h0c-.4-.13-.81-.13-.88-.15-.43-.53-.84-1.02-1.26-1.53l1.77,.15Zm-15.57,16.16c.22,2.26-.93,2.88-1.93,3.57,.04-.3,.07-.53,.1-.84-.16-.2-.42-.52-.58-.73-.33-.19-.65-.24-.97-.33,1.13-.56,2.24-1.11,3.37-1.68Zm-6.14,12.13c-.18,1.06-.36,1.85-.55,1.83h0c-.3-.34-.6-.68-.95-1.09,.56-.27,1.07-.45,1.5-.74Zm-3.62,2.7c.78-.21,1.91-.52,3.04-.83-.75,.9-1.5,1.79-2.24,2.69-.23-.06-.37,0-.57,0v-.32l-2.12-.18c.57-.37,1.12-.81,1.88-1.37Zm-11.7-28.93c.48-.72,.85-1.25,1.27-1.87,.89,.63,1.8,1.26,2.69,1.89,.21-.18,.4-.35,.66-.57v1.99c-2.17-.51-3.1,.08-3.22,2.06-.06,.97,0,1.96,0,3.17-.58-.92-.95-1.51-1.38-2.2v-4.47Zm-18.88,12.21c.17,.09,.32,.18,.48,.26-.02,.35-.02,.55-.04,.83-.19-.23-.38-.47-.57-.7l.13-.4Zm-3.89,4.48c.47-1.07,.93-2.13,1.56-3.56,1.51,1.37,2.7,2.45,4.02,3.64,.03-.1,.06-.18,.09-.28,.31,.15,.59,.3,1.04,.49-.52,.41-1.02,.8-1.41,1.1,.07,1,.13,1.84,.18,2.53-.27,.2-.48,.17-.71,.17-.26-.21-.5-.47-.78-.64-1.55-.96-3.29-1.4-5.28-2.19-.15-.38-.46-1.17-1.01-2.56,1.06,.59,1.67,.93,2.29,1.28Zm-20.23-24.83c.28-1.06,.5-1.87,.84-3.13,1.73,1.78,3.27,3.37,4.68,4.81-.46,.99-.79,1.7-1.11,2.38-1.13-1.88-2.33-3.76-4.41-4.06Zm-6.9,24.37c.61,.51,1.21,1.02,2.2,1.85-.07,.04-.12,.07-.19,.11-.19-.21-.36-.4-.6-.65-.35-.17-.96-.46-1.68-.8,.1-.19,.17-.3,.27-.51Zm-5.65-1.61c-.01,.46-.04,.9-.04,1.38-.36-1-.56-1.54-.82-2.27,.3,.31,.58,.6,.86,.88Zm-43.77,5.08c.52,.01,1.04,.05,1.57-.02,.52-.07,1.34,.41,1.82,.82,1.13,.96,2.26,1.87,3.73,2.42,.31,.11,.53,.49,.76,.77,.05,.06-.04,.21-.06,.33-.42-.12-.85-.23-1.32-.36,.07,.38,.13,.63,.25,1.24-.75-.45-1.22-.73-1.69-1-.74-.42-1.46-1.03-2.25-1.21-1.02-.24-1.91-.67-2.79-1.14v-1.83Zm-2.6-.24c0,.11-.02,.23-.03,.34-.19-.15-.39-.28-.58-.42,.21,.03,.4,.05,.61,.08Zm-16.04-25.21c.31,.38,.61,.75,.91,1.13-.33-.33-.68-.64-1.01-.97,.03-.05,.07-.1,.1-.15Zm-5.8-15.35c.31,.26,.51,.42,.78,.64-.43,.26-.82,.64-1.21,1.05,.13-.52,.27-1.04,.43-1.69Zm-.94,2.15s-.04,.04-.07,.06c-.01-.02-.03-.04-.04-.05,.04,0,.07,0,.11,0Zm-16.42,4.5c.68-.35,1.32-.7,2.09-1.09-.19,1.24-.33,2.17-.51,3.34-.54,.05-1.05,.1-1.57,.16v-2.41Zm-.09-5.93c-.66,.22-1.27-.26-1.86-1.03,.58,.32,1.17,.65,1.86,1.03Zm-2.41,2.37l.69,3.43c-.06,0-.13,0-.2,0,.14,.66,.28,1.47,.42,2.46-.15-.65-.3-1.48-.44-2.46-.28,0-.55,.05-.84,.02,.14-.37,.28-.74,.43-1.14,.13,.08,.26,.39,.38,.93-.15-1.02-.3-2.11-.45-3.25Zm-2.52-.51c.16-.15,.29-.33,.44-.48,.11,.07,.21,1.16,.32,2.7-.23-.07-.46-.13-.7-.2-.14-.2-.31-.38-.53-.52,.12-.61,.19-1.23,.47-1.5Zm-1.04,11.78c.23-.12,.46-.23,.69-.34,.21-.07,.38-.18,.66-.21-.43,.53-.73,.88-1.04,1.27-.2-.14-.38-.26-.6-.41,.09-.11,.18-.22,.3-.32Zm-13.8-1.47c.03,1.41-.48,2.16-1.15,2.68,0-.06,.04-.09,.05-.16-.79-.41-1.5-.78-2.2-1.15,2-.24,2.29-.33,3.31-1.37Zm-2.6-6.68c-.71,.1-1.4,.21-2,.29-.4,.71-.87,1.46-1.35,2.21-.07-.22-.13-.42-.2-.65,.02-.17,.04-.3,.06-.47,.57-.7,2.09-1.21,2.3-3.12,.41,.58,.82,1.15,1.2,1.74Zm-4.3-4.44s.07-.03,.1-.05c.44-.34,.76-.81,1.07-1.22,.38,1.5,1.05,2.7,1.82,3.8-1.08-.11-2.1-.22-3.1-.32,.31-.67,.45-1.38,.11-2.21Zm-4.7-11.19c-.03,.94-.07,1.84-.1,2.83-.45,.13-.83,.23-1.44,.41,0,.07-.01,.16-.02,.23-.7-.22-1.44-.45-2.37-.74,1.44-1,2.67-1.86,3.93-2.73Zm-13.08-19.05c.56-.83,.98-1.44,1.47-2.16,1.03,.73,2.07,1.46,3.1,2.18,.25-.21,.47-.41,.76-.66v2.3c-2.5-.59-3.58,.1-3.72,2.38-.07,1.12-.01,2.26-.01,3.66-.66-1.06-1.09-1.75-1.59-2.54v-5.16Zm-18.55,19.62c-.07,.05-.12,.09-.18,.14-.06-.1-.1-.21-.17-.31,.14,.06,.2,.1,.35,.17Zm-3.71,2.42c.69,.21,1.42,.18,2.18,.11,.04,.57,.08,1.21,.11,1.67-1.74,1.31-2.58-1.82-4.27-.61-.02,.16-.04,.41-.06,.61-.54-1.15-1.17-2.51-2-4.28,1.62,1.05,2.79,2.12,4.04,2.51Zm-20.32-12.78c.28-1.06,.5-1.87,.84-3.13,1.72,1.78,3.27,3.37,4.68,4.82-.46,.99-.79,1.7-1.11,2.38-1.13-1.88-2.34-3.76-4.41-4.06Zm-1.96,74.02l2.35,.2c.17,.18,.36,.38,.54,.57-.46-.04-.93-.07-1.39-.11l-2.36-.2c.29-.15,.58-.31,.86-.46Zm-3.52-48.23c-.18-.23-.34-.43-.51-.65,.36,.31,.77,.65,1.28,1.08-1.4,.76-2.36,1.27-3.37,1.82v1.25c-.4-.14-.82-.23-1.22-.4,1.26-1.02,2.5-2.04,3.81-3.11Zm-3.04-8.95c-.28,.58-.57,1.18-.85,1.77,0-.43-.02-.88-.09-1.34,.31-.15,.62-.3,.94-.44Zm-23.91,4.92c.27,.61,.55,1.23,.81,1.81-.22,.17-.44,.34-.67,.51-.06,.05-.17,.02-.26,.05-.14-.79-.26-1.5-.39-2.25,.18-.04,.33-.08,.5-.12Zm-5.03-11.25c1.22,.39,1.92,1.2,2.46,2.54-1.67-.94-3.19-3.27-4.62-.56-.73-.74-1.42-1.44-2.11-2.14,.48-.72,.77-1.57,.71-2.64,.87,1.82,2.28,2.39,3.56,2.8Zm-4.54-6.97c.11-.04,.19-.11,.3-.16,.5,.96,.96,1.82,1.42,2.68-.33,.37-.64,.71-.92,1.01-.64-.35-1.36-.74-2.12-1.16,.77-.64,1.26-1.42,1.33-2.38Zm-20.21-.57c.25,1.58,.4,2.53,.58,3.66-.26,.08-.55,.16-.84,.24-.03-.24-.05-.38-.09-.65-.18,.32-.3,.54-.44,.8-.42,.12-.88,.26-1.45,.42,.27,.33,.49,.58,.73,.88-.2,.36-.39,.7-.6,1.08-.62-.91-1.1-1.62-1.7-2.5,1.35-1.39,2.56-2.64,3.81-3.94ZM2,242.68c2.25,.37,3.11-2.72,4.92-4.11,.17,1.03,.31,1.86,.43,2.58,.58,.36,1,.62,1.7,1.05-.56,.57-1,1.01-1.76,1.78-1.14-.09-2.25-.19-3.78-.32,.79,.92,1.22,1.41,1.74,2.01-1.16,.05-2.23,.09-3.04,.12"/></g><path class="cls-1" d="M2007.26,78.51c-.39,1.66-.85,3.63-1.27,5.42-.07,.03-.15,.07-.22,.1-2.36-1.64-3.74-4.76-7.51-2.67,0,.03,0,.05,0,.08-2.29,.26-4.67,.53-7.66,.87,5.05-5.7,6.42-11.1,4.93-16.94-1.46-.57-2.5-.97-2.87-1.12,1.04-2.46,1.95-4.61,2.86-6.79-1.45-1.77-2.67-3.28-3.86-4.74,.96-1.54,1.94-3.09,2.78-4.44-3-2.55-5.5-4.68-7.6-6.46-.25-3.15-.44-5.61-.61-7.83q-3.28-2.02-7.04-1.44c-.9,4.5-1.8,9-2.69,13.48-1.37-.26-2.35-.45-3.22-.61-1.54,2.44-2.93,4.63-4.28,6.76,1.34,1.55,2.43,2.8,3.65,4.21-1.36,2.11-2.56,3.96-3.73,5.77,.46,1.66,.44,3.31,.22,4.94-1.47,.74-2.6,2.18-4.06,2.89-1.89-1.55-1.2-3.72-1.03-5.69,1.26-1.16,2.31-2.11,3.62-3.31-1.04-1.02-1.93-1.89-2.76-2.7-1.02,.78-1.85,1.42-3.04,2.34-1-3.43,.72-7.5-3.55-9.15-.95,.74-2.03,1.58-3.35,2.61v8.1c-2.35-.09-4.26-.16-6.61-.25,1.56,2.15,3.53,3.41,3.29,4.92-1.29,1.26-2.43,2.38-3.61,3.52-.54-.42-.9-.9-1.55-1.27-.47,1.28-.76,2.51-.94,3.71-1.36,1.33-2.7,2.64-4.13,4.03-.15,.02-.97,.08-1.75,.31-.9,.27-1.76,.69-3.02,1.2,.48,1.11,1.15,1.91,1.84,2.69h-5.83c-.88-1.15-1.64-2.14-2.17-2.82-7.64,.84-8.52,.34-9.96-5.86,3.15-.28,6.18-.55,10.51-.94-3.94-6.76-8.32-12.27-11.95-18.25,2.27-1.9,4.17-3.49,5.21-4.36v-15.79c-1.16-1.94-2.68-4.51-4.26-7.17-2.25,.47-4.75,1-6.98,1.47q-4.93-3.88-10.83-.55c-.56-1.1-1.12-2.17-1.77-3.44,2.36-.35,4.51-.67,8.04-1.2-3.59-2.06-5.97-3.43-8.81-5.07,1.52-1.69,2.89-3.2,4.9-5.43h-6.91c-2.37-3.54,1.39-8.89-4.98-11.61-.54,3.91-1,7.19-1.51,10.85-2.11-.5-3.79-1.07-5.51-1.18-.51-.03-1.12,1.25-2.15,2.5,2.27,1.35,4.22,2.51,5.08,3.03,.57,4.61,.06,7.06-3.83,7.33-1.93-1.46-3.76-2.85-5.6-4.25-.42,.28-.84,.55-1.26,.83,.55,1.64,1.11,3.28,1.65,4.89-3.01,.87-6.94-1.26-9.45,3,2.33,1.45,4.54,2.83,6.42,4.01-.81,1.31-1.69,2.73-2.53,4.09-2.41-2.33-5.27-2.7-9-.79,2.47,3.65,4.75,7.03,6.85,10.14-2.44,1.74-5.43,3.39-7.75,5.66-2.13,2.09-6.04,3.57-4.69,7.77,3.44,.3,6.77,1.2,9.85,.68,3.22-.54,6.2-2.43,10.36-4.18-2.16,3.35-3.8,5.91-5.2,8.07-4.79,1-8.81,1.84-11.88,2.48-2.62,1.7-4.5,2.92-6.48,4.21-2.16-.89-4.23-2.95-5.82-.88,2.14,1.84,4.12,3.55,6.24,5.37,.3-.11,1.67-.59,3.04-1.07l.34,.8c-1.88,1.61-3.76,3.22-5.8,4.96,.4,.97,.74,1.8,1.14,2.77,3.38-2.09,6.44-3.99,10.31-6.38,.52,.92,.94,1.68,1.39,2.48-.37,1.92-.75,3.84-1.12,5.75-1.07-.08-1.83-.14-2.5-.18-1.01,1.72-1.9,3.25-2.8,4.77-.39,.14-.84,.2-1.23,.35-3.76,1.52-6.94,4.31-10.55,6.24-4.58,2.44-6.92,6.36-8.46,10.82-.28,.8,.53,1.93,.91,3.12,.24-.15,.35-.36,.55-.53-.1,1.81,.3,3.47,1.66,4.95-.75,.32-1.5,.64-2.32,.98-.32,.93-.64,1.85-.96,2.8-.93-.9-1.83-1.77-2.79-2.71-1.91,.22-3.72,.44-5.52,.65-.69-.81-1.28-1.51-1.69-2-5.93,1.35-6.62,1.04-7.73-3.66,2.45-.51,4.79-.99,8.15-1.69-3.06-4.91-6.45-8.81-9.27-13.14,1.76-1.68,3.23-3.1,4.04-3.87v-12.31c-.9-1.41-2.08-3.28-3.3-5.21-1.75,.57-3.69,1.21-5.42,1.78q-3.83-2.58-8.41,.55c-.44-.8-.87-1.59-1.37-2.52,1.83-.49,3.5-.94,6.24-1.67-2.79-1.28-4.64-2.13-6.84-3.15,1.18-1.46,2.24-2.75,3.8-4.68-2.38,.28-3.99,.47-5.36,.63-1.84-2.55,1.08-7.06-3.87-8.6-.42,3.09-.77,5.7-1.17,8.6-1.64-.19-2.94-.49-4.27-.42-.4,.02-.87,1.08-1.67,2.14,1.76,.85,3.28,1.58,3.95,1.9,.44,3.54,.05,5.5-2.98,6.06-1.49-.96-2.92-1.88-4.34-2.8-.33,.25-.65,.51-.98,.76,.43,1.23,.86,2.46,1.28,3.66-2.34,.95-5.38-.35-7.33,3.2,1.81,.92,3.52,1.8,4.98,2.54-.63,1.1-1.31,2.28-1.97,3.42-1.87-1.6-4.09-1.63-6.98,.2,1.92,2.63,3.69,5.05,5.32,7.28-1.9,1.58-4.22,3.14-6.01,5.12-1.65,1.82-4.69,3.33-3.64,6.48,2.67-.08,5.25,.32,7.64-.36,2.5-.71,4.81-2.46,8.04-4.2-1.67,2.81-2.95,4.95-4.03,6.77-3.71,1.21-6.84,2.23-9.22,3.01-2.03,1.57-3.49,2.69-5.03,3.87-1.68-.5-3.28-1.92-4.52-.16,1.66,1.24,3.2,2.39,4.84,3.62,.23-.11,1.29-.61,2.35-1.11,.09,.2,.18,.39,.26,.59-1.46,1.42-2.92,2.85-4.5,4.39,.31,.72,.57,1.34,.88,2.06,2.62-1.94,5-3.69,8-5.91,1.24,2.08,2.17,3.63,3.1,5.19,1.24-.59,2.46-1.17,4.56-2.16-1.09,2.15-1.71,3.36-2.01,3.95-3.96,1.41-7.41,2.25-10.5,3.86-2.92,1.53-5.38,3.99-8.19,5.82-3.56,2.32-5.37,5.59-6.56,9.21-.22,.65,.41,1.46,.7,2.35,2.95-2.16,2.73-5.94,6.32-7.24-.29,2.18-.55,4.16-1,7.59,1.89-1.98,2.85-2.71,3.41-3.63,.93-1.55,1.51-3.26,2.47-4.79,.21-.34,1.36-.2,2.12-.29-.14,1.57-3.05,2.99-.47,3.91,1.24-.84,2.34-1.58,3.48-2.35,1.45,1.95,2.68,3.6,3.92,5.27-2.76,1.43-6.24-.26-8.64,2.96,.71,.35,1.31,.64,1.8,.88-2.85,1.58-5.32,2.96-8.15,4.53,3.96,3.31,7.12-1.78,10.76-1.12-2.18,2.87-4.27,5.61-6.11,8.03-2.52,.41-4.33,.7-6.13,.99-2.71,1.93-5.34,3.8-8,5.69-.68-.72-1.8-1.89-3.42-3.59-1.4,3.58-2.55,6.51-3.69,9.43-.48-.76-1.05-1.68-1.75-2.8,1.3-2.12,1.99-4.32,.59-6.61-1.95,1.43-3.7,2.71-5.92,4.32-.27-1.43-.43-2.28-.74-3.92,6.24-.76,2.45-7.35,6.99-9.08,.61-2.69,1.14-4.99,1.67-7.34-2.23-2.11-4.64-3.23-8.63-1.37v-9.08c1.85-2.16,3.29-3.84,4.73-5.53-.87-1.16-1.49-1.98-2.13-2.84-4.13,2.48-6.48,6.29-10.44,8.38-1.75,.93-2.77,3.39-4.11,5.14-.61-.7-1.53-1.77-2.8-3.23,3.3-2.45,6.68-4.54,9.51-7.18,2.91-2.71,5.28-5.96,7.81-8.89-1.3-2.24-2.4-4.16-3.57-6.18-4.35,2.01-4.96,7.73-9.36,9.54-2.87-3.35,4.35-6.32,1.12-9.01-2.31-.23-4.2-.43-6.45-.65,3.8-3.06,7.03-5.66,10.5-8.46-1.07-1.11-2.06-2.14-3.01-3.12,.84-2.72,1.65-5.31-.51-8.38-1.29,2.2-2.15,3.67-2.81,4.79-2.15,.25-4.22,.49-6.39,.75-.26-.57-.63-1.4-.86-1.92-2.32-.02-4.34-.04-6.36-.06-.02-.23-.04-.46-.06-.69,2.21-1.01,4.43-2.01,6.63-3.01,.11-1.49,.22-2.84,.28-3.68,1.76-1.65,3.19-2.99,5.48-5.15-4.52,.55-.55-3.33-3.42-3.98-.83-.19,1.33-3.77-1.79-4.77-1.19,2.9-2.38,5.8-3.5,8.54-.27-.51-.67-1.29-1.16-2.22-1.06,.77-2.04,1.49-3.18,2.33v7.74c-1.48-.87-2.71-1.6-3.7-2.18,.62-6.57,.05-12.19-1.52-17.67-.71-2.47-.12-5.42-.12-8.29-3.92-1.04-3.68-4.39-3.39-7.99-1.51-.05-2.72-.09-4.26-.14-.2,2.4-.35,4.3-.5,6.07-1.27,.8-2.3,1.45-3.59,2.26,1.62,3.25-2.42,6.88-.13,10.05-1.91,3.69-.64,7.05,.27,10.32-1.61,.8-2.88,1.44-3.9,1.95-.5,2.16-.93,4.01-1.43,6.15-1.45-2.65-2.73-5-4.07-7.46-.74,.2-1.51,.42-2.16,.6-.46,1.09-.83,1.95-1.21,2.86-.79-.84-1.52-1.61-3.18-3.38,.22,4.16,.37,7.01,.55,10.42,2.08,.21,4.15,.42,6.22,.63-1.03,.6-2.06,1.2-3.22,1.88,.18,1.28,.32,2.38,.41,2.97,2.61,2.98,8.05,2.3,8.24,7.57-1.59,.28-2.94,.52-4.02,.71-1.51-1.07-2.73-1.93-3.75-2.66-1.88,.01-3.45,.03-4.63,.03-1-1.53-1.75-2.65-3.15-4.78-.2,3.58-.32,5.87-.46,8.25-.64,.46-1.28,.93-1.83,1.32,.65,.96,1.06,1.57,1.47,2.18-.62,.71-1.24,1.42-1.94,2.23,1.01,.78,1.7,1.33,2.4,1.87-1.08-.01-2.17-.03-3.27-.04-.18-2.27-.33-4.15-.48-6.04-.2,.14-.39,.27-.59,.41l-1.74-2.87c.26,.56,.51,1.11,.77,1.67-1.25,.56-2.49,1.13-3.81,1.72,.42,.97,.86,1.99,.95,2.2-.85,2.84-1.47,4.91-2.07,6.93-.38-.36-.78-.73-1.37-1.29-.94,1.15-1.79,2.18-2.67,3.26,1.17,.82,1.99,1.4,2.62,1.84-.92,1.57-1.72,2.92-2.56,4.36-2.2,.26-4.41,.52-6.52,.76-.97-.76-1.81-1.42-2.55-1.99-1.49,.28-2.9,.42-4.27,.46-.23-1.73-.78-3.4-1.47-5.04,2.13-.5,4.29-1,6.42-1.49,.73-2.38,4.43-2.72,4.24-6-2.79,.08-5.46,.16-8.48,.25,.65-2.31,1.23-4.01,1.56-5.72,.17-.92-.11-1.86-.23-3.41-2.84,2.76-5.04,4.88-7.37,7.14-1.48-2.25-2.62-3.97-3.89-5.9,2.53-1.16,4.59-2.11,6.94-3.19,2.14-2.75,4.47-5.73,6.94-8.89-3.18-1.73-6.69,.72-9.43-.24-.1-1.38-.18-2.55-.28-4-3.03,.78-5.14,3.69-8.31,2.65,3.76-2.25,7.22-4.31,9.1-8.89-3.07,.36-5.43,.64-8.08,.95,.72-1.32,1.2-2.19,1.78-3.23-1.34-.12-2.57-.24-3.47-.32,.59-1.32,1.1-2.45,1.77-3.95-1.92,.42-3.25,.71-4.74,1.04-.96-.92-1.88-1.8-2.96-2.82,.74-1.16,1.39-2.17,1.6-2.49-.85-2.43-1.52-4.37-1.9-5.46-1.93-1.84-3.26-3.12-4.75-4.54-.6,.27-1.32,.58-1.86,.82-1.21,3.04,.54,5.95-1.64,9.06-1.43-.66-2.68-1.23-4.02-1.85-.36,.76-.61,1.28-.93,1.93,1.28,1.19,2.54,2.36,3.52,3.26-1.35,1.09-2.41,1.95-3.52,2.85,.94,.89,1.43,1.36,1.92,1.83l-.58,.65c-1.91-.5-3.82-1.01-5.73-1.51-1.22,3.09,1.56,3.47,3.18,5.34-3.77,.07-6.49,.12-9.4,.18v2.44c1.13,.34,2.21,.66,3.52,1.05-.29,1.19-.83,2.34-.75,3.38,.06,.85,.87,1.56,1.52,2.62-3.86,.58-5.79-3.16-9.48-1.25,.57,4.18,3.6,6.24,6.6,7.93-1.92,1.39-3.93,2.84-5.95,4.3-1.19-.29-2.44-.59-4.26-1.03,.22,2.15,.38,3.74,.54,5.34-.97,1-1.94,1.99-3.86,3.97,2.88-.69,4.5-1.08,6.12-1.47,.56,1,1.08,1.94,1.37,2.46,2.36,.04,4.26,.07,6.54,.11-5.72,3.48-10.85,6.6-16.2,9.86-.49-.26-1.03-.56-1.55-.84-.4-.7-.97-1.36-2.03-1.87,.86-2.34,1.71-4.61,2.5-6.76-2.32-1.88-4.28-3.47-6.25-5.06l.72-.43c-1.56-3.23-3.12-6.47-4.71-9.78-1.67,.43-2.62,.67-3.94,1.01,.9,6.86-1.65,12.1-8.16,15.36,1.33,1.9,2.32,3.31,3.39,4.84-.89,3.38,1.28,7.37-2.21,10.02,.2,1.84,.38,3.54,.5,4.63-1.87,2.44-3.36,4.39-4.86,6.34,.37,.09,.74,.18,1.11,.27v20.09c-1.71,.38-3.48,.78-5.66,1.28v-10.45c-1.33-1.53-2.62-3.01-4.01-4.61-2.24,1.32-3.57,2.1-4.5,2.65-.5-1.04-1.06-2.06-1.6-3.08,.6-.55,1.23-1.04,1.81-1.6,.66-.64,.67-1.9,.91-2.65-1.84-.51-3.41-.94-5.03-1.39-.38-1.02-.93-1.92-1.76-2.67,.21-.06,.32-.09,.54-.15-.48-.17-.79-.28-1.23-.44-.7-.45-1.54-.83-2.7-1.08,0,.04,.01,.07,.02,.11-1.4-.51-2.67-.96-3.95-1.43,.99-1.44,2.05-2.97,3.63-5.27-2.23,.41-3.52,.64-5.14,.94-.22-2.92-.5-5.9-2.35-8.33-4.32,2.06-1.56,5.59-3.41,8.27-1.14-.1-2.38-.21-3.93-.34-.06,1.08-.1,1.82-.14,2.63,1.12,.44,2.16,.84,3.21,1.25v2.51c-.47-.87-.98-1.81-1.46-2.69-2.18,.75-3.59,2.36-4.88,4.09-.21-.12-.5-.28-.7-.4-1.18,1.04-1.12,1.71-.8,2.29-.78,1.09-1.63,2.1-2.59,2.97-1.08,.18-1.79,.7-3.03,1.84-.03,0-.04,.03-.07,.04-3.69-4.72,5.61-7.45,1.45-11.39-2.98-.65-5.42-1.18-8.31-1.8,4.9-3.35,9.06-6.2,13.54-9.27-1.38-1.58-2.66-3.05-3.87-4.45,1.08-3.37,2.12-6.56-.66-10.82-1.66,2.62-2.77,4.38-3.62,5.72h-8.24c-.33-.77-.81-1.89-1.11-2.59-2.99-.38-5.59-.7-8.2-1.03-.03-.3-.05-.59-.08-.89,2.85-.96,5.71-1.92,8.55-2.87,.15-1.89,.28-3.61,.37-4.67,2.27-1.86,4.11-3.36,7.07-5.78-5.83,.03-.7-4.36-4.41-5.62-1.08-.37,1.72-4.63-2.31-6.39-1.54,3.55-3.07,7.08-4.52,10.42-.34-.7-.87-1.75-1.49-3.02-1.37,.83-2.63,1.61-4.1,2.51v9.92c-1.9-1.34-3.49-2.46-4.77-3.35,.8-8.34,.07-15.62-1.95-22.89-.91-3.28-.16-6.97-.16-10.65-5.06-1.93-4.74-6.19-4.37-10.75-1.94-.29-3.51-.52-5.49-.82-.25,3.05-.45,5.46-.64,7.72-1.64,.84-2.97,1.52-4.62,2.36,2.09,4.41-3.12,8.46-.17,12.88-2.46,4.45-.82,8.94,.34,13.27-2.07,.79-3.71,1.41-5.03,1.92-.65,2.69-1.2,5-1.85,7.67-1.87-3.62-3.52-6.83-5.24-10.18-.96,.15-1.94,.31-2.78,.44-.6,1.33-1.07,2.38-1.56,3.48-1.02-1.19-1.96-2.29-4.1-4.81,.29,5.37,.48,9.04,.71,13.44,2.68,.58,5.35,1.16,8.02,1.74-1.33,.62-2.65,1.23-4.15,1.93,.23,1.67,.42,3.1,.53,3.88,3.36,4.22,10.37,4.16,10.62,10.95-2.05,.12-3.79,.23-5.18,.31-1.95-1.6-3.51-2.89-4.84-3.98-2.42-.26-4.45-.48-5.97-.65-1.29-2.11-2.25-3.67-4.06-6.61-.25,4.56-.42,7.48-.59,10.51-.82,.5-1.65,1-2.36,1.42,.83,1.33,1.36,2.17,1.89,3.02-.8,.82-1.6,1.64-2.51,2.57,1.3,1.16,2.19,1.95,3.09,2.75-1.4-.18-2.79-.36-4.21-.54-.23-2.94-.43-5.38-.62-7.82-.25,.15-.51,.29-.76,.44-.75-1.31-1.49-2.62-2.24-3.94,.33,.75,.66,1.5,.99,2.25-1.61,.54-3.22,1.07-4.91,1.64,.54,1.31,1.11,2.69,1.23,2.96-1.09,3.51-1.89,6.07-2.67,8.58-.49-.51-1-1.05-1.77-1.85-1.21,1.33-2.3,2.53-3.44,3.78,1.51,1.23,2.56,2.09,3.38,2.75-1.19,1.88-2.21,3.49-3.3,5.21h-8.4c-1.25-1.12-2.34-2.09-3.29-2.94-6.53,.47-12.24-.26-16.55-5.68,5.93-.68,11.66-1.34,17.44-2.01,.94-2.94,5.71-2.83,5.46-7.05-3.59-.31-7.04-.62-10.93-.96,.84-2.87,1.59-4.96,2.01-7.1,.22-1.15-.14-2.4-.3-4.41-3.66,3.11-6.49,5.5-9.5,8.05-1.91-3.11-3.37-5.48-5.01-8.15,3.26-1.11,5.92-2.02,8.95-3.05,2.76-3.2,5.76-6.67,8.94-10.36-4.09-2.69-8.62-.08-12.15-1.72-.13-1.78-.23-3.3-.37-5.18-3.9,.55-6.63,3.96-10.71,2.16,4.85-2.32,9.3-4.44,11.73-10.03h-10.42c.93-1.58,1.55-2.63,2.29-3.88-1.73-.36-3.32-.69-4.47-.93,.76-1.6,1.42-2.98,2.28-4.8-2.47,.25-4.19,.43-6.11,.62-1.24-1.33-2.43-2.58-3.81-4.06,.96-1.37,1.79-2.57,2.06-2.95-1.09-3.24-1.96-5.84-2.45-7.29-2.49-2.65-4.2-4.49-6.12-6.53-.78,.25-1.7,.55-2.39,.77-1.56,3.72,.69,7.71-2.11,11.38-1.85-1.06-3.45-1.98-5.19-2.97-.47,.92-.79,1.55-1.19,2.34,1.66,1.72,3.28,3.41,4.53,4.71-1.74,1.2-3.1,2.14-4.54,3.13,1.21,1.28,1.84,1.96,2.48,2.64-.25,.25-.5,.5-.74,.75-2.46-.93-4.92-1.86-7.39-2.8-1.57,3.78,2.01,4.69,4.1,7.33-4.86-.48-8.37-.82-12.12-1.19v3.13c1.46,.61,2.85,1.18,4.54,1.88-.38,1.48-1.07,2.88-.97,4.23,.08,1.1,1.12,2.13,1.96,3.58-4.98,.16-7.46-4.92-12.22-3.03,.73,5.45,4.64,8.55,8.5,11.15-2.48,1.49-5.07,3.05-7.67,4.62-1.53-.54-3.14-1.12-5.49-1.96,.28,2.79,.49,4.85,.7,6.94-1.25,1.13-2.49,2.26-4.98,4.51,3.72-.46,5.8-.71,7.88-.97,.72,1.37,1.39,2.64,1.76,3.36,3.05,.41,5.5,.73,8.43,1.12-7.37,3.6-13.98,6.84-20.88,10.21-1.15-.75-2.34-1.53-3.65-2.38-.94,.5-1.93,1.02-3.37,1.78,1.44,.97,2.28,1.52,3.12,2.09,.83,.56,1.65,1.14,2.37,1.63-.75,5.24,.47,9.76,2.52,9.95,1.15-1.61,2.28-3.19,3.37-4.7,2.31,1.79,3.43,2.66,4.45,3.46,1.55-.86,2.78-1.55,3.95-2.19,.74,1.5,1.34,2.71,2.15,4.35,2.38-1.75,4.14-3.04,6.15-4.52,.93,1.01,1.89,2.05,2.83,3.07-2.34,1.78-4.37,3.33-6.73,5.12-8.52-.08-15.87,4.39-22.53,6.9-4.47,.14-7.17-2.97-11.57-1.1,1.95,2.04,3.57,3.72,5.27,5.51-.15,4.77-7.88,7.66-3.89,13.82,1.38-1.69,3.05-3.05,3.73-4.76,.89-2.24,2.43-2.54,4.15-2.96,1.66,2.68-3.66,6.13,1.85,7.76,1.8-2.39,3.55-4.72,5.57-7.41,1.56,1.22,2.62,2.05,3.91,3.06,1.5-1.62,3-3.24,4.67-5.05,.28,2.83,.54,5.51,.78,8,1.36,1.09,2.46,1.96,4.47,3.57-4.92,0-8.82-.02-12.72,.04-.26,0-.52,.61-.91,1.1,1.18,.89,2.32,1.76,3.47,2.64-1.14,1.52-2.62,1.85-4.13,1.98-.06-.04-.12-.08-.19-.13-.01,.07-.01,.1-.02,.17-1.72,.12-3.46,0-4.86,.92-2.63,2.57-5.28,5.24-8.5,6.94-.69,.36-1.12,.93-1.75,1.34-.07-.07-.26-.25-.32-.31-.46-4.53-.86-8.5-1.24-12.24-1.22-.2-1.96-.32-2.86-.47-.13-2.83-.26-5.49-.38-8.09-1.2,.14-2.15,.25-3.36,.39-.13,1.91-.25,3.81-.37,5.57-1.32,.81-2.35,1.44-3.59,2.2,.23,1.94,.45,3.77,.64,5.38-.54,.52-.97,.93-1.22,1.16,.7,2.08,1.27,3.8,1.91,5.72-1.16,.04-2.04,.08-2.84,.11-3.02,3.99,3.85,5.66,1.06,9.46-.79-.07-1.56-.14-2.48-.21-1.25,3.04-2.45,5.97-3.55,8.65-.95-1.94-1.9-3.87-2.77-5.64,.19-1.18,.35-2.21,.52-3.24-.3-.08-.61-.16-.91-.24-.88,1.33-1.77,2.67-2.79,4.22-1.3-.74-2.25-1.28-3.38-1.93-.45,2.73-.41,2.92,.78,4.8-.47,.54-.93,1.08-1.4,1.63q2.9,2.16,7.43,2.32c-1.41,.63-2.82,1.26-4.39,1.97,.82,4.17,4.45,5.16,6.77,6.95-.32,2.5-.62,4.81-.97,7.51-1.67-1.97-2.97-3.49-4.26-5.01-1.32,.32-2.43,.6-3.36,.82-1.43-1.66-2.7-3.14-4.11-4.77-2.2,2.61-.68,4.7-.69,7.32-1.19-.69-1.99-1.15-3.3-1.91-.97,3.7-1.86,7.09-2.74,10.45-1.32-.03-2.5-.06-4.31-.1,1.49,1.78,2.49,2.99,3.7,4.45-.83,.43-1.56,.82-2.34,1.23v13.61l1.18,684.05h728.64m-8.21-872.71c-.17,2.22-.29,3.85-.39,5.26m-231.13,105.86c.47-.2,.84-.37,1.32-.58,.38-.51,1.1-1.5,1.99-2.72,.68,.46,1.24,.84,2,1.36-.14,.42-.31,.89-.45,1.31l-4.87,.64Zm68.9-46.06c.35-.22,.73-.45,1.09-.68-.21,.46-.43,.93-.67,1.44-.13-.26-.29-.5-.42-.76Zm3.06-3.31c1.27-.06,2.53-.12,4.58-.22-.09,.23-.17,.43-.26,.65-.73,.36-1.4,.69-2.2,1.09-.27-.11-.93-.38-1.4-.56,.02-.01,.04-.02,.06-.04-.26-.31-.53-.62-.79-.92Zm9.25-11.84c1.16-.4,2.31-.84,3.48-1.1-.17,.84-.36,1.77-.53,2.62-.75,.68-1.59,1.44-2.76,2.51-.07-1.41-.13-2.71-.19-4.03Zm145.26-32.28c.3,.29,.6,.57,.89,.9-.28,.03-.51,.06-.78,.09-.06-.06-.13-.13-.19-.19,.03-.26,.06-.54,.09-.8Zm-55.72,15.32c-.48,.26-.81,.46-1.24,.69-.58-.66-1.33-1.19-2.05-1.73,1.09,.3,2.19,.61,3.29,1.04Zm-5.83-16.61c.55,.88,.97,1.44,1.43,2.12-1.21,.33-2.4,.65-3.75,1.02,.39,.78,.73,1.45,1.09,2.15-1.32-.62-2.72-1.28-4.41-2.07,2.54-1.45,4.08-2.33,5.64-3.22Zm-19.84-54.3c.86,2.49,1.42,4.09,2.15,6.18-5.31,.24-8.39,3.68-11.3,7.12-.82-1.37-1.66-2.79-2.84-4.77,3.6-2.56,7.56-5.38,11.99-8.53Zm-43.84,48.72s-.03,.06-.06,.1c-.02-.02-.05-.04-.07-.06l.13-.05Zm-26.07,19.99c-.37,2.76-.71,5.25-1.29,9.59,2.44-2.25,3.68-3.04,4.4-4.14,1.2-1.84,1.95-3.95,3.18-5.77,.27-.4,1.76-.06,2.73-.06-.18,1.99-3.93,3.38-.6,4.95,.6-.34,1.13-.63,1.7-.95-.52,2.27-.7,4.43-.07,6.44-1.16,.24-2.27,.69-3.23,1.86,.91,.55,1.69,1.02,2.32,1.4-1.15,.5-2.21,.96-3.3,1.44-.04-.76-.07-1.49-.11-2.29-2.06-.04-3.68-.07-5.12-.1-.65,1.4-1.02,2.19-1.85,3.96,.03-4.87-.54-8.77-3.97-11.26,1.28-2.12,2.27-4.33,5.21-5.05Zm-12.55,17.26c3.08,4.57,3.75,4.97,10.23,6.31,.09,.11,.18,.22,.27,.33-.9,.46-1.81,.92-3.04,1.55,.21,.98,.42,1.96,.66,3.05-1.37,.81-2.73,1.62-4.09,2.42-1.48-1.73-3.41-3.04-6.59-3.32,2.09-.66,3.39-1.07,4.88-1.55v-3.4c-2.01-.71-3.92-1.39-6.71-2.38,1.97-1.36,3.17-2.19,4.37-3.02Zm-15.39-40.54c.67,1.86,1.1,3.06,1.66,4.62-4.12,.67-6.51,3.63-8.76,6.58-.63-1-1.29-2.02-2.2-3.46,2.79-2.33,5.87-4.88,9.3-7.74Zm-61.36,94.35c-.22-1.3-.44-2.55-.83-4.82,1.67-1.24,3.87-2.86,6.06-4.49-.21-.22-.41-.43-.61-.65,.98-.16,1.96-.32,3.56-.59-.64,1.72-1.14,3.04-1.81,4.81,1.7-.66,2.95-1.15,4.47-1.74,.92,.47,1.91,.97,3.06,1.55,1.72-1.93,3.46-3.87,5.87-6.58,.24,1.58,.76,2.58,.43,3.28-.64,1.37-1.77,2.57-2.84,4.05-2.39,1.28-5.07,2.71-7.76,4.14,.06,.27,.13,.54,.19,.82-2.71,.05-5.42,.09-8.84,.15,1.6,2.18,2.91,3.96,4.47,6.08-1.97,1.06-3.38,1.82-4.69,2.52-1.4-.32-2.69-.62-4.15-.96-.1-1.69-.19-3.39-.3-5.31,1.2-.73,2.38-1.46,3.73-2.28Zm-80.55-52.67c.78-.03,1.56-.06,2.22-.08,1.4,1.25,2.66,2.48,4.03,3.58,1.3,1.04,2.72,1.95,4.27,3.05-.99,1.01-1.99,2.02-3.01,3.06-2.47-1.28-4.73-2.45-7.52-3.9v-5.71Zm-17.57,23.6c.2,.27,.44,.58,.64,.85-.58-.28-1.13-.53-1.65-.79,.34-.03,.64,.03,1.01-.07Zm1.35,1.8c.36,.48,.68,.91,1.09,1.45-.4,.36-.83,.75-1.25,1.14-.48-.19-.95-.37-1.44-.56-.8,.49-1.81,1.1-2.76,1.67-.14-.21-.26-.38-.41-.6-.6-.01-1.41-.03-2.07-.05-.26-.62-.54-1.28-.81-1.92,2.25-.33,4.36-.65,7.64-1.13Zm-17.38-18.1c-.14,.87-.15,1.78-.17,2.7-.89-.52-1.75-1.17-2.53-2.07,.92-.21,1.8-.42,2.71-.63Zm-52.16,19.52c1.77-2.47,2.19-4.67,.5-6.79,.86-1.31,1.71-2.6,2.53-3.84,1.79,1.19,2.66,1.76,3.46,2.29,1.21-.81,2.16-1.46,3.07-2.07,.58,1.1,1.04,1.99,1.67,3.2,1.84-1.58,3.21-2.75,4.77-4.09,.72,.7,1.47,1.43,2.2,2.14-1.82,1.6-3.39,2.99-5.22,4.6-4.95,.53-9.39,3-13.48,5.28,.17-.24,.34-.48,.51-.72Zm7.09,17.44c-1.2-.45-2.31-.87-3.28-1.24-.1-1.53-.2-3.02-.3-4.51,.85-1.02,1.68-2.02,2.62-3.15,.22,2.19,.42,4.25,.61,6.17,1.02,.7,1.87,1.28,3.32,2.27-.01,.04-.02,.08-.04,.12-1.06,.12-1.97,.23-2.92,.34Zm.12,24.76c-.36,.93-.64,1.65-1.14,2.96-.95,.25-2.04,.52-3.04,.79,.62-1,1.17-1.88,1.83-2.94,.3-.24,.64-.56,.95-.82,.47,0,.92,0,1.41,.01Zm-8.85-54.6c-.07,2.12,.23,3.86,.85,4.84-1.67,.7-3.19,1.34-4.68,1.97-.22-.32-.45-.64-.67-.97,1.47-1.91,2.95-3.82,4.5-5.84Zm-29.79,43.98s-.08,.01-.12,.02c-.13-.09-.27-.17-.39-.26,.18,.08,.33,.15,.52,.24Zm-7.78-9.44c.26,.12,.54,.23,.8,.35-.42,.35-.96,.49-1.51,.57,0-.06-.01-.17-.02-.23,.25-.24,.48-.46,.73-.7Zm-9.32-22.85c.13,.59,.26,1.2,.38,1.77-.77,.56-1.51,1.1-2.47,1.79-.45-1.02-.79-1.8-1.19-2.69,1.07-.28,2.1-.56,3.28-.87Zm-26.07,18.32c.45,.47,.96,.98,1.39,1.42-1.55,1.27-3.48,2.86-5.24,4.3-.55-.69-1.14-1.44-1.85-2.34,1.91-1.19,3.82-2.27,5.7-3.38Zm-66.92-26.6c1.01,.08,2.01,.16,2.87,.23,1.8,1.81,3.43,3.58,5.2,5.2,1.67,1.53,3.5,2.91,5.51,4.56-1.28,1.14-2.56,2.29-3.88,3.47-3.18-2.01-6.1-3.85-9.69-6.12v-7.32Zm-34.11,21.84c4.16,3.32,6.82,6.44,11.46,5.79,.99,1.42,1.97,2.84,3.15,4.53-.7,.56-1.46,1.15-2.23,1.76,.38,1.78,.76,3.58,1.21,5.69-1.21,.07-2.33,.39-2.53,.11-1.38-1.95-2.58-4.02-4.01-6.33-2.04-.29-4.29-.61-7.06-1v-10.56Zm-78.34,50.26c.62,.5,1.18,.95,1.79,1.44,.24,1.36,.47,2.64,.69,3.91-.34,.04-.8,.1-1.1,.14-.86-1.1-1.67-2.12-2.48-3.16,.39-.81,.74-1.54,1.11-2.33Zm-5.49,2.22s.08,.07,.13,.11c0,.02,0,.04,0,.06-.11-.02-.18-.04-.29-.07,.06-.04,.11-.07,.16-.11Zm.34,2.87c.1,.54,.13,1.1,.2,1.66-.49,.06-1,.12-1.48,.17-.31-.21-.67-.47-.99-.69,.73-.37,1.45-.73,2.27-1.15Zm429.47-31.96c.6-.3,1.3-.65,3.34-1.68-.53,.75-.87,1.23-1.17,1.64l-2.18,.28v-.25Z"/></svg>