<?xml version="1.0" encoding="UTF-8"?><svg id="trees-bg" xmlns="http://www.w3.org/2000/svg" viewBox="0 0 2000.62 1080.67"><defs><style>.cls-1{fill:#c1822c;}.cls-2{fill:#d08d32;}.cls-3{fill:#c9872e;}</style></defs><g id="aBIGCD.tif"><path class="cls-3" d="M2000.62,0V1080.67c-666.65,0-1333.3,0-1999.95,0,0-125.55,0-251.09,0-376.64,3.14-2.05,4.71-5.26,5.98-8.55,3.03-7.84,6.6-15.43,10.39-22.94,2.65-5.25,5.13-10.58,8.06-16.65-8.74,.32-16.62,.21-24.43,1.56,0-25.29,0-50.57,0-75.86,5.42-1.17,10.87-2.26,16.27-3.53,4.8-1.13,4.78-1.22,3.75-6.09-.77-3.63,.24-5.35,3.77-6.47,1.75-.56,3.55-.65,5.24,.01,5.82,2.29,10,.09,14.27-4.01,7.23-6.94,16.17-9.85,26.26-8.9,3.76,.35,6.81,1.78,8.67,5.29,2.95,5.56,7.8,9.64,11.6,14.53,3.27,4.21,7.7,1.79,11.76,1.14,3.23-.52,4.47-2.38,4.45-5.52-.01-2.53,1.19-4.69,2.75-6.64,1.72-2.14,2.85-4.56,2.8-7.32-.14-7.74,3.27-12.49,11.01-14.33,5-1.19,7.9-4.69,8.39-9.97,.12-1.32,.42-2.63,.69-3.93,1.47-7.15,4.99-10.33,12.18-10.95,4.2-.36,8.4-.86,12.61-.89,6.07-.04,12.06,.46,16.24,5.85,1.68,2.16,3.71,2.11,5.9,.81,3.06-1.82,6.11-3.67,9.58-4.59,4.64-1.23,6.33,.09,5.8,4.85-.72,6.38-.44,12.83-1.75,19.19-1.04,5.06-.1,10.12,1.09,15.14,.93,3.94,2.81,6.21,7.03,6.71,7.43,.88,13.48,4.46,17.75,10.61,2.58,3.72,5.89,4.92,10.24,4.83,9.13-.18,18.1,.88,27,3.22,8.79,2.31,17.8,3.76,26.8,5.13,12.53,1.91,25.27,1.45,37.75,3.57,5.14,.87,10.11,.73,15.14-.59,6.05-1.59,12.25-2.31,18.49-1.48,6.85,.91,13.72,.95,20.6,1.07,4.77,.08,9.26-.44,13.32-3.25,2.03-1.41,4.51-1.78,6.92-2.26,4.35-.88,8.75-1.6,13.01-2.82,11.76-3.38,21.06-10.05,26.98-20.98,.84-1.56,1.57-3.18,2.38-4.76,4.09-7.98,6.36-8.86,14.77-5.29,3.01,1.28,5.86,2.13,8.87,.27,4.89-3.01,10.19-4,15.91-3.89,4.22,.08,5.45-1.36,5.95-5.54,.24-1.97,.14-3.99,.23-5.98,.52-11.93,4.85-17.65,16.04-21.73,8.97-3.27,17.63-7.26,25.96-11.98,3.82-2.17,5.84-5.17,6.6-9.38,.91-5.02,1.96-10.01,3.1-14.98,2.52-11,7.85-19.78,17.75-26.16,12.08-7.79,23.08-17.35,37.67-20.47,2.6-.56,2.65-2.34,2.5-4.57-.57-8.63-1.02-17.24,1.28-25.78,1.24-4.61,3.6-7.61,7.96-9.88,9.81-5.11,19.17-11.1,29.69-14.84,3.39-1.21,6.06-3.68,8.73-6.02,4.6-4.05,9.37-7.41,16.04-6.52,2.91,.39,4.54-1.45,4.87-4.28,.21-1.76,.45-3.57,.23-5.3-.82-6.66,1.99-11.34,7.09-15.46,13.95-11.26,29.49-20.59,41.44-34.3,3.02-3.46,7.04-4.55,11.46-2.27,4.17,2.15,7.67,1.4,10.57-2.32,1.36-1.75,2.87-3.38,4.25-5.11,1.4-1.75,2.87-3.57,5.07-4.17,10.67-2.88,21.31-6.18,32.62-4.16,3.09,.55,6.26,.91,9.22-.28,5.34-2.15,10.82-1.81,16.39-1.73,9.38,.14,15.11,5.36,19.28,12.99,.79,1.45,.65,4.03,3.24,3.08,2.11-.77,1.58-2.91,1.25-4.65-.16-.86-.42-1.78-.9-2.49-3.06-4.51-1.61-8.35,1.65-11.98,1.04-1.15,2.04-2.34,3.04-3.53,.82-.97,2.25-1.9,1.26-3.35-.95-1.39-2.99-2.11-4.14-1.25-5.69,4.31-13.18,.06-18.88,4.22-1.03,.75-2.59-.06-3.83-.58-1.64-.68-3.33-1.61-5.11-1.29-6.04,1.08-11.29-1.48-16.66-3.43-2.75-1-5.38-1.86-8.4-1.07-1.93,.5-4.91,2.38-5.73-.54-.64-2.27,2.65-3.12,4.53-4.07,1.33-.68,2.96-.84,4.47-1.08,1.58-.24,3.35-.52,4.12-1.88,2.29-4.04,6.17-4.29,10.1-5.28,11.35-2.86,23.22-1.33,34.49-4.49,.4-.11,.88,.03,1.32,.09,1.8,.24,3.59,.22,5.18-.73,2.09-1.25,4.2-1.14,6.41-.46,5.35,1.64,10.05-.52,14.3-3.17,3.93-2.45,7.57-4.56,12.36-2.99,.81,.27,1.76,.13,2.65,.08,1.19-.07,2.26-.48,2.21-1.9-.04-1.25-1.15-2.53-2.05-2.11-4.45,2.07-9.54-1.08-13.93,2.13-2.65,1.94-5.52,1.28-7.34-1.84-.45-.77-.88-1.55-1.4-2.26-1.39-1.89-2.92-1.92-4.3-.06-.65,.87-.89,2.02-1.46,2.97-.79,1.31-2,1.8-3.38,.99-1.06-.63-1.27-1.8-1.02-2.93,.9-4.05,7.7-9.15,11.72-8.84,3.82,.29,10.62-3.68,13.49-8.62-7.93,4.03-15.3,3.6-23.93,1.69,3.38-1.81,5.12-3.69,4.6-6.98-.38-2.43,1.11-4.18,3.44-5.1,3.27-1.29,3.94-2.89,1.44-5.93-2.79-3.38-2.35-4.9,1.54-7.29,1.74-1.06,3.09-2.03,4.13-3.98,2.99-5.6,8.28-5.97,12.01-.66,2.09,2.99,4.34,4.18,7.77,3.69,1.99-.28,4-.56,5.49,1.33,1.95,2.47-1.77,3.51-1.69,5.19,12.17,4.15,21.76,11.48,30.85,19.93-4.26,.35-8.21-.41-12.23-1.52-5.85-1.61-11.82-1.85-17.7,.11-1.07,.36-2.09,.97-2.07,2.29,.03,1.28,.97,2.22,2.08,2.18,3.06-.12,4.46,2.55,6.53,3.87,5.48-5.23,6.25-5.39,13.06-3.02,1.25,.43,2.55,.7,3.85,.99,3.02,.68,6.06,1.31,9.09,1.97,1.92,.42,3.24,1.49,3.38,3.55,.13,1.85-1.04,2.74-2.65,3.34-3.08,1.13-5.99,2.97-9.22-.04-1.81-1.69-3.89-.54-6.13,.14-4.24,1.28-8.87,2.49-13.16,2.04-6.07-.63-5.98-1.28-6.41,4.97-.12,1.76-.55,3.51-.62,5.28-.11,2.86,1.78,3.83,4.26,4.02,2.18,.17,3.38-.26,4.09-2.98,2-7.67,6.36-10.3,14.35-8.84,4.39,.8,8.8,1.11,13.21,1.53,8.21,.78,8.22,.69,10.09,8.68,1.04,4.47-.33,6.28-5.06,5.5-3.63-.6-7.02-.3-10.52,.41-2.16,.44-5.11,1.54-6.48,.58-6.83-4.73-14.01-1.53-21.02-1.66-1.25-.02-2.78-.45-3.43,2.02,8.28,4.16,8.03,11.18,5.96,18.86-2.71,.03-3.09-2.15-4.39-3.22-1.07-.88-2.36-1.81-3.42-.37-1.75,2.39-3.46,1.46-5.07,.16-3.01-2.44-6.21-3.1-9.96-2-1.19,.35-2.61-.1-3.93-.21-8.1-.72-16.81,7.41-16.64,15.56,.03,1.67,.29,2.63,2.58,2.89,7.77,.86,15.19-1.23,22.71-2.31,3.66-.53,6.94-1.58,9.6,2,1.13,1.52,2.85,2.09,4.72,1.99,3.22-.17,6.47-.3,7.48,3.72,.74,2.96,3.44,5.21,2.81,8.69-.32,1.75-.7,2.9-2.7,3.05-2.43,.18-4.88,.36-7.25,.9-1.54,.35-2.96,1.53-2.42,3.37,.47,1.59,2.13,1.42,3.41,1.17,5-.99,9.54-3.13,13.94-5.26,.05-2.22-1.84-2.8-2.44-4.2-1.06-2.48-.33-4.81,2.33-5.07,3.74-.36,6.55-2.29,9.69-3.87,2.11-1.07,4.69-1.57,7.08-1.65,4.73-.17,7.46,3.38,10.39,6.38,2.22,2.27,1.96,4.71,.58,7.32-1.09,2.07-.34,3.84,1.25,5.37,3.25,3.13,6.68,5,11.33,2.69,3.37-1.68,6.88-3.11,10.44-4.33,5.3-1.83,8.4-4.75,6.91-10.88-.43-1.77,.1-3.67,2.04-4.48,2.02-.84,3.48,.38,4.47,1.94,2.42,3.82,5.74,3.6,9.36,2.29,1.67-.61,3.29-1.37,4.99-1.85,4.11-1.16,6.57-3.49,6.37-8.06-.09-2.06,.21-4.12,2.44-5.02,2.5-1.01,4.27,.44,5.8,2.15,2.05,2.3,4.76,2.99,7.63,3.65,4.35,.99,8.35-.3,12.46-1.19,5.27-1.14,10.41-1.94,11.34-9.04,.43-3.31,3.18-3.78,6.14-1.91,.93,.59,1.69,1.45,2.63,2.04,3.35,2.11,7.22,2.06,10.92,2.15,2.59,.06,3.14-2.74,4.44-4.48,2.2-2.94,4.92-3.5,7.22-.76,2.86,3.4,5.89,2.99,9.57,2.4,3.85-.61,7.11-1.09,9.07-5.35,1.96-4.26,4.44-4.4,6.64-.48,2.83,5.04,6.81,5.78,11.81,4.91,1.96-.34,3.97-.63,5.95-.66,4.46-.07,8.35-.6,9.75-5.96,.55-2.12,2.8-3.36,4.61-1.11,6.03,7.47,12.95,7.36,20.6,2.94,1.57-.91,2.96-.59,4.11,.84,5.51,6.88,13.74,7.5,21.46,9.24,1.77,.4,3.64,.11,5.11-.98,3.35-2.48,5.73-1.04,7.94,1.68,1.26,1.55,2.58,3.12,4.45,3.94,3.43,1.5,6.75,3.32,10.7,1.01,4.86-2.83,4.95-2.68,8.13,1.89,4.07,5.85,9.19,7.14,15.25,3.49,2.17-1.31,3.68-1.3,5.05,.77,3.86,5.85,9.4,6.76,15.8,5.71,5.36-.88,5.97-.43,7.73,4.69,.78,2.28,1.62,4.51,1.57,7.08-.15,6.83,.6,7.63,7.16,8.44,11.23,1.39,22.47,2.74,33.72,4.04,8.66,1,17.01,3.07,25.06,6.45,9.86,4.13,19.12,9.39,28.42,14.58,13.6,7.6,26.39,16.48,38.24,26.54,11.56,9.8,21.64,21.06,28.69,34.66,1.78,3.42,4.23,4.23,7.68,3.06,3.57-1.21,7.33-2.03,10.69-3.67,11.27-5.49,23.36-8.33,35.37-11.55,10.28-2.76,21.07-3.38,31.01-7.53,4.34-1.81,8.83-2.87,13.6-2.77,5.24,.11,9.25-2.08,12.51-6.32,3.24-4.21,5.9-8.88,9.72-12.66,2.95-2.92,6.26-5.47,10.56-4.46,10.26,2.39,19.79-.78,29.46-3.23,5.62-1.42,10-4.61,13.49-9.17,4.46-5.83,8.16-12.13,11.87-18.45,6.19-10.53,13.82-19.3,26.27-23.12,9.75-2.99,19.2-7.2,27.45-13.34,7.01-5.22,15.01-8.57,22.4-13.02,9.34-5.62,18.75-7.18,29.17-4.23,4,1.13,7.81,.06,11.38-2.29,8.93-5.86,17.94-11.5,29.38-10.96,3.35,.16,4.71-1.84,3.51-4.77-2.49-6.08-4.35-12.78-10.98-16.05-3.27-1.61-3.88-4.09-2.64-7.17,3.18-7.87,2.9-16.07,2.52-24.28-.24-5.31-.8-10.61-1.04-15.92-.3-6.41,2.66-11.05,8.22-14.11,4.09-2.25,8.32-4.19,12.75-5.7,3.79-1.29,7.43-2.88,10.67-5.34,15.72-11.94,31.47-23.84,47.24-35.72,3.4-2.56,6.97-5.18,8.63-9.08,3.15-7.4,8.95-10.64,16.37-11.97,3.83-.69,7.19-2.27,9.61-5.45,3.24-4.26,7.18-7.85,10.93-11.64,5.3-5.36,9.31-11.25,8.88-19.3-.24-4.42,1.9-7.62,5.89-9.59,2.58-1.28,5.13-2.64,7.7-3.96,5.38-2.76,10.36-6.01,14-11,7.08-9.69,16.11-14.88,28.65-15.27,12.59-.39,25.28-2.2,36.97-7.65,18.89-8.81,38.15-16.94,55.61-28.55,1.27-.84,2.82-1.25,4.24-1.86Zm-823.65,407.76c.25-5.75-.96-11.01-4.82-15.49-13.24-15.34-29.06-27.43-47.65-35.34-12.21-5.2-25.08-8.87-37.69-13.12-6.8-2.29-13.86-2.71-21-2.9-27.13-.73-53.38,4.04-79.31,11.63-15.67,4.58-30.56,10.45-44.03,19.89-23.05,16.15-41.32,36.05-51.75,62.58-4.2,10.7-7.79,21.66-13.44,31.77-1.39,2.48-1.96,5.4-3.1,8.03-2.9,6.69,.5,12.01,3.75,17.32,1.23,2.02,3.35,2.91,5.7,2.9,7.4-.01,13.9,2.7,19.9,6.68,3.81,2.53,7.75,3.26,12,1.65,4.86-1.84,9.12-.85,13.08,2.26,2.29,1.8,4.8,3.19,7.6,4.03,2.71,.82,4.36-.14,4.72-2.95,.34-2.64,.52-5.29,.75-7.94,.52-5.91,4.08-9.74,8.95-12.39,6.41-3.49,12.47-.39,13.83,6.78,1,5.27,.91,10.58,.96,15.9,.03,2.87-.43,6.06,.62,8.56,4.88,11.6,7.73,23.51,7.47,36.16-.06,3.08,1.88,4.65,5.22,4.68,7.53,.05,9.16,1.43,10.66,8.68,.76,3.69,1.21,7.44,2.04,11.11,.39,1.73,1.33,3.4,3.38,3.7,2.11,.31,3.19-1.19,4.18-2.71,.36-.56,.67-1.15,.97-1.74,1.47-2.86,3.72-4.45,7-3.9,3.84,.64,3.97,3.85,3.97,6.7,.01,8.01,4.37,13.42,10.7,17.25,7.02,4.25,13.76,8.93,21.05,12.76,8.3,4.37,16.03,9.73,21.07,17.89,2.4,3.89,5.15,4.53,9.4,4.04,12.32-1.41,24.41-4.8,36.95-4.44,1.5,.04,3.1-.4,4.53-.95,8.02-3.11,16.63-4.86,23.64-10.34,1.72-1.34,3.9-2.09,5.88-3.1,6.7-3.44,13.4-6.86,20.08-10.35,1.16-.61,2.49-1.31,3.18-2.33,5.2-7.74,9.2-16.07,6.1-25.54-4.32-13.26-4.01-26.64-2.26-40.12,1.74-13.4,4.38-26.68,4.92-40.23,.16-3.94,.13-8.12,2.36-11.61,2.54-3.98,2.96-8.29,2.7-12.77-.45-7.82-2.18-15.48-5.55-22.44-3-6.2-3.76-12.1-2.01-18.61,1.9-7.08,2.73-14.35,3.33-21.63Zm-313.25-70.57c-.22-.19-.37-.45-.54-.46-.87-.05-1.8-.25-2.6-.02-6.93,1.97-10.64-4.29-16.03-6.24-.83-.3-1.29-1.49-1-2.29,1.78-4.78-.71-7.4-4.43-9.69-1.72-1.06-2.56-3.01-3.47-4.8-1.44-2.84-3.89-4.18-6.93-4.49-1.98-.2-3.99-.31-5.97-.25-6.16,.18-11.89-.88-16.84-4.93-1.35-1.1-3.08-1.73-4.62-2.61-3.19-1.82-6.41-1.66-9.5,.08-2.3,1.3-4.34,2.96-7.29,2.73-1.71-.13-2.09,1.32-1.87,2.81,.1,.65,.31,1.29,.45,1.94,3.28,14.8,10.51,27.63,19.79,39.41,2.28,2.89,5.27,3.53,8.91,1.82,1.78-.84,3.43-2.04,5-3.26,4.94-3.85,10.52-5.56,16.75-5.3,3.77,.16,7.53,.29,11.3,.4,5.13,.15,10.2-.33,15.12-1.83,1.58-.48,3.55-.72,3.76-3.04Z"/></g><g id="_4KmG6.tif"><g><path class="cls-1" d="M0,593.38c2.33-1.86,4.66-3.74,7-5.59,.97-.77,2.03-1.6,2.27-2.8,.78-4,3.58-4.28,6.94-4.47,8.75-.49,17.56,.57,26.24-1.03,4.79-.88,9.59-1.82,14.29-3.1,6.39-1.73,13.44,3.46,13.06,10.24-.2,3.64,.01,7.31,.07,10.97,.05,3.48,1.72,5.06,4.76,3.7,6.8-3.05,13.35-6.7,17.53-13.2,1.99-3.09,3.94-6.1,7.78-6.63,6.21-.86,7.81-5.29,8.74-10.4,.28-1.52,.63-3.09,.52-4.61-.28-4.21,2.18-7.04,4.61-9.95,1.46-1.74,2.56-.54,3.63,.37,4.66,3.94,9.33,7.86,13.89,11.9,4.93,4.37,10.48,7.79,16.14,11.1,4.62,2.71,9.9,2.98,15.65,4.23-7.56,2.11-11.57,6.11-12.37,13.74-.57,5.51-.78,11.28-3.38,16.5-.94,1.9-2.04,3.06-4.2,3.12-1.44,.04-2.88,.34-4.31,.3-10.16-.24-19.69,2.47-29.07,6.01-2.37,.89-4.92,1.3-7.37,2.01-5.53,1.62-7.02,3.53-7.23,9.22-.07,1.99,.18,4.03-.12,5.98-.76,4.85,1.67,7.8,5.28,10.57,7.28,5.6,15.18,8.8,24.54,8.7,6.91-.07,13.83,.74,20.77,1.43-1.5,1.1-3.24,1.2-4.92,1.33-4.02,.3-6.42,2.48-7.92,6.1-3.1,7.46-3.13,15.36-3.39,23.21-.2,6.09-.09,12.19-.08,18.29,0,1.61-.21,3.03-1.46,4.23-4.09,3.9-8.13,7.86-12.2,11.79-1.66,1.6-3.61,2.41-5.95,2.58-10.2,.74-20.42,.52-30.61,.28-5.65-.13-10.7-2.65-15.35-5.84-5.97-4.1-8.32-3.02-12.16,.83-6.65,6.67-14.49,11.21-24.19,11.99-3.34,.27-5.86-1.84-8.89-2.41-5.13-.97-10.15-2.45-14.38-5.74-3.36-2.61-3.33-3.13,.14-5.31,8.89-5.58,9.34-9.31,2.01-16.81-2.09-2.14-4.2-4.25-6.3-6.38,0-35.48,0-70.97,0-106.45Z"/><path class="cls-1" d="M1726.66,584.63c.04-2.57-1.2-2.33-2.82-1.9-8.19,2.2-16,5.33-23.42,9.39-16.16,8.83-32.18,17.88-47.99,27.32-12.18,7.27-24.77,13.86-37.16,20.78-4.06,2.27-7.58,2.15-11.1-1.33-4.29-4.23-9.38-7.22-15.09-9.47-6.2-2.45-10.83-7.3-15.05-12.33-2.99-3.56-5.58-7.45-8.34-11.2-1.25-1.7-1.29-3.67-1.43-5.69-1.68-22.82,3.51-44.66,8.98-66.54,3.76-15.03,6.69-30.27,7.39-45.84,.32-7.12,2.94-10.14,10.85-10.7,8.06-.56,14.53-4.38,21.24-8.01,2.6-1.4,3.21-3.81,3.55-6.39,.69-5.16,1.41-10.32,1.96-15.49,.21-2.03,1.08-2.81,3.09-3.09,6.85-.94,7.53-1.79,7.69-8.61,.02-1,.12-1.99,.16-2.99,.09-2.84,1.22-4.54,4.39-4.49,5.11,.08,7.25-3.56,9.08-7.53,1.82-3.93,2.45-4.03,4.91-.56,5.52,7.78,8.53,16.46,9.26,25.97,.29,3.83,.5,7.68,1.75,11.54,.48-.21,.84-.25,1-.45,8.25-10.3,16.34-20.73,24.76-30.89,4.61-5.57,5.51-12.18,6.53-18.86,.25-1.62-.1-3.94,1.52-4.44,1.87-.59,2.89,1.67,3.94,2.97,6.21,7.77,12.56,15.46,16.54,25.1,3.42-4.13,5.2-8.68,5.22-13.73,.06-12.19,.51-24.39-.46-36.57-.14-1.8-.5-3.56-1.5-5.05-2.62-3.91-3.96-8.41-5.91-12.62-2.51-5.43-3.7-11.1-3.33-17.11,.23-3.67-.32-7.32-.96-10.91-.38-2.15,.18-3.68,1.61-5.07,3.96-3.88,6.44-8.71,8.84-13.59,1.82-3.7,2.28-7.61,1.79-11.66-.29-2.39-1.33-4.14-3.75-4.99-1.58-.56-2.73-.46-3.71,1.04-4.93,7.5-9.9,14.98-14.87,22.46-.54,.81-.45,1.67-.45,2.56,.04,7.43-.11,14.86,.13,22.28,.12,3.6-1.4,5.85-4.3,7.58-3.56,2.12-7.49,3.35-11.3,4.85-2.29,.9-4.5,1.95-6.41,3.48-11.21,8.99-23.58,16.16-36.05,23.21-8.28,4.68-17.46,5.48-26.6,6.49-2,.22-3.91-.69-5.72-1.56-2.2-1.06-4.36-2.21-6.58-3.21-6.29-2.82-12.25-3.08-18.1,1.49-8.04,6.28-16.41,12.12-24.51,18.33-3.73,2.85-6.63,6.54-8.89,10.67-7.53,13.73-15.72,27-25.99,38.91-3.55,4.12-7.18,8.16-11.19,11.84-1.98,1.82-4.32,2.71-6.95,2.78-6.77,.18-13.54,.35-20.27-.67-4.34-.65-5.05-1.96-2.7-5.64,3.23-5.07,7.39-9.42,11.43-13.83,7.04-7.69,12.89-16.37,20.15-23.9,4.35-4.51,8.93-8.65,14.23-11.95,10.19-6.34,18.8-14.3,26.45-23.56,6.01-7.28,13.73-12.93,21.27-18.56,11.22-8.37,22.19-16.94,31.08-27.88,1.21-1.48,2.82-3.7,3.7,.39,.33,1.52,1.82,1.77,3.13,2.09,5.52,1.33,10.74,.34,15.93-1.7,7.66-3.01,14.71-7.27,22.16-10.7,8.56-3.95,17.22-7.64,26.15-10.72,7.05-2.44,13.5-6.16,19.88-9.99,1.65-.99,2.5-2.41,2.75-4.31,.16-1.2,.46-2.4,.85-3.55,1.47-4.3,1.16-4.79-3.53-4.38-4.35,.38-8.33,2.24-12.47,3.46-2.75,.81-5.49,1.61-8.49,1.74,3.56-8.91,40.07-27.11,50.64-25.3-.67,2.33-2.89,3.56-4.04,5.47,8.08,0,16.01-.05,23.93,.03,2.44,.02,4.57-.86,6.68-1.8,1.73-.77,2.71-.33,3.88,1.16,3.78,4.79,5.46,10.31,6.36,16.2,1.75,11.37,6.6,21.19,14.2,29.89,3.62,4.14,7.52,4.89,12.57,4.31,10.61-1.23,19.67-6.57,29.41-10.16,12.1-4.46,20.73-13.37,30.42-21.05,6.48-5.14,11.33-11.85,17.59-17.18,1.94-1.65,1.86-4.25,1.68-6.54-.25-3.3-.44-6.74-1.92-9.74-3.87-7.88-3.95-16.3-3.64-24.72,.1-2.7-.83-3.26-3.14-3.8-12.03-2.81-24.17-4.16-36.53-3.27-2.14,.15-4.17,.5-6.09,1.45-6.18,3.05-12.56,5.59-19.17,7.57-4.5,1.35-8.59,3.54-12.41,6.27-.7-.61-.16-1.09,.06-1.43,9.69-15,19.53-29.9,31.01-43.61,7.88-9.41,9.94-20.55,10.07-32.27,.04-3.8-1.04-4.5-4.99-4.41-2.36,.05-4.7,.28-6.67,1.72-11.31,8.25-22.28,16.87-31.03,27.97-2.23,2.83-3.59,6.1-5.01,9.35-2.18,4.98-5.7,8.94-9.49,12.71-1.82,1.81-2.91,1.61-4.05-.89-2.17-4.73-1.55-9.51-.88-14.34,.16-1.16,.89-2.02,1.72-2.77,8.72-7.88,15.38-17.41,21.86-27.1,5.91-8.84,11.5-17.91,18.12-26.27,3.43-4.34,7.91-7.42,12.06-10.91,1.1-.93,2.51-.89,3.8-1.03,8.06-.83,16.12-1.53,24.18-2.36,2.03-.21,3.53,.4,5.14,1.67,3.64,2.87,6.5,6.28,8.87,10.23,5.29,8.8,13.16,15.2,20.75,21.85,.31,.27,.76,.36,1.52,.71-.59-6.53-3.25-12.4-3.34-19.41,7.11,12.12,15.01,22.93,19.45,35.74,5.94,17.17,12.96,33.94,20.16,50.62,1.74,4.04,4.37,7.56,7.5,10.5,10.8,10.14,18.13,22.53,24.44,35.72,3.61,7.54,8.86,14.04,14.36,20.31,1.95,2.22,4.52,3.18,7.25,3.77,3.57,.77,5.26,2.83,5.3,6.5,.04,4-.06,7.93-.88,11.89-3.05,14.63-6.4,29.23-7.3,44.21-.29,4.86-.37,9.75-.35,14.62,.02,5.22,3.21,8.81,6.72,12.15,4.85,4.61,10.25,8.47,16.03,11.82,.77,.45,1.5,.96,2.28,1.38,3.52,1.91,4.99,4.56,4.95,8.84-.23,23.39,.04,46.79-.16,70.19-.16,19.06-1.22,38.09-2.86,57.1-.74,8.59-.42,17.28-.35,25.93,.02,2.85-1.03,3.79-3.76,4.2-13.14,1.98-25.18-.76-36.13-8.12-7.18-4.83-14.19-9.9-21.2-14.98-5.27-3.82-11.09-6.58-17.16-8.69-6.52-2.26-10.99-6.45-13.88-12.55-.85-1.8-1.92-3.54-2.51-5.42-3.03-9.63-10.41-12.9-19.6-13.57-7.38-.54-14.69-.66-21.13,3.91-.52,.37-1.23,.5-1.86,.7-4.12,1.35-4.68,.89-5.32-3.43-.73-4.87,.03-9.52,1.73-14.02,2.23-5.91,4.36-11.88,7.08-17.57,6.56-13.71,10.65-28.4,17.29-42.1,8.2-16.94,17.77-32.96,29.45-47.71,2.7-3.4,5.26-6.91,7.04-10.86,3.43-7.59,7.27-14.95,11.43-22.15,1.31-2.26,1.21-3.95-.47-5.96-3.5-4.19-5.84-9.13-8.56-13.83-3.65-6.29-4.2-12.91-2.15-19.57,2.13-6.93,2.52-13.93,2.38-21.03-.11-5.64,.62-11.31-.5-16.91-.28-1.38-.38-3.16-1.92-3.64-1.68-.53-2.51,1.18-3.38,2.22-5.65,6.75-12.97,11.45-20.19,16.17-10.7,6.97-21.15,14.28-31.18,22.16-9.1,7.14-19.5,12.4-28.36,19.81-6.67,5.58-13.59,10.67-21.4,14.53-6.87,3.39-13.76,6.69-21.42,7.98-6.73,1.14-10.97,6.41-16.17,10.04-8.73,6.1-16.23,13.79-25.08,19.76-2.57,1.74-5.1,3.54-7.6,5.37-2.59,1.9-3.64,4.58-3.98,7.72-1.41,12.99-.77,25.84,1.62,38.7,1.43,7.67,3.48,15.09,6.41,22.3,1.76,4.34,2.74,8.9,3.27,13.53,.54,4.73,.79,9.49,1.31,14.23,.37,3.34-.26,6.24-2.32,9.03-2.9,3.91-5.39,8.12-8.16,12.14-1.35,1.96-1.63,3.94-1.24,6.28,1.13,6.64,3,13.22,1.82,20.08-.24,1.42-.28,2.9-.74,4.24-3.78,10.96-8.73,21.48-12.06,33.05Z"/><path class="cls-1" d="M581.09,622.05c.76,6.79-.24,14.05,4.61,19.67,8.31,9.6,9.5,21.15,9.64,33.04,.11,9.87,.09,19.74,.07,29.6,0,1.7,.19,2.87,2.23,3.36,16.1,3.79,15.69,4.33,28.18,17.52,1.1-1.11,1.09-2.5,1.23-3.88,.48-4.76,1.5-9.39,3.43-13.79,.91-2.08,1.69-2.32,3.48-.46,7.54,7.83,10.77,17.11,10.14,27.85-.08,1.44-.04,2.88,0,4.32,.11,3.98-1.47,8.58,4.28,10.93-4.36-2.76-6.47-.22-9.18,2.3-5.9,5.51-11.96,10.96-19.67,13.98-1.45,.57-1.61,1.71-1.39,2.99,.4,2.44,1.19,4.82,2.81,6.66,2.22,2.52,2.05,5.13,1.23,8.06-2.76,9.81-6.26,19.38-9.65,28.97-1.53,4.33-2.51,8.69-2.44,13.3,.15,9.55-.45,19.04-2.43,28.4-.41,1.93-.04,3.07,2.24,2.76,2.58-.36,2.09,1.14,1.52,2.59-1.42,3.62-3.36,6.98-5.4,10.29-2.04,3.31-3.85,6.73-5.3,10.34-1.39,3.49-1.14,3.86,2.36,4.83,2.18,.61,4.4,.52,6.6,.74,3.32,.33,4.14,1.3,3.4,4.53-.97,4.2-2.14,8.35-3.24,12.52-1.15,4.36,0,7.65,3.92,10.25,3.51,2.33,6.91,4.86,10.68,6.73,5.31,2.64,10.22,5.76,14.37,10.04,2.43,2.5,5.7,2.85,8.93,2.94,4.77,.14,9.57-.18,14.32,.18,8.53,.65,15.23-2.8,21.31-8.32,5.91-5.37,12.01-10.55,19.64-13.47,3.13-1.2,6.23-1.37,9.42-.26,3.85,1.34,4.23,1.1,4.49-3.01,.49-7.74,.88-15.48,1.37-23.22,.1-1.65,.37-3.3,.74-4.91,.68-2.95,2.27-4.84,5.59-5.21,3.96-.44,7.91-1.11,11.79-1.98,2.44-.55,2.88,.36,2.87,2.48-.06,9.76,.1,19.52-.09,29.27-.06,3.29,.91,5.33,3.9,6.88,8.44,4.37,14.29,10.98,17.15,20.22,1.37,4.43,3.16,8.76,6.11,12.47,1.44,1.8,.66,2.36-1.28,2.71-4.77,.85-9.21-1.03-13.81-1.55-2.77-.31-5.53-.68-8.28-.51-6.7,.4-12.03-2.4-16.78-6.76-2.45-2.25-4.83-4.6-7.46-6.62-4.72-3.62-7.81-3.29-11.88,.98-7.95,8.35-16.97,15.22-27.46,20.14-4.85,2.27-10.08,2.44-15.21,3.26-8.86,1.41-17.34,4.54-26.22,5.94-3.02,.48-5.53-.09-7.57-2.3-5.47-5.93-12.24-7.74-20.24-8.23-14.45-.9-28.17,2.45-42.07,5.12-10.01,1.92-20.02,3.82-30.02,5.75-4.6,.89-8.83,2.87-13.15,4.59-4.53,1.81-9.06,3.69-13.97,4.11-6.87,.59-9.6-2.37-8.7-9.31,1.02-7.83,4.82-14.69,7.85-21.78,5.4-12.62,11.17-25.09,16.83-37.6,5.28-11.67,8.08-24.14,11.34-36.4,6.87-25.88,14.39-51.54,23.28-76.8,1.04-2.96,.53-5.68-.52-8.39-1.16-2.99-1.84-6.61-3.98-8.64-1.97-1.87-5.75-.91-8.7-1.4-6.08-1.01-12.18-.37-18.28-.49-5.47-.1-8.91,2.52-10.94,7.5-1.88,4.63-3.63,9.28-4.98,14.08-1.22,4.31-1.6,4.4-5.05,1.5-4.24-3.57-8.58-7.03-12.61-10.83-3-2.83-4.65-5.85-2.29-10.5,1.94-3.84,1.3-8.51-1.01-12.46-4.77-8.17-11.44-14.74-18.8-20.47-4.38-3.41-6.41-7.41-6.53-12.69-.08-3.54-1.3-6.71-3.06-9.72-3.47-5.97-6.19-12.25-8.11-18.89-.48-1.67-.22-2.24,1.53-2.13,1.66,.11,3.33,.15,4.99,.12,2.76-.04,4.62,1.21,5.77,3.68,1.41,3.01,2.9,5.98,4.95,8.63,2.19,2.83,4.93,4.27,8.57,4.24,6.44-.06,12.88,.08,19.32,.1,2.26,0,4.39,.59,6.48,1.34,.74,.27,1.63,.61,1.49,1.5-.08,.51-.8,1-1.33,1.34-1.45,.93-3.14,1.03-4.8,1.15-1.77,.13-3.54,.29-5.31,.37-7.31,.33-9.22,2.43-8.78,9.66,.31,4.97,3.45,7.59,9.68,7.83,6.54,.25,12.78-.88,18.57-4.2,5.07-2.91,7.25-2.67,10.95,1.84,4.17,5.09,9.64,7.61,16.1,9.42-.13-2.46-.28-4.72-.36-6.98-.45-12.6,1.44-24.95,4.17-37.18,.55-2.45,0-3.76-2.18-4.73-2.94-1.31-5.8-2.78-8.75-4.07-2.38-1.04-3.79-2.84-3.9-5.33-.15-3.24-2.05-4.5-4.85-4.85-8.45-1.05-16.81-1.02-24.95,2-4.11,1.53-4.49,1.21-5.72-3.07-1.21-4.2-1.06-8.56-1.77-12.82-.75-4.48-2.92-8.01-6.37-10.94-8.44-7.17-18.26-11.16-29.09-13.02-4.59-.79-9.03-2.28-13.41-3.86-5.36-1.93-9.61-5.06-11.43-10.74-.55-1.72-1.42-2.22-3.22-1.45-8.26,3.52-16.53,7-25.14,9.62-1.1,.34-2.36,.69-3.09,2.16,1.62,1.28,3.67,1.37,5.5,1.68,12.25,2.02,23.81,6.02,34.89,11.58,3.24,1.62,5,3.86,5.02,7.48,.02,3.22,.05,6.43,.15,9.64,.25,8.26-.86,16.61,1.86,24.6-1.44,.7-2-.23-2.64-.69-3.79-2.72-7.65-5.34-11.79-7.48-4.13-2.14-6.46-5.47-7.59-9.95-1.08-4.31-1.86-8.65-2.45-13.05-.64-4.75-2.32-6.35-7.07-6.8-6.95-.67-13.81-2.07-20.82-2.26-3.23-.09-4.91,.89-6.41,3.81-2.07,4.01-2.04,7.81-1.58,12.16,1.56,14.64,11.15,22.21,23.31,27.79,3.53,1.62,7.13,3.09,10.61,4.79,15.15,7.38,27.19,18.17,35.83,32.68,2.96,4.97,6.5,9.52,10.37,13.81,1.02,1.13,2.28,2.1,2.84,3.95-2.05,.4-3.71-.42-5.24-1.31-15.05-8.73-30.48-16.93-42.58-29.85-8-8.55-18.09-13.31-29.2-16.39-7.35-2.04-14.95-3.33-21.7-7.25-4.47-2.6-8.08-6.21-11.83-9.64-1.79-1.64-2.37-3.95-2.5-6.35-1.04-19.06-.31-38.13-.48-57.2,0-.97,.22-2,.57-2.91,.56-1.48,1.43-3.09,3.03-3.28,1.92-.23,1.89,1.87,2.4,3.08,2.52,6.01,7.31,10.25,11.5,14.95,1.18,1.32,2.6,.92,3.96,.19,2.07-1.12,3.8-2.7,5.45-4.34,6.47-6.43,14.47-10.58,22.28-15,1.67-.94,3.53-1.22,5.46-1.23,6.11,0,12.21-.13,18.32-.07,2.35,.02,3.93-.79,5.24-2.78,1.46-2.21,3.27-4.18,4.97-6.23,1.85-2.22,3.66-4.45,4.64-7.44,1.06,4.34,3.9,8,4.4,12.45,.26,2.31,1.14,1.94,2.48,1.05,.98-.66,1.35-1.75,1.77-2.76,2.34-5.65,5.46-10.89,8.55-16.14,.85-1.45,1.45-2.98,1.7-4.65,1.9-12.59,7.11-24.21,11.06-36.16,3-9.06,9.65-16.37,15.71-23.74,4.63-5.63,9.16-11.38,14.65-16.23,.29,.27,.58,.46,.55,.51-3.76,8.67-2.21,17.88-2.96,26.87-.49,5.86,1.18,10.44,5.35,14.21,2.42,2.19,5.06,4.18,7.78,5.99,3.44,2.29,6.76,4.65,9.16,8.09,2.26,3.23,5.22,5.68,8.53,7.81,7.84,5.04,15.64,10.13,23.37,15.33,1.91,1.29,2.95,1.42,3.91-.95,.94-2.33,2.22-4.51,3.69-7.45,.38,5.44,1.59,9.84,3.29,14.22,1.54,3.98,4.07,6.7,7.58,8.79,2.29,1.36,4.48,2.91,6.85,4.11,9.02,4.55,11.8,12.68,12.8,21.87,.1,.88,.16,1.78,.06,2.66-.13,1.11,.93,2.73-.55,3.23-1.18,.41-2.15-.95-2.98-1.81-4.58-4.79-9.12-9.61-14.81-13.46Zm-34.81,34.68c0-3.59,.11-6.9-.03-10.2-.18-4.26,.25-8.44,1.62-12.44,3.62-10.54,6.44-21.36,10.86-31.63,.56-1.3,.63-1.86-.79-3.05-9.02-7.55-19.81-12.15-29.73-18.18-6.65-4.04-14.16-5.58-21.65-7.2-2.9-.63-3.58,.53-2.89,3.09,1.52,5.66,2.72,11.43,4.65,16.95,2.59,7.41,6.49,14.06,13.25,18.63,2.63,1.77,4.31,4.35,5.7,7.21,5.62,11.54,11.33,23.04,17.03,34.54,.38,.76,.65,1.65,1.98,2.29Zm.94,109.18c2.01,0,3.67,.02,5.34,0,.92-.02,1.96-.1,1.52-1.45-1.7-5.2-5.31-9.38-7.75-14.19-.16-.31-.76-.41-1.17-.57-3.88-1.55-7.14-3.98-10.05-6.93-1.38-1.4-2.87-2.42-4.94-2.31-5.56,.28-11.02,1.19-16.3,2.9-3.79,1.23-4.71,3.75-2.84,7.27,1.3,2.44,2.97,4.65,4.84,6.72,1.98,2.19,4.25,3.42,7.3,3.17,3.06-.26,5.9,.67,8.65,1.95,4.99,2.31,10.21,3.62,15.41,3.45Z"/><path class="cls-1" d="M985.53,658.79c-1.76-.19-2.72-1.01-3.62-1.77-6.03-5.07-13.51-7.56-20.25-11.36-3.03-1.71-6.25-1.66-9.32,.77-4.23,3.35-9.22,5.21-14.9,6.08,4.12,4.91,8.79,8.72,13.58,12.33,7.43,5.61,14.69,11.45,22.77,16.18,4.99,2.92,8.98,7.23,13.57,10.71,2.86,2.16,5.24,4.55,7.04,7.71,1.71,3.01,4.92,4.39,7.99,5.71,3.57,1.53,7.13,3.05,10.48,5.06,1.97,1.18,3.08,2.73,3.03,5.12-.07,3.66,.1,7.32-.02,10.97-.12,3.75-1.15,4.75-4.94,4.59-3.99-.18-7.93-.86-11.78-2.03-10.16-3.08-20.32-6.17-31.01-10.46,2.09,2.89,4.32,4.24,6.52,5.51,7.78,4.48,15.46,9.1,24.19,11.71,5.82,1.74,6.81,4.44,4.44,10.06-.56,1.32-1.26,2.59-1.92,3.87-2.12,4.1-5.27,6.28-10.11,6.21-4.56-.07-5.19,.68-5.28,5.22-.11,5.37,.77,10.61,2.96,15.55,1.06,2.4,1.2,4.81,1.16,7.42-.06,3.44-1.9,4-4.52,3.46-3.68-.77-7.33-1.75-10.95-2.77-2.67-.75-4.02,.07-4.21,2.89-.25,3.63-1.85,6.81-3.55,9.94-3.12,5.73-6.45,11.34-8.2,17.74-1.04,3.82-1.37,3.64-4.74,1.74-4.08-2.3-8.35-2.09-12.43,.04-3.14,1.64-6.14,3.56-9.16,5.42-9.18,5.66-18.79,10.43-28.78,14.52-4.19,1.71-8.09,4.14-12.15,6.19-3.08,1.55-3.72,1.35-4.07-2.01-.8-7.48-.8-15.05-3.12-22.32-3.54-11.04-3.01-22.55-3.87-33.9-.42-5.52-.57-11.06-.92-16.59-.23-3.68,.41-7.4,2.64-10.1,7.4-8.95,8.96-19.66,10.62-30.57,1.63-10.75,4.93-21.15,9.13-31.18,1.67-4,2.95-8.07,3.76-12.69,1.47,1.42,1.06,2.97,1.26,4.25,1.5,9.55,5.5,18.59,6.54,28.11,1.14,10.47,6.17,17.37,14.98,22.36,2.96,1.68,5.47,4.13,8.18,6.25,.77,.6,1.45,1.68,2.53,1.21,1.01-.44,.92-1.65,1.07-2.64,.53-3.56,.39-7.07-.75-10.51-2.08-6.28-2.69-12.75-2.75-19.33-.04-4.09-.27-8.2-.64-12.28-.54-6.1-3.02-9.43-8.76-10.65-5.33-1.14-9.43-3.67-12.41-8.14-.06-.09-.13-.19-.21-.25-6.39-4.41-7.14-10.84-6.82-17.89,.34-7.52-.7-15.07,.29-22.59,.27-2.02,.29-4.28,3.2-4.71,1.42-.21,.83-1.64,.77-2.52-.52-7.68-1.52-15.02-7.09-21.26-3.2-3.59-5.74-7.84-9.26-11.25-1.21-1.17-2.12-2.65-2.45-4.29-1.58-7.98-7-12.89-13.52-16.85-6.6-4.01-5.84-5.13-8.39,3.39-3.89,12.98-5.55,26.22-4.86,39.73,.76,14.72-.92,29.1-4.55,43.4-1.34,5.27-1.09,11-1.16,16.53-.23,18.09-6.21,34.51-14.31,50.35-.15,.29-.35,.56-.56,.91-.94-1.34-.53-2.87-1.84-4.17-2.98,10.82-8.31,20.66-7.71,32.24,.48,9.27,.38,18.61-.31,27.91-.54,7.37,1.62,14.27,4.9,20.79,2.14,4.27,2.85,8.79,3.14,13.48,1.01,16.28,.65,32.58,.74,48.88,.03,5.91-3.42,8.27-9.12,5.98-5.98-2.41-10.41-6.55-13.02-12.61-4.55-10.56-6.38-21.66-6.47-33.03-.06-8.52-1.35-17.2,.67-25.53,2.9-11.94,2.91-24.17,4.7-36.18,1.77-11.9,4.56-23.71,8.8-35.06,2.29-6.13,6.33-10.91,12.27-13.85,1.29-.64,1.44-1.5,1.44-2.65,0-14.08,.43-28.18-.22-42.24-.27-5.95-.81-12.1-2.99-17.94-1.69-4.54-1.32-9.54-.47-14.17,3.85-21.03,8.01-42.07,15.96-61.98,4.48-11.21,7.92-22.52,9.73-34.38,.45-2.95,.81-5.92,1.13-8.89,.24-2.25,1.32-2.92,3.37-2.01,3.95,1.76,8.14,3.1,11.89,5.11,3.25,1.74,5.37,5.32,5.52,9.3,.28,7.2,.27,14.41,.36,21.61,.05,4.19,.46,8.3,2.8,12.76,0-6.57,0-12.39,0-18.2,0-5.96,0-6,5.83-6.06,6.11-.07,12.21-.15,18.32-.05,3.76,.06,7.07-.86,9.58-3.72,2.14-2.44,4.36-2.31,7.13-1.05,6.15,2.79,12.49,5.13,18.03,9.18,2.47,1.8,5.51,2.8,8.46,3.82,6.18,2.14,10.82,5.9,12.91,12.39,1.15,3.58,2.42,7.15,4.34,10.42,.79,1.34,.58,2.17-.92,2.82-2.43,1.06-4.6,2.75-7.26,3.26-1.94,.37-2.3,1.64-2.54,3.34-.73,5.2,.34,10.07,1.98,14.99,3.29,9.89,7.88,18.96,14.92,26.79,3.01,3.36,3.11,7.89,3.51,12.45Zm-30.06-72.09c.24-3.48-.44-7.16-3.41-9.66-4.09-3.43-8.68-6.2-14.05-7.23-4.38-.84-8.62-2.02-12.61-4.03-1.71-.86-3.15-.51-4.6,.64-2.81,2.24-2.56,5.16-1.34,7.85,2.07,4.6,4.88,8.75,9.74,10.91,5.76,2.56,11.07,5.99,17.16,7.94,6.65,2.13,9.25,.66,9.12-6.44Z"/><path class="cls-1" d="M673.65,342.19c7.82-1.51,12.5-6.22,16.12-12.37,1.53-2.6,3.81-2.24,5.47,.99,2.84,5.51,5.87,10.93,8.2,16.69,1.46,3.62,3.11,7.12,6.56,9.38,1.4,.92,2.84,1.88,4.47,2.14,5.37,.83,7.5,.04,6.13-5.62-.39-1.6-.76-3.21-1.28-5.45,6.01,2.77,11.86,4.55,17.9,5.64,.65,.12,1.29,.34,1.95,.4,3.81,.36,6.75,1.72,8.78,5.39,2.27,4.1,6.34,6.77,9.52,10.17,2.5,2.67,4.9,5.4,6.19,8.81-.43,.65-.89,.48-1.24,.25-7.92-4.93-16.75-8.74-21.55-17.53-.93-1.7-8.44-2.88-9.96-1.66-.57,.46-.73,1.12-.61,1.8,.55,3.14,.36,6.39,1.95,9.36,1.58,2.95,2.46,6.27,2.68,9.54,.4,5.82,3.54,10.68,8.12,12.48,4.81,1.89,5.47,6.85,9.5,8.89,2.42,1.23,4.43,3.28,6.76,4.8,5.05,3.31,7.8,8.66,11.21,13.38,1.29,1.79,2.33,3.8,3.91,5.35,3.74,3.71,4.6,8.41,4.96,13.36,.18,2.53-.98,3.71-3.42,3.85-.44,.03-.9,.03-1.32,.14-1.45,.38-3.68-.22-4.18,1.3-.6,1.81,1.35,3.09,2.58,4.29,3.98,3.87,9,6.13,13.98,8.23,9.41,3.96,13.86,12.01,17.71,20.58,1.35,3.01,.55,6.34,.31,9.53-.09,1.21-.41,2.42-.38,3.63,.14,5.15-1.36,9.45-5.48,12.9-2.65,2.22-3.14,5.69-3.88,8.97-2.81,12.38-6.01,24.71-16.25,33.37-8.83,7.47-12.84,16.6-11.74,28.12,.38,3.96,.09,7.98,.02,11.97-.03,1.71,.57,4.19-1.12,4.79-1.43,.51-2.56-1.74-3.52-3.05-1.63-2.2-3.76-3.7-6.12-5-2.27-1.25-3.16-.66-4.01,1.8-6.6,19.21-2.53,36.91,6.77,54.22,6.38,11.88,13.13,23.63,17.69,36.42,.8,2.24,.93,4.52,1.18,6.83,.54,5.14,.68,10.36,3.27,15.83-3.62-1.81-6.49-1.68-9.14,.53-1.56,1.29-2.15-.34-2.78-1.22-3.44-4.81-5.95-10.1-7.95-15.65-2.81-7.81-10.32-11.08-18.1-7.96-3,1.2-4.46,3.56-4.82,6.63-.92,7.86-.27,15.71,.29,23.55,.12,1.65,.42,3.31,.39,4.95-.22,9.66,.74,19.24,1.74,28.83,.48,4.6,.71,9.39-.01,13.93-1.05,6.57-4.48,11.97-10.91,14.84-2.73,1.22-5.56,2.21-8.33,3.32-6.29,2.51-10.03,7.05-11.11,13.78-1.43,8.85-2.89,17.7-2.72,26.72,.1,5.32,.02,10.64-.06,15.97-2.72-19.24-8.78-37.52-15.82-55.52-2.52-6.45-1.36-12.99-.15-19.34,2.54-13.34,4.19-26.77,3.51-40.28-.55-10.83,2.29-20.28,8.02-29.2,5.1-7.94,9.18-16.39,12.85-25.1,2.04-4.84,6.41-8.1,11.07-10.63,3.21-1.75,6.47-3.41,9.78-4.98,2.76-1.3,4.38-3.28,4.59-6.36,.6-9.09,.55-18.19-.5-27.22-.79-6.81-4.35-12.5-9.18-17.31-4.09-4.07-8.08-8.28-12.55-11.91-3.89-3.17-6.16-6.88-6.5-11.78-.37-5.44-2.92-9.53-7.09-12.97-5.39-4.44-10.11-9.64-15.66-13.92-3.7-2.86-2.86-7.28-3.24-11.08-.69-6.94,0-13.96-.96-20.91-1-7.28-1.13-14.55,.81-21.75,.73-2.71,1.8-5.22,3.32-7.56,7.2-11.05,14-22.38,21.67-33.09,7.54-10.54,8.18-21.88,6.08-33.92-.34-1.96-.63-3.94-1.06-5.88-.49-2.22-.78-4.23,1.16-6.08,1.1-1.05,.78-2.64,.34-4.1-2.91-9.66-7.53-18.43-13.86-26.28-1.49-1.85-3.47-3.15-5.6-4.1-6.24-2.77-11.06-7.24-15.58-12.21-2.96-3.25-6.25-6.21-9.75-9.66Z"/><path class="cls-1" d="M1470.46,507.32c1.51,.85,1.95,1.99,2.12,2.98,.9,5.01,4.25,7.69,8.54,9.74,3.49,1.67,6.86,3.6,10.23,5.5,1.92,1.08,3.72,1.04,5.64,.05,7.18-3.7,14.24-7.66,21.61-10.93,5.02-2.23,10.54-3.31,15.36-6.13,1.29-.75,1.9-.29,2.21,1.23,2.81,13.78,2.72,27.15-3.69,40.2-3.85,7.84-6.57,16.21-9.93,24.29-3.47,8.35-3.1,16.47,.35,24.79,6.13,14.74,12.22,29.48,20.57,43.16,.44,.72,.8,1.48,.78,2.58-1.78-1.58-3.48-3.26-5.34-4.74-10.6-8.46-19.48-18.75-29.76-27.55-3.44-2.95-7.31-4.94-11.69-6.08-10.07-2.64-19.78-6.63-30.17-8.04-6.07-.82-12.2-.72-18.29-.71-13.75,.02-27.54-1.06-41.23,.98-6.36,.95-12.65,2.32-18.96,3.56-4.22,.83-4.67,.49-5.06-3.96-.94-10.74-.5-21.5-.62-32.25-.06-5.38-.24-5.53-5.5-6.93-14.92-3.98-30.08-6.6-45.41-8.38-3.95-.46-7.88-1.27-11.65-2.69-2.15-.81-3.55-2.16-3.97-4.48-.44-2.42-1.3-4.73-2.68-6.74-1.59-2.31-2.86-2.18-4.37,.17-.48,.75-.97,1.49-1.44,2.24-3.55,5.71-3.56,5.74,2.63,8.01,1.42,.52,2.16,1.33,2.23,2.9,.1,2.21-.95,3.69-2.84,4.43-2.67,1.05-5.42,1.95-8.2,2.71-4.8,1.31-7.8,3.83-8.58,9.19-.72,4.99-2.5,9.84-3.88,15.02-1.46-.97-1.71-2.43-2.21-3.64-4.48-10.87-11.07-20.4-18.53-29.39-1.33-1.61-2.42-1.74-4.08-.21-7.93,7.32-15.08,15.31-21.55,23.95-2.39,3.19-4.98,6.27-7.8,9.07-3.28,3.26-5.69,6.99-7.88,11.02-1.36,2.49-1.4,4.5,.21,6.7,4.95,6.75,9.28,13.76,12.44,21.65,2.57,6.41,8.53,7.49,14.65,3.95,3.11-1.8,6.03-4.08,10.16-4.11-.45,2.2-1.89,3.48-3.14,4.79-11.29,11.92-22.91,23.52-34.91,34.73-3.98,3.72-7.92,7.42-11.1,11.89-2.07,2.91-4.52,5.44-8.18,6.48-1.96,.56-3.45,1.93-4.74,3.51-1.92,2.34-4.35,4.04-6.93,5.63-2.32,1.44-3.93,.94-5.39-1.06-1.51-2.06-3.05-4.09-4.45-6.22-2.89-4.42-6.54-8.09-10.7-11.3-2.15-1.66-3.99-2.05-5.87,.58-2.97,4.16-7.53,5.22-12.29,5.59-2.66,.21-5.32,.36-7.88,1.14-1.63,.49-2.41,.06-2.75-1.72-.93-4.81-.33-9.03,2.84-13.11,3.57-4.58,7.31-8.58,13.14-10.11,1.06-.28,2.19-.66,3.04-1.32,9.06-6.96,20.14-6.67,30.61-8.53,2.07-.37,4.21-.75,6.27-.56,3.26,.3,5.27-1.04,6.65-3.8,1.09-2.18,2.15-4.39,3.44-6.45,2.71-4.29,3.79-8.63,1.45-13.48-.76-1.58-.78-3.45-.64-5.24,.17-2.19-.83-2.24-2.37-1.3-1.14,.69-2.36,1.29-3.37,2.13-7.9,6.62-17.49,8.75-27.29,10.34-2.12,.34-2.64-.31-1.85-2.32,2.51-6.37,6.18-11.84,12.31-15.18,6.76-3.69,11.06-9.38,14.25-16.16,.59-1.25,.17-1.8-.69-2.47-2.6-2.02-5.46-3.38-8.81-3.52-1.39-.06-2.75-.15-3.03-1.9-1.47-9.22-.5-18.14,3.13-27.46,1.43,1.83,1.19,3.28,1.31,4.62,.42,4.83,2.26,6.52,6.99,6.2,1.49-.1,2.09,.31,2.51,1.83,1.37,4.99,6,7.82,8.37,12.19,.42,.77,1.09,.47,1.7,.04,1.05-.75,.93-1.62,.4-2.61-1.52-2.83-3.02-5.67-4.53-8.51-.73-1.37-1.49-2.72-2.22-4.09-3.17-5.94-3.11-7.8,1.39-12.97,5.82-6.69,11.85-13,19.85-17.46,6.58-3.67,10.13-10.67,14.46-16.69,4.69-6.52,7.97-13.79,11.79-20.78,1.43-2.62,2.03-5.32,2.13-8.26,.2-6.22-.26-12.4-.93-18.57-.1-.93-.59-2.2,.57-2.69,.83-.35,1.53,.67,2.31,1.05,9.74,4.68,8.19,13.37,7.57,21.61-.28,3.75-1.45,7.42-2.89,10.88-2.91,7-4.78,14.26-6,21.7-.65,3.99-2.15,7.34-5.59,9.77-12.76,9.01-21.06,22.01-30.43,34.05-.41,.52-.72,1.12-1.02,1.71-.86,1.68-2.14,3.64-.32,5.14,1.66,1.37,2.67-.92,3.76-1.7,9.93-7.08,20.42-13.37,29.87-21.12,1.22-1,3.72-1.44,2.58-4.2-.38-.91,.94-1.28,1.74-1.65,3.32-1.53,6.65-3.04,9.94-4.62,1.68-.8,3.34-.9,5.16-.58,2.06,.36,4.18,.44,6.28,.6,2.58,.19,4.63-1.35,6.92-2.12,3.08-1.04,2.07-3.72,2.68-5.81,1.49-5.12,2.87-10.22,2.69-15.63-.08-2.54,1.73-3.53,3.88-3.68,9.65-.68,18.86-3.72,28.39-5.13,14.49-2.14,28.94-3.96,43.61-3.62,1.21,.03,2.44,.16,3.64,.37,4.58,.81,5.28,2.64,2.65,6.65-2.95,4.5-7.48,7.14-11.83,9.95-3.85,2.48-8.28,3.7-12.58,5.15-6.46,2.18-10.31,7.02-13.29,12.77-.41,.79-.88,1.69-.24,2.49,.85,1.07,1.87,.28,2.72-.07,6.73-2.81,13.35-5.88,20.16-8.45,6.96-2.63,13.6-5.81,20.07-9.46,2.79-1.57,6.06-1.96,9.33-2,11.32-.14,22.64,.44,33.95-.33,1.38-.09,1.82,.39,1.76,1.64-.09,1.77,.11,3.6-.3,5.29-3.38,13.88-.06,26.4,7.03,38.44,3.61,6.13,7.82,11.48,13.66,15.53,2.42,1.68,3.69,4.4,5.79,6.38,3.2,3.02,5.66,2.3,7.08-1.8,4.98-14.41,7.32-29.41,9.3-44.39,1.4-10.59,1.79-21.4,.88-32.15-.04-.41,.05-.84,.1-1.62Z"/><path class="cls-1" d="M1119.86,329.61c19.91,1.37,37.24,8.12,54.08,16.66,19.89,10.09,38.36,22.16,54.81,37.26,2.51,2.31,5.24,4.45,8.4,5.93,2.46,1.15,4.3,3.05,6.01,5.14,3.85,4.72,8.4,8.02,14.59,9.74,7.02,1.95,14.04,4.01,21.09,5.9,2.5,.67,4.1,2.03,4.74,4.55,1.64,6.48,4.48,12.45,7.74,18.26,1.25,2.22,1.16,3.3-2.07,4.06-7.2,1.7-13.33,5.78-17.4,11.98-2.92,4.44-7.09,5.22-11.58,5.84-1.75,.24-3.55,.05-5.32,.13-2.36,.1-4.08,1.11-4.49,3.6-.22,1.33-.96,2.21-2.04,2.87-6.42,3.94-11.81,9.4-18.69,12.68-1.22,.58-1.74,1.7-1.91,2.95-.16,1.2-.26,2.43-.23,3.64,.1,3.77-.42,6.46-5.07,7.78-4.87,1.38-8.82,5.08-12.31,8.84-4.37,4.71-8.67,9.5-11.78,15.21-.46,.85-.94,1.77-1.92,2.22-.16-.15-.45-.29-.44-.42,.49-10.33-1.12-20.51-2.08-30.74-.13-1.4-.13-3.02,.43-4.26,2.22-4.94,1.09-9.8-.14-14.61-.82-3.2-.88-6.62-2.55-9.59-.11-.19-.28-.54-.22-.6,3.41-3.24,.65-7.12,.93-10.64,.43-5.4,.06-10.82,2.68-15.87,.97-1.88,1.17-4.11,.64-6.19-1.4-5.48-1.58-11.2-3.42-16.58-.56-1.63-.43-3.29-.39-4.94,.09-3.04-.14-5.92-2.01-8.55-1.26-1.76-.9-3.91-.2-5.77,1.47-3.9,.13-6.63-2.73-9.37-8.03-7.72-17.28-13.87-26.01-20.68-4.78-3.73-10.38-5.93-15.37-9.23-8.39-5.54-16.73-11.16-25.76-17.19Z"/><path class="cls-1" d="M1275.69,698.43c-4.52,11.06-12.49,19.01-18.28,28.4-2.21,3.59-6.16,4.59-9.34,6.69-5.43,3.59-11.3,6.1-18.09,5.55-2.31-.19-4.67,.14-6.99,0-7.31-.43-14.09,1.17-20.33,5.02-.85,.52-1.75,.95-2.65,1.39-3.73,1.82-3.72,1.72-4.2-2.45-1.42-12.43-1.9-24.92-2.54-37.4-.14-2.77,.48-5.22,1.99-7.55,3.56-5.48,7.1-10.98,10.54-16.54,1.08-1.75,2.19-2.09,4.06-1.23,2.61,1.2,5.28,2.39,8.05,3.11,3.52,.91,4.23,3.01,4.12,6.33-.22,6.71-1.91,13.12-3.24,19.62-.69,3.38-.9,6.8,.18,10.17,.75,2.34,2.24,3.65,4.83,3.81,5.09,.32,10.16,.81,15.24,1.21,1.59,.13,3.13-.09,4.4-1.13,4.56-3.73,9.09-7.49,10.74-13.53,1.26-4.64,3.32-8.93,6.15-12.81,2.08-2.85,2.8-6.25,3.96-9.46,1.14-3.14,2.84-5.55,5.63-7.52,6.69-4.74,13.02-9.96,20.95-12.71,2.57-.89,3.91-.72,4.58,2.1,2.02,8.5,5.68,16.56,7.07,25.21,1.08,6.71,1.14,13.48-2.28,19.76-2.4,4.42-2.55,9.34-3.15,14.15-.44,3.53-2.15,6.14-4.84,8.38-2.92,2.42-6,4.63-9.28,6.44-5.53,3.06-9.8,7.27-12.81,12.71-7.86,14.2-20.83,21.64-35.39,27-4.54,1.67-9.28,2.04-14.08,1.19-6.54-1.16-13.23-1.49-19.6-3.53-2.25-.72-5.04-.95-5.67-3.92-.63-2.98,1.45-4.8,3.41-6.39,6.08-4.92,13.12-8.27,20.09-11.65,5.99-2.91,11.69-6.38,17.7-9.17,9.42-4.38,19.1-8.25,29.48-9.82,5.71-.86,9.92-5.26,9.72-11.03-.29-8.54,1.17-17.02,.73-25.55-.07-1.39,.01-2.8-.89-4.84Z"/><path class="cls-1" d="M846.78,308.83c7.4,5.87,16.18,7.41,25.22,7.99,6.25,.4,11.9-2.23,17.73-3.9,1.38-.4,2.68-1.01,4.18-.94,4.03,.19,4.98,1.2,5.24,5.23,.29,4.39-.71,8.82,.74,13.19,.83,2.49,1.76,3.3,3.86,1.2,.36-.37,.93-.53,1.85-1.02-.69,2.45-1.71,4.11-3.05,5.77-6.42,7.96-14.13,14.67-21.3,21.89-5.05,5.08-11,9.23-15.04,15.37-1.93,2.93-2.87,5.64-1.57,8.96,.28,.72,.34,1.54,.71,2.2,6.14,10.75,5.13,23.13,7.89,34.65,.2,.85-.07,1.69-.42,2.56-3.33,8.31-2.55,16.61,.38,24.8,.64,1.78,.99,3.23,.06,5.01-1.76,3.36-3.23,6.86-4.51,11.16-2.02-9.35-8.74-13.92-14.9-19.08-6.48-5.43-13.37-10.09-21.04-13.7-3.2-1.51-5.49-3.71-5.42-7.93,.06-3.35-2.72-6.18-2.56-9.83,.18-4.19,1.58-8.02,3.03-11.79,1.83-4.76,2.6-9.56,2.37-14.59-.12-2.58-1.69-4.58-2.79-6.66-3.13-5.87-4.81-12.73-10.73-16.83-1.27-.88-.88-1.6,.13-2.25,2.41-1.57,4.77-3.23,7.9-2.99,4.77,.37,9.01-2,13.58-2.77,14.2-2.4,27.78-7.09,41.43-11.51,1.35-.44,2.61-1.17,3.91-1.77-2.65-4.13-5.35-8.08-7.79-12.19-1.72-2.9-4.21-4.35-7.34-5.21-4.26-1.17-8.54-2.16-12.56-4.24-4.59-2.37-6.63-6.67-9.19-10.78Z"/><path class="cls-1" d="M1155.8,719.4c.51,4.52-.35,8.92-1.84,13.28-3.05,8.89-5.9,17.86-8.93,26.75-1.66,4.85-4.3,9.01-9.23,11.21-5.91,2.63-11.54,5.77-16.33,10.11-6.41,5.8-14.05,5.88-21.9,5.3-2.98-.22-5.92-.85-8.89-1.18-2.38-.27-3.91-1.36-4.4-3.77-.96-4.65-2.11-9.28-2.85-13.97-.5-3.16-.41-6.37,.48-9.55,.83-2.98,1.28-6.05,1.51-9.16,.35-4.66,2.18-8.77,4.91-12.51,.81-1.11,1.83-1.83,3.2-2.2,5.13-1.39,10.04-3.71,15.38-4.11,7.56-.56,12.93-5.47,18.97-9.05,9.56-5.67,17.74-12.84,24-22.12,.89-1.31,1.98-3.56,3.5-3.09,1.52,.47,1.11,2.92,.98,4.48-.53,6.59,2.09,12.91,1.45,19.57Z"/><path class="cls-1" d="M272.12,680.34c-.5,.15-1,.41-1.51,.44-6.3,.36-9.02,4.34-10.91,9.84-2.97,8.64-4.9,17.45-6.07,26.47-.67,5.17-1.84,10.23-3.51,15.65-6.84-6.38-14.91-10.57-22.13-15.96-5.65-4.22-7.03-4.34-12.65-.19-3.21,2.36-6.93,2.07-10.39,3.05-15.45,4.37-30.91,8.7-45.74,14.97-1.03,.44-2.03,1.16-2.9-.16-.84-1.28-.34-2.34,.71-3.19,1.98-1.6,3.98-3.2,6.02-4.71,9.67-7.15,17.4-16.38,26.29-24.36,1.23-1.1,1.75-2.51,1.58-4.18-.71-6.96-.34-13.94-.37-20.92-.02-4.35,2.67-7.86,6.97-8.47,12.28-1.73,23.99-1.17,32.82,9.42,2.73,3.28,6.55,4.32,10.69,4.57,9.16,.56,18.11-1.28,27.13-2.33,1.29-.15,2.59-.27,3.89-.4l.08,.47Z"/><path class="cls-1" d="M261.22,635.74c-.72,1.2-1.75,1.33-2.71,1.4-10.95,.73-21.91,1.25-32.87,.02-2.7-.3-5.15-1.4-7.25-3.1-9.3-7.55-17.22-16.31-22.63-27.08-3.09-6.15-2.16-12.79-1.35-19.24,.57-4.59,2-9.07,2.99-13.6,.38-1.73,.93-2.52,3.1-2.21,3.27,.46,5.25,2.04,6.43,4.97,2.12,5.26,3.48,10.77,4.62,16.27,1.62,7.81,5.83,13.74,11.83,18.66,7.62,6.26,15.19,12.58,22.84,18.79,3.16,2.57,6.79,4.12,10.97,4.18,1.3,.02,2.68-.06,4.01,.94Z"/><path class="cls-1" d="M787.97,639.69c-.05-3.82,.78-7.43,2.33-10.86,2.46-5.46,4.79-11.03,8.17-15.97,8.11-11.82,14.12-24.53,17.76-38.41,1.26-4.81,3.96-9.29,5.03-14.03,1.76-7.78,5.34-14.57,8.54-21.7,2.36-5.25,2.08-11.69,3.7-17.45,1.08-3.83,2.22-7.63,4.55-11.01,1.36,.65,.83,1.78,.83,2.63,.05,6.65,.01,13.3,.04,19.95,0,2.02-.24,3.99-1.02,5.85-3.68,8.79-1.37,16.94,2.87,24.74,2.21,4.06,2.46,4-2.11,4.5-2.61,.29-4.58,1.57-6.23,3.46-8.27,9.48-15.5,19.68-20.92,31.07-6.07,12.75-13.07,24.92-21.94,35.95-.39,.49-.63,1.19-1.6,1.26Z"/><path class="cls-1" d="M784.43,755.87c.23-6.55-1.2-12.71-3.4-18.74-.65-1.78,.1-3.01,1.76-4.12,8.06-5.4,14.43-12.37,18.96-20.99,1.74-3.31,1.59-3.64-1.97-4.16-3.02-.44-5.42-2.17-7.87-3.95,2.39,.26,4.85,.24,7.15,.86,4.03,1.08,8.07,1.32,12.18,1.12,.11,0,.22-.01,.33,0,5.99,1.11,7.1,6.79,9.86,10.8,1.76,2.56-.24,4.77-1.79,7.11-3.51,5.29-8.91,7.31-14.47,8.63-6.65,1.57-10.63,6.06-14.31,11.1-2.74,3.74-4.47,8.05-6.42,12.34Z"/><path class="cls-1" d="M833.7,301.29c-.69-4.59-4.26-7.07-6.99-10.2-5.61-6.42-4.75-14.09,1.48-19.86,4.06-3.76,8.26-6.63,13.71-8.26,3.9-1.16,7.27-4.12,11.03-6.05,4-2.05,8.29-3.01,13.44-4.59-3.13,2.74-5.39,5-8.81,5.61-2.59,.45-4.01,2.69-5.81,4.26-2.19,1.91-4.45,3.64-7.07,4.91-5.5,2.66-9.69,7-13.87,11.26-2.53,2.58-2.18,5.02-.44,8.22,2.44,4.49,5.04,9.08,3.34,14.7Z"/><path class="cls-1" d="M1269.8,500.78c3.76,5.62,9.34,4.59,14.57,4.93,3.01,.2,5.94,.84,8.38,2.8,1.06,.85,1.95,1.95,1.63,3.42-.3,1.38-1.63,1.69-2.77,2.07-3.88,1.32-7.91,.69-11.88,.8-2.44,.07-4.89-.16-7.31,.06-2.76,.25-3.43-.95-3.31-3.44,.16-3.26,.04-6.54,.04-9.81l.65-.82Z"/><path class="cls-1" d="M845.54,213.33c5.09,.17,4.79-3.53,5.47-6.52,.39-1.73,.83-3.43,2.25-4.69,.78-.7,1.48-1.19,2.64-.75,1.14,.43,1.63,1.15,1.43,2.26-.78,4.25,1.29,5.58,5.17,5.23,.51-.05,1.24,.07,1.55,.4,3.09,3.37,7.27,3.33,11.57,3.62-2.4,2.58-4.92,2.83-8.09,2.1-4.61-1.07-9.35-1.55-14.05-2.24-1.46-.21-2.84,.14-4.17,.78-1.06,.51-2.19,.76-3.76-.19Z"/></g></g><g id="pvt4U5.tif"><g><path class="cls-2" d="M684.29,810.33c-11.75-1.69-22.22-7.49-33.59-10.43-6.6-1.7-11.91-5.31-15.57-11.13-4.1-6.51-8.95-12.33-14.8-17.37-1.98-1.7-4.58-3.92-3.55-6.63,1.07-2.81,4.54-2.27,7.11-2.29,8.24-.06,16.34-.95,24.38-2.81,4.02-.93,8.31-.18,11.48,2.08,8.33,5.93,16.8,11.46,26.3,15.42,7.43,3.09,9.05,9.82,9.5,16.92,.27,4.29-.24,8.64,1.55,12.76,.75,1.73-.44,2.4-1.92,2.7-1.62,.32-3.35-.11-4.88,.77h-6Z"/><path class="cls-2" d="M1449.72,510.91c-23.81,.33-46.31,5.92-68.83,11.7,2.29-1.86,4.92-2.98,7.66-3.61,7.21-1.66,12.75-5.56,17.63-11.12,5.08-5.79,10.13-11.84,17.48-15.13,3.56-1.6,7.27-2.73,11.02-3.77,11.74-3.26,22.89-7.83,32.89-14.9,9.78-6.92,21.39-8.98,32.55-12.21,8.34-2.41,16.71-4.71,23.76-10.04,3.27-2.46,6.35-5.19,9.33-8,13.8-13.03,26.56-27.06,39.58-40.84,2.56-2.71,5.35-4.05,9.1-3.76,5.51,.42,10.8-.47,15.89-2.78,3.99-1.81,8.32-1.94,12.37-.42,5.64,2.12,10.51,.98,15.53-1.89,15.31-8.77,30.42-17.81,44.58-28.59-1.01,.96-1.94,2.03-3.04,2.85-4.28,3.2-8.06,6.94-11.82,10.71-3.5,3.5-5.1,7.68-5.06,12.58,.04,4.99-.07,9.98-.02,14.97,.04,3.65-1.46,6.07-4.98,7.37-6.25,2.31-12.42,4.81-18.65,7.16-6.78,2.57-8.29,4.66-8.31,11.84,0,1.33-.09,2.67,.01,3.99,.2,2.62-.9,4.4-3.12,5.75-3.69,2.25-7.29,4.67-10.93,7-2.83,1.81-4.24,4.15-4.13,7.72,.14,4.37,.63,8.57,2.1,12.71,1.59,4.46,.48,6.45-4.05,7.54-6.36,1.54-12.74,2.99-19.12,4.45-2.96,.67-5.25,2.29-7.01,4.72-4.59,6.36-10.12,12.11-12.58,19.84-.85,2.68-2.92,2.97-5.39,2.21-8.51-2.62-17.4-3.44-26.09-5.22-7.16-1.47-14.35-.08-21.29,2.15-3.49,1.12-6.99,2.22-10.62,2.78-4.22,.66-8.43,.87-12.26-1.56-4.23-2.69-8.77-1.88-13.24-1.12-5.03,.86-9.99,2.08-15.01,3.05-2.4,.46-3.83,2.09-5.29,3.78-4.25,4.94-7.76,10.53-13.23,14.4-2.15,1.52-2.72,3.82-2.25,6.52,1.36,7.91,5.37,14.48,10.16,20.68,6.81,8.83,5.16,18.29,2.19,27.86-.26,.83-.71,1.77-1.73,1.84-1.23,.09-1.63-1.02-2.04-1.9-3.01-6.38-4.67-13.19-5.57-20.11-1.21-9.34-4.03-18.16-7.67-26.75-3.57-8.41-3.68-8.35,3.81-13.53,5.16-3.57,10.3-7.18,15.68-10.93Z"/><path class="cls-2" d="M256.43,681.97c-3.29,.2-5.83-1.31-7.85-3.68-5.07-5.94-11.35-10.22-18.38-13.44-6.37-2.92-12.94-3.77-19.71-1.37-10.67,3.77-21.42,7.35-31.99,11.38-7.85,2.99-14.26,1.84-19.56-4.85-1.99-2.51-4.54-4.61-6.36-7.23-3.66-5.28-9.03-6.23-14.82-6.76-8.72-.8-17.48-1-26.2-1.91-9.44-.98-14.75-6.45-17.65-14.86-1.78-5.15-.49-7.7,4.58-9.62,5.93-2.25,12.13-3.54,18.24-5.18,6.69-1.79,13.1-2.16,20.14-1.43,12.28,1.27,24.94,1.67,36.58-4.04,10.05-4.93,19.34-2.31,28.78,1.82,6.95,3.04,12.5,7.34,16.29,14.03,3.61,6.39,9.7,8.99,16.74,9.14,7.31,.16,14.62,.33,21.95-.43,5.38-.56,10.83-.27,16.27,.42,12.27,1.56,24.61,.59,36.92,.65,4.09,.02,7.2,1.06,9.96,4.13,3.56,3.95,7.45,7.6,11.27,11.31,3.68,3.57,5.18,8.49,7.99,12.59,.79,1.16,.3,1.9-.98,2.11-1.42,.23-2.85,.42-4.28,.51-13.94,.87-27.88,1.71-41.82,2.58-6.86,.43-13.75-.32-20.61,.7-3.1,.46-6.11,1-9.02,2.18-2.07,.84-4.23,1.34-6.49,1.26Z"/><path class="cls-2" d="M1631.53,321.25c-4.2-.85-7.49-.4-10.74-.54-2.03-.09-4.23,0-4.85-2.51-.6-2.43,1.32-3.57,2.98-4.67,1.01-.67,2.12-1.26,3.26-1.64,6.19-2.04,11.89-5.13,16.83-9.26,8.54-7.14,18.9-10.59,28.77-15.06,5.84-2.65,11.42-6.29,17.95-6.88,13.03-1.17,25.78-4.6,38.94-4.55,.88,0,1.83,.02,2.64-.27,4.46-1.63,7.21,1.03,10.5,4.02-3.8,.31-7.06,.59-10.32,.83-5.25,.39-10.23,1.97-15.19,3.57-3.97,1.28-7.5,3.27-10.28,6.48-3.9,4.5-9.11,6.92-14.52,9.09-9.14,3.67-18.67,6.62-26.26,13.35-.4,.35-.97,.56-1,1.65,3.86-.43,7.4-2.09,11.2-2.4,8.51-.69,17.03-1.35,25.57-1.05,2.7,.1,3.47,1.42,2.41,4.04-1.35,3.31-3.92,5.76-6.77,7.61-17.07,11.08-35.79,18.01-55.82,21.48-2.03,.35-3.57-.99-5.44-1.27-14.6-2.2-27.49,2.11-39.09,10.57-6.35,4.63-12.23,9.91-18.27,14.95-3.17,2.64-5.78,5.82-8.26,9.1-2.37,3.12-5.31,5.63-8.35,8.06-1.7,1.36-2.48,.86-2.98-1.06-1.53-5.8-2.44-6.67-8.18-5.17-17.57,4.59-34.49,10.69-49.57,21.24-13.06,9.15-27.59,15.59-42.36,21.45-9.84,3.9-20.19,6.01-30.5,8.22-9.46,2.02-18.81,4.35-27.82,7.9-1.65,.65-3.36,1.15-5.05,1.71-8.33,2.75-12.07-.14-11.9-8.98,.06-2.91,1.79-4.46,3.93-5.7,6.74-3.93,14.12-6.38,21.38-9.13,9.2-3.47,19.12-4.07,28.37-7.18,17.57-5.9,35.75-9.79,53.17-16.17,10.01-3.66,18.58-9.82,27.33-15.7,6.17-4.15,11.93-8.85,17.97-13.17,3.66-2.61,7.82-4.11,12.27-4.84,13.92-2.3,27.08-6.8,39.42-13.64,2.82-1.56,5.18-3.71,7.25-6.26,5.02-6.18,11.45-10.76,17.98-15.2,1.92-1.3,4.04-.83,6.14-.55,5.65,.74,11.14,.37,17.26-2.45Z"/><path class="cls-2" d="M595.23,445.36c2.35,3.33,4.5,6.84,7.1,9.97,8.31,10.02,18.01,18.61,27.88,27.06,8.46,7.24,16.89,14.62,23.5,24.25-3.81,.13-3.22,2.19-2.33,4.51,2.86,7.44,8.41,12.44,15.14,16.17,6.69,3.72,13.56,7.11,20.38,10.58,2.8,1.43,5.33,3.14,7.49,5.45,2.51,2.67,5.06,5.32,8.3,7.13,3.25,1.82,5.37,4.59,6.82,7.92,1.24,2.84,2.62,5.66,3.52,8.62,2.72,8.95,7.83,16.36,14.58,22.66,6.28,5.87,10.87,12.83,14.4,20.57,1.5,3.28,1,4.94-1.92,7.1-2.32,1.71-5.08,2.16-7.7,3.01-3.12,1.01-6.01,2.13-4.78,6.44,.42,1.46-.42,1.93-1.62,1.04-12.61-9.46-27.88-14.82-39.66-25.55-3.77-3.43-7.38-7.05-10.88-10.76-4.09-4.34-9.23-7.26-14.02-10.63-8.74-6.16-13-14.92-13.6-25.15-.58-9.97-4.78-16.8-13.54-21.55-11.21-6.08-20.15-14.74-26.78-25.72-2.05-3.41-3.34-6.92-3.22-10.98,.17-5.78-2.28-10.82-5.17-15.58-4-6.59-6.87-13.45-6.14-21.33,.46-5.03,1.91-9.94,1.4-15.09l.84-.14Z"/><path class="cls-2" d="M1851.8,333.39c-3.04,8.16-5.11,16.62-12.92,21.69-.36,.23-.64,.62-.9,.97-1.04,1.43-2.48,2.94-1.49,4.78,1.07,1.98,3.19,1.24,4.84,.94,6.92-1.25,13.26-4.36,19.95-6.39,16.37-4.97,32.94-8.09,50.15-6.11,3.8,.44,4.02,.8,2.93,4.34-5.21,17.02-15.71,30.15-29.81,40.68-5.85,4.37-10.92,9.75-17.26,13.53-2.91,1.74-5.89,2.37-9.23,1.72-7.25-1.41-14.58-1.31-21.89-.73-4.01,.32-7.8,1.73-11.32,3.7-4.47,2.51-9.2,3.46-14.36,3.43-8.86-.05-17.88-1.19-26.57,.76-12.66,2.85-25.69,3.89-38.08,7.99-.39,.13-.82,.15-1.48,.25,.36-1.46,1.54-1.73,2.35-2.33,8.45-6.28,17-12.43,25.35-18.84,6.37-4.89,11.24-11.3,16.42-17.36,7.41-8.68,14.75-17.42,22.34-25.94,5.1-5.72,11.93-9.22,18.59-12.72,7.39-3.88,14.85-7.53,20.57-13.83,.36-.4,.81-.78,1.81-.55Z"/><path class="cls-2" d="M717.57,331.57c-1.16,3.23-.03,5.62,.41,8.06,.21,1.17,.76,2.51-.54,3.34-1.09,.7-2.16-.05-3.1-.59-2.62-1.48-4.96-3.36-6.95-5.62-1.57-1.79-2.2-3.98-1.33-6.2,3.01-7.6,6.49-14.99,10.72-22.01,.68-1.12,1.76-1.64,3.05-1.77,2.1-.2,4.2-.67,6.28-.56,3.22,.17,5.71-1.14,7.54-3.47,4.52-5.75,10.21-9.73,17.06-12.23,2.7-.98,5.3-2.27,7.88-3.54,2.19-1.08,3.71-.85,4.86,1.51,2.54,5.24,5.45,10.15,5.78,16.39,.31,5.92,2.27,11.76,6.55,16.38,1.91,2.06,2.64,4.46,2.55,7.29-.2,6.42,1.32,12.03,6.46,16.65,3.59,3.23,6.59,7.11,10.38,10.25,7.74,6.41,13.31,14.8,19.76,22.36,2.79,3.27,4.28,7.72,6.03,11.78,2.15,5.01,.23,7.05-5.19,7.77-14.18,1.89-25.62-3.45-36.44-11.92-8.1-6.34-13.57-14.6-18.69-23.09-2.93-4.86-6.21-7.39-11.93-7.03-6.2,.39-12.07-1.52-17.85-3.49-3.66-1.25-5.46-4.36-6.83-7.72-1.71-4.17-3.16-8.48-6.46-12.55Z"/><path class="cls-2" d="M813.57,703.83c-1.14,1.44-1.13,2.8-1.36,4.08-.62,3.37-1.75,4.05-4.75,2.21-4.63-2.83-9.08-5.96-13.6-8.97-.09-.06-.17-.15-.27-.2-7.6-4.08-10.56-10.79-12.28-18.99-2.74-13.1-6.46-25.99-9.98-38.92-2.55-9.38-7.04-18.02-12.22-26.11-4.01-6.25-4.29-12.88-4.77-19.68-.21-3.09-.04-6.2-.02-9.31,0-.64-.07-1.44,.68-1.74,.75-.3,1.22,.33,1.66,.81,7.16,7.86,14.39,15.67,21.44,23.63,3.14,3.54,4.14,8.3,6.13,12.48,5.47,11.5,13.49,21.28,20.46,31.77,.74,1.12,1.7,1.84,3.02,1.67,6.44-.79,9.34,3.87,12.1,8.22,1.63,2.58,2.38,3.44,4.99,1,4.2-3.92,17.63-3.12,21.63,.9,.92,.93,1.12,2.14,1.42,3.31,3.06,11.78,3.36,23.67,.82,35.55-1.51,7.04-1.34,14.08-.91,21.16,.18,3.05-.79,3.86-3.65,2.55-2.44-1.11-4.6-2.69-6.59-4.47-5.86-5.25-11.81-10.4-18.1-15.12-2.14-1.6-4.04-3.44-5.85-5.84Z"/><path class="cls-2" d="M553.7,703.21c3.61,.78,6.54,1.36,9.45,2.05,8.2,1.96,13.91,6.62,16.17,15,.49,1.82,1.39,3.56,1.64,5.4,.77,5.73,4.25,8.88,9.36,10.98,8.92,3.66,17.26,8.66,26.54,11.52,.61,.19,1.16,.59,2.48,1.29-2.99,.62-5.29,.72-7.43,.14-11.23-3.06-22.84-3.02-34.27-4.36-7.02-.82-13.35-3.99-20.18-5.48-8.45-1.84-16.76-4.31-24.99-7.04-3.86-1.28-7.5-1.2-11.12,1.19-3.65,2.42-7.88,2.7-12.17,2.17-4.21-.51-8.35-1.31-12.25-2.98-3.47-1.5-5.33-4.39-4.93-7.16,.47-3.17,3.16-5.81,6.79-6.31,4.96-.69,9.96-.56,14.94-.09,1.19,.11,2.58,.65,3.27-.77,.65-1.34-.41-2.29-1.23-3.18-3.31-3.59-7.61-4.84-12.3-4.97-4.33-.11-8.66-.11-12.99-.02-3.26,.07-5.61-1.14-6.81-4.23-3.12-8.06-9.61-10.67-17.62-11.21-3.58-.24-7.27-.18-11.14-1.43,1.85-2.15,4.04-2.44,6.19-2.47,9.99-.12,19.9,.36,29.73,2.64,7.76,1.8,15.04,.99,22.03-4.13,12.83-9.4,26.97-9.1,41.34-3.52,1.75,.68,2.1,2.08,2.13,3.75,.05,3.43,.02,6.88,.3,10.29,.16,1.96-1.32,1.99-2.93,2.91Z"/><path class="cls-2" d="M858.85,494.35c-8.64,.31-16.97-1.63-25.26-3.7-4.95-1.24-9.83-2.71-14.84-3.71-4.99-1-9.63-3.3-11.63-8.04-5.14-12.2-15.44-19.4-25.12-27.29-1.62-1.32-3.14-2.81-4.53-4.38-1.32-1.49-1.07-2.56,1.16-2.8,3.63-.38,7.25-.91,10.89-1.26,2.61-.25,4.21-1.55,5.23-3.95,1.29-3.06,2.8-6.03,4.24-9.02,1.1-2.29,2.78-4.16,5.18-4.91,3.37-1.05,6.85-1.71,9.93-3.58,1.02-.62,1.93-.11,2.48,.92,.62,1.17,1.3,2.33,1.79,3.56,1.29,3.19,3.52,5.15,6.51,7.06,4.81,3.06,8.89,7.26,13.31,10.94,4.94,4.11,9.92,8.17,14.86,12.27,2.84,2.36,5.36,5,6.74,8.51,1.88,4.77,4.48,9.13,7.23,13.43,2.33,3.64,3.12,7.78,3.7,11.97,.28,2.01-.54,3.05-2.59,3.46-3.09,.61-6.18,.47-9.28,.53Z"/><path class="cls-2" d="M382.52,722.52c-2.99-1.94-6.22-2.6-9.42-3.42-8.28-2.12-16.77-3.92-22.67-10.91-3.33-3.95-4.42-8.74-3.71-13.69,.55-3.84,4.46-5.64,6.82-8.32,1.33-1.51,4.37-.41,6.31,.49,6.9,3.19,14.05,6.05,17.45,13.83,2.01,4.61,6.05,7.23,10.73,8.87,9.3,3.26,18.93,5.58,27.7,10.36,9.41,5.14,18.19,10.92,25.47,18.93,5.14,5.65,10.59,11.07,16.3,16.15,10.45,9.3,23.42,13.19,36.74,16.17,.96,.21,2.64-.32,2.59,1.26-.04,1.1-1.59,1.02-2.51,1.15-4.65,.65-9.29,.69-13.82-.85-9.35-3.19-18.9-5.71-28.4-8.4-9.23-2.61-17.56-6.56-22.94-15.27-4.44-7.19-11.89-9.12-19.81-9.71-11.74-.88-23.51-.71-35.27-.52-5.75,.1-11.51,.7-17.28,.53-5.8-.17-8.05-2.27-8.72-7.86-.2-1.7,.34-2.96,1.44-4.21,3.14-3.56,7.3-4.48,11.74-4.54,7.09-.09,14.18-.02,21.27-.02Z"/><path class="cls-2" d="M197.3,582.81c0,3.55,.02,7.09,0,10.64-.03,4.29-.71,4.64-4.69,2.74-3.45-1.65-6.49-3.95-9.19-6.54-5.02-4.81-11.06-6.79-17.73-7.4-5.75-.53-11.05-2.26-15.89-5.45-2.5-1.65-4.97-3.43-7.67-4.66-7.45-3.38-10.69-9.94-13.47-16.94-1.07-2.69-.26-5.13,1.38-7.17,4.09-5.09,7.42-10.32,7.62-17.24,.1-3.57,1.62-4.33,5.24-3.43,4.85,1.21,9.48-.39,14.18-.77,4.52-.37,8.68-.17,12.85,2.12,4.06,2.23,8.43,2.45,12.58-.51,2.82-2.01,3.21-1.78,3.54,1.56,.84,8.47,.65,17.02,2.39,25.43,.76,3.69,2.2,6.8,5.28,8.87,2.75,1.85,3.5,4.43,3.53,7.43,.04,3.77,0,7.54,0,11.31h.04Z"/><path class="cls-2" d="M572.44,583.23c0,3.1,.06,6.21-.02,9.31-.08,3.43-1.02,3.88-4.1,2.2-2.47-1.35-4.25-3.56-6.52-5.14-8.85-6.18-17.05-13.09-24.18-21.22-3.21-3.65-7.29-5.79-12.1-6.38-6.14-.75-11.24-3.34-15.12-8.15-1.79-2.22-4.58-3.15-6.44-5.2-4.28-4.7-5.96-10.51-6.82-16.63-.19-1.33,.08-2.66,.77-3.85,2.67-4.7,6.12-8.7,10.76-11.57,3.26-2.01,6.66-2.4,10.1-.48,2.11,1.18,4.31,1.58,6.71,1.54,4.77-.1,9.55-.05,14.32-.05,5.73,0,11.29,4.4,12.54,10.07,.76,3.46,1.35,6.96,1.97,10.45,1.46,8.32,4.01,16.13,10.23,22.27,6.38,6.31,9.71,13.68,7.92,22.82Z"/><path class="cls-2" d="M1231.95,585.73c-.24,3.95-.23,3.9,3.44,2.73,7.3-2.33,12.58-7.4,17.35-12.98,3.92-4.59,8.39-8.49,12.94-12.38,3.1-2.66,5.72-5.86,8.77-8.58,2.52-2.24,3.31-1.85,4.43,1.17,2.51,6.74,5.45,13.29,9.29,19.4,.52,.82,.92,1.81,1.03,2.77,1.59,13.3,.77,26.27-5.13,38.6-1.15,2.4-2.18,3.07-4.77,1.59-5.13-2.92-10.39-2.65-15.45,.51-3.28,2.06-6.29,4.56-9.89,6.12-4.47,1.94-5.6,1.62-8.34-2.33-1.7-2.46-3.26-5.07-5.53-7.05-7-6.09-9.08-14.14-9.37-22.94-.02-.54,.14-1.35-.15-1.58-3.45-2.82,.66-3.5,1.37-5.05Z"/><path class="cls-2" d="M1410.54,448.46c-13.42,6.2-25.3,14.29-36.65,23.22-.43,.34-.9,.66-1.38,.93-.85,.47-1.72,1.48-2.68,.97-1.19-.63-.22-1.79-.13-2.69,.35-3.23-.4-3.95-3.7-3.62-8.46,.83-16.59,2.94-24.4,6.28-1.94,.83-3.93,1.53-5.87,2.35-7.38,3.1-15.01,4.29-23.05,3.96-9.75-.39-19.53-.1-29.3-.13-1.28,0-3.07,.45-3.55-1.05-.54-1.69,1.32-2.31,2.41-3.17,1.85-1.47,4.42-1.94,6.1-4.25-2.22-.84-4.49,.56-6.5-1.05,2.84-2.11,4.74-4.82,6.77-7.41,2.07-2.64,4.87-4.23,8.01-5.12,16.86-4.81,33.72-9.7,51.53-9.16,1.33,.04,2.66-.04,3.99-.09,.16,0,.31-.23,.67-.51-3.56-2.04-7.61-2.9-11.49-5.5,3.03-.55,5.3,0,7.49,.89,2.49,1.01,4.69,2.51,6.63,4.37,2.64,2.52,5.57,3.66,9.38,3.05,3.15-.51,6.43-.42,9.64-.26,10.92,.55,21.66-1.62,32.51-2,1.19-.04,2.38,0,3.57,0Z"/><path class="cls-2" d="M1246.53,334.02c5.71,.45,11.46,.64,17.09,1.82,10.9,2.27,21.22,6.46,31.8,9.79,2.08,.65,4.05,1.87,5.84,3.14,6.9,4.9,14.31,8.88,21.89,12.62,8.71,4.29,15.75,11.12,23.96,16.17,8.1,4.98,15.04,11.24,21.26,18.45,3.82,4.44,8.96,7.57,13.08,11.8,2.08,2.13,1.69,2.95-.96,3.54-16.19,3.61-30.47,1.04-40.5-12.59-4.12-5.59-9-9.96-14.42-14.03-6.68-5.01-12.45-10.98-18.02-17.19-5.48-6.1-12.25-9.76-20.76-9.55-4.77,.12-9.54,.1-14.28-.63-4.68-.71-6.47-2.38-7.46-7.04-1.77-8.32-7.23-12.91-15.29-14.78-1.07-.25-2.14-.48-3.21-.72,0-.27,0-.53,0-.8Z"/><path class="cls-2" d="M1738.64,576.57c-1.04-4.56-.34-8.39,.59-12.08,3.2-12.58,5.25-25.35,6.95-38.2,.38-2.84,1.62-4.37,4.43-5.43,7.47-2.83,12.83-8.58,18.04-14.31,7.15-7.85,13.7-16.22,22.27-22.74,5.17-3.93,11.04-6.56,16.39-10.11,2.4-1.6,4.88-3.08,6.99-5.05,1.4-1.31,2.19-.82,2.36,.87,.58,5.46-.22,10.83-1.38,16.14-.27,1.23-1.3,2.06-2.29,2.77-11.25,8.05-19.51,18.89-27.94,29.59-7.74,9.83-15.79,19.42-23.54,29.23-7.21,9.12-14.22,18.41-21.32,27.62-.33,.42-.72,.79-1.54,1.69Z"/><path class="cls-2" d="M971.06,650.07c8.59,.12,7.23-1.01,9.92,7.07,.14,.42,.3,.84,.37,1.28,.63,3.98,2.47,5.95,6.92,6.84,9.04,1.81,16.7,7.66,20.08,15.59,5.08,11.95,13.23,20.01,23.82,26.55,3.07,1.9,5.57,4.71,8.28,7.16,.72,.65,1.67,1.5,1.1,2.55-.7,1.28-2,.68-2.98,.33-7.62-2.76-15.07-5.92-22.48-9.19-7.61-3.36-15.19-6.77-23.07-9.49-6.75-2.33-11.65-7.62-17.26-11.72-3.94-2.88-7.68-6.03-11.99-8.35-4.21-2.26-7.61-5.24-10.18-9.3-1.95-3.08-4.36-5.88-6.41-8.9-2.21-3.25-1.74-5.03,1.62-7.09,2.4-1.47,5-2.48,7.81-2.66,4.98-.31,9.97-.47,14.46-.66Z"/><path class="cls-2" d="M651.69,608.81c-.29-5.5,.43-11.39-.47-17.23-.12-.78-.26-1.65,.43-2.17,1-.76,1.93-.01,2.75,.48,5.14,3.1,9.82,6.83,14.52,10.54,9.92,7.82,17.48,17.91,26.03,27.02,5.28,5.62,8.7,12.5,8.13,20.79-.22,3.23-1.21,4.85-4.5,5.35-1.95,.3-5.19-.71-4.97,3.24,0,.17-.93,.47-1.46,.58-4.76,1.06-9.12,.77-13.08-2.71-5.91-5.2-12.27-9.88-18.79-14.27-5.97-4.02-8.6-9.6-8.58-16.63,.01-4.88,0-9.75,0-14.99Z"/><path class="cls-2" d="M446.08,563.37c1.43,4.56,2.54,8.53,2.46,12.84-.17,9.74-.18,19.49-.03,29.24,.05,3.06-1.22,4.71-3.6,6.46-5.26,3.87-10.89,5.55-17.4,4.94-3.17-.3-6.42-.35-9.59,.55-2.18,.62-4.07,1.62-5.72,3.21-7.89,7.61-17.41,11.99-28.05,14.22-1.94,.41-2.93-.35-3.59-2-1.43-3.58-2.47-7.32-5.54-10.08-1.56-1.4,.26-2.29,1.19-3.1,4.78-4.16,10.08-7.65,15.38-11.06,8.67-5.58,16.63-12.21,25.66-17.23,6.41-3.57,13.3-6.09,20.05-8.89,3.29-1.36,5.18-3.43,4.99-6.93-.24-4.34,1.71-7.9,3.8-12.18Z"/><path class="cls-2" d="M1815.17,250.24c8.01,.99,17.45,.51,26.88,.6,2.22,.02,4.46,.13,6.61-.56,2.8-.9,2.78,1.05,3.08,2.85,.3,1.86,.73,3.67-2.09,3.77-3.96,.13-7.31,1.8-10.26,4.26-5.72,4.77-11.22,9.77-14.63,16.58-.97,1.93-2.37,3.51-4.13,4.7-7.07,4.78-14.21,9.47-21.27,14.28-3.68,2.51-7.3,2.69-11.26,.59-2.82-1.5-5.76-2.8-9.03-3.26-3.94-.56-5.15-2.7-3.76-6.69,1.53-4.4,4.88-7.6,7.78-11.09,3.34-4.01,8.39-6.39,10.99-11.02,2.84-5.04,7.37-8.49,11.09-12.69,1.96-2.21,2.99-2.41,10-2.31Z"/><path class="cls-2" d="M1826.85,194.76c0,1.11-.11,2.23,.02,3.32,1.21,10.07-4.17,15.96-12.27,20.8-9.88,5.89-19.74,12.01-27.33,20.9-6.56,7.67-12.17,16.07-17.89,24.37-3.04,4.41-4.35,4.34-6.76-.36-1.06-2.07-2.26-4.06-3.34-6.12-2.05-3.91-1.64-7.11,2.2-9.06,8.2-4.16,12.75-11.38,17.24-18.79,.82-1.35,1.32-2.79,1.66-4.32,1.33-5.88,3.67-11.37,6.52-16.66,.75-1.39,1.64-2.6,3.05-3.41,8.63-4.94,16.17-11.33,23.03-18.43,3.58-3.71,7.63-3.46,11.94-3.18,1.59,.1,1.89,1.31,1.89,2.63,0,2.77,0,5.54,0,8.31h.02Z"/><path class="cls-2" d="M1288.47,706.32c.38,6-1.53,11.6-3.11,17.24-1.28,4.59-2.78,9.11-3.97,13.72-.55,2.12-1.54,3.34-3.77,3.46-.77,.04-1.56,.38-2.3,.29-7.35-.92-13.16,2.13-18.3,6.96-7.08,6.65-16.11,9.29-25.13,11.51-11.61,2.86-22.85,6.38-33.05,12.77-.88,.55-2,1.48-3.04,.66-.95-.74-.6-2.08-.48-3.15,.62-5.61,1.04-11.26,2.05-16.8,.68-3.72,3.96-5.68,7.3-6.43,9.4-2.11,18.84-4.06,28.49-4.74,4.75-.34,9.49-.88,14.23-1.34,2.17-.21,4.08-1.19,5.75-2.46,10.58-8.01,19.49-17.38,24.44-30.01,1.54-3.92,3.66-7.58,6.16-10.99,.56-.76,.95-2.05,2.11-1.86,1.27,.21,1.45,1.59,1.75,2.6,.82,2.79,1.03,5.66,.88,8.55Z"/><path class="cls-2" d="M51.73,590.17c-10.67-1.3-20.35,2.32-30.06,5.92-2.07,.77-4.67,2.76-6.44,.95-1.6-1.64,.45-4.13,.99-6.22,.27-1.07,.83-2.06,1.14-3.12,3.07-10.52,11.19-14.79,21.04-16.67,5.41-1.03,10.03-3.74,14.33-6.77,8.29-5.84,15.86-1.88,23.61,.93,1.22,.44,1.58,1.78,2.02,2.93,2.28,5.98,6.49,9.61,12.87,10.72,2.85,.49,5.59,1.44,8.16,2.78,1.68,.88,2.52,2.16,.5,3.48-5.1,3.32-8.18,8.35-11.47,13.2-1.1,1.62-2.34,2.78-3.9,.99-7.96-9.17-18.84-8.66-29.45-9.09-1.11-.05-2.22,0-3.33,0Z"/><path class="cls-2" d="M1520.48,426.42c-6.87,8.16-12.11,17.75-22.47,22.45-5.23,2.37-9.92,5.93-15.17,8.25-5.63,2.49-11.63,4.17-17.47,6.18-1.38,.47-2.67,.15-3.72-.8-7.37-6.59-15.07-4.91-22.73-.78-5.16,2.78-10.04,6.1-15.24,8.79-3.88,2.01-4.53,1.02-5.33-3.35-1.91-10.52,4.99-16.1,11.73-21.7,3.04-2.52,7.26-1.57,10.94-2.2,1.42-.24,2.91-.17,4.13-1.06,5.73-4.17,12.3-3.66,18.59-2.59,10.64,1.8,20.62,1.03,30.27-4.2,8.21-4.44,17.41-6.33,26.48-9.01Z"/><path class="cls-2" d="M1884.06,144.78c6.08,7.06,13.43,13.17,16.53,22.48,2.58,7.76,8.07,13.23,15.23,16.84,13.83,6.99,22.16,19.06,29.96,31.67,.82,1.32,1.54,2.69,2.33,4.02,1.96,3.33,2.4,6.66,1.05,10.47-3.88,10.96-2.58,15.01,6.59,22.37,3.02,2.43,6.06,4.83,9.06,7.29,.55,.45,1.53,.85,1.16,1.79-.31,.8-1.26,.88-2,.95-9.04,.87-17.68-.73-25.89-4.53-2.31-1.07-3.32-3.17-3.33-5.71-.02-3.43-.45-6.93,.05-10.29,1.37-9.34-3.23-16.51-8.22-23.45-2.9-4.03-6.44-7.59-9.78-11.29-1.73-1.91-3.16-3.99-4.28-6.3-4.08-8.37-8.57-16.5-13.44-24.45-2.58-4.22-4.35-8.96-6.28-13.55-2.61-6.23-4.98-12.55-8.74-18.33Z"/><path class="cls-2" d="M920.4,560.27c-5-.36-10.28-2.56-15.43-4.76-8.65-3.7-17.03-8.03-25.6-11.94-2.43-1.11-3.6-2.73-3.79-5.29-.56-7.84-2.13-15.55-3.24-23.32-.95-6.64,1.58-8.94,8.17-8.17,7.49,.87,12.98,4.46,17.1,10.67,3.63,5.48,9,9.17,14.54,12.43,8.27,4.86,13.95,11.61,16.03,21.01,1.91,8.63,.44,8.83-7.78,9.37Z"/><path class="cls-2" d="M414.43,640.42c4.04-1.49,7.41-1.25,10.66-1,5.13,.39,9.62-1.35,14.03-3.42,3.46-1.63,6.85-2.04,10.62-1.26,7.44,1.54,15.18,1.67,21.98,5.9,2.67,1.66,6.04,2.1,9.33,2.07,4.22-.03,8,1.64,11.77,3.26,1.17,.5,2.1,1.38,2.45,2.59,2.22,7.67,6.72,14.48,8.41,22.35,.87,4.06,.43,4.65-3.61,3.84-5.72-1.15-10.83-3.89-16.06-6.31-7.64-3.53-15.03-7.7-23.63-8.57-1.33-.13-2.31-.95-2.7-2.19-1.38-4.38-4.77-6.62-8.77-7.95-9.05-3.02-18.14-5.89-27.27-8.65-1.96-.59-4.16-.41-7.22-.67Z"/><path class="cls-2" d="M1148.71,658.45c-.09-1.46,.06-2.5,.75-3.25,5.53-6.03,9.93-13.06,16.38-18.27,4.38-3.54,9.25-6.23,14.68-7.56,10.4-2.56,19.79-7.04,28.25-13.58,2.01-1.55,4.28-2.76,6.45-4.11,.55-.34,1.18-.89,1.8-.39,.58,.48,.21,1.24,.11,1.88-.89,5.91-1.8,11.81-2.65,17.72-.77,5.36-4.15,9.47-6.65,13.99-.66,1.2-2.11,1.74-3.47,1.67-10.73-.51-20.7,3.24-31.02,5.12-8.98,1.63-15.81,5.12-20.31,13.04-.47,.83-1.02,2.06-2.1,1.91-1.45-.2-1.04-1.76-1.27-2.74-.45-1.94-.69-3.92-.95-5.46Z"/><path class="cls-2" d="M1737.81,181.21c29.28-14.37,57.88-28.41,86.48-42.44-2.6,3.02-6.23,4.56-9.21,7.03-14.7,12.14-27.38,26.07-38.18,41.77-4.14,6.02-8.73,11.71-13.02,17.63-1.3,1.8-2.41,1.68-3.67,.15-.7-.85-1.4-1.74-1.89-2.72-3.49-6.88-9.26-12.13-13.19-18.7-1.4-2.35-4.28-1.79-7.32-2.71Z"/><path class="cls-2" d="M669.6,344.42c5.04,1.09,7.74,5.03,11.15,7.85,3.67,3.04,6.79,6.67,9.24,10.82,2.31,3.93,5.73,6.49,10.06,7.67,6.18,1.69,9.59,6,11.77,11.65,1.95,5.06,3.95,10.1,5.89,15.17,1.07,2.79,.37,4.11-2.61,4.2-4.76,.13-9.53,.07-14.29-.16-7.56-.37-11.99-5.69-16.34-10.89-3.44-4.12-5.45-9.37-10.4-12.31-1.66-.98-1.77-3.36-1.66-5.2,.6-9.66-1.55-19.06-2.79-28.79Z"/><path class="cls-2" d="M1230.13,679.87c10.74-6.89,12.4-19.21,18.89-28.47,5.34-7.63,11.11-14.92,16.64-22.39,1.34-1.81,3.25-2.16,5.3-2.21,1.9-.04,2.78,.9,2.95,2.8,.87,9.34,.88,18.52-2.68,27.48-3.89,9.79-3.71,20.43-5.83,30.6-.71,3.42-.92,3.75-3.94,2.04-4.05-2.3-8.16-4.57-11.84-7.39-5.16-3.95-10.72-3.48-16.48-2.48-.74,.13-1.41,.7-3.02,.02Z"/><path class="cls-2" d="M873.6,436.82c1.59-15.31,7.19-28.35,18.87-38.84,11.74-10.54,25.96-17.38,38.28-27.01,14.19-11.09,30.48-18.41,47.11-25.03,6.49-2.59,12.62-6.01,19.22-8.34,1.46-.52,2.94-1.09,4.52-.4,.62,.27,1.24,.61,1.33,1.35,.1,.81-.53,1.18-1.16,1.42-2.79,1.1-5.53,2.36-8.39,3.21-10.68,3.16-20.7,8-30.95,12.19-10.51,4.3-19.43,11.47-28.43,18.32-6.54,4.98-12.18,10.96-18.29,16.41-3.77,3.36-7.03,7.17-9.33,11.61-2.64,5.07-6.1,9.5-9.65,13.9-.97,1.2-2.07,2.42-2.62,3.83-3.57,9.22-9.81,17.14-12.82,26.62-.29,.91-.51,2.2-1.8,2.04-1.68-.22-3.28-.95-3.94-2.67-1.08-2.8-1.58-5.76-1.96-8.62Z"/><path class="cls-2" d="M1098.5,732.04c-2.48-.05-1.2-1.7-.85-2.71,2.44-6.96,6.17-13.22,10.56-19.11,1.39-1.86,2.61-3.85,4.02-5.7,3.02-3.97,7.1-6.72,11.96-7.13,8.66-.73,16.18-4.44,23.83-7.88,4.14-1.86,8.12-4.08,12.22-6.05,1.01-.49,2.22-1.77,3.27-.6,.91,1.01-.02,2.37-.54,3.4-1.77,3.48-4.26,6.48-6.84,9.36-6.36,7.09-12.66,14.33-20.37,19.98-10.47,7.66-22.24,12.77-34.81,16-.75,.19-1.53,.28-2.45,.44Z"/><path class="cls-2" d="M734.87,370.51q-.02-7.43,6.57-3.99c1.87,.97,3.71,2.01,5.65,2.83,4.38,1.87,8.08,4.3,10.21,8.91,1.21,2.63,3.71,4.45,6.51,5.42,8.35,2.9,12.87,8.64,15.29,17.2,2.72,9.64,5.06,19.24,5.71,29.22,.05,.73,.4,1.71-.49,2.08-.86,.35-1.36-.57-1.86-1.09-3.39-3.51-6.59-7.24-9.11-11.4-4.96-8.19-11.48-14.88-19.03-20.62-3.49-2.66-6.22-5.96-8.91-9.34-1.65-2.08-3.35-4.13-5.19-6.05-5.28-5.5-5.31-5.47-5.33-13.17Z"/><path class="cls-2" d="M983.02,601.9c7.25,2.18,15.61,2.3,22.02,9.45,3.44,3.84,5.48,6.23,3.31,11.28-1.12,2.61,.91,5.09,3.03,6.88,11.83,10,22.82,20.96,35.02,30.54,.64,.5,1.81,.96,1.43,1.98-.37,1.01-1.57,.7-2.38,.6-10.06-1.23-19.63-3.63-27.08-11.2-8.16-8.3-16.75-16.11-26.13-23.04-1.09-.81-1.98-1.81-2.5-3.05-2.06-4.9-5.32-8.88-9.17-12.48-2.19-2.05-3.83-4.58-5.35-7.17-.98-1.67-.63-2.72,1.42-2.97,1.87-.22,3.73-.47,6.37-.81Z"/><path class="cls-2" d="M1237.55,549.09c3.69-6.05,9.21-10.44,13.74-15.72,6.66-7.76,14.62-14.19,22.42-20.77,2.41-2.04,5.15-2.77,8.28-2.91,11.9-.52,23.71,.39,35.47,2.04,.76,.11,1.71,.03,2.08,.79,.51,1.04-.54,1.56-1.08,2.18-2.75,3.18-6.43,5.1-10.07,6.96-5.53,2.83-11.2,5.37-16.8,8.07-3.82,1.84-7.89,1.91-12.03,1.98-12,.19-22.27,5.12-31.58,12.22-3.17,2.42-6.74,3.74-10.43,5.16Z"/><path class="cls-2" d="M1038.92,750.49c-2.6,.03-4.99-.75-7.42-1.6-13.64-4.8-26.35-11.6-39.33-17.84-5.79-2.79-11.14-5.91-15.35-10.79-1.68-1.94-3.21-3.98-3.72-6.57-.22-1.14-.13-2.32,.91-2.99,1.09-.7,2.15-.08,3.05,.6,.61,.46,1.24,1,1.63,1.64,2.63,4.4,6.66,6.25,11.6,6.65,6.25,.51,12.13,2.62,18.02,4.53,9.81,3.17,19.61,6.36,29.16,10.28,4.3,1.77,7.47,4.41,7.85,9.34,.39,5.15-1.3,6.86-6.4,6.76Z"/><path class="cls-2" d="M939.53,516.95c1.75,.24,4.28,.54,6.8,.94,1.24,.2,2.49,.74,2.79,2.06,.64,2.79,2.76,3.83,5.08,4.74,4.92,1.93,7.55,5.44,8.98,10.65,1.68,6.1,3.26,12.13,3.76,18.46,.27,3.36,2.55,6.1,3.63,9.24,.3,.88,1.2,1.99,.06,2.67-1.06,.64-1.83-.49-2.46-1.2-3.92-4.36-7.37-9.15-12.14-12.7-.71-.53-1.31-1.23-2.08-1.65-6.96-3.75-11.9-9.48-15.95-16.1-.63-1.04-1.26-2.19-2.18-2.92-2.9-2.27-3.31-5.27-3.1-8.63,.28-4.35,1.6-5.64,6.82-5.59Z"/><path class="cls-2" d="M527.02,745.22c2.72,.21,5.79,.88,8.61,2.7,7.69,4.97,15.78,8.61,25.08,10.07,7.25,1.14,14.25,4.13,20.95,7.42,.79,.39,1.54,.88,2.26,1.41,1.25,.92,2.92,2.04,2.16,3.66-.65,1.38-2.4,.24-3.66,.18-6.15-.33-12.07-1.64-17.79-3.93-2.17-.87-4.53-1.09-6.88-.97-7.89,.38-15.74-.66-23.61-.72-3.92-.03-7.32-1.2-9.96-4.42-2.45-2.98-5.62-5.33-7.46-8.87-1.13-2.17-.75-3.53,1.48-4.48,2.67-1.14,5.35-2.2,8.85-2.04Z"/><path class="cls-2" d="M1208.43,537.57c.66-12.34,9.34-19.73,16.62-27.93,1.13-1.27,1.78-4.27,3.92-3.17,1.87,.96,.96,3.64,.52,5.54-2.48,10.59-5.42,21.04-11.55,30.22-3.98,5.96-5.65,12.7-7.19,19.51-.3,1.31-.5,2.66-1.63,3.53-1.16,.9-1.8,3-3.62,2.42-1.88-.6-2.91-2.37-3.35-4.27-.39-1.72-.71-3.49-.74-5.25-.11-5.64-.07-11.29-.08-16.93,0-.33,.06-.66,.14-.98,.54-2.24,.63-5.2,2.59-6.18,1.52-.76,2.25,2.53,4.37,3.51Z"/><path class="cls-2" d="M786.89,737.37c0,1.27,.03,1.94,0,2.6-.03,.65,.1,1.43-.59,1.79-.91,.47-1.43-.33-1.96-.83-2.4-2.3-4.89-4.57-6.69-7.38-4.83-7.53-11.88-13.45-15.57-21.86-4.02-9.16-6.04-18.7-6.45-28.61-.08-1.88-.41-4.6,1.87-5.15,1.92-.46,3.11,1.85,4.07,3.41,1.09,1.78,1.84,3.77,2.71,5.68,2.21,4.83,4.15,9.79,7.68,13.91,1.67,1.94,2.69,4.32,3.65,6.69,2.48,6.18,5.24,12.23,8.99,17.77,2.63,3.89,1.23,8.44,2.29,11.97Z"/><path class="cls-2" d="M1186.93,452.86c2.42,2.48,3.87,5.31,3.65,8.63-.51,7.63-.14,15.24,.12,22.85,.25,7.23-.92,14.34-1.64,21.49-.56,5.55-1.95,11.24,2.28,16.18,.5,.58,.69,1.74,.51,2.52-.93,4.21-1.99,8.39-3.09,12.56-.21,.8-.63,1.88-1.72,1.71-.85-.13-.91-1.14-1.11-1.88-2.47-9.12-2.41-18.41-1.45-27.68,.38-3.63,.86-7.23,.86-10.89,0-15.14,2.2-30.21,1.6-45.48Z"/><path class="cls-2" d="M1185.47,445.62c-1.93-2.93-2.69-5.45-2.83-8.05-.33-5.87-.12-11.69,1.35-17.48,2.23-8.74,2.31-17.65-.19-26.27-2.12-7.3-6.14-13.44-13.06-17.68-5.05-3.09-9.42-7.37-12.33-12.76-.43-.81-1.26-1.91-.35-2.71,.72-.64,1.62,.3,2.42,.6,7.35,2.73,11.59,9.09,16.65,14.43,1.99,2.1,3.94,4.17,6.3,5.85,3.54,2.52,5.02,5.84,3.73,10.11-.8,2.62-.55,4.96,1.14,7.21,1.94,2.58,2.21,5.61,1.35,8.57-1.77,6.11-1.21,12.57-3.01,18.66-1.81,6.13-1.49,12.42-1.17,19.52Z"/><path class="cls-2" d="M1763.14,475.03c.36-6.13-1.38-11.94-1.87-17.89-.72-8.7-5.15-15.96-10.04-22.87-1.88-2.65-1.36-3.67,1.47-4.68,3.62-1.28,7.25-2,11.09-1.74,1.79,.12,2.86,.64,2.73,2.81-.69,11.5-1.07,23.01-.96,34.53,.03,3.46-.92,6.7-2.42,9.83Z"/><path class="cls-2" d="M839.77,253.93c-5.46,4.85-11.55,6.69-18.18,7.03-2.23,.12-4,1.18-5.77,2.36-1,.67-2.32,2-3.23,1.28-3.74-2.97-8.28,.02-12.17-1.95-1.61-.82-3.45,.44-4.92,1.46-1.85,1.28-3.21,1.48-3.84-1.16-.21-.88-.62-1.78-1.47-2.13-3.62-1.53-.97-2.68,.38-3.17,3-1.08,6.21-1.9,9.39-.82,2.77,.95,5.32,.68,8.12-.05,4.57-1.21,9.48-1.21,13.54-4.14,.39-.28,1.32-.41,1.57-.17,4.44,4.27,9.32,.52,13.96,.85,.74,.05,1.47,.34,2.61,.62Z"/><path class="cls-2" d="M982.03,573.13c0,1.11,.04,2.21,0,3.32-.05,1.23-.08,2.59-1.64,2.88-1.42,.26-2.38-.68-2.87-1.82-1.4-3.24-2.91-6.47-3.9-9.85-.88-3.01,.65-4.7,3.88-5.27,3.12-.55,3.86,1.25,4.02,3.8,.08,1.32,.36,2.63,.46,3.95,.08,.99,.02,1.99,.02,2.99h.03Z"/><path class="cls-2" d="M954.01,486.38c2.52-.4,3.68,.8,3.5,3.53-.23,3.43,.37,6.79,1.01,10.15,.15,.82,.56,1.89-.57,2.29-.85,.3-1.41-.5-1.84-1.11-2.4-3.39-4.17-7.21-7.62-9.85-1.17-.9-.81-2.39,.4-3.44,1.42-1.23,3.09-1.62,5.13-1.57Z"/><path class="cls-2" d="M1148.46,289.52c-5.82,.03-11.26-2.06-16.91-3.03-.96-.17-2.11-.52-1.88-1.85,.18-1.09,1.11-1.63,2.18-1.72,.87-.07,1.77-.07,2.63,.08,5.44,.91,10.86,1.99,16.14,3.64,1.13,.35,2.88,.5,2.64,1.95-.26,1.51-2.03,.74-3.14,.91-.54,.08-1.1,.01-1.65,.01Z"/><path class="cls-2" d="M1009.16,294.07c-5.07,.6-10.83,.93-16.4,2.62-1.2,.36-2.91,1.34-3.52-.33-.71-1.95,1.42-2.3,2.64-2.62,6.87-1.78,13.89-2.85,20.95-3.51,1.29-.12,2.91-.05,2.93,1.85,.01,1.6-1.39,1.84-2.62,1.96-1.1,.11-2.22,.02-3.99,.02Z"/><path class="cls-2" d="M946.79,313.2c-.36,1.16-1.05,1.76-1.87,2.09-6.45,2.61-12.91,5.18-19.39,7.72-.7,.28-1.58,.55-2.03-.4-.34-.74,.26-1.28,.76-1.67,1.21-.96,2.39-2.02,3.76-2.71,5.06-2.54,10.33-4.55,15.83-5.93,1.17-.29,2.4-.48,2.94,.89Z"/><path class="cls-2" d="M1093.51,281.62c1.99,0,3.98-.03,5.97,.02,.68,.01,1.39,.28,1.47,1.06,.1,.99-.66,1.41-1.47,1.41-6.43,.07-12.77,.97-19.11,1.88-1.54,.22-2.59-.86-2.59-2.39,0-1.61,1.46-1.37,2.5-1.43,4.41-.27,8.82-.49,13.23-.73v.17Z"/><path class="cls-2" d="M1339.17,533.05c11.76-2.91,23.52-5.82,35.29-8.73-11.01,5.97-22.82,8.68-35.29,8.73Z"/><path class="cls-2" d="M869.3,198.53q-1.78,6.16,4.59,8.26c1.36,.45,2.67,1.06,3.99,1.64,.71,.32,1.54,.73,1.02,1.7-.44,.83-1.41,.87-2.04,.43-3.36-2.3-7.15-2.66-11.06-2.69-1.41,0-1.69-1.29-1.95-2.34-.51-2.07,.16-3.96,1.53-5.44,.94-1.02,2.36-1.48,3.93-1.56Z"/><path class="cls-2" d="M890.99,244.62c2.59,1.51,4.7,1.72,7.11,.95,5.91-1.91,6.95-1.58,12.29,2.7-.36,1.05-1.29,.68-1.93,.62-4.81-.51-9.67,.6-14.46-.61-1.7-.43-2.79-1.12-3.01-3.65Z"/><path class="cls-2" d="M895,300.82c1.55-.75,2.86-1.64,4.17-2.64,5.2-3.94,10.25-2.37,12.52,3.76,.22,.6,.76,1.24,.12,1.81-.57,.5-1.27,.2-1.85-.11-.58-.31-1.35-.62-1.59-1.13-1.73-3.84-4.67-2.79-7.57-2-1.88,.51-3.72,1.37-5.8,.31Z"/><path class="cls-2" d="M1188.34,298.74c3.52,.3,6.89,1.24,10.03,2.95,1.05,.58,2.38,1.14,1.57,2.71-.73,1.42-2.04,1.08-3.19,.66-3.1-1.14-6.19-2.31-9.23-3.57-.92-.38-2.56-.58-2.15-1.98,.38-1.27,1.92-.56,2.98-.77Z"/><path class="cls-2" d="M1689.84,350.12c9.41-7.62,19.77-13.83,30.01-20.21-9.13,8.02-19.58,14.1-30.01,20.21Z"/></g></g></svg>