<?xml version="1.0" encoding="UTF-8"?><svg id="clouds-front" xmlns="http://www.w3.org/2000/svg" viewBox="0 0 2263.2 1394.49"><defs><style>.cls-1{fill:#edcb8a;opacity:.3;}</style></defs><path class="cls-1" d="M2263.2,1249.7s-.03-10.39-.09-28.58v-61.43h-.19c-.57-188.57-1.85-606.03-1.85-584.07,0-28.31-47.72-25.96-47.72-25.96-23.68,0-38.11,14.98-49.5,35.75-5.11-1.82-10.5-2.75-15.92-2.76-14.26,0-27.78,6.36-36.88,17.34-9.72-15.72-26.89-25.3-45.37-25.31-14.16,0-27.74,5.62-37.76,15.64-10.01,10.01-15.64,23.59-15.64,37.76,.01,6.27,1.13,12.5,3.3,18.38-12.95,2.52-24.29,9.71-32.11,19.89-2.01-.4-4.07-.61-6.16-.61-6.69,0-13.15,2.11-18.53,5.95-3.33-.84-6.77-1.29-10.26-1.3-23.15,0-41.93,18.77-41.93,41.93,0,2.22,.18,4.44,.54,6.63-13.94,2.31-26.33,10.2-34.32,21.85-8.01-13.95-22.87-22.56-38.95-22.56-11.91,0-23.34,4.73-31.76,13.16-8.42,8.43-13.16,19.85-13.16,31.76,0,1.31,.07,2.63,.19,3.94-.05,0-.09,0-.14,0-15.61,0-30.59,6.2-41.64,17.25-10.54,10.54-16.66,24.68-17.19,39.53-1.7-.28-3.44-.43-5.19-.43-7.92,0-15.55,2.95-21.41,8.27-5.36-10.89-16.44-17.78-28.58-17.79-15.24,0-27.97,10.7-31.12,24.99-.31,0-.63-.03-.94-.03-13.26,0-26.05,4.94-35.87,13.85-8.99-18.24-27.55-29.79-47.88-29.8-29.49,0-53.39,23.91-53.39,53.39,0,5.23,.78,10.37,2.26,15.3-3.74-1.74-7.87-2.72-12.18-2.72-11.35,0-21.65,6.65-26.33,17-3.14-1.39-6.54-2.11-9.97-2.12-11.09,0-20.83,7.39-23.82,18.07-5.73-5.12-13.14-7.95-20.82-7.96-15.98,0-29.39,12.05-31.1,27.94-1.91-.37-3.85-.56-5.8-.56-4.79,0-9.51,1.1-13.81,3.21-2.67-16.59-16.99-28.8-33.8-28.8-11.39,0-22.04,5.67-28.41,15.12-2.64,.65-5.18,1.6-7.59,2.85v30.27c-8.95-9.58-21.64-15.36-35.35-15.36-19.02,0-36.28,11.14-44.11,28.48-5.26-2.33-10.95-3.54-16.71-3.55-18.59,0-34.9,12.38-39.9,30.28-9.59-8.58-22.01-13.32-34.88-13.33-7.66,0-14.97,1.66-21.57,4.64-8.11-19.15-27.08-32.59-49.19-32.59-20.33,0-38.9,11.56-47.88,29.8-9.82-8.91-22.61-13.85-35.87-13.85-15.74,.02-30.67,6.97-40.81,19.01-10.99-14.95-28.39-23.84-46.94-23.99,.37-2.63,.55-5.28,.56-7.93,0-15.61-6.2-30.59-17.24-41.63-11.04-11.04-26.02-17.25-41.64-17.25-.05,0-.09,0-.14,0,.12-1.31,.19-2.62,.19-3.94,0-11.91-4.73-23.34-13.16-31.76-8.43-8.43-19.85-13.16-31.76-13.16-16.09,0-30.95,8.6-38.95,22.56-7.99-11.65-20.38-19.54-34.32-21.85,.35-2.19,.54-4.41,.54-6.63,0-23.16-18.77-41.93-41.93-41.93-9.96,.01-19.59,3.57-27.17,10.03-6.45-17.52-21.57-30.39-39.89-33.96,2.17-5.89,3.29-12.11,3.3-18.38,0-14.16-5.62-27.74-15.64-37.76-10.02-10.02-23.6-15.64-37.76-15.64-18.48,.01-35.65,9.59-45.37,25.31-9.1-10.98-22.62-17.33-36.88-17.34-5.43,.01-10.81,.94-15.92,2.76-11.39-20.76-33.18-33.67-56.86-33.67-28.31,0-53.35,18.38-61.86,45.39-11.55-9.36-25.97-14.48-40.84-14.48-9.83,.23-19.47,2.69-28.2,7.19v430.3h-.06v232.23h2002.89v-142.22h.09Z"/></svg>