<?xml version="1.0" encoding="UTF-8"?><svg id="right-mountain" xmlns="http://www.w3.org/2000/svg" viewBox="0 0 349.91 1073.36"><defs><style>.cls-1{fill:#b67333;}.cls-2{fill:#b46f2d;}.cls-3{fill:#ae6c2c;}</style></defs><g id="_N8tMk.tif"><path class="cls-2" d="M349.68,1073.36H85.55c-4.21-5.11-5.19-11.46-6.29-17.62-1.99-11.08-3.51-22.25-5.21-33.39-1.18-7.74-2.54-15.46-3.44-23.23-1.19-10.24-2.19-20.51-3.88-30.69-1.87-11.31-3.99-22.55-6.51-33.74-1.67-7.44-2.74-15.14-5.06-22.3-4.06-12.5-7.83-25.05-9.77-37.99-3.17-21.13-7.29-41.94-13.92-62.32-5.32-16.35-8.5-33.33-13.08-49.92-6.41-23.26-8.88-47.33-13.8-70.91C.99,673.97-.05,656.38,.5,638.71c.07-2.28,.15-4.58-.5-6.82v-16.67c1.11-4.87,1.46-9.87,1.48-14.8,.05-14.05,3.6-27.19,9.05-40.01,4.57-10.74,9.3-21.42,12.77-32.6,1.58-5.11,3.24-10.28,6.14-14.82,5.52-8.67,9.45-18.09,13.81-27.35,4.35-9.26,4.74-18.41,2.86-27.92-1.87-9.47-4.69-18.75-6.5-28.23-3.64-19.06-6.88-38.21-10.26-57.32-1.42-8-3.37-15.98-3.47-24.12-.22-17.91-.27-35.83,.06-53.74,.28-15.46,2.75-30.65,6.97-45.55,2.26-7.99,4.81-15.91,4.56-24.44-.14-4.87,1.65-9.36,4.6-13.34,8.03-10.84,16.49-21.34,25-31.8,4.39-5.39,9.23-10.59,12.39-16.84,7.77-15.35,19.75-26.08,35.18-33.18,2.43-1.12,4.11-2.7,4.98-5.2,1.61-4.65,4.1-8.84,6.75-12.95,1.5-2.32,3.5-4.57,3.7-7.37,.22-3.01,1.63-5.08,3.81-6.73,2.59-1.95,3.49-4.51,3.87-7.63,.89-7.33,3.37-13.93,9.6-18.57,2.61-1.94,5.09-4.05,7.69-6,2.94-2.2,5.15-4.95,5.93-8.55,.86-3.93,2.89-6.95,5.89-9.56,4.3-3.75,7.53-8.12,7.27-14.31-.1-2.22,1.09-3.91,2.94-5.29,3.76-2.79,7.41-5.73,11.06-8.67,1.32-1.06,2.83-2.05,3.04-3.99,.9-8.44,6.48-12.4,14.05-13.64,10.15-1.65,20.21-.27,30.02,2.6,11.79,3.44,22.75,8.89,33.72,14.34,6.42,3.19,13.06,6.01,20.28,6.85,3.6,.42,7.29,.13,10.88,.6,7.29,.95,12.51,5.57,17.12,10.76,8.27,9.31,16.75,18.37,26.17,26.54,4.37,3.79,6.51,8.47,6.5,14.83-.17,330.22-.15,660.45-.15,990.67,0,1.82-.05,3.64-.08,5.46Z"/></g><g id="_hUYST.tif"><g><path class="cls-1" d="M48.86,537.15c5.56,4.52,5.31,10.77,6.54,16.46,1.23,5.66,.19,11.47,1.11,17.15,1.78,11.03,3.42,22.2,8.2,32.34,4.63,9.83,7.78,20.1,11.28,30.29,7.59,22.12,13.4,44.77,19.85,67.22,2.59,9.01,3.44,18.4,5.75,27.44,2.49,9.7,5.85,19.17,8.54,28.82,3.23,11.58,6.25,23.22,9.19,34.88,3.25,12.92,8.21,25.23,13.25,37.5,2.33,5.67,4.3,11.44,6.19,17.25,1.61,4.95-.95,8.49-6.16,8.31-4.29-.14-8.53-.91-12.49-2.73-4.61-2.11-9.32-3.94-14.22-5.23-7.09-1.87-12.22-6.94-17.98-10.99-3.75-2.64-7.38-5.5-11.31-7.83-4.06-2.41-6.59-5.94-8.94-9.84-4.58-7.62-7.15-15.94-9.64-24.41-7.64-26.02-13.09-52.58-19.71-78.85-3.57-14.17-5.01-28.75-7.39-43.15-2.65-16.06-2.7-32.16-2.74-48.33-.03-12.51,1.79-24.75,4.27-36.94,.97-4.77,1.8-9.55,2.16-14.42,.26-3.55,1.41-6.95,2.8-10.18,3.58-8.33,8.43-16.06,11.45-24.77Z"/><path class="cls-1" d="M130.89,718.2c-7.29-19.5-13.24-39.29-16.03-59.93-.49-3.6-1.67-7.06-2.98-10.45-3.23-8.39-5.87-16.93-7.46-25.82-1.58-8.84-5.74-17.02-6.99-25.97-3.05-21.92-9.95-42.93-15.42-64.27-6.49-25.33-12.03-50.85-17.01-76.51-1.07-5.54-3.5-10.68-4.69-16.22-1.65-7.7-2.06-15.54-2.69-23.32-.92-11.34-2.44-22.57-4.39-33.77-.79-4.53-.04-9.16-.81-13.73-.62-3.66-.84-7.39-1.24-11.09-1.09-10.05,.89-20.02,.79-30.06-.1-10.71,.67-21.42,.97-32.14,.35-12.42,2.44-24.68,4.82-36.87,1.13-5.81,1.62-11.74,2.81-17.53,1.45-7,3.41-13.88,7.67-19.87l-.57-.47c-1.52,1.43-3.03,2.85-4.92,4.63,1.98-7.31,6.67-12.04,11.7-16.45,3.98-3.49,7.86-6.98,10.25-11.84,1.32-2.69,3.66-4.48,6.12-5.9,2.12-1.22,4.51-1.39,6.66,.48,4.17,3.62,8.54,6.74,14.57,6.11,1.77-.19,2.27,1.47,2.47,2.96,.96,7.06,3.55,13.07,10.37,16.43,.67,.33,1.33,.84,1.77,1.44,3.27,4.43,7.85,7.24,12.43,9.99,2.28,1.37,1.53,2.28-.14,3.06-3.54,1.65-7.12,3.26-10.78,4.63-3.51,1.33-6.68,3.28-9.99,4.96-6.27,3.19-8.25,9.48-11.02,15.17-.75,1.55-.19,3.22,1.06,4.49,1.68,1.7,1.5,3.35-.02,5.05-.83,.93-1.45,2.08-2.39,2.85-9.25,7.57-14.04,17.95-18.26,28.71-.17,.44-.3,.93-.56,1.32-3.46,5.19-2.4,11-2.22,16.66,.08,2.54,1.98,3.32,4.16,3.44,3.95,.21,7.1-1.96,10.39-3.65,3.83-1.96,7.62-4.04,12.11-3.85,.92,.04,2.19-.39,2.68,.48,.62,1.08-.52,1.96-1.17,2.67-6.49,7.14-10.29,15.8-13.93,24.56-1.67,4.01-1.68,4.07,2.58,5.14,1.79,.45,1.45,1.56,1.18,2.88-.84,4.02-2.99,7.67-3.35,11.82-.17,1.9-.32,3.81-.34,5.72-.03,3.46,1.09,4.56,4.6,4.82,3.29,.24,6.48-.09,9.56-1.33,3.67-1.48,7.54-2.01,11.45-2.23,2.65-.15,3.07,.43,1.6,2.71-3.92,6.11-7.78,12.28-12.11,18.09-4.09,5.49-7.37,11.39-10.3,17.52-1.59,3.31-3.88,6.06-6.15,8.92-6.75,8.48-12.3,17.49-11.24,29.13,.52,5.72,.93,11.38,2.63,16.94,1.62,5.28,1.7,11,.47,16.22-2.68,11.3-1.9,22.23,.48,33.44,4.07,19.13,8.45,38.19,12.58,57.31,2.16,9.99,3.26,20.18,4.22,30.33,1.06,11.13,4.06,21.74,6.93,32.42,3.47,12.91,6.37,25.95,8.62,39.12,.79,4.58,.54,9.36,.6,14.04,.06,4.36,.75,8.43,2.89,12.39,2.66,4.93,2.7,10.69,4.08,16.03,.69,2.67,1.28,5.39,.89,8.19Z"/><path class="cls-1" d="M196.24,632.12c-.63-2.47-1.41-4.91-1.87-7.41-2-10.87-7.17-20.76-9.61-31.48-4.16-18.23-9.29-36.23-11.94-54.8-1.37-9.63-3.94-19.06-5.22-28.73-1.38-10.41-2.8-20.84-5.69-30.94-3.23-11.31-5.88-22.73-7.64-34.35-.67-4.43-1.09-8.91-1.43-13.39-1.3-16.88-2.35-33.78-1.9-50.74,.25-9.52-1.82-18.77-3.46-28.1-1.46-8.31-1.31-16.78-.95-25.21,.08-1.97,1.36-3.54,2.3-5.2,3.16-5.58,2.73-8.96-3.14-11.52-2.9-1.27-3.14-2.51-1.77-5.53,2.48-5.47,6.32-10.02,10.02-14.65,4.07-5.09,8.47-9.88,13.9-13.6,2.91-1.99,4.89-1.34,5.48,2.08,.67,3.89,.72,7.8,.01,11.7-.45,2.48-.66,5.03,0,7.41,1.27,4.6,2.12,9.3,3.7,13.83,2.02,5.79,1.85,11.68-.32,17.4-3.76,9.94-4.82,19.9-1.81,30.32,1.58,5.47,2.2,11.22,3.18,16.86,.56,3.25,1.75,6.26,3.19,9.17,1.57,3.18,3.08,6.4,4.02,9.8,2.09,7.56,7.42,13.32,10.82,20.15,2.51,5.04,5.28,9.99,7.66,15.06,2.84,6.04,2.5,12.84-.13,18.95-4,9.29-9.12,18.12-12.29,27.77-4.68,14.22-7.82,28.65-7.06,43.86,.61,12.03,1.03,24.08,2.02,36.08,.65,7.89,2.02,15.72,2.99,23.59,.83,6.73,1.12,13.51,2.05,20.24,1.4,10.21,2.67,20.44,5.15,30.47,.06,.26,0,.55,0,.83l-.28,.06Z"/><path class="cls-1" d="M249.95,38.52c11.61-2,20.62,4.9,29.5,12.06,2.16,1.74,4.1,3.77,6.35,5.36,4.9,3.48,7.61,8.18,8.39,14.08,.98,7.44,.79,14.86-.43,22.26-.16,.98-.08,2.37-1.35,2.59-1.19,.21-1.69-1.06-2.34-1.84-7.59-9.17-12.08-20.1-17.07-30.7-4.52-9.59-12.02-13.56-22.11-13.89-4.26-.14-8.34,.74-12.43,1.71-5.96,1.42-12.14,.92-18.16,2-10.07,1.81-19.75,5.02-29.43,8.2-1.27,.42-2.52,.92-3.81,1.22-1.34,.31-2.38-.3-3.21-1.39-.95-1.24-.26-2.18,.51-3.03,7.26-8.08,13.57-17.14,23.23-22.75,.49-.29,.98-.61,1.41-.98,.7-.62,1.86-1.14,1.69-2.15-.2-1.11-1.53-.82-2.38-1.1-.6-.2-1.52,.01-1.65-.81-.12-.73,.68-1.11,1.21-1.47,6.52-4.37,13.51-7.92,20.52-11.39,2.26-1.12,5.09-1.47,7.68,.11,2.11,1.29,4.39,2.31,6.53,3.55,1.79,1.04,2.16,2.54,1.12,4.38-1.32,2.33-2.66,4.65-3.84,7.04-.58,1.18-1.05,2.5-1.21,3.8-.22,1.83,.44,3.19,2.67,3.14,2.58-.06,5.16-.01,8.62-.01Z"/><path class="cls-1" d="M174.39,98.86c13.07,.32,26.14,.8,39.18,1.75,.94,.07,1.89,.3,2.78,.61,3.18,1.1,3.57,2.65,1.38,5.22-5.74,6.77-13.36,10.28-21.85,11.37-10.26,1.32-19.72,5-29.3,8.45-4.39,1.58-8.83,3.03-13.25,4.55-2.14,.73-4.33,.59-6.52,.41-2.26-.18-2.83-1.56-2.01-3.39,1.73-3.82,3.09-7.84,5.46-11.35,3.69-5.47,7.45-10.88,11.54-16.07,.93-1.18,1.94-1.63,3.41-1.59,3.06,.09,6.12,.03,9.17,.03Z"/><path class="cls-1" d="M215.48,72.18c-.04,1.25-.94,1.67-1.75,2.16-4.52,2.73-9.61,3.54-14.67,4.57-7.65,1.56-15.27,3.27-22.91,4.93-2.82,.61-5.32,2.09-8.02,3.03-.73,.25-1.53,1.09-2.34,.16-.66-.76-.49-1.64-.04-2.41,2.36-4.12,5.36-7.47,9.78-9.63,7.89-3.85,16.5-3.56,24.83-4.89,3.75-.6,7.47-1.8,11.29-.52,1.53,.51,3.1,1,3.82,2.61Z"/></g></g><g id="_ykQcz.tif"><g><path class="cls-3" d="M182.58,841.1c-1.76-3.68-3.45-7.1-5.03-10.57-3.49-7.64-4.23-16.04-6.53-24.01-4.53-15.69-9.1-31.36-13.82-46.99-2.8-9.28-3.51-18.62-2.82-28.31,.75-10.56,1.57-21.2,.2-31.8-.25-1.96-.83-3.94-1.6-5.77-3.4-8.05-4.31-16.6-5.18-25.15-.46-4.57-1.11-9.1-2.04-13.58-.76-3.68-1.06-7.36-1.14-11.1-.19-9.55,.45-19.15-1.46-28.6-1.25-6.2-3.4-12.13-5.54-18.06-3.05-8.45-6.2-16.89-7.42-25.85-.98-7.18-1.06-14.55-2.67-21.58-3.45-15.09-3.46-30.33-3.31-45.63,.04-4.14-.54-8.23-1.33-12.24-.78-3.99-.23-7.68,1.45-11.16,5.26-10.89,11.53-21.15,19.58-30.23,3.14-3.54,4.5-7.27,3.51-12.08-.88-4.29-.23-8.77-.78-13.16-.94-7.48-1.47-15.02-4.29-22.13-1.18-2.98-1.63-6.06-1.51-9.26,.43-11.45-2.47-22.28-5.93-33.05-1.33-4.12-2.72-8.14-5.02-11.81-.66-1.05-.48-2.15-.2-3.32,1.08-4.58,1.61-9.21,1.41-13.93-.13-3.14-.73-6.16-2.64-8.64-4.36-5.67-6.55-11.81-4.81-18.98,1.78-7.31-2.88-11.38-7.74-15.28-1.48-1.19-3.21-2.07-4.87-3.03-1.5-.87-1.84-1.91-1.11-3.57,1.09-2.48,2.6-4.67,4.1-6.89,1.04-1.54,1.57-3.03,.09-4.67-.9-1-.75-2.17-.45-3.49,1.27-5.55,5.01-9.87,7.16-14.94,2.8-6.57,8.05-10.66,13.8-14.02,5.24-3.06,10.42-6.46,16.5-7.85,3.98-.9,8.01-.57,11.99-.29,3.34,.23,4.46,1.92,3.5,5.45-1.46,5.34-2.32,10.86-4.48,15.99-1.83,4.35-2.86,8.9-3.43,13.56-.26,2.13-1.03,4.08-2.4,5.75-3.22,3.93-5.85,8.28-8.78,12.42-3.01,4.23-4.58,8.99-5.36,14.05-.27,1.75-.22,3.72,.76,5.02,3.47,4.57,2.85,9.6,1.9,14.58-2.1,11.1-1,22.11,1.03,33.01,1.96,10.52,3.43,21.1,4.74,31.69,1.69,13.71,1.18,27.75,4.81,41.16,3.49,12.89,3.15,26.13,4.8,39.18,1.33,10.53,1.72,21.21,0,31.96-1.44,9.04-.03,18.31,.95,27.44,.2,1.85,1.02,3.7,1.87,5.39,2.45,4.91,4.35,9.99,5.17,15.43,1.1,7.31,4.24,14.08,5.59,21.32,.93,4.99,1.06,10.06,1.65,15.07,1.66,14.16,1.91,28.55,8.01,41.96,3.31,7.27,5.69,14.99,7.07,22.95,1.17,6.77,2.12,13.57,3.77,20.25,3.27,13.25,5.95,26.65,9.77,39.77,2.49,8.52,5.94,16.77,7.61,25.52,.81,4.21,1.02,8.45,.7,12.81-.49,6.67-.24,13.39-.29,20.1-.02,2.88-.45,5.7-.96,8.53-1.23,6.79-5.42,11.31-10.85,15.17-8.27,5.89-13.7,13.82-15.42,23.95-.57,3.37-.51,6.86-.63,10.3-.23,7.05,.18,14.14-1.68,21.22Z"/><path class="cls-3" d="M224.34,444.28c-1.53-6.45-2-12.25-2.51-18.03-1.8-20.14-1.8-40.43-5.61-60.42-1.39-7.28-1.62-14.79-1.99-22.25-.45-8.95-.75-17.93-2.02-26.84-.6-4.24-.41-8.6-.38-12.91,.05-7.91-.93-15.61-3.66-23.08-2.22-6.06-2.59-12.5-3.62-18.8-.81-4.94-3.18-9.39-4.8-14.08-.56-1.63-2.23-2.28-3.67-3.04-1.76-.93-1.96-2.05-.63-3.64,1.96-2.34,3.86-4.75,5.62-7.25,4.67-6.63,6.88-14.3,6.72-22.16-.2-9.39-3.64-17.91-10.97-24.35-1.44-1.26-2.91-2.48-4.12-3.97-3.05-3.74-6.78-6.63-10.7-9.45-6.27-4.51-12.19-9.51-18.2-14.39-1.49-1.21-2.99-2.38-4.67-3.31-2.31-1.28-3.12-3.04-2.37-5.73,1.05-3.76,2.97-7.26,3.15-11.28,.06-1.32,1.42-1.73,2.38-2.28,2.42-1.38,4.87-2.69,5.82-5.61,.29-.88,1.14-1.23,1.93-1.6,7.38-3.39,14.84-6.47,22.88-8.1,6.86-1.39,13.16-4.54,19.43-7.59,7.18-3.49,11.13-2.52,16.23,3.61,4.29,5.17,6.37,11.15,7.99,17.54,3.13,12.3,6.48,24.54,10.1,36.7,4.41,14.8,6.26,29.84,5.91,45.26-.15,6.58,.25,13.19,2.57,19.5,.43,1.16,.69,2.48,1.41,3.43,5.39,7.15,6.37,15.56,7.23,24.07,.3,2.93,1.12,5.8,1.64,8.71,1.52,8.6-.06,16.63-4.03,24.39-3.5,6.85-5.85,14.1-5.12,21.99,.26,2.77,1.81,5,3.12,7.33,1.32,2.36,2.13,4.76,.5,7.28-4.47,6.88-6.64,14.78-9.93,22.19-6.67,15.02-13.64,29.91-18.47,45.67-3.06,9.98-5.1,20.14-5.71,30.6-.21,3.68-.22,7.45-1.46,11.87Z"/><path class="cls-3" d="M182.98,854.37c.07,1.85-.63,3.39-1.69,4.81-3.33,4.43-6.62,8.9-10.03,13.27-2.58,3.3-3.62,3.13-5.08-.75-3.59-9.57-6.99-19.22-10.75-28.73-4.42-11.2-9.73-22.08-13.58-33.46-6.52-19.26-15.44-37.71-19.58-57.76-2.53-12.26-6.9-24.03-9.28-36.32-3.12-16.13-8.72-31.47-15.42-46.4-3.99-8.88-5.9-18.34-8.62-27.58-3.91-13.29-8.46-26.4-11.94-39.8-2.57-9.88-6.88-19.25-8.28-29.47-1.2-8.72-3.38-17.22-5.84-25.67-1.46-4.99-3.48-9.71-5.77-14.34-1.47-2.96-1.61-5.72,.05-8.72,3.94-7.13,6.87-14.71,9.68-22.34,.76-2.06,1.79-4.01,2.66-6.03,.54-1.26,1.66-1.71,2.79-1.56,1.36,.18,.92,1.51,.89,2.37-.13,3.98,.69,7.83,1.78,11.57,2.87,9.83,4.11,19.99,6.24,29.96,.93,4.34,3.27,8.14,4.73,12.29,5.72,16.23,10.61,32.68,13.11,49.76,1.78,12.16,5.34,23.83,9.83,35.24,4.53,11.52,6.68,23.69,9.74,35.62,1.66,6.47,3.98,12.76,5.71,19.21,2.88,10.68,4.49,21.72,9.08,31.92,4.66,10.36,8.59,21.03,14.9,30.63,5.83,8.86,9.05,18.87,11.22,29.27,3.27,15.68,9.1,30.55,15.05,45.36,3.24,8.08,6.01,16.31,7.94,24.81,.21,.93,.31,1.87,.47,2.81Z"/><path class="cls-3" d="M322.59,192.22c-3.66-6.87-8.47-12.88-13.53-18.73-2.77-3.2-4.34-7.19-6.47-10.81-1.03-1.76-2.14-3.54-3.86-4.56-6.37-3.78-11.82-9.16-19.22-11.16-3.35-.91-6.02-2.8-7.95-5.74-2.19-3.35-5.26-5.78-8.6-7.88-2.71-1.71-4.47-4.22-5.39-7.2-2.14-6.94-5.77-13.11-9.59-19.18-1.96-3.13-4.94-5-8.37-6.18-4.96-1.7-9.94-3.32-14.89-5.03-5.77-1.99-11.62-2.7-17.73-2.01-4.78,.54-9.49,.24-13.82-2.5-3.32-2.1-7.13-2.1-11.03-2.16-5.58-.08-11.14-.99-17.3-1.6,2.92-2.01,5.47-3.38,8.28-4.26,8.1-2.54,16.23-4.99,24.31-7.6,4.28-1.38,8.76-.36,13.05-1.42,1.66-.41,3.38-.66,4.98-1.22,3.31-1.15,3.58-2.27,1.02-4.79-1.63-1.59-3.56-2.88-5.36-4.29-.59-.46-1.21-.9-1.76-1.31,.12-1.05,.91-1.05,1.5-1.22,6.5-1.92,13.05-3.34,19.84-3.98,8.02-.76,16.09,.46,23.99-.63,4.55-.63,6.67,.95,8.99,4.32,5.25,7.61,11.85,14.25,15.99,22.69,3.7,7.55,7.68,14.92,12.45,21.92,4.16,6.1,6.13,13.38,7.82,20.54,3.82,16.16,9.59,31.6,16.46,46.67,2.81,6.17,4.6,12.7,6.21,19.32Z"/></g></g></svg>