<?xml version="1.0" encoding="UTF-8"?><svg id="right-castle" xmlns="http://www.w3.org/2000/svg" viewBox="0 0 748.65 1328.87"><defs><style>.cls-1{fill:#f5b86f;}.cls-2{fill:#f2a03f;}</style></defs><path class="cls-2" d="M363.03,0h3.68c.21,2.44-1.04,5.06,1.03,7.29,.21,1.82-1.77,4.15,.76,5.43,1.06,.71,1.81,1.84,.64,2.75-5.5,4.17,10.05,4.93,11.08,8.5,2.55,.64,5.41,1.33,8.13,.85,3.38-1.52,4.79,2.93,1.89,4.49-4.09,2.25-7.44,5.4-10.94,8.4-2.08,1.78-1.9,4.08-1.03,5.83,1.09,2.19,2.79,.05,4.17-.41,2.01-.81,4.32-4.34,5.28-.5,.34,1.16,.56,1.42,2.01,1.11,3.82-.83,7.29-3.17,11.43-2.67,.77,.09,1.39-.63,2.02-1.19,4.3-4.73-1.06-8.78,4.14-15.16-.35,3.04,2.86,4.96,2.19,8.12-.2,.95,1.3,2.33,.31,3.81-.43,.65,.4,.92,.76,1.38,2.05,2.8,17.44,5.35,20.7,3.25,1.6-.84,3.38,1.92,2.16,3.04-4.84,7-12.14,8.09-12.54,17.11-.41,3.58,.24,4.93,3.82,5.08,18.41,.67,37.34-1.8,55.33,.17,.78-.91-.09-1.68-.36-2.52-.92-2.83-2.25-5.8,1.8-7.48,.21-.09,.45-.51,.42-.74-.49-3.28,1.94-6.16,1.22-9.53-.34-1.56-.05-3.26,.02-4.89,.03-.71,.14-1.56,1.13-1.48,1.7,.61,.88,9.33,.36,11.16-.77,2.43,.17,4.15,2.02,5.56,7.78,4.57-4,9.23,2.29,11.42,3.21,1.51,9.34,2.1,11.13,5.06,0,.86-.79,1.45-1.39,1.39-2.39-.25-3.25,1.87-4.67,2.97-1.87,1.5-2.04,6.66,1.32,6.23,6.01-.17,12-.85,18.03-.62,1.21,.05,1.75-.59,1.15-1.76-1.04-2.02-.75-4.18-.82-6.31-.11-3.4,.72-7.02-2.52-9.65-1.03-4.2,.85-9.77-3.69-12.98-.86-.58-1.39-1.78-.91-2.74,1.5-3,.1-4.22-2.58-5.14-2.18-.75-1.78-3.25-2.64-4.89-.44-.83,1.01-1.41,1.81-1.72,9.87-3.86,19.34-8.75,29.74-11.2,4.94-1.17,5.77-2.71,4.09-7.57-.2-.59-.64-1.03,.02-1.58,4.09-3.66-.14-8.7,1.62-13.16,1.19,4.1,1.08,8.61,3.18,12.34-1.26,1.87,.26,3.53,.44,5.28,.11,2.18,3.7,1.59,3.63-.55-.03-6.79,5.65,1.87,10.27,.38,5.55-.05-1.04-3.5,1.85-5.52,5.45-3.75-1.96-4.82-.11-6.89,1.93-1.13,2.75-3.07,3.84-5.16,.99,1.37,.24,3,1.36,3.9,2.62,2.31-3.52,5.06,1.38,7.01,4.98,2.59-1.76,2.41-1.19,4.94,.3,.96,1.18,1.07,2.01,1.05,4.73-.4,9.75,1.91,14.2-.33,1.31-.66,2.28-.87,3.04,.6,1.53,3.8-4.13,3.86-5.82,6.42,3.16,2.46,9.57,.09,11.08,4.54,.13,1.98-2.31,1.36-2.93,2.77,3.9,3.58,18.83,1.96,18.15,9.15,.61,2.04,4.37,2.66,1,4.91-4.61,3.67-13.03,6.68-11.36,13.72,.67,14.84,1.58,29.68,4.15,44.32,1.11,6.9,4.17,13.44,3.79,20.67-.1,1.95,.75,4.01,2.41,5.46,2.22,1.94,2.32,4.27,.81,6.59-4.5,6.71,17.04,5.13,14.56,17.05-4.22,7.2,11.62,24.79,16.24,31.14,6.89,7.91,5.63,7.69,1.41,13.66-10.6,11.29,36.89,52.1,37.97,75.86-.41,7.92,9.67,23.09,6.33,26.96-5.83,6.08,3.49,18.34-5.26,22.24-3.83,1.42-9.8,5.43-9.12,10.11,2.13,4.47,1.58,11.1,5.8,14.1,9.3,6.41,8.73,15,23.89,14.56,8.33-.47,13.45,5.95,20.3,8.56,2.55,3.1,4.3,7.96,8.57,9.63,8.49,3.76,11.95,12.8,16.79,20.07,15.9,302.72,.23,612.84,5.57,917.94-.01,7.56,.66,6.86-7,6.86-234.96,0-469.92,0-704.88,0-7.38,0-6.74,.6-6.74-6.81-.67-288.55,1.28-577.24-.67-865.73,.17-5.15-6.66-5.16-9.87-7.8-11.72-5.9-16.37-17.82-17.54-30.33-1.27-17.24,4.61-26.73,20.45-33.76,2.91-1.43,.82-9.59,2.06-12.8,.16-.98,.21-2.27-.84-2.77-5.54-2.38-.1-8.85-4.67-11.48-1.24-.55-.99-1.72-.01-2.47,9.41-5.47,19.81-9.23,28.96-15.19,11.14-6.06,23.72,.83,35.44,1.28,6.5,.49,4.02-8.2,5.95-12.09,.19-.5,.07-1.13-.55-1.23-4.35-.37-2.3-5.15-4.98-6.8-5.16-2.03-9.14-6.91-15.5-6.1-3.21,.14-15.66-2.14-5.71-5.11,9.92-4.31,20.46-7.01,30.38-11.27,4.28-1.84,8.51-2.49,13.07-2.39,39.27,1.53,23.77-3.63,23.9-32.29,.24-1.65-.7-2.66-2.41-2.94-3.38-1.1-15.87-1.31-16.05-3.99-.13-1.76,2.85-1.86,4.51-2.25,8.44-1.94,16.9-3.85,25.42-5.39,3.06-.55,4.33-2.08,4.36-4.79,2.26-8.14-3.45-7.66-2-14.14,.62-2.59-.2-5.34,1.04-7.84,.36-.72-.23-1.38-.82-1.82-2.17-1.65-2.14-2.77,.63-3.7,2.19-.74,2.21-2.19,.58-3.66-.69-.62-1.6-1.12-1.56-2.14,.15-3.77-1.31-7.45-.47-11.26,.93-5.48-6.68-8.02-5.8-13.91,.15-2.21-.79-3.34-3.01-3.82-1.84-.4-4.12-.16-5.37-1.84-1.15-1.53-2.4-2.31-4.28-2.47-2.89-.09-2.93-4.35-.02-4.71,7.85-.77,15.88-.89,23.72-2.01,9.43-1.31,18.24-5.05,27.36-7.63,4.6-1.3,5.05-1.87,4.4-6.63-.3-6.72-2.32-7.06-8.28-8.93-2.57-.78-2.19-4.4,.55-4.69,1.45-.57,2.86,.07,4.17,.5,10.37,3.41,20.97,2.23,31.53,1.67,3.25,0,10.62-.79,6.06-5.28-3.38-2.23-4.79-6.61-9.15-7.05-3.66,.27-4.98-8.88-.74-6.57,5.31,2.87,11.08-1.58,16.39-2.67,3.28-1.2-2.67-2.85,2.16-5.62,3.72-2.9-5.26-2.77,.96-7.29,1.24-.95,1.41-1.91,0-2.93-1.71-1.24-1.56-3.01-.47-4.32,3.41-4.85,1.96-9.7,3.89-15.53,3,5.73-1.56,10.28,1.64,15.55,.77,1.19,.57,2.34-.45,3.32-3.32,2.66,3.12,4.85,.22,7.76-.93,1.13-.76,2.08,.53,2.73,4.69,1.97-1.21,4.17,1.61,5.82,5.68,1.89,11.2,5.46,17.5,2.02,.92-.5,1.8-1.11,2.66,.07,1.77,2.81-1.95,4.68-4.04,5.54-3.82,1.3-2.29,5.01-6.9,6.66-2.87,1.45-1.76,4.06-1.75,6.25,.44,4.75,13.27-.08,17.11,2.04,8.64,1.03,17.41-.72,25.68,3.56,6.07,3.06,10.25,.15,10.15-6.5-.18-12.46,.41-24.87,1.78-37.25,.95-4.05-3.97-2.75-4.85-5.59-.59-2.66-2.42-3.16-4.82-3.07-1.57,.06-3.7,.66-4.55-.98-1.46-2.8-3.75-2.73-6.24-2.67-4.9,.18-9.71-1.74-14.52,.22-5.7,1.49-1.55-4.21-3.94-6.22-2.59-2.31,2.31-8.22,4.57-4.8,.78,.97,2.05,1.36,3.32,1.32,23.75,1.36,47.82-.2,71.07-5.22,1.05-.36,2.67-.32,1.91-2.31-1.46-4.72-1.29-9.93-6.59-12.69,.34-3.87-2.03-4.88-5.22-6.21-3.23-1.34-5.81-4.18-9.75-4.09-1.04,.02-2.22-.5-3.1-1.12-2.68-1.58-.42-6.91,2.4-4.59,5.02,2.43,10.68,.88,15.97,.61,3.88-.75,25.82-1.59,24.63-5.92-1.55-2.26-2.71-5.65-4.46-6.63-2.14-1.2-3.54-2.36-4.68-4.36-1.01-1.77-3.09-1.81-4.8-2.39-2.33-.8-2.19-2.7-1.95-4.56,.17-1.3,1.02-1.52,2.26-1.24,8.65,1.98,15.81-1.6,23.03-6.05-3.13-1.24-3.36-2.14-1.16-4.03,.72-.63,1.49-1.16,1.47-2.17-.09-3.76,1.82-7.16,1.95-10.87Z"/><g id="ajN9gq.tif"><g><path class="cls-1" d="M250.63,326.2c-6.29,.21-12.37-1.57-18.6-1.97-1.83-.12-2.51-1.19-2.41-3.02,.1-1.87,1.16-2.41,2.74-2.32,4.79,.28,9.5-.39,14.16-1.38,1.26-.27,3.21-.06,3.37-1.8,.15-1.69-1.52-2.39-2.91-2.96-6.94-2.85-14.35-3.8-21.66-5.03-8.02-1.35-16.14-1.6-24.27-1.9-5.61-.21-11.16-1.5-16.69-2.64-2.26-.47-3.09-1.72-3.17-3.93-.29-8.74,.6-17.43,1.04-26.13,.19-3.66,.27-7.32,.33-10.98,.3-17.03,1.63-34.02,2.05-51.05,.21-8.45,1.48-16.94,2.22-25.42,.18-2.01,1.01-3.82,1.91-5.59,1.07-2.11,2.59-2.86,4.86-1.61,2.57,1.42,5.07,3.18,8.32,1.93,1.07-.41,1.95-.84,2.48-1.92,1.37-2.73,4.22-3.56,6.33-1.41,2.36,2.39,5.33,1.78,8.03,2.45,1.06,.26,1.8-.51,2.5-1.29,3.1-3.46,9.15-3.57,12.52-.26,2.93,2.87,4.14,2.72,6-.91,.46-.9,1.17-1.29,1.89-.9,3.38,1.82,7,.89,10.51,1.05,3.67,.17,3.59,.46,2.99,3.98-.75,4.44-1.44,8.98-.81,13.53,.26,1.88,.29,3.75,.36,5.63,.72,18.72-.09,37.49,.84,56.17,.88,17.63,.65,35.25,1.22,52.87,.14,4.33-.05,8.71,.76,13.03,.61,3.26,.09,3.74-3.34,3.77-1.19,.01-2.38,0-3.57,0Zm-19.12-126.51c.21,4.64,.53,9.27,.6,13.91,.03,2.12,.94,3.16,2.91,3.31,2.29,.18,2.18-1.74,2.24-3.08,.17-3.55-.02-7.12,.16-10.68,.2-4-.9-8.12,1.06-11.97,.26-.51,.2-1.18-.33-1.63-1.39-1.17-5.11-.13-5.75,1.63-1,2.76-.93,5.63-.87,8.51Zm-28.18-8.84l-1.29,.17c0,7.5-.02,14.99,.02,22.49,0,1.01,.26,2,1.72,1.83,1.32-.15,1.89-.71,1.81-2.12-.36-6.02-.64-12.04-.94-18.06-.08-1.57-.44-3.02-1.32-4.29Z"/><path class="cls-1" d="M352.1,99.27c15.22,0,26.32,.06,37.43-.05,2.29-.02,3.35,.64,3.83,2.94,.94,4.48,1.38,8.96,1.44,13.55,.13,10.51-.34,20.97-1.78,31.39-.22,1.59-.76,2.26-2.38,2.3-11.99,.34-23.83,2.2-35.74,3.28-6.74,.61-13.57,.76-20.43,.46-11.78-.52-23.59-.27-35.39-.19-2.57,.02-3.21-.74-3.46-3.33-1.35-14.01-2.11-28.02-1.72-42.09,.21-7.54-1.01-6.52,6.76-6.97,18.49-1.07,37.01-1.85,51.44-1.29Zm-14.41,10.26c2.78,1.15,5.63,1.56,8.43,1.92,3.05,.39,4.05,1.7,4.06,4.83,.01,8.04-.98,16-1.25,24-.09,2.78-.81,3.92-3.73,3.77-5.25-.27-10.49-.07-15.65,1.13-.78,.18-1.69,.22-1.84,1.17-.14,.89,.58,1.48,1.25,1.87,.76,.44,1.63,.72,2.49,.94,6.74,1.75,13.58,2.58,20.55,2.56,2.75,0,3.75-1.13,3.76-3.67,.06-11.88-.03-23.76,.47-35.63,.07-1.71,.17-2.63,2.13-2.51,.88,.06,2.06-.2,2.03-1.26-.04-1.24-1.33-.96-2.14-.93-6.33,.2-12.65,.46-18.98,.72-.57,.02-1.23,.02-1.57,1.1Z"/><path class="cls-1" d="M183.31,383.68c-.35,3.68,.02,8.25,2.17,12.58,.73,1.47,.62,2.76-1.68,2.4-12.12-1.93-24.28-3.63-36.35-5.85-5.33-.98-10.63-1.14-15.96-1.22-3.15-.05-5.22,2.14-7.25,4.18-1.04,1.05-1.85,2.33-2.9,3.38-4.36,4.39-7.4,4.93-12.92,2.39-.43-.2-1.13-.58-1.12-.86,.1-3.48-3.91-4.72-4.39-7.15-.81-4.1-4.13-5.2-6.4-7.55-.94-.97-1.48-2.01-1.53-3.41-.23-6.55,1.08-13.04,.72-19.59-.11-1.97,1.3-1.48,2.47-1.5,9.86-.18,19.53,1.67,29.26,2.71,10.52,1.12,21.04,2.42,31.49,4.09,7.31,1.17,14.48,3.15,21.73,4.65,2.08,.43,2.81,1.45,2.69,3.48-.12,2.07-.03,4.16-.03,7.27Z"/><path class="cls-1" d="M108.06,327.73c8.26-.68,16.09,1.92,24.09,3.21,6.76,1.09,13.61,1.24,20.36,2.24,8.1,1.21,16.33,1.36,24.36,3.07,1.41,.3,2.25,.89,2.29,2.55,.13,5.15,.3,10.3,.65,15.43,.15,2.16-.61,3.26-2.59,4.01-1.5,.57-3.92,1-3.8,2.77,.12,1.91,2.65,1.54,4.16,2.04,1.02,.34,2.16,.33,3.2,.63,1.63,.47,1.6,1.83,1.45,3.16-.16,1.41-1.07,1.29-2.18,1.16-12.57-1.5-25.21-2.56-37.71-4.51-13.58-2.12-27.35-3.03-40.75-6.34-2.07-.51-2.16-1.4-2.5-3.33-1.14-6.57-1.09-13.15-1.11-19.74q-.01-6.35,6.2-6.35c1.29,0,2.58,0,3.87,0Z"/><path class="cls-1" d="M330.93,282.67c-1.44,1.43-1.3,3.21-1.94,4.75-1.33,3.19-3.47,4.29-6.23,2.2-3.05-2.3-6.14-3.28-9.82-2.81-.19,.02-.43,.03-.59-.06-5.34-2.86-11.15-2.97-17.01-3.11-2.47-.06-4.78-1.31-6.85-2.7-2-1.34-3.36-2.85-3.18-5.77,.29-4.62-.07-9.3-.37-13.94-.15-2.31,.67-3.29,2.9-3.39,5.54-.27,11.07-.82,16.6-.83,9.24-.02,18.32-1.77,27.51-2.21,5.35-.25,10.7-.33,16.04-.04,3.33,.18,3.84,1.02,2.71,4.23-3.74,10.58-4.46,21.66-5.46,32.68-.26,2.89-.9,5.04-4.45,4.84-1.16-.06-2.53,.02-3.48,.58-2.88,1.69-3.27-.38-3.89-2.28-1.27-3.94-2.31-7.93-2.51-12.15Z"/><path class="cls-1" d="M189.75,384.06c0-4.07,.16-8.14-.05-12.19-.16-2.91,.32-3.82,3.64-3.23,8.54,1.5,17.16,2.57,25.78,3.56,3.37,.39,4.52,2.54,4.58,5.2,.19,9.02,.08,18.04,.1,27.07,0,1.69-.75,1.94-2.29,1.58-10.18-2.43-20.35-4.94-30.71-6.55-1.45-.23-1.02-1.27-1.02-2.04-.05-4.46-.02-8.92-.02-13.39Z"/><path class="cls-1" d="M36.02,377.51c0-2.38,.07-4.76-.02-7.13-.08-2.1-.3-4.15-2.83-4.98-1.28-.42-1.46-1.59-.92-2.71,.61-1.26,1.8-1.15,2.84-.74,2.68,1.08,5.53,1.47,8.3,2.18,6.39,1.65,13.07,.45,19.42,2.27,.38,.11,.79,.1,1.17,.2,5.17,1.38,6.5,2.81,5.46,8-1.26,6.31-1.05,12.61-1,18.92,.02,2.6-.84,3.46-3.43,3.43-5.15-.06-9.98-1.42-14.75-3.08-3.55-1.23-6.96-2.86-10.5-4.13-2.65-.95-3.73-2.71-3.66-5.41,.05-2.28,.01-4.56,.01-6.83h-.08Z"/><path class="cls-1" d="M348.52,77.97c-3.7,0-6.48,0-9.25,0-3.4,0-4.91-1.29-5.42-4.77-.28-1.86-.5-3.73-.58-5.6-.1-2.38-.38-4.52-2.99-5.57-1.35-.54-1.33-1.86-1.18-3.07,.19-1.53,1.42-1.39,2.5-1.45,10.56-.58,21.14-1.02,31.68-1.82,4.25-.32,8.48-.54,12.73-.54,.95,0,2.09-.25,2.45,1.08,.31,1.14-.39,1.84-1.21,2.48-.54,.42-1.06,.89-1.53,1.4-1.16,1.25-1.67,2.42,.68,2.78,1.25,.19,1.98,1,1.57,2.01-1.19,2.95-.16,6.06-.93,9.01-.37,1.42-.95,2.2-2.56,2.29-8.97,.48-17.86,2.27-25.96,1.76Z"/><path class="cls-1" d="M260.75,87.35c12.37,.25,24.65-.46,36.92,.36,12.57,.84,25.14,1.17,37.72,.33,.79-.05,1.59-.05,2.38-.07,11.2-.23,22.41-.25,33.59-.76,5.35-.24,10.69-.41,16.04-.41,4.16,0,4.9,.91,4.89,4.83,0,2.4-1.32,2.43-3.07,2.41-9.62-.09-19.22-.66-28.84-.56-11.01,.11-21.94,1.23-32.89,2.16-10.85,.92-21.74,1.83-32.66,1.37-.79-.03-1.8,.17-2.24-.53-1.65-2.65-4.2-2.63-6.82-2.51-.94,.04-1.83-.26-2.41-.98-1.91-2.35-4.46-2.66-7.24-2.59-3.87,.1-7.74,.05-11.61,.01-2.62-.03-2.62-.06-3.76-3.06Z"/><path class="cls-1" d="M324.44,173.58c12.65,1.75,25.48,.75,38.16,2.33,1.58,.2,2.46,.69,2.28,2.34-.16,1.52,.78,3.52-1.83,4.01-4.14,.78-8.33,.55-12.46,.31-13.45-.78-26.85-2.45-40.36-2.06-1.16,.03-2.51,.3-3.28-.89-.7-1.07-1.32-2.33-.91-3.63,.49-1.53,1.96-1.17,3.06-1.08,5.18,.43,10.1-2.17,15.33-1.31Z"/><path class="cls-1" d="M343.05,25.54c4.14-.23,8.27-.57,12.41-.65,5.73-.11,11.47-.03,17.16-.88,.49-.07,1.02-.34,1.4,.08,.51,.58,.03,1.12-.29,1.58-.56,.81-1.13,1.62-1.78,2.37-1.75,2.01-2.32,4.03-.62,6.42,.85,1.19,1.66,2.52-.69,3.43-1.19,.45-.87,2.08-.91,3.25-.04,1.42-.62,2.27-2.13,2.26-2.67-.02-5.36,.09-8.01-.15-2.08-.19-3.37-1.35-4.97-3.08-2.35-2.54-2.76-7.42-7.63-7.55-1.34-.04-1.72-1.56-1.82-2.75-.14-1.7-.74-3.05-2.12-4.33Z"/><path class="cls-1" d="M167.53,208.31c-3.27,0-6.55,.16-9.81-.04-3.61-.22-6.09-1.65-5.5-5.64,.16-1.07,.02-2.18,.02-3.27,0-5.79,0-5.84,5.94-5.62,6.24,.23,12.48-.1,18.72,.48,2.33,.22,3.17,1.27,3.25,3.29,.11,2.97,.11,5.94,.16,8.91,.03,1.64-1.03,1.93-2.37,1.92-3.47-.01-6.94,0-10.41,0v-.03Z"/><path class="cls-1" d="M150.54,271.39c-1.33,7.61,.46,15.45-1.69,23.02-.36,1.28-.55,1.8-2.08,1.6-5.84-.74-5.85-.67-5.86-6.75,0-2.77-.07-5.55,.02-8.32,.07-2.08-.46-3.85-1.73-5.53-1.68-2.21-1.7-7.87-.29-10.21,.73-1.22,1.73-1.09,2.84-.9,1.95,.34,3.91,.92,5.86,.9,2.44-.02,3.18,1,2.94,3.23-.1,.98-.02,1.98-.02,2.97Z"/><path class="cls-1" d="M184.55,164.04c3.06-2.15,2.92-5.14,2.85-8.17-.04-1.61-.42-2.85-1.8-3.81-.75-.52-2-1.2-1.42-2.29,.64-1.21,1.97-.54,2.95-.24,4.83,1.45,9.64,2.98,14.62,3.87,6.71,1.2,13,3.9,20.15,5.27-12.67,2.21-24.83,4.45-37.34,5.37Z"/><path class="cls-1" d="M285.33,327.59c-2,1.55-1.71,3.47-1.64,5.63,.3,9.1,.54,18.22-.24,27.32-.05,.58-.04,1.45-.83,1.27-1.39-.32-3.08-.43-3.6-2.16-.31-1.03-.5-2.15-.49-3.22,.05-5.16-.98-10.26-.72-15.42,.05-1.07-.2-2.16-.32-3.24-.28-2.37-1.64-3.09-3.99-3.44-7.16-1.06-14.13-3.16-22.11-4.05,3-2.76,5.7-2.14,8.17-1.5,5.56,1.43,11.08,3.01,16.72,4.1,1.8,.35,2.81,0,3.19-1.95,.9-4.59,.95-4.58,5.86-3.34Z"/><path class="cls-1" d="M169.86,326.31c-8.56,.53-16.3,.6-24.12-.45-14.8-1.98-29.54-4.5-44.51-5.23-4.28-.21-8.61-.81-12.75-2.28,8.09-.34,16.17-.42,24.24,.13,8.89,.61,17.64,2.6,26.58,2.73,2.41,.04,4.68,.85,6.95,1.5,6.04,1.74,12.23,2.4,18.48,2.62,1.49,.05,2.95,.2,5.12,.97Z"/><path class="cls-1" d="M296.85,234.35c0-1.38,.21-2.81-.05-4.14-.43-2.17,.07-2.69,2.22-1.96,4.2,1.41,8.48,2.58,12.64,4.17,2.17,.83,3.38,1.95,4.07,4.1,1.32,4.12,.52,5.07-3.72,4.82-4.13-.25-8.3-.29-12.43,0-2.26,.16-2.83-.52-2.7-2.54,.1-1.47,.02-2.96,.02-4.44h-.05Z"/><path class="cls-1" d="M137.02,175.68c15.96-2.93,32.64-5.27,49.84-4.78-.96,1.04-2.16,1.17-3.2,1.56-.82,.31-1.95,.32-2.12,1.34-.2,1.2,1.05,1.2,1.78,1.62,.75,.44,1.49,.91,2.17,1.67-16.47,.2-32.83-1.69-48.48-1.4Z"/><path class="cls-1" d="M153.8,242.53c0-.49,.04-.99,0-1.48-.25-2.4,.66-3.19,3.08-2.61,6.42,1.54,12.93,1.33,19.45,.7,2.45-.24,3.68,.51,2.77,3.16-.64,1.86,.13,4.49-1.48,5.55-1.78,1.17-3.46-1.18-5.31-1.66-2.54-.65-5.07-.85-7.54,.11-1.68,.66-3.42,.99-5.17,1.21-5.45,.71-5.79,.38-5.79-4.99Z"/><path class="cls-1" d="M307.45,212.91c0-2.38,.04-4.75-.01-7.13-.03-1.59,.64-2.15,2.18-1.83,.87,.18,1.76,.24,2.64,.38,6.66,1.06,6.76,1.08,5.45,7.72-.59,2.99-1.81,5.86-2.52,8.83-.52,2.19-1.86,2.65-3.73,2.24-1.9-.41-4.09-.58-4.04-3.39,.04-2.28,0-4.55,0-6.83h.03Z"/><path class="cls-1" d="M201.1,351.1c0,1.46,.05,2.16-.01,2.84-.09,.98-.74,1.34-1.65,1.28-.82-.05-1.24-.53-1.3-1.33-.02-.29,0-.59-.02-.89-.03-1.33,1.15-2.99-.16-3.91-1.49-1.05-3.38-1.58-5.15-2.19-1.39-.47-1.75,.38-1.61,1.6,.15,1.37,.32,2.74,.39,4.11,.05,.8-.04,1.72-1.12,1.75-.88,.02-1.51-.62-1.67-1.44-.21-1.05-.24-2.15-.3-3.23-.1-1.92,.37-3.94-1.83-5.24-.94-.56-.62-1.8-.13-2.71,.59-1.1,1.51-.78,2.3-.31,3.82,2.27,7.63,4.56,11.42,6.89,1.37,.85,.8,2.3,.85,2.76Z"/><path class="cls-1" d="M219.13,132.99c1.26,.06,1.96,.04,2.64,.14,.84,.12,2.01-.4,2.46,.48,.46,.91-.79,1.12-1.24,1.69-1.11,1.41,.23,1.3,1.03,1.47,1.37,.31,2.8,.57,1.24,2.39-.61,.72-.15,1.16,.28,1.77,.9,1.27,1.36,3.25-.14,3.75-1.55,.52-4.64,.4-4.83-1.55-.3-3.06-2.9-4-4.08-6.13-.64-1.15-2.43-2.02-1.57-3.48,.69-1.18,2.37-.38,3.6-.52,.39-.04,.79,0,.61,0Z"/><path class="cls-1" d="M156.81,304.56c-1.9,2.3-5.23,2.49-6.47,5.52-.34,.84-1.78,.48-2.77,.3-4.08-.74-8.17-1.45-12.25-2.15-.7-.12-1.62-.16-1.8-.83-.82-2.97-3.39-2.89-5.63-3.52,9.6,.66,19.1,5.04,28.92,.67Z"/><path class="cls-1" d="M320.19,197.73c.29,2.32-.48,3.26-2.85,2.29-2.17-.89-4.48-.73-6.76-.69-2.89,.05-2.45-2-2.37-3.74,.1-2.34,1.68-1.4,2.79-1.06,2.15,.65,4.33,.49,6.5,.46,1.99-.03,3.08,.61,2.69,2.75Z"/></g></g></svg>